<?xml version="1.0" encoding="UTF-8"?>
<svg id="Layer_1" xmlns="http://www.w3.org/2000/svg" version="1.1" viewBox="0 0 1405 348">
  <!-- Generator: Adobe Illustrator 29.6.1, SVG Export Plug-In . SVG Version: 2.1.1 Build 9)  -->
  <defs>
    <style>
      .st0 {
        fill: none;
      }

      .st1 {
        fill: #40b8a8;
      }
    </style>
  </defs>
  <g>
    <g>
      <circle class="st1" cx="763.89" cy="369.7" r="11.56"/>
      <circle class="st1" cx="763.89" cy="282.27" r="11.56"/>
      <circle class="st1" cx="851.31" cy="369.7" r="11.56"/>
      <circle class="st1" cx="763.89" cy="194.84" r="11.56"/>
      <circle class="st1" cx="851.31" cy="282.27" r="11.56"/>
      <circle class="st1" cx="938.74" cy="369.7" r="11.56"/>
      <circle class="st1" cx="763.89" cy="107.41" r="11.56"/>
      <circle class="st1" cx="851.31" cy="194.84" r="11.56"/>
      <circle class="st1" cx="938.74" cy="282.27" r="11.56"/>
      <circle class="st1" cx="1026.17" cy="369.7" r="11.56" transform="translate(496.87 1323.4) rotate(-80.78)"/>
      <circle class="st1" cx="763.89" cy="19.99" r="11.56"/>
      <circle class="st1" cx="851.31" cy="107.41" r="11.56"/>
      <circle class="st1" cx="938.74" cy="194.84" r="11.56"/>
      <circle class="st1" cx="1026.17" cy="282.27" r="11.56" transform="translate(583.17 1249.98) rotate(-80.78)"/>
      <circle class="st1" cx="1113.6" cy="369.7" r="11.56"/>
      <circle class="st1" cx="851.31" cy="19.99" r="11.56"/>
      <circle class="st1" cx="938.74" cy="107.41" r="11.56"/>
      <circle class="st1" cx="1026.17" cy="194.84" r="11.56" transform="translate(669.47 1176.55) rotate(-80.78)"/>
      <circle class="st1" cx="1113.6" cy="282.27" r="11.56"/>
      <circle class="st1" cx="1201.02" cy="369.7" r="11.56"/>
      <circle class="st1" cx="938.74" cy="19.99" r="11.56"/>
      <circle class="st1" cx="1026.17" cy="107.41" r="11.56" transform="translate(755.77 1103.12) rotate(-80.78)"/>
      <circle class="st1" cx="1113.6" cy="194.84" r="11.56"/>
      <circle class="st1" cx="1201.02" cy="282.27" r="11.56"/>
      <circle class="st1" cx="1026.17" cy="19.99" r="11.56" transform="translate(832.49 1027.91) rotate(-80.24)"/>
      <circle class="st1" cx="1113.6" cy="107.41" r="11.56"/>
      <circle class="st1" cx="1201.02" cy="194.84" r="11.56"/>
      <circle class="st1" cx="1113.6" cy="19.99" r="11.56"/>
      <circle class="st1" cx="1201.02" cy="107.41" r="11.56"/>
      <circle class="st1" cx="1201.02" cy="19.99" r="11.56"/>
    </g>
    <rect class="st0" x="720.17" y="-111.16" width="524.57" height="524.57"/>
  </g>
  <path class="st1" d="M1244.74-111.16V413.41h524.57V-111.16h-524.57ZM1288.45,381.25c-6.38,0-11.56-5.17-11.56-11.56s5.17-11.56,11.56-11.56,11.56,5.17,11.56,11.56-5.17,11.56-11.56,11.56ZM1288.45,293.83c-6.38,0-11.56-5.17-11.56-11.56s5.17-11.56,11.56-11.56,11.56,5.17,11.56,11.56-5.17,11.56-11.56,11.56ZM1288.45,206.4c-6.38,0-11.56-5.17-11.56-11.56s5.17-11.56,11.56-11.56,11.56,5.17,11.56,11.56-5.17,11.56-11.56,11.56ZM1288.45,118.97c-6.38,0-11.56-5.17-11.56-11.56s5.17-11.56,11.56-11.56,11.56,5.17,11.56,11.56-5.17,11.56-11.56,11.56ZM1288.45,31.54c-6.38,0-11.56-5.17-11.56-11.56s5.17-11.56,11.56-11.56,11.56,5.17,11.56,11.56-5.17,11.56-11.56,11.56ZM1288.45-55.88c-6.38,0-11.56-5.17-11.56-11.56s5.17-11.56,11.56-11.56,11.56,5.17,11.56,11.56-5.17,11.56-11.56,11.56ZM1375.88,381.25c-6.38,0-11.56-5.17-11.56-11.56s5.17-11.56,11.56-11.56,11.56,5.17,11.56,11.56-5.17,11.56-11.56,11.56ZM1375.88,293.83c-6.38,0-11.56-5.17-11.56-11.56s5.17-11.56,11.56-11.56,11.56,5.17,11.56,11.56-5.17,11.56-11.56,11.56ZM1375.88,206.4c-6.38,0-11.56-5.17-11.56-11.56s5.17-11.56,11.56-11.56,11.56,5.17,11.56,11.56-5.17,11.56-11.56,11.56ZM1375.88,118.97c-6.38,0-11.56-5.17-11.56-11.56s5.17-11.56,11.56-11.56,11.56,5.17,11.56,11.56-5.17,11.56-11.56,11.56ZM1375.88,31.54c-6.38,0-11.56-5.17-11.56-11.56s5.17-11.56,11.56-11.56,11.56,5.17,11.56,11.56-5.17,11.56-11.56,11.56ZM1375.88-55.88c-6.38,0-11.56-5.17-11.56-11.56s5.17-11.56,11.56-11.56,11.56,5.17,11.56,11.56-5.17,11.56-11.56,11.56ZM1463.31,381.25c-6.38,0-11.56-5.17-11.56-11.56s5.17-11.56,11.56-11.56,11.56,5.17,11.56,11.56-5.17,11.56-11.56,11.56ZM1463.31,293.83c-6.38,0-11.56-5.17-11.56-11.56s5.17-11.56,11.56-11.56,11.56,5.17,11.56,11.56-5.17,11.56-11.56,11.56ZM1463.31,206.4c-6.38,0-11.56-5.17-11.56-11.56s5.17-11.56,11.56-11.56,11.56,5.17,11.56,11.56-5.17,11.56-11.56,11.56ZM1463.31,118.97c-6.38,0-11.56-5.17-11.56-11.56s5.17-11.56,11.56-11.56,11.56,5.17,11.56,11.56-5.17,11.56-11.56,11.56ZM1463.31,31.54c-6.38,0-11.56-5.17-11.56-11.56s5.17-11.56,11.56-11.56,11.56,5.17,11.56,11.56-5.17,11.56-11.56,11.56ZM1463.31-55.88c-6.38,0-11.56-5.17-11.56-11.56s5.17-11.56,11.56-11.56,11.56,5.17,11.56,11.56-5.17,11.56-11.56,11.56ZM1550.74,381.25c-6.38,0-11.56-5.17-11.56-11.56s5.17-11.56,11.56-11.56,11.56,5.17,11.56,11.56-5.17,11.56-11.56,11.56ZM1550.74,293.83c-6.38,0-11.56-5.17-11.56-11.56s5.17-11.56,11.56-11.56,11.56,5.17,11.56,11.56-5.17,11.56-11.56,11.56ZM1550.74,206.4c-6.38,0-11.56-5.17-11.56-11.56s5.17-11.56,11.56-11.56,11.56,5.17,11.56,11.56-5.17,11.56-11.56,11.56ZM1550.74,118.97c-6.38,0-11.56-5.17-11.56-11.56s5.17-11.56,11.56-11.56,11.56,5.17,11.56,11.56-5.17,11.56-11.56,11.56ZM1550.74,31.54c-6.38,0-11.56-5.17-11.56-11.56s5.17-11.56,11.56-11.56,11.56,5.17,11.56,11.56-5.17,11.56-11.56,11.56ZM1550.74-55.88c-6.38,0-11.56-5.17-11.56-11.56s5.17-11.56,11.56-11.56,11.56,5.17,11.56,11.56-5.17,11.56-11.56,11.56ZM1638.16,381.25c-6.38,0-11.56-5.17-11.56-11.56s5.17-11.56,11.56-11.56,11.56,5.17,11.56,11.56-5.17,11.56-11.56,11.56ZM1638.16,293.83c-6.38,0-11.56-5.17-11.56-11.56s5.17-11.56,11.56-11.56,11.56,5.17,11.56,11.56-5.17,11.56-11.56,11.56ZM1638.16,206.4c-6.38,0-11.56-5.17-11.56-11.56s5.17-11.56,11.56-11.56,11.56,5.17,11.56,11.56-5.17,11.56-11.56,11.56ZM1638.16,118.97c-6.38,0-11.56-5.17-11.56-11.56s5.17-11.56,11.56-11.56,11.56,5.17,11.56,11.56-5.17,11.56-11.56,11.56ZM1638.16,31.54c-6.38,0-11.56-5.17-11.56-11.56s5.17-11.56,11.56-11.56,11.56,5.17,11.56,11.56-5.17,11.56-11.56,11.56ZM1638.16-55.88c-6.38,0-11.56-5.17-11.56-11.56s5.17-11.56,11.56-11.56,11.56,5.17,11.56,11.56-5.17,11.56-11.56,11.56ZM1725.59,381.25c-6.38,0-11.56-5.17-11.56-11.56s5.17-11.56,11.56-11.56,11.56,5.17,11.56,11.56-5.17,11.56-11.56,11.56ZM1725.59,293.83c-6.38,0-11.56-5.17-11.56-11.56s5.17-11.56,11.56-11.56,11.56,5.17,11.56,11.56-5.17,11.56-11.56,11.56ZM1725.59,206.4c-6.38,0-11.56-5.17-11.56-11.56s5.17-11.56,11.56-11.56,11.56,5.17,11.56,11.56-5.17,11.56-11.56,11.56ZM1725.59,118.97c-6.38,0-11.56-5.17-11.56-11.56s5.17-11.56,11.56-11.56,11.56,5.17,11.56,11.56-5.17,11.56-11.56,11.56ZM1725.59,31.54c-6.38,0-11.56-5.17-11.56-11.56s5.17-11.56,11.56-11.56,11.56,5.17,11.56,11.56-5.17,11.56-11.56,11.56ZM1725.59-55.88c-6.38,0-11.56-5.17-11.56-11.56s5.17-11.56,11.56-11.56,11.56,5.17,11.56,11.56-5.17,11.56-11.56,11.56Z"/>
</svg>