<svg width="34" height="34" viewBox="0 0 34 34" fill="none" xmlns="http://www.w3.org/2000/svg">
<path fill-rule="evenodd" clip-rule="evenodd" d="M24.9306 2.00159C24.4687 2.00173 24.0943 2.39271 24.0941 2.87505V3.06868C24.094 3.55141 24.4687 3.94278 24.931 3.94264L27.8628 3.94175L13.2417 19.3835C12.9159 19.7276 12.92 20.2827 13.2508 20.6216L13.3242 20.6967L13.3542 20.7295C13.6797 21.0858 14.2228 21.0908 14.5545 20.7406L29.1616 5.31354L29.1608 8.41979C29.1607 8.90252 29.5355 9.29389 29.9978 9.29374L30.1622 9.2937C30.6241 9.29356 30.9986 8.90256 30.9987 8.42021L31 2.87393C31.0002 2.39121 30.6254 1.99986 30.1631 2L24.9306 2.00159Z" fill="#1B1B1B"/>
<path fill-rule="evenodd" clip-rule="evenodd" d="M27.2802 27.9213C27.2802 28.1192 27.1192 28.2802 26.9213 28.2802H5.07894C4.88116 28.2802 4.72008 28.1192 4.72008 27.9213V6.07865C4.72008 5.88087 4.88116 5.71979 5.07894 5.71979H16.0371C16.5121 5.71979 16.8973 5.33481 16.8973 4.85989C16.8973 4.38499 16.5121 4 16.0371 4H5.07894C3.9327 4 3 4.9327 3 6.07865V27.9213C3 29.0676 3.9327 30 5.07894 30H26.9213C28.0676 30 29 29.0676 29 27.9213V16.2075C29 15.7328 28.615 15.348 28.1401 15.348C27.6652 15.348 27.2802 15.7328 27.2802 16.2075V27.9213Z" fill="#1B1B1B"/>
</svg>
