<svg width="34" height="34" viewBox="0 0 34 34" fill="none" xmlns="http://www.w3.org/2000/svg">
    <path xmlns="http://www.w3.org/2000/svg" class="st1" d="M12.2,21.4c-1.4,0.1-2.3-1.8-1.2-2.8c0,0,15.2-15.2,15.2-15.2h-2.6c-2.2,0-2.2-3.3,0-3.3c0,0,6.7,0,6.7,0    c0.4,0,0.8,0.2,1.1,0.4c0.1,0.1,0.2,0.1,0.2,0.2C31.9,0.9,32,1.2,32,1.6c0,0,0,0.1,0,0.1v6.7c0,2.2-3.3,2.2-3.3,0c0,0,0-2.6,0-2.6    L13.4,21C13.1,21.3,12.7,21.5,12.2,21.4L12.2,21.4z"/>
    <path xmlns="http://www.w3.org/2000/svg" class="st1" d="M28.7,32h-27C0.7,32,0,31.3,0,30.3v-27c0-0.9,0.7-1.7,1.7-1.7h14.5c2.2,0,2.2,3.3,0,3.3c0,0-12.8,0-12.8,0    v23.7H27V15.9c0-2.2,3.3-2.2,3.3,0c0,0,0,14.4,0,14.4C30.3,31.3,29.6,32,28.7,32z"/>
</svg>


