<svg preserveAspectRatio="none" width="221" height="64" overflow="visible" style="display: block;" viewBox="0 0 221 64" fill="none" xmlns="http://www.w3.org/2000/svg">
<g id="header_nhs-wales-logo 1" clip-path="url(#clip0_0_3)">
<path id="Vector" d="M52.6689 25.5178C53.2262 25.4766 53.7861 25.4887 54.3412 25.5541C58.3286 26.0219 61.4615 28.9773 63.8411 31.9948C58.9679 38.2753 53.1689 40.8633 46.1251 35.6527C47.1314 34.5734 48.1954 33.3688 49.4214 32.5552C51.1289 33.6367 52.615 34.2521 54.6585 33.8718C55.9805 33.5457 56.7669 32.9275 57.7111 31.989C55.9204 30.1014 53.8176 29.4985 51.3592 30.4185C48.4176 31.5193 46.773 33.9148 44.5899 35.9817C43.441 37.0694 41.9481 38.0736 40.61 38.9037C41.4717 36.6254 42.1112 34.4363 42.2149 31.9888C45.2081 28.7662 48.0294 25.9646 52.6689 25.5178Z" fill="var(--fill-0, white)"/>
<path id="Vector_2" d="M56.6758 38.8712L56.7843 38.9019C54.499 47.7034 47.4206 54.4475 38.7907 56.9375C38.6878 56.8 38.7438 56.7188 38.7967 56.5451C39.2615 55.0205 39.2492 53.6598 39.1693 52.0803C39.5897 51.9282 40.0047 51.7615 40.4136 51.5806C45.9542 49.1285 49.7757 44.8963 51.9454 39.2775C53.5767 39.5051 55.1036 39.3111 56.6758 38.8712Z" fill="var(--fill-0, white)"/>
<path id="Vector_3" d="M6.99756 38.7744C8.88068 39.3251 9.97754 39.3847 11.8802 39.2643C12.0103 39.6178 12.1499 39.9678 12.2989 40.3137C14.7561 46.0595 18.9345 49.7954 24.6565 52.0898C24.4367 53.8866 24.613 55.1808 25.078 56.8965C24.4189 57.0146 20.5316 55.2592 19.7884 54.8482C13.1725 51.1898 9.14757 45.9277 6.99756 38.7744Z" fill="var(--fill-0, white)"/>
<path id="Vector_4" d="M38.7138 7.03039C40.6315 7.56319 42.4831 8.31156 44.2332 9.26126C50.6288 12.7487 54.7802 18.2833 56.827 25.219C54.9408 24.6782 53.8435 24.6151 51.9488 24.7328C51.7907 24.304 51.6193 23.8803 51.4347 23.4623C48.9989 17.9105 44.7638 14.0935 39.171 11.9154C39.406 10.274 39.215 8.60376 38.7138 7.03039Z" fill="var(--fill-0, white)"/>
<path id="Vector_5" d="M24.9763 7.06932L25.0718 7.077C25.1416 7.25579 25.029 7.47702 24.9742 7.67449C24.5829 9.08642 24.5544 10.4596 24.6767 11.9113C24.3207 12.0408 23.9688 12.1814 23.6215 12.3331C17.9024 14.8043 14.1598 18.9747 11.8801 24.7143C10.3573 24.5003 8.88246 24.6899 7.40303 25.05L7.19764 25.1125L7.08927 25.051C7.04904 24.3047 8.66666 20.6939 9.11898 19.8671C12.714 13.2955 17.9206 9.24057 24.9763 7.06932Z" fill="var(--fill-0, white)"/>
<path id="Vector_6" d="M105.864 7.02221C108.208 6.96677 110.12 7.32787 112.314 8.09136L111.384 9.60395C110.317 9.16444 109.195 8.86976 108.05 8.72746C104.112 8.22841 99.2478 9.73708 98.7083 14.2637C98.5346 15.7765 98.9717 17.2961 99.9232 18.4835C101.485 20.4555 104.212 21.3271 106.658 21.2202C107.638 21.1773 109.61 21.0071 110.36 20.4104C110.626 20.0663 110.462 15.0988 110.416 14.2549C110.407 14.0099 110.383 13.7556 110.365 13.5103C111.31 13.5534 111.913 13.5931 112.858 13.5275C112.819 14.6186 112.715 21.5567 112.481 21.8297C111.806 22.6178 108.892 22.7076 107.853 22.7807C104.623 23.0077 101.037 22.5174 98.5145 20.3067C97.0772 19.0465 96.2122 17.3397 96.0855 15.4257C95.9563 13.5672 96.5855 11.7356 97.829 10.3508C99.8989 8.00869 102.872 7.19816 105.864 7.02221Z" fill="var(--fill-0, white)"/>
<path id="Vector_7" d="M80.1894 7.02224C82.4823 6.95514 84.4616 7.35147 86.6095 8.09353L85.6681 9.60287C84.0614 8.94453 82.3406 8.61032 80.6045 8.61932C78.3624 8.63034 76.2492 9.29237 74.6429 10.8957C72.3601 13.1652 72.3843 16.8279 74.7207 19.0426C76.7249 20.9576 79.6646 21.5476 82.3098 21.0922C84.788 20.6655 84.8685 20.8726 84.7964 18.3629C84.7561 16.9583 84.8064 15.5021 84.6705 14.0866C84.6638 13.8709 84.6596 13.8288 84.7175 13.6156C85.0254 13.4298 86.5264 13.5697 87.1599 13.5238C87.0559 14.5913 87.0458 21.501 86.7488 21.8492C86.112 22.5965 83.2116 22.7092 82.2353 22.7752C78.9412 22.9981 75.3404 22.5456 72.765 20.2769C71.3491 19.0298 70.4867 17.3157 70.374 15.4261C70.2612 13.5335 70.8637 11.7573 72.124 10.3399C74.1857 8.02124 77.2056 7.18801 80.1894 7.02224Z" fill="var(--fill-0, white)"/>
<path id="Vector_8" d="M87.9318 35.7386C88.7599 35.8521 89.2583 35.8432 90.0864 35.7654C89.8943 37.2392 89.8859 40.5467 89.8431 42.1611C92.3191 42.3588 96.3775 42.2078 98.9071 42.1748C98.9122 39.9394 98.9222 37.9679 98.7863 35.7363C99.5725 35.8634 100.161 35.8336 100.941 35.7735C100.807 36.8335 100.808 38.8618 100.776 39.9825C100.646 43.5881 100.677 47.1976 100.865 50.8005L100.007 50.688C99.554 50.6837 99.1429 50.7544 98.6949 50.8184C98.8795 48.2747 98.882 45.7356 98.9172 43.1861H89.8171C89.854 45.5122 89.7961 48.5248 90.0218 50.8154C89.0939 50.6494 88.7608 50.6721 87.8244 50.8163C88.0308 48.3445 88.014 45.5771 88.0283 43.0933C88.0426 40.6528 88.0602 38.1722 87.9318 35.7386Z" fill="var(--fill-0, white)"/>
<path id="Vector_9" d="M22.1224 32.7262C26.0353 35.8527 29.5731 36.6812 34.4809 37.099C34.0278 38.4289 32.9506 40.3105 31.9033 41.3267C31.821 41.4066 31.6158 41.3969 31.4898 41.4077C26.3274 40.6352 22.7516 39.6049 18.9873 35.8687L22.1224 32.7262Z" fill="var(--fill-0, white)"/>
<path id="Vector_10" d="M31.9166 22.5953C36.7389 22.8403 41.3933 24.6955 44.8294 28.1314L41.9262 31.0413C41.8996 31.0727 41.8819 31.0935 41.8538 31.115C41.836 31.1286 41.6763 31.2322 41.6749 31.2312C40.8014 30.5901 39.4931 29.6356 38.5778 29.1779C35.5865 27.6824 32.6572 27.1652 29.3693 26.907C29.8083 25.3427 30.937 23.8653 31.9166 22.5953Z" fill="var(--fill-0, white)"/>
<path id="Vector_11" d="M28.0273 19.0702C28.5057 19.3593 30.673 21.6718 31.1987 22.2059C28.1702 25.5539 27.1926 30.2094 26.8299 34.5619L26.0696 34.2865C24.7765 33.7187 23.6253 32.8486 22.5209 31.9827C22.9347 26.9932 24.488 22.6431 28.0273 19.0702Z" fill="var(--fill-0, white)"/>
<path id="Vector_12" d="M37.0162 29.4586C38.5395 29.8697 40.0604 31.0516 41.2999 32.0005C41.1264 36.38 39.3077 41.1599 36.3047 44.4132L35.7679 44.9514L32.6211 41.7972C35.6859 38.5475 36.5803 33.7067 37.0162 29.4586Z" fill="var(--fill-0, white)"/>
<path id="Vector_13" d="M71.2335 35.4377C71.3808 35.4493 71.5792 35.4658 71.6846 35.571C72.815 36.6983 73.9742 37.975 75.0574 39.1376L82.5349 47.1471C82.5776 45.2192 82.5919 43.2906 82.5778 41.3622C82.5785 39.4807 82.6062 37.6936 82.4702 35.8136C83.0644 35.8471 83.3993 35.859 83.9892 35.8119C83.8498 36.9446 83.8205 38.6853 83.7728 39.8691C83.6557 42.6258 83.5855 45.3843 83.5622 48.1434C83.5563 48.7482 83.73 50.7266 83.5243 51.0459L83.2525 51.0501C82.3279 49.8793 81.0579 48.52 80.0444 47.3929C77.5042 44.597 74.9327 41.8298 72.3303 39.092C72.2203 40.1248 72.2436 41.8797 72.2438 42.9373C72.2287 45.5545 72.2906 48.1716 72.4294 50.7851C71.8201 50.7105 71.5133 50.7301 70.9023 50.7851C71.0697 49.0921 71.0775 47.448 71.1434 45.755C71.277 42.3172 71.2378 38.8793 71.2335 35.4377Z" fill="var(--fill-0, white)"/>
<path id="Vector_14" d="M120.149 7.06438L121.225 7.06344V59.7809L120.149 59.7813V7.06438Z" fill="var(--fill-0, white)"/>
<path id="Vector_15" d="M108.351 35.5499C109.782 35.3981 111.079 35.6498 112.219 36.5553C111.965 37.1979 111.749 37.989 111.549 38.6595C111.274 38.0812 111.06 37.6081 110.602 37.1595C108.975 35.5668 105.915 36.6456 105.955 39.0248C106.009 42.1429 110.134 41.889 111.859 43.7124C113.035 44.8783 113.082 46.656 112.448 48.1381C111.522 50.3057 109.429 51.0565 107.242 51.0684C106.085 51.0457 104.737 50.6578 103.866 49.8566C104.089 49.0515 104.196 48.4085 104.305 47.5878C104.702 48.2024 105.158 48.8879 105.729 49.3456C106.473 49.9369 107.42 50.2065 108.363 50.0948C110.074 49.8978 111.342 48.212 111.05 46.5956C110.445 43.2274 104.581 44.1363 104.233 40.2473C103.987 37.484 105.714 35.864 108.351 35.5499Z" fill="var(--fill-0, white)"/>
<path id="Vector_16" d="M127.324 38.2654H128.584L130.467 44.9714C130.957 42.7851 131.581 40.4535 132.123 38.2654H133.736L135.422 44.9787L137.29 38.2654H138.509L138.162 39.3782L136.105 46.1009H134.63L132.928 39.2826L131.227 46.1009H129.689L127.324 38.2654Z" fill="var(--fill-0, white)"/>
<path id="Vector_17" d="M168.645 40.2409C170.339 40.2423 169.875 40.4047 170.804 41.0974C170.819 40.8787 170.83 40.66 170.84 40.4412C171.018 40.3228 171.583 40.3658 171.833 40.3674C171.835 41.9116 171.797 43.5938 171.848 45.1276C171.965 48.6039 169.767 49.1577 166.801 48.21C166.847 47.9013 166.878 47.5278 166.914 47.2125C168.962 48.112 170.772 48.1025 170.743 45.3054C166.746 48.7205 164.332 41.1297 168.645 40.2409ZM169.538 45.2024C171.476 44.2076 171.106 40.9934 168.712 41.1323C166.806 42.2086 167.195 45.507 169.538 45.2024Z" fill="var(--fill-0, white)"/>
<path id="Vector_18" d="M198.778 21.9689C199.269 21.9204 200.198 21.8901 200.641 22.1706C200.769 22.2509 201.063 22.6035 201.263 22.7535C201.294 22.5311 201.311 22.3347 201.328 22.1107C201.519 22.0053 202.054 22.0454 202.304 22.0481C202.306 23.6439 202.275 25.3491 202.319 26.9359C202.413 30.3463 200.133 30.8153 197.287 29.8908L197.391 28.9516C198.206 28.9937 199.946 30.1348 200.822 28.8024C201.063 28.4355 201.565 27.3145 201.092 27.024C200.768 27.0748 200.529 27.6044 200.276 27.6746C196.536 28.7093 195.532 23.3466 198.778 21.9689ZM199.931 26.909C201.989 26.0084 201.559 22.7161 199.272 22.7957C197.387 23.6829 197.5 26.9994 199.931 26.909Z" fill="var(--fill-0, white)"/>
<path id="Vector_19" d="M213.658 19.3571H214.722V27.7958C214.345 27.8064 214.122 27.8207 213.746 27.7602C213.69 27.5573 213.694 27.3592 213.686 27.1489C213.035 27.1638 212.796 28.5482 210.585 27.6633C210.411 27.544 210.25 27.4074 210.103 27.2558C208.978 26.0843 208.983 23.6369 210.194 22.5074C210.661 22.0689 211.287 21.8407 211.926 21.8756C212.658 21.9136 213.191 22.2708 213.658 22.8019V19.3571ZM212.366 27.0458C214.329 26.1064 214.098 22.8017 211.707 22.7916C209.601 23.5718 210.169 27.3312 212.366 27.0458Z" fill="var(--fill-0, white)"/>
<path id="Vector_20" d="M130.937 52.5083C134.604 52.0841 134.514 58.6973 131.027 58.5793C130.328 58.5557 129.729 58.1346 129.28 57.6341V58.9119V60.7343L128.203 60.7345V52.6465C128.516 52.6462 128.828 52.6488 129.14 52.6539C129.331 52.8486 129.106 53.0123 129.261 53.3565C129.868 52.7892 130.133 52.6499 130.937 52.5083ZM131.242 57.6445C133.134 56.7878 133.067 53.23 130.549 53.4072C128.653 54.31 128.813 57.6501 131.242 57.6445Z" fill="var(--fill-0, white)"/>
<path id="Vector_21" d="M130.581 21.9629C131.549 21.8883 132.341 21.9659 133.008 22.76C134.025 23.9535 133.857 26.4182 132.659 27.4263C131.703 28.2312 130.137 28.0952 129.349 27.1117C129.244 27.2525 129.282 27.818 129.28 28.0473V30.1507H128.203V22.0483C128.48 22.0424 128.948 22.0099 129.196 22.0842C129.214 22.3011 129.235 22.5178 129.258 22.7341C129.74 22.4789 129.769 22.2126 130.544 21.9739L130.581 21.9629ZM131.116 27.08C133.225 26.3662 132.972 22.605 130.637 22.7979C128.583 23.647 128.891 26.9985 131.116 27.08Z" fill="var(--fill-0, white)"/>
<path id="Vector_22" d="M184.35 52.5129C187.368 52.1714 187.889 56.3694 186.159 57.9698C185.717 58.387 185.124 58.6055 184.517 58.5748C183.797 58.5353 183.225 58.1689 182.755 57.6508V58.8279V60.7342H181.691V52.6465C181.99 52.6411 182.433 52.6057 182.703 52.7024C182.713 52.8933 182.708 53.1035 182.785 53.2757C183.413 52.8321 183.598 52.6562 184.35 52.5129ZM184.763 57.6258C186.643 56.7623 186.458 53.0996 183.99 53.4152C182.016 54.4257 182.442 57.8266 184.763 57.6258Z" fill="var(--fill-0, white)"/>
<path id="Vector_23" d="M91.147 7.63531C92.038 7.72851 92.3954 7.74184 93.2899 7.64103C93.1984 8.58836 93.1665 9.64516 93.1447 10.6006C93.0574 14.5623 92.8922 18.7356 93.2252 22.6833C92.2587 22.5313 91.9793 22.5639 91.0236 22.6933C91.2149 20.9727 91.2074 18.5416 91.2284 16.806C91.2905 13.749 91.2636 10.6908 91.147 7.63531Z" fill="var(--fill-0, white)"/>
<path id="Vector_24" d="M171.122 9.72967C172.734 9.36771 174.332 10.3885 174.686 12.0058C175.04 13.6232 174.014 15.2204 172.399 15.5674C170.794 15.9121 169.213 14.8921 168.862 13.2852C168.51 11.6784 169.521 10.0892 171.122 9.72967ZM171.978 14.7951C174.327 14.186 173.991 10.4952 171.527 10.5212C169.181 11.2818 169.637 14.8556 171.978 14.7951Z" fill="var(--fill-0, white)"/>
<path id="Vector_25" d="M141.671 40.2566C143.298 40.1125 144.739 41.3099 144.899 42.9407C145.059 44.5714 143.878 46.0269 142.253 46.2033C140.605 46.3822 139.128 45.1787 138.966 43.5249C138.804 41.8712 140.019 40.4027 141.671 40.2566ZM142.379 45.3381C144.5 44.4405 144.038 40.9369 141.55 41.1294C139.283 42.1306 139.883 45.6808 142.379 45.3381Z" fill="var(--fill-0, white)"/>
<path id="Vector_26" d="M70.8323 53.3841C71.3903 53.4167 71.8719 53.3991 72.4271 53.3812C72.7465 54.899 73.2565 56.6273 73.6689 58.1333C74.2124 56.6023 74.8401 54.9291 75.2976 53.3877C75.6535 53.3909 75.8624 53.3899 76.2199 53.4493C76.4105 53.5974 77.6288 57.5927 77.7978 58.1233C78.2488 56.7467 78.6637 55.3741 79.0394 53.9751C79.0906 53.7845 79.3095 53.4566 79.4975 53.3918C79.75 53.3047 79.7566 53.3225 79.9704 53.4151C80.0991 53.7009 79.6785 54.5961 79.537 54.978C78.9586 56.6248 78.4113 58.2825 77.8953 59.9501C77.4807 59.8804 77.2997 59.9098 76.8891 59.9514C76.4635 58.367 75.9393 56.8683 75.3772 55.3314C75.0886 56.1232 74.0281 59.3155 73.714 59.8925C73.3292 59.8661 73.1597 59.8805 72.7859 59.8866C72.7172 59.7492 72.6483 59.6098 72.6084 59.461C72.0609 57.4228 71.4072 55.4143 70.8323 53.3841Z" fill="var(--fill-0, white)"/>
<path id="Vector_27" d="M88.9084 25.5548C89.2264 25.5568 89.3976 25.5498 89.7139 25.6274C90.1896 26.3846 91.4264 29.0793 91.9063 30.0467C92.5616 28.8555 93.4996 26.6236 94.1222 25.6715C94.4091 25.5859 94.6298 25.6113 94.9259 25.6231C95.0929 25.9754 95.6509 31.2396 95.7952 32.1295C95.1198 32.0797 94.9117 32.0672 94.2279 32.1295C94.1339 31.1412 94.0458 30.1523 93.9627 29.163L93.8075 27.7645C92.992 29.3117 92.3157 30.9252 91.5061 32.4623C90.8667 31.3867 89.8876 29.1332 89.2306 27.8603C89.0913 29.0011 88.9504 30.6165 88.8556 31.8019C88.8329 32.0805 88.3362 32.2044 88.0082 32.0036C87.9964 31.574 88.2842 30.031 88.3631 29.5171C88.556 28.1979 88.7373 26.877 88.9084 25.5548Z" fill="var(--fill-0, white)"/>
<path id="Vector_28" d="M100.808 25.5243C101.86 25.5201 103.093 25.5131 103.504 26.7585C103.624 27.1155 103.592 27.5066 103.415 27.8391C103.11 28.4252 102.626 28.6947 102.03 28.8869C102.64 29.942 103.404 31.0854 104.066 32.1215C103.34 32.0726 103.04 32.0684 102.309 32.1257L101.756 31.1632L100.506 28.9431C100.516 29.9982 100.551 31.0529 100.614 32.1062C99.987 32.0714 99.6614 32.0788 99.0347 32.1276C99.2394 30.0936 99.1303 27.6245 99.0817 25.5488C99.7084 25.5647 100.183 25.5598 100.808 25.5243ZM101.68 28.368C102.384 27.1749 102.148 26.0832 100.558 26.1109C100.554 26.7637 100.392 28.1824 100.689 28.597C101.09 28.742 101.324 28.5906 101.68 28.368Z" fill="var(--fill-0, white)"/>
<path id="Vector_29" d="M131.201 7.59804C132.522 7.48888 133.086 7.53639 134.344 7.91677L134.262 9.08773C133.395 8.62215 132.463 8.39196 131.479 8.5891C130.726 8.73409 130.064 9.17839 129.644 9.82074C128.745 11.1788 129.01 13.2632 130.421 14.1812C131.296 14.7507 132.291 14.7216 133.279 14.5223V12.1533C132.775 12.142 132.136 12.2815 131.753 12.0678C131.581 11.7864 131.638 11.7102 131.635 11.3524L131.737 11.2499C132.326 11.1777 133.77 11.222 134.427 11.2265V15.3271C134.325 15.357 134.224 15.3851 134.121 15.4118C127.093 17.2353 125.761 8.93156 131.201 7.59804Z" fill="var(--fill-0, white)"/>
<path id="Vector_30" d="M181.401 9.68865C182.516 9.59152 183.047 9.68125 183.469 10.5239C183.489 10.5626 183.644 10.6217 183.643 10.6226C184.243 9.99906 184.706 9.60935 185.614 9.62457C188.019 9.66494 187.41 13.8654 187.398 15.5444H186.305C186.301 14.1792 186.406 12.7562 186.227 11.4057C186.173 10.993 185.834 10.5262 185.385 10.526C183.612 10.5254 183.808 12.7037 183.817 13.9185V15.5448H182.74C182.732 14.4189 183.243 10.511 181.672 10.5238C181.348 10.5252 181.04 10.6587 180.816 10.8935C179.997 11.7533 180.226 14.3234 180.237 15.5444H179.174V9.76972C179.472 9.77082 179.77 9.77376 180.069 9.77839C180.311 9.99873 180.061 10.1729 180.263 10.4345C180.722 10.0398 180.832 9.88831 181.401 9.68865Z" fill="var(--fill-0, white)"/>
<path id="Vector_31" d="M194.578 9.76972H195.765L197.082 14.5214C197.497 13.0056 198.073 11.2885 198.542 9.76972H199.791L201.223 14.5267L202.622 9.76972L203.674 9.76914L203.37 10.7487C202.87 12.0318 202.286 14.138 201.816 15.5444H200.596L199.106 10.726C198.678 12.2899 198.135 13.9799 197.667 15.5444H196.426C195.903 13.7101 195.169 11.6084 194.578 9.76972Z" fill="var(--fill-0, white)"/>
<path id="Vector_32" d="M135.51 9.76972H136.698L138.014 14.5218C138.43 13.0059 139.005 11.2887 139.474 9.76972H140.723L142.156 14.5267L143.554 9.76972L144.606 9.76914L144.303 10.7487C143.803 12.0318 143.219 14.138 142.748 15.5444H141.528L140.038 10.726C139.611 12.2899 139.067 13.9799 138.599 15.5444H137.358C136.752 13.6163 136.136 11.6913 135.51 9.76972Z" fill="var(--fill-0, white)"/>
<path id="Vector_33" d="M190.869 52.6465H192.047L193.35 57.3737L194.804 52.6465H196.072L197.506 57.3787L198.891 52.6462L199.946 52.6459L199.627 53.6325L198.115 58.3795H196.876C196.366 56.7803 195.871 55.1763 195.391 53.5678L193.942 58.3795H192.702L190.869 52.6465Z" fill="var(--fill-0, white)"/>
<path id="Vector_34" d="M136.595 21.9622C140.518 21.7389 139.404 24.9908 139.546 27.7959C139.216 27.8067 138.898 27.8351 138.576 27.7547C138.544 27.5637 138.534 27.4334 138.52 27.242C137.619 27.302 137.288 28.7647 135.173 27.4742C135.026 27.308 134.904 27.1205 134.812 26.9179C133.949 25.0111 136.147 24.1642 137.63 24.2107C137.844 24.2173 138.212 24.3087 138.374 24.2349C138.972 22.2496 136.402 22.849 135.42 23.2734C135.323 23.1483 135.325 22.6177 135.314 22.4231C135.828 22.1933 136.053 22.1059 136.595 21.9622ZM137.134 27.0689C138.261 26.7357 138.477 26.241 138.44 25.0693C138.083 25.0666 137.497 25.0463 137.16 25.0787C135.204 25.4808 135.522 27.1039 137.134 27.0689Z" fill="var(--fill-0, white)"/>
<path id="Vector_35" d="M136.828 52.5265C140.374 52.1851 139.449 55.996 139.541 58.3796C139.162 58.3881 138.935 58.3987 138.556 58.3443C138.551 58.141 138.542 58.0101 138.517 57.8085C137.772 57.8619 136.853 59.5089 135.032 57.9012C134.724 57.4791 134.47 56.5497 134.708 56.0585C135.432 54.5574 137.527 55.0984 138.425 54.7677C138.518 54.5129 138.381 54.272 138.269 54.0448C137.688 52.8607 136.217 53.4543 135.355 53.9472L135.314 53.0255C135.863 52.747 136.225 52.6193 136.828 52.5265ZM137.361 57.6036C137.943 57.3592 138.732 56.51 138.552 55.8783C138.178 55.495 137.487 55.6406 136.964 55.6912C135.159 56.2203 135.568 57.7621 137.361 57.6036Z" fill="var(--fill-0, white)"/>
<path id="Vector_36" d="M171.987 21.9666C176.093 21.6633 174.711 24.9978 175.006 27.7959C174.665 27.8033 174.395 27.8091 174.052 27.7838C174.004 27.5461 173.997 27.4153 173.984 27.1729C173.676 27.2365 173.207 27.7746 172.713 27.9027C171.997 28.0888 171.311 27.8602 170.691 27.5296C170.177 27.0019 169.922 26.0894 170.219 25.3866C170.809 23.9959 172.995 24.5065 173.821 24.1762C173.904 23.9794 173.808 23.5052 173.691 23.3376C172.97 22.3117 171.586 22.9171 170.827 23.3467L170.746 22.4292C171.22 22.2146 171.489 22.1187 171.987 21.9666ZM172.511 27.0734C173.709 26.7853 173.908 26.2514 173.888 25.0679C173.498 25.0654 172.936 25.0467 172.563 25.0818C170.796 25.4834 170.826 26.9653 172.511 27.0734Z" fill="var(--fill-0, white)"/>
<path id="Vector_37" d="M158.723 52.5261C161.026 52.1969 161.547 53.9327 161.652 55.7582H157.491C157.525 55.892 157.561 56.0251 157.601 56.1573C158.086 57.766 159.288 57.8127 160.638 57.3879C160.799 57.2903 160.924 57.1946 161.114 57.1917C161.27 57.4721 161.199 57.7979 161.192 58.1664C160.886 58.2826 160.572 58.3743 160.254 58.4407C155.729 59.3796 155.103 53.2234 158.723 52.5261ZM157.536 54.9584H159.457H160.559C160.267 53.7756 159.972 53.2952 158.643 53.4124C157.939 53.8048 157.803 54.0176 157.574 54.8218C157.56 54.8673 157.548 54.9128 157.536 54.9584Z" fill="var(--fill-0, white)"/>
<path id="Vector_38" d="M158.439 21.9693C158.534 21.9617 158.631 21.9549 158.727 21.9489C161.058 21.8037 161.539 23.1343 161.651 25.16H157.48C157.918 26.6994 158.565 27.2869 160.209 26.9442C160.519 26.8475 160.89 26.6632 161.192 26.5258V27.5765C161.167 27.5859 161.144 27.5952 161.119 27.6043C156.165 29.4688 154.776 23.3154 158.439 21.9693ZM157.538 24.3748H159.373H160.565C160.295 23.3154 159.995 22.6926 158.736 22.8013C157.869 23.2042 157.79 23.4846 157.538 24.3748Z" fill="var(--fill-0, white)"/>
<path id="Vector_39" d="M147.288 9.68982C147.446 9.67796 147.604 9.66871 147.762 9.6619C149.911 9.57544 150.396 11.0961 150.443 12.9102C149.922 12.9071 146.658 12.8259 146.42 13.0009C146.316 13.5792 146.801 14.2066 147.258 14.5074C147.839 14.8893 148.402 14.8041 149.037 14.6677C149.328 14.5723 149.719 14.3758 150.004 14.2429V15.3015C144.794 17.1976 143.637 10.9559 147.288 9.68982ZM148.13 12.0963C148.649 12.0955 149.352 12.2762 149.397 11.6696C149.115 10.9335 148.354 10.5169 147.589 10.5215C147.086 10.7233 146.163 11.452 146.406 12.0321C146.688 12.1711 147.752 12.1035 148.13 12.0963Z" fill="var(--fill-0, white)"/>
<path id="Vector_40" d="M190.819 9.68871C193.308 9.51118 193.841 10.6289 193.987 12.9102H189.867C189.876 12.9774 189.888 13.0443 189.901 13.1108C190.217 14.6499 191.247 14.9494 192.627 14.6577L193.523 14.2497V15.3072C188.35 17.1927 187.139 10.9768 190.819 9.68871ZM191.592 12.0962C192.055 12.0948 192.591 12.1898 192.867 11.9313C193.093 11.1244 191.875 10.5308 191.145 10.5205C190.568 10.73 189.832 11.3332 189.896 11.9986C190.088 12.1586 191.261 12.0988 191.592 12.0962Z" fill="var(--fill-0, white)"/>
<path id="Vector_41" d="M178.432 21.9614C180.936 21.7794 181.391 22.9465 181.574 25.16H177.436C177.71 26.7135 178.562 27.2587 180.084 26.9527C180.404 26.8548 180.794 26.662 181.105 26.5205V27.5732C180.964 27.6245 180.823 27.6732 180.68 27.7192C175.925 29.2439 174.792 23.0449 178.432 21.9614ZM177.462 24.3748H179.258C179.69 24.3725 180.181 24.4583 180.441 24.2148C180.597 23.7184 180.291 23.5399 179.952 23.236C179.503 22.8322 179.226 22.762 178.622 22.8049C177.803 23.2056 177.659 23.4985 177.462 24.3748Z" fill="var(--fill-0, white)"/>
<path id="Vector_42" d="M187.285 19.3571L188.362 19.3567L188.363 22.7885C189.194 21.9613 190.806 21.4626 191.706 22.437C192.684 23.495 192.361 26.3195 192.348 27.7959H191.284V24.5361C191.249 24.0633 191.235 23.6288 190.92 23.2493C190.468 22.678 189.494 22.6233 189.004 23.1759C188.08 24.2201 188.349 26.4669 188.362 27.7959H187.285V19.3571Z" fill="var(--fill-0, white)"/>
<path id="Vector_43" d="M208.415 49.9553L209.491 49.9544V53.4279C210.664 51.963 213.087 52.2159 213.4 54.1645C213.602 55.4183 213.502 57.0762 213.492 58.3795H212.399V55.4008C212.397 54.9029 212.418 54.185 211.979 53.7896C210.762 52.6948 209.608 53.8882 209.516 55.2714C209.453 56.2346 209.48 57.3471 209.491 58.3795L208.415 58.3798V49.9553Z" fill="var(--fill-0, white)"/>
<path id="Vector_44" d="M159.289 7.07847H160.353V10.5831C161.559 9.01332 164.164 9.42187 164.33 11.5695C164.431 12.8708 164.376 14.234 164.366 15.5443L163.289 15.5454V12.4441C163.298 11.0545 162.344 9.8216 161.027 10.8827C160.112 11.6195 160.342 14.3072 160.353 15.5443H159.289V7.07847Z" fill="var(--fill-0, white)"/>
<path id="Vector_45" d="M171.735 49.9553H172.799C172.798 50.5645 172.757 52.7995 172.852 53.2864C173.009 53.1604 173.399 52.8453 173.566 52.7769C177.527 51.1567 176.813 56.2478 176.797 58.3794H175.734V55.2627C175.583 53.7772 175.108 52.7342 173.446 53.7667C172.581 54.3043 172.791 57.4366 172.799 58.3794H171.735V49.9553Z" fill="var(--fill-0, white)"/>
<path id="Vector_46" d="M150.591 37.6767H151.655V42.6632C152.417 41.9047 153.173 41.1396 153.921 40.3679H155.396C154.832 40.9993 153.379 42.3143 152.748 42.8967C153.328 43.5676 153.999 44.263 154.606 44.9118L155.738 46.1009H154.175L151.655 43.2019V46.1009H150.591V37.6767Z" fill="var(--fill-0, white)"/>
<path id="Vector_47" d="M86.1036 53.3185C86.3704 53.3254 86.5944 53.3179 86.8503 53.4005C87.1263 53.8783 87.5626 55.1134 87.7934 55.703C88.3488 57.1388 88.9328 58.5628 89.5469 59.9741C88.8522 59.8851 88.5409 59.8896 87.8454 59.959C87.6876 59.3989 87.5073 58.6501 87.217 58.1518C87.1146 57.976 87.0382 58.0066 86.8159 57.9602C86.1615 57.9542 85.6362 57.9489 84.9809 58.006C84.7452 58.6392 84.5312 59.307 84.3156 59.9491C83.9322 59.8808 83.7466 59.9133 83.3673 59.9527C84.3408 57.7222 85.2763 55.6075 86.1036 53.3185ZM85.2335 57.3611L86.1262 57.3703C86.3091 57.3697 86.7781 57.3979 86.9032 57.311C86.8058 56.9431 86.289 55.5362 86.112 55.2234L85.2335 57.3611Z" fill="var(--fill-0, white)"/>
<path id="Vector_48" d="M107.242 25.5433C107.815 25.5902 108.266 25.5707 108.836 25.5508C108.672 26.8771 108.633 28.468 108.727 29.7988C108.815 31.0505 109.513 31.6254 110.742 31.5358C113.265 31.3517 111.689 26.3962 112.293 25.5884C112.973 25.415 113.09 25.5732 113.102 26.1838C112.984 27.5597 113.158 29.3082 112.834 30.5926C112.358 32.4844 109.152 32.7205 107.922 31.5042C107.672 31.2564 107.495 30.9458 107.406 30.6052C107.216 29.8888 107.252 26.5294 107.242 25.5433Z" fill="var(--fill-0, white)"/>
<path id="Vector_49" d="M203.232 22.0483H204.419C204.954 23.5629 205.465 25.2584 205.965 26.7982C206.445 25.2411 207.018 23.6025 207.533 22.0483H208.619L207.172 26.0974C206.726 27.1431 206.474 28.3056 205.943 29.3251C205.553 30.0745 204.058 30.7023 203.503 29.9024C203.488 29.126 204.235 29.4607 204.65 29.2513C205.081 29.034 205.261 28.452 205.413 28.0203C204.7 26.0246 203.973 24.0339 203.232 22.0483Z" fill="var(--fill-0, white)"/>
<path id="Vector_50" d="M206.983 9.69705C210.57 9.38832 209.76 13.0111 209.743 15.5448H208.666C208.661 14.2887 208.784 12.8894 208.604 11.6597C208.448 10.5941 207.664 10.4151 206.772 10.6427C205.355 11.5079 205.729 14.0709 205.744 15.5443H204.68V9.76971C204.977 9.75785 205.235 9.7396 205.532 9.77677C205.738 10.0244 205.689 10.0663 205.739 10.4112C205.887 10.4004 206.518 9.89115 206.983 9.69705Z" fill="var(--fill-0, white)"/>
<path id="Vector_51" d="M162.614 40.2385C162.649 40.2364 162.685 40.2351 162.721 40.2347C165.706 40.1991 165.011 44 164.996 46.1009H163.903C163.903 44.4846 164.588 40.1994 161.854 41.321C160.645 42.2633 160.98 44.6928 160.995 46.1009L159.919 46.1012V40.3679C160.23 40.3662 160.541 40.3705 160.853 40.3808C161.099 40.5552 160.837 40.8038 161.044 41.1075C161.557 40.4931 161.85 40.3864 162.614 40.2385Z" fill="var(--fill-0, white)"/>
<path id="Vector_52" d="M182.495 40.2395C182.522 40.2383 182.548 40.2377 182.574 40.2376C185.623 40.2199 184.895 43.9225 184.881 46.1009H183.817C183.811 44.4812 184.495 40.1928 181.727 41.3271C181.661 41.3887 181.598 41.4516 181.535 41.5157C180.612 42.464 180.882 44.7664 180.894 46.1009L179.804 46.1009V40.3679C180.115 40.3662 180.426 40.3705 180.738 40.3807C180.983 40.5555 180.72 40.7838 180.928 41.1187C181.37 40.5305 181.812 40.3708 182.495 40.2395Z" fill="var(--fill-0, white)"/>
<path id="Vector_53" d="M152.29 21.9677C155.866 21.7003 155.056 25.2385 155.038 27.7959H153.962C153.962 26.8497 153.983 25.894 153.983 24.9487C153.983 23.5614 153.692 22.4994 152.068 22.916C150.654 23.7701 151.025 26.3311 151.039 27.7959H149.975V22.0483C150.241 22.0456 150.805 21.9958 150.994 22.1318C151.007 22.369 151.021 22.556 151.053 22.7912C151.627 22.3473 151.564 22.2448 152.29 21.9677Z" fill="var(--fill-0, white)"/>
<path id="Vector_54" d="M152.66 52.5079C152.706 52.5022 152.75 52.4986 152.795 52.4971C155.735 52.387 155.053 56.3717 155.038 58.3795L153.962 58.3798C153.954 56.7601 154.652 52.4041 151.863 53.6129C151.814 53.6602 151.766 53.7083 151.718 53.7572C150.757 54.7433 151.025 56.9995 151.039 58.3794H149.975V52.6465C150.272 52.6456 150.574 52.6524 150.87 52.6559C151.157 52.838 150.872 53.0258 151.058 53.3869C151.628 52.7866 151.882 52.6596 152.66 52.5079Z" fill="var(--fill-0, white)"/>
<path id="Vector_55" d="M101.331 53.3618C102.117 53.4223 104.574 53.265 104.934 53.5985C104.982 53.8602 104.974 53.9071 104.937 54.1722C104.425 54.2474 103.362 54.1173 102.805 54.068C102.769 54.7125 102.785 55.4831 102.781 56.1372C103.232 56.1371 103.674 56.1111 104.123 56.055C104.946 55.9518 104.905 56.277 104.944 56.9277C104.281 56.8587 103.527 56.7078 102.913 56.9056C102.723 57.1251 102.783 57.1575 102.767 57.5033C102.76 58.0705 102.779 58.6547 102.791 59.2231C103.226 59.2282 104.684 59.1055 104.937 59.1629C104.937 59.397 104.946 59.6718 104.911 59.8996C104.439 59.9808 102.143 59.9037 101.27 59.9687C101.274 58.7871 101.34 57.5565 101.335 56.3634C101.334 55.8262 101.251 53.7158 101.331 53.3618Z" fill="var(--fill-0, white)"/>
<path id="Vector_56" d="M74.3751 25.4575C75.3369 25.336 76.0526 25.4969 76.9303 25.8743L76.6864 26.9988C73.0764 23.0275 70.7285 31.8162 75.1962 31.6395C75.4935 31.6277 75.8126 31.4993 76.0924 31.3944C76.2782 31.2913 76.7344 30.9625 76.9303 30.8283L76.6465 31.8697C70.7384 34.2021 68.9168 26.1746 74.3751 25.4575Z" fill="var(--fill-0, white)"/>
<path id="Vector_57" d="M110.758 53.2764C111.559 53.2482 111.92 53.3261 112.606 53.7117L112.23 54.8478C112.161 54.7095 112.087 54.5734 112.009 54.4399C111.479 53.5513 110.14 53.7772 109.935 54.6361C110.083 55.863 112.89 56.1403 112.909 57.8024C112.927 59.4302 111.86 59.9798 110.436 60.0944C109.716 60.0711 109.458 59.9803 108.791 59.7085C108.923 59.2821 109.048 58.689 109.156 58.2437C109.289 58.5582 109.416 58.9078 109.693 59.1175C110.483 59.7149 111.906 59.6345 111.642 58.3257C111.563 57.7901 110.853 57.4633 110.435 57.245C109.461 56.735 108.399 56.0421 108.902 54.7665C109.276 53.8175 109.752 53.4361 110.758 53.2764Z" fill="var(--fill-0, white)"/>
<path id="Vector_58" d="M81.4468 25.5456C81.8025 26.0367 82.5608 27.8138 82.8872 28.4728C83.4134 27.5853 83.8942 26.51 84.2938 25.5606C84.6093 25.5594 84.9239 25.5599 85.2394 25.562C84.5505 26.7699 83.8809 27.989 83.2316 29.2189C83.2182 30.2225 83.2611 31.1074 83.3147 32.1115C82.66 32.0731 82.3377 32.073 81.6857 32.1277C81.7413 31.1894 81.7869 30.3326 81.7911 29.3935C81.1253 28.2892 80.3393 26.7224 79.7144 25.552C80.3525 25.5851 80.8148 25.5719 81.4468 25.5456Z" fill="var(--fill-0, white)"/>
<path id="Vector_59" d="M184.303 20.4421L184.438 20.4548C184.538 20.7612 184.493 21.6765 184.488 22.0483C185.012 22.0323 185.884 21.9055 186.147 22.4967C185.931 23.0774 184.982 22.9582 184.488 22.9451C184.496 23.9773 184.285 25.8537 184.729 26.7931C185.015 27.4009 185.71 26.6038 186.079 27.186C186.12 27.69 186.151 27.7141 185.721 27.9028C185.539 27.9153 185.359 27.9239 185.178 27.9288C182.743 27.9839 183.402 24.6362 183.412 22.9451H182.111L182.11 22.0483H183.412V20.7404L184.303 20.4421Z" fill="var(--fill-0, white)"/>
<path id="Vector_60" d="M146.998 20.4448L147.127 20.4691C147.207 20.764 147.17 21.6928 147.166 22.0483C147.681 22.0323 148.568 21.9054 148.823 22.4967C148.616 23.0777 147.652 22.9587 147.166 22.9451C147.173 23.9776 147.093 25.1948 147.17 26.0996C147.269 27.2601 147.978 26.9866 148.577 26.9828C148.682 26.9822 149.116 27.6054 148.379 27.9058C148.199 27.9172 148.019 27.9249 147.839 27.9289C145.43 27.9714 146.08 24.6188 146.089 22.9451C145.614 22.9634 144.853 23.0703 144.652 22.4967C144.846 21.9233 145.619 22.0336 146.089 22.0483V20.7399L146.998 20.4448Z" fill="var(--fill-0, white)"/>
<path id="Vector_61" d="M156.336 8.159L156.433 8.17832C156.522 8.44117 156.482 9.4333 156.479 9.7697C156.994 9.75372 157.881 9.62681 158.137 10.2181C157.929 10.7991 156.965 10.6801 156.479 10.6665C156.473 11.7263 156.406 12.8431 156.49 13.8954C156.595 15.2348 157.72 14.4036 158.068 14.9021C158.111 15.4158 158.144 15.4453 157.704 15.631C157.509 15.6435 157.314 15.6517 157.119 15.6558C154.759 15.6923 155.393 12.295 155.402 10.6665C154.819 10.6799 154.392 10.8113 154.044 10.2745C154.176 9.61596 154.878 9.75389 155.402 9.7697V8.46026L156.336 8.159Z" fill="var(--fill-0, white)"/>
<path id="Vector_62" d="M146.91 51.0561C146.995 51.0254 147.03 51.0463 147.119 51.0722C147.219 51.456 147.174 52.2192 147.166 52.6465C147.857 52.6279 148.239 52.5322 148.794 52.9464L148.777 53.2198C148.273 53.6073 147.8 53.5154 147.166 53.5016C147.16 54.5479 147.103 55.6432 147.163 56.6851C147.246 58.1116 148.402 57.2359 148.758 57.7923C148.782 58.0548 148.796 58.1113 148.703 58.3566L148.405 58.4828C145.316 58.8485 146.076 55.6512 146.089 53.5016C145.503 53.5067 145.099 53.6403 144.7 53.144C144.732 52.5142 145.66 52.6328 146.089 52.6465V51.3303L146.91 51.0561Z" fill="var(--fill-0, white)"/>
<path id="Vector_63" d="M205.559 50.9818C205.647 51.21 205.607 52.3304 205.605 52.6465H207.108L207.115 53.5016H205.605C205.608 54.4575 205.569 55.4185 205.595 56.3759C205.628 57.6757 206.033 57.6494 207.143 57.5497C207.573 58.11 207.058 58.3984 206.581 58.5194C206.559 58.5204 206.536 58.5212 206.513 58.522C203.806 58.606 204.529 55.4445 204.541 53.5016L203.254 53.5009L203.255 52.6465H204.541V51.3129L205.559 50.9818Z" fill="var(--fill-0, white)"/>
<path id="Vector_64" d="M168.565 52.5189C169.056 52.447 169.745 52.6097 170.218 52.7196L170.134 53.6507C169.453 53.4412 168.575 53.1263 168.046 53.8005C167.679 54.3996 169.079 55.0276 169.434 55.2561C171.292 56.4536 170.668 58.1431 168.633 58.5347C168.033 58.5059 167.43 58.5764 167.02 58.1762C166.854 57.9173 166.93 57.5945 166.962 57.2796C167.743 57.5881 169.388 58.0688 169.329 56.7172C169.302 56.0825 166.924 55.559 166.866 54.5111C166.794 53.2068 167.458 52.7123 168.565 52.5189Z" fill="var(--fill-0, white)"/>
<path id="Vector_65" d="M93.4417 53.381C93.9879 53.4207 94.4947 53.3988 95.0401 53.3826C94.879 54.6895 94.9167 57.8631 94.9763 59.2241C95.5695 59.2175 96.6116 59.0403 97.0118 59.2028C97.1804 59.4434 97.1192 59.6145 97.1167 59.9515C95.7952 59.9011 94.7271 59.8768 93.4098 59.9677C93.5718 58.0692 93.5139 55.2633 93.4417 53.381Z" fill="var(--fill-0, white)"/>
<path id="Vector_66" d="M165.13 21.9502C165.415 21.9318 165.833 21.8692 166.077 21.9848C166.276 22.281 166.233 22.505 166.185 22.8721C165.867 23.089 165.205 22.8229 164.861 23.0915C163.616 24.0643 164.34 26.4615 164.062 27.6968C163.811 27.8398 163.591 27.7917 163.275 27.796L163.1 27.7578C162.956 27.4727 163.021 22.7499 163.023 22.0472C163.304 22.0408 163.549 22.038 163.83 22.0483C164.054 22.223 164.022 22.3465 164.068 22.6692C164.273 22.6679 164.592 22.2104 165.13 21.9502Z" fill="var(--fill-0, white)"/>
<path id="Vector_67" d="M165.294 52.5032C166.037 52.4991 166.52 52.5797 166.175 53.5096C163.36 52.8909 164.355 56.9377 164.06 58.2963C163.807 58.4164 163.41 58.3816 163.117 58.3795C162.943 58.1497 163.021 53.3365 163.023 52.6459C163.364 52.6403 163.616 52.646 163.956 52.6654C164.126 52.919 163.928 53.1388 164.054 53.4123C164.543 52.8442 164.599 52.7674 165.294 52.5032Z" fill="var(--fill-0, white)"/>
<path id="Vector_68" d="M148.56 40.2336C149.006 40.2326 149.156 40.175 149.453 40.5025C149.512 40.6764 149.517 40.7601 149.478 40.9419C149.459 41.0312 149.439 41.1204 149.42 41.2096C148.984 41.2731 148.555 41.0926 148.171 41.3697C146.736 42.4045 147.606 44.6028 147.279 46.0171C147.025 46.1382 146.629 46.103 146.337 46.1009C146.162 45.8711 146.241 41.0579 146.243 40.3674C146.584 40.3616 146.834 40.3674 147.176 40.3871C147.345 40.651 147.145 40.8531 147.291 41.0964C147.77 40.5556 147.865 40.4385 148.56 40.2336Z" fill="var(--fill-0, white)"/>
<path id="Vector_69" d="M143.312 21.96C144.209 21.8877 144.621 21.7562 144.429 22.867C144.141 23.064 143.63 22.8935 143.331 22.9995C141.694 23.5794 142.698 27.0274 142.238 27.7685L141.928 27.8176C141.724 27.8071 141.451 27.8305 141.311 27.7241C141.19 26.3097 141.276 23.5605 141.278 22.0483C141.394 22.0431 141.51 22.0401 141.626 22.0392C141.971 22.0376 142.119 22.0454 142.364 22.2882C142.405 22.5013 142.412 22.4117 142.29 22.6442C142.368 22.6213 143.162 22.056 143.312 21.96Z" fill="var(--fill-0, white)"/>
<path id="Vector_70" d="M143.575 52.4962C143.988 52.4938 144.163 52.4685 144.455 52.7256C144.565 53.0045 144.533 53.0964 144.479 53.3974C144.268 53.6453 143.788 53.2553 143.176 53.672C141.802 54.6091 142.604 56.9824 142.306 58.2852C142.073 58.4215 141.666 58.3815 141.38 58.3794C141.194 58.1507 141.276 53.3429 141.278 52.6465L142.144 52.6553C142.431 52.8402 142.152 52.9384 142.33 53.3607C142.771 52.8314 142.918 52.7157 143.575 52.4962Z" fill="var(--fill-0, white)"/>
<path id="Vector_71" d="M166.253 9.76971H167.345V15.5443H166.253V9.76971Z" fill="var(--fill-0, white)"/>
<path id="Vector_72" d="M151.962 9.76972L153.039 9.7693V15.5444L151.962 15.5448V9.76972Z" fill="var(--fill-0, white)"/>
<path id="Vector_73" d="M178.713 52.6465L179.789 52.6456V58.3795L178.713 58.3798V52.6465Z" fill="var(--fill-0, white)"/>
<path id="Vector_74" d="M167.511 22.0483H168.575V27.7958H167.511V22.0483Z" fill="var(--fill-0, white)"/>
<path id="Vector_75" d="M176.853 40.3679H177.917V46.1009H176.853V40.3679Z" fill="var(--fill-0, white)"/>
<path id="Vector_76" d="M156.939 40.3679H158.003V46.1009H156.939V40.3679Z" fill="var(--fill-0, white)"/>
<path id="Vector_77" d="M201.101 52.6465H202.165V58.3794H201.101V52.6465Z" fill="var(--fill-0, white)"/>
<path id="Vector_78" d="M201.017 50.1647H202.22V51.385H201.017V50.1647Z" fill="var(--fill-0, white)"/>
<path id="Vector_79" d="M166.197 7.31669H167.4V8.53698H166.197V7.31669Z" fill="var(--fill-0, white)"/>
<path id="Vector_80" d="M151.905 7.31669H153.108L153.102 8.53689L151.905 8.53698V7.31669Z" fill="var(--fill-0, white)"/>
<path id="Vector_81" d="M178.648 50.1649L179.847 50.1647V51.385H178.629C178.624 50.9762 178.637 50.5734 178.648 50.1649Z" fill="var(--fill-0, white)"/>
<path id="Vector_82" d="M156.884 37.9149H158.087V39.1064H156.884V37.9149Z" fill="var(--fill-0, white)"/>
<path id="Vector_83" d="M176.769 37.9149H177.972V39.1064H176.769V37.9149Z" fill="var(--fill-0, white)"/>
<path id="Vector_84" d="M167.456 19.5953H168.659V20.7868H167.456V19.5953Z" fill="var(--fill-0, white)"/>
<path id="Vector_85" d="M31.8675 0H31.9354C35.8007 2.99759 39.3676 7.38445 38.0865 12.6339C37.5869 14.6808 36.7501 16.0718 35.5677 17.76C34.4599 16.7244 33.3228 15.7162 32.4695 14.4565C34.4464 11.362 34.5273 8.82266 31.918 6.13829C28.3763 9.48142 30.0393 13.3769 32.9678 16.4347C33.8842 17.3916 34.91 18.2173 35.8048 19.2036C36.9598 20.4766 37.8987 21.825 38.8032 23.2822C36.4702 22.3881 34.3886 21.7975 31.8915 21.6703C28.5315 18.4428 25.0032 14.9263 25.4647 9.73389C25.8368 5.5469 28.8131 2.55563 31.8675 0Z" fill="var(--fill-0, white)"/>
<path id="Vector_86" d="M6.1243 32.0074C9.69094 35.547 13.5888 33.8925 16.6992 30.6335C18.9352 28.2908 20.4242 26.7772 23.2433 25.0763C22.369 27.2745 21.6989 29.6305 21.6245 32.0081C18.5775 35.1737 15.4676 38.4106 10.698 38.5035C6.10714 38.5928 2.71971 35.3522 -4.39573e-06 32.046V31.9606C5.13828 25.7762 10.3988 23.0423 17.709 28.3338C16.7098 29.4285 15.6581 30.5805 14.4429 31.4268L14.4189 31.4432C11.4318 29.6032 8.70726 29.2556 6.1243 32.0074Z" fill="var(--fill-0, white)"/>
<path id="Vector_87" d="M24.9994 40.692C27.2939 41.5961 29.4628 42.2163 31.9415 42.3283C33.7446 44.0848 35.2706 45.4191 36.5945 47.5889C40.7149 54.3421 37.2884 59.6263 31.9643 64H31.869C29.8809 62.322 28.3564 60.9458 26.9872 58.7065C24.393 54.4639 25.396 49.9907 28.2704 46.2434C29.2178 47.1408 30.6871 48.471 31.3528 49.5318C29.5671 52.5619 29.1388 55.2318 31.9186 57.861C36.4699 53.2578 32.3329 48.6878 28.6252 45.455C27.5054 44.4786 25.7985 41.9766 24.9994 40.692Z" fill="var(--fill-0, white)"/>
<path id="Vector_88" d="M216.778 22.4325C217.944 21.837 219.721 21.5047 220.596 22.7767C220.869 23.172 220.913 23.5543 221 24.0166V27.7958C220.714 27.8057 220.254 27.8675 220.041 27.7136C219.988 27.5015 219.991 27.451 219.995 27.237C219.806 27.2325 219.425 27.5294 219.242 27.6484C218.267 28.2813 216.664 27.9719 216.194 26.7638C216.034 26.3631 216.048 25.9136 216.233 25.524C216.756 24.3968 218.131 24.1872 219.232 24.2366C219.475 24.2475 219.627 24.2689 219.862 24.1795C219.982 22.1176 218.032 22.8476 216.89 23.2685C216.775 23.1296 216.788 22.6447 216.778 22.4325ZM218.614 27.0643C219.738 26.7131 219.93 26.2388 219.896 25.0687C219.553 25.0659 218.949 25.0453 218.63 25.08C216.565 25.4777 217.088 27.1887 218.614 27.0643Z" fill="var(--fill-0, white)"/>
</g>
<defs>
<clipPath id="clip0_0_3">
<rect width="221" height="64" fill="white"/>
</clipPath>
</defs>
</svg>
