<svg preserveAspectRatio="none" width="76.0869" height="64" overflow="visible" style="display: block;" viewBox="0 0 76.0869 64" fill="none" xmlns="http://www.w3.org/2000/svg">
<g id="Vector">
<path d="M62.5632 22.4367C59.8518 21.6353 58.2495 21.4562 58.2495 19.9407C58.2495 18.8997 59.219 18.1274 60.8911 18.1274C62.8808 18.1274 66.3742 19.6889 66.3742 19.6889L68.1498 15.5539C68.1498 15.5539 65.0101 13.6994 61.0932 13.6994C55.8411 13.6994 52.4608 16.5828 52.4608 20.3861C52.4608 23.6859 54.6021 25.1699 59.1854 26.3901C61.7621 27.0728 63.3355 27.6078 63.3355 29.3025C63.3355 30.5517 62.1639 31.4717 60.6578 31.4717C57.2751 31.4717 53.6373 29.4018 53.6373 29.4018L51.7391 33.4545C51.7391 33.4545 54.8812 35.9577 59.8903 35.9577C65.5803 35.9577 69.1266 32.9557 69.1266 28.8546C69.1266 25.6759 66.9853 23.744 62.5681 22.4343L62.5632 22.4367Z" fill="var(--fill-0, white)"/>
<path d="M13.4923 14.1037C10.9349 14.1037 8.32444 14.1037 8.32444 14.1037V35.3331H13.6896L13.6632 22.7223C13.6632 22.7223 17.8542 30.0119 21.5834 35.3331C25.2043 35.3404 26.056 35.3331 26.056 35.3331V14.1086H20.7943L20.7991 25.1699C20.7991 25.1699 17.8518 20.0036 13.4923 14.1037Z" fill="var(--fill-0, white)"/>
<path d="M43.3304 35.2944V26.1504H35.3645V35.2944H29.9993V14.111H35.3645V22.1655H43.3304V14.111H48.6836V35.2944H43.3304Z" fill="var(--fill-0, white)"/>
<path d="M11.955 56.8001C11.5796 56.5434 11.0816 56.311 10.5836 56.311C9.86663 56.311 9.47687 56.7129 9.47687 57.214C9.47687 57.7757 10.0735 58.2018 11.0696 58.9959C12.21 59.911 12.8163 60.63 12.8163 61.6807C12.8163 62.7314 11.7986 64 9.87866 64C8.99329 64 8.01167 63.7313 7.37892 63.1454L7.99724 62.1698C8.44714 62.499 8.96682 62.8525 9.7319 62.8525C10.4368 62.8525 11.0576 62.4748 11.0576 61.6686C11.0576 60.7293 9.91475 60.1071 9.23388 59.5696C8.40865 58.899 7.71815 58.3737 7.71815 57.2407C7.71815 56.1077 8.87058 55.1659 10.4128 55.1659C11.3848 55.1659 12.1595 55.5194 12.5612 55.9092L11.955 56.8001Z" fill="var(--fill-0, white)"/>
<path d="M20.443 56.8627C20.0316 56.6424 19.3387 56.3882 18.6843 56.3882C16.9376 56.3882 15.6769 57.6205 15.6769 59.5572C15.6769 61.494 17.0723 62.7747 18.7324 62.7747C19.3868 62.7747 19.9931 62.5907 20.443 62.3486L20.917 63.4114C20.3949 63.7165 19.4855 63.9973 18.6626 63.9973C15.7154 63.9973 13.8604 62.0436 13.8604 59.5306C13.8604 57.2017 15.7034 55.1632 18.6867 55.1632C19.5721 55.1632 20.3973 55.4804 20.9795 55.8241L20.4454 56.8627H20.443Z" fill="var(--fill-0, white)"/>
<path d="M25.7841 62.7771C24.0013 62.7771 23.371 61.0946 23.371 59.4604C23.371 57.8263 24.0856 56.3882 25.7841 56.3882C27.4827 56.3882 28.1972 57.8868 28.1972 59.4604C28.1972 61.034 27.5669 62.7771 25.7841 62.7771ZM25.7841 63.9997C28.3921 63.9997 30.0161 62.0097 30.0161 59.4604C30.0161 57.0709 28.2213 55.1656 25.7841 55.1656C23.3469 55.1656 21.5521 57.0709 21.5521 59.4604C21.5521 62.0097 23.1761 63.9997 25.7841 63.9997Z" fill="var(--fill-0, white)"/>
<path d="M32.8816 63.8496V56.4633H30.2615V55.3157H37.2122V56.4633H34.5922V63.8496H32.8816Z" fill="var(--fill-0, white)"/>
<path d="M38.1986 55.3157H39.9092V62.7021H43.2799V63.8496H38.1986V55.3157Z" fill="var(--fill-0, white)"/>
<path d="M46.5784 60.4748C46.9778 59.3539 47.3771 58.3153 47.7308 56.9983H47.7549C48.1543 58.3153 48.5175 59.3515 48.8832 60.4748H46.5784ZM47.2328 55.3157L43.7779 63.8496H45.2575L46.1309 61.5206H49.1359L49.925 63.8496H51.8401L48.6523 55.3157H47.2328Z" fill="var(--fill-0, white)"/>
<path d="M60.2199 63.8496H58.9857C57.3617 61.8862 55.7377 59.9373 54.1402 57.7294H54.1161V63.8496H52.7471V55.3157H53.9934C55.6174 57.267 57.2269 59.2038 58.8269 61.3996H58.8509V55.3157H60.2199V63.8496Z" fill="var(--fill-0, white)"/>
<path d="M64.6468 56.4633C66.4392 56.4633 67.4569 57.56 67.4569 59.3248C67.4569 61.6998 66.4031 62.6997 64.4519 62.6997H63.4101V56.4633H64.6468ZM61.7019 55.3157V63.8472H64.4783C67.4833 63.8472 69.2781 62.1525 69.2781 59.3394C69.2781 57.2815 68.0896 55.3181 64.6371 55.3181H61.7019V55.3157Z" fill="var(--fill-0, white)"/>
<path d="M38.1168 48.261C36.3725 45.1138 30.4251 39.9063 19.8608 41.6155C15.8501 41.9666 14.1828 42.2183 12.056 42.0537C3.64495 41.4049 2.17975 36.7324 2.10036 36.4782H0C0 36.4782 1.15484 45.5641 10.355 47.099C12.6094 47.4742 17.3057 47.0288 20.3396 46.5276C27.7955 45.3002 33.4999 45.1017 38.1264 51.5366C38.1264 51.5366 38.1866 51.6068 38.2371 51.6068C38.3333 51.6068 38.355 51.5366 38.355 51.5366C38.355 51.5366 38.9565 50.3043 38.1144 48.2586L38.1168 48.261Z" fill="var(--fill-0, white)"/>
<path d="M73.9841 36.4782C73.9047 36.7324 72.3481 41.3831 63.937 42.0343C61.8102 42.199 60.1429 41.9472 56.1323 41.5961C45.6593 39.8991 41.2252 45.0944 39.9429 47.9197C39.1008 49.8153 39.5628 51.5415 39.5628 51.5415C39.5628 51.5415 39.5916 51.6117 39.6686 51.6117C39.7191 51.6117 39.7793 51.5415 39.7793 51.5415C44.4035 45.1065 48.1976 45.2808 55.6535 46.5107C58.6897 47.0094 63.3861 47.4573 65.6404 47.082C74.8406 45.5472 76.0869 36.4807 76.0869 36.4807H73.9865L73.9841 36.4782Z" fill="var(--fill-0, white)"/>
<path d="M2.58761 6.30233V0.497085H3.63231V6.30233H2.58761Z" fill="var(--fill-0, white)"/>
<path d="M4.98585 6.30233V1.93508H5.83741L5.91642 2.52093H5.94276C6.32904 2.14812 6.76798 1.82856 7.35618 1.82856C8.28675 1.82856 8.69058 2.46767 8.69058 3.56836V6.30233H7.65466V3.70151C7.65466 2.99139 7.45274 2.73397 6.99624 2.73397C6.61874 2.73397 6.37293 2.9115 6.03055 3.26656V6.30233H4.98585Z" fill="var(--fill-0, white)"/>
<path d="M11.6644 8.0155V1.93508H12.516L12.595 2.39666H12.6213C12.99 2.08598 13.4465 1.82856 13.9206 1.82856C14.9916 1.82856 15.6149 2.70734 15.6149 4.05657C15.6149 5.54782 14.737 6.40885 13.7801 6.40885C13.3938 6.40885 13.0164 6.23132 12.674 5.92952L12.7091 6.65739V8.0155H11.6644ZM13.5519 5.53895C14.1137 5.53895 14.5527 5.04186 14.5527 4.06545C14.5527 3.20442 14.2717 2.69846 13.6309 2.69846C13.3236 2.69846 13.0339 2.84936 12.7091 3.17779V5.19276C13.0076 5.45018 13.3061 5.53895 13.5519 5.53895Z" fill="var(--fill-0, white)"/>
<path d="M17.5789 6.40885C16.8239 6.40885 16.2971 5.89401 16.2971 5.13063C16.2971 4.17196 17.0521 3.69263 18.8255 3.49735C18.8079 3.05352 18.6324 2.68071 18.0529 2.68071C17.6316 2.68071 17.2277 2.85824 16.8414 3.08903L16.4727 2.39666C16.9468 2.09486 17.5613 1.82856 18.2461 1.82856C19.3171 1.82856 19.8614 2.50318 19.8614 3.71926V6.30233H19.0186L18.9308 5.823H18.8957C18.5095 6.1603 18.0881 6.40885 17.5789 6.40885ZM17.8949 5.57445C18.2461 5.57445 18.5095 5.43243 18.8255 5.13063V4.20747C17.6491 4.34949 17.298 4.61579 17.298 5.05962C17.298 5.43243 17.5438 5.57445 17.8949 5.57445Z" fill="var(--fill-0, white)"/>
<path d="M21.0521 6.30233V1.93508H21.9036L21.9826 2.71622H22.009C22.325 2.14812 22.7815 1.82856 23.238 1.82856C23.4575 1.82856 23.598 1.86407 23.7296 1.91733L23.519 2.81386C23.3873 2.77835 23.2819 2.7606 23.1063 2.7606C22.764 2.7606 22.3514 2.99139 22.0968 3.65713V6.30233H21.0521Z" fill="var(--fill-0, white)"/>
<path d="M25.8891 6.40885C24.8795 6.40885 24.5108 5.76974 24.5108 4.81995V2.76947H23.8962V1.98834L24.5634 1.93508L24.6864 0.576974H25.5467V1.93508H26.6441V2.76947H25.5467V4.81995C25.5467 5.32591 25.7486 5.57445 26.1524 5.57445C26.3017 5.57445 26.4509 5.54782 26.6002 5.48569L26.7845 6.22244C26.5563 6.32896 26.2402 6.40885 25.8891 6.40885Z" fill="var(--fill-0, white)"/>
<path d="M27.542 6.30233V1.93508H28.3936L28.4726 2.52093H28.4989C28.8852 2.14812 29.3241 1.82856 29.9123 1.82856C30.8429 1.82856 31.2467 2.46767 31.2467 3.56836V6.30233H30.2108V3.70151C30.2108 2.99139 30.0089 2.73397 29.5524 2.73397C29.1749 2.73397 28.9291 2.9115 28.5867 3.26656V6.30233H27.542Z" fill="var(--fill-0, white)"/>
<path d="M34.3066 6.40885C33.1127 6.40885 32.1821 5.57445 32.1821 4.11871C32.1821 2.69846 33.1653 1.82856 34.1749 1.82856C35.3425 1.82856 35.9746 2.68071 35.9746 3.90567C35.9746 4.1187 35.957 4.27848 35.9219 4.43826H33.2004C33.3058 5.16613 33.7623 5.59221 34.4471 5.59221C34.8158 5.59221 35.1494 5.48569 35.4479 5.29041L35.799 5.94727C35.3952 6.24907 34.8685 6.40885 34.3066 6.40885ZM33.2004 3.65713H35.0616C35.0616 3.01802 34.7631 2.6452 34.2013 2.6452C33.7096 2.6452 33.2882 3.00026 33.2004 3.65713Z" fill="var(--fill-0, white)"/>
<path d="M36.9211 6.30233V1.93508H37.7727L37.8517 2.71622H37.878C38.194 2.14812 38.6505 1.82856 39.1071 1.82856C39.3265 1.82856 39.467 1.86407 39.5987 1.91733L39.388 2.81386C39.2563 2.77835 39.1509 2.7606 38.9754 2.7606C38.633 2.7606 38.2204 2.99139 37.9658 3.65713V6.30233H36.9211Z" fill="var(--fill-0, white)"/>
<path d="M41.3818 6.40885C40.7849 6.40885 40.1703 6.17806 39.7489 5.76974L40.2055 5.17501C40.583 5.48569 40.978 5.61884 41.417 5.61884C41.8735 5.61884 42.0929 5.4058 42.0929 5.11288C42.0929 4.74894 41.6715 4.60691 41.1887 4.42938C40.5654 4.19859 39.986 3.83466 39.986 3.14229C39.986 2.37891 40.6005 1.82856 41.5662 1.82856C42.1544 1.82856 42.6548 2.05048 43.0059 2.36115L42.5582 2.95588C42.251 2.72509 41.9349 2.61857 41.5925 2.61857C41.1624 2.61857 40.9692 2.83161 40.9692 3.08903C40.9692 3.40858 41.2765 3.53285 41.8208 3.71926C42.488 3.95005 43.0762 4.29624 43.0762 5.05074C43.0762 5.80524 42.4792 6.40885 41.3818 6.40885Z" fill="var(--fill-0, white)"/>
<path d="M43.9597 6.30233V0.0355061H45.0044V1.65103L44.9605 2.48543C45.3117 2.14812 45.7418 1.82856 46.33 1.82856C47.2606 1.82856 47.6644 2.46767 47.6644 3.56836V6.30233H46.6285V3.70151C46.6285 2.99139 46.4266 2.73397 45.9701 2.73397C45.5926 2.73397 45.3468 2.9115 45.0044 3.26656V6.30233H43.9597Z" fill="var(--fill-0, white)"/>
<path d="M48.8636 6.30233V1.93508H49.9083V6.30233H48.8636ZM49.3903 1.18945C49.0216 1.18945 48.767 0.949787 48.767 0.594727C48.767 0.239666 49.0216 0 49.3903 0C49.759 0 50.0136 0.239666 50.0136 0.594727C50.0136 0.949787 49.759 1.18945 49.3903 1.18945Z" fill="var(--fill-0, white)"/>
<path d="M51.1698 8.0155V1.93508H52.0213L52.1004 2.39666H52.1267C52.4954 2.08598 52.9519 1.82856 53.426 1.82856C54.497 1.82856 55.1203 2.70734 55.1203 4.05657C55.1203 5.54782 54.2424 6.40885 53.2855 6.40885C52.8992 6.40885 52.5217 6.23132 52.1794 5.92952L52.2145 6.65739V8.0155H51.1698ZM53.0573 5.53895C53.6191 5.53895 54.0581 5.04186 54.0581 4.06545C54.0581 3.20442 53.7771 2.69846 53.1363 2.69846C52.829 2.69846 52.5393 2.84936 52.2145 3.17779V5.19276C52.513 5.45018 52.8114 5.53895 53.0573 5.53895Z" fill="var(--fill-0, white)"/>
<path d="M58.6111 6.30233L57.4698 1.94396H58.5057L59.0149 4.20747C59.1027 4.59804 59.1729 4.9886 59.2344 5.50344H59.2695C59.3485 4.9886 59.4187 4.59804 59.5065 4.20747L60.0332 1.94396H61.0867L61.631 4.20747C61.7276 4.59804 61.8066 4.9886 61.8856 5.50344H61.9207C61.9997 4.9886 62.0524 4.59804 62.1402 4.20747L62.6494 1.94396H63.6151L62.5177 6.30233H61.2272L60.7882 4.27848C60.7005 3.88792 60.6302 3.53285 60.5512 2.96476H60.5161C60.4546 3.53285 60.3844 3.88792 60.2966 4.27848L59.8577 6.30233H58.6111Z" fill="var(--fill-0, white)"/>
<path d="M64.4583 6.30233V1.93508H65.503V6.30233H64.4583ZM64.985 1.18945C64.6163 1.18945 64.3617 0.949787 64.3617 0.594727C64.3617 0.239666 64.6163 0 64.985 0C65.3537 0 65.6083 0.239666 65.6083 0.594727C65.6083 0.949787 65.3537 1.18945 64.985 1.18945Z" fill="var(--fill-0, white)"/>
<path d="M68.3008 6.40885C67.2912 6.40885 66.9225 5.76974 66.9225 4.81995V2.76947H66.308V1.98834L66.9752 1.93508L67.0981 0.576974H67.9584V1.93508H69.0558V2.76947H67.9584V4.81995C67.9584 5.32591 68.1603 5.57445 68.5642 5.57445C68.7134 5.57445 68.8626 5.54782 69.0119 5.48569L69.1962 6.22244C68.968 6.32896 68.6519 6.40885 68.3008 6.40885Z" fill="var(--fill-0, white)"/>
<path d="M69.9537 6.30233V0.0355061H70.9984V1.65103L70.9545 2.48543C71.3057 2.14812 71.7358 1.82856 72.324 1.82856C73.2546 1.82856 73.6584 2.46767 73.6584 3.56836V6.30233H72.6225V3.70151C72.6225 2.99139 72.4206 2.73397 71.9641 2.73397C71.5866 2.73397 71.3408 2.9115 70.9984 3.26656V6.30233H69.9537Z" fill="var(--fill-0, white)"/>
</g>
</svg>
