<svg preserveAspectRatio="none" width="57.0652" height="48" overflow="visible" style="display: block;" viewBox="0 0 57.0652 48" fill="none" xmlns="http://www.w3.org/2000/svg">
<g id="Vector">
<path d="M46.9224 16.8275C44.8888 16.2265 43.6871 16.0921 43.6871 14.9555C43.6871 14.1747 44.4143 13.5955 45.6684 13.5955C47.1606 13.5955 49.7807 14.7667 49.7807 14.7667L51.1123 11.6654C51.1123 11.6654 48.7575 10.2746 45.8199 10.2746C41.8809 10.2746 39.3456 12.4371 39.3456 15.2896C39.3456 17.7644 40.9516 18.8775 44.389 19.7926C46.3216 20.3046 47.5017 20.7059 47.5017 21.9769C47.5017 22.9138 46.6229 23.6038 45.4933 23.6038C42.9563 23.6038 40.228 22.0513 40.228 22.0513L38.8043 25.0908C38.8043 25.0908 41.1609 26.9683 44.9177 26.9683C49.1852 26.9683 51.8449 24.7168 51.8449 21.641C51.8449 19.2569 50.239 17.808 46.926 16.8257L46.9224 16.8275Z" fill="var(--fill-0, #0053B3)"/>
<path d="M10.1193 10.5778C8.20114 10.5778 6.24333 10.5778 6.24333 10.5778V26.4998H10.2672L10.2474 17.0418C10.2474 17.0418 13.3907 22.5089 16.1876 26.4998C18.9032 26.5053 19.542 26.4998 19.542 26.4998V10.5814H15.5957L15.5993 18.8775C15.5993 18.8775 13.3889 15.0027 10.1193 10.5778Z" fill="var(--fill-0, #0053B3)"/>
<path d="M32.4978 26.4708V19.6128H26.5233V26.4708H22.4995V10.5832H26.5233V16.6241H32.4978V10.5832H36.5127V26.4708H32.4978Z" fill="var(--fill-0, #0053B3)"/>
<path d="M8.96622 42.6C8.68473 42.4076 8.31121 42.2333 7.93769 42.2333C7.39997 42.2333 7.10766 42.5347 7.10766 42.9105C7.10766 43.3318 7.55515 43.6513 8.30219 44.2469C9.15749 44.9332 9.61221 45.4725 9.61221 46.2605C9.61221 47.0486 8.84893 48 7.409 48C6.74496 48 6.00876 47.7985 5.53419 47.359L5.99793 46.6273C6.33536 46.8743 6.72512 47.1393 7.29893 47.1393C7.82762 47.1393 8.29317 46.8561 8.29317 46.2515C8.29317 45.547 7.43606 45.0803 6.92541 44.6772C6.30649 44.1743 5.78862 43.7803 5.78862 42.9305C5.78862 42.0808 6.65294 41.3744 7.80958 41.3744C8.53857 41.3744 9.1196 41.6395 9.42094 41.9319L8.96622 42.6Z" fill="var(--fill-0, #0053B3)"/>
<path d="M15.3323 42.647C15.0237 42.4818 14.504 42.2912 14.0132 42.2912C12.7032 42.2912 11.7577 43.2154 11.7577 44.6679C11.7577 46.1205 12.8042 47.081 14.0493 47.081C14.5401 47.081 14.9948 46.943 15.3323 46.7615L15.6877 47.5586C15.2962 47.7873 14.6141 47.998 13.997 47.998C11.7865 47.998 10.3953 46.5327 10.3953 44.648C10.3953 42.9012 11.7775 41.3724 14.015 41.3724C14.6791 41.3724 15.298 41.6103 15.7346 41.8681L15.3341 42.647H15.3323Z" fill="var(--fill-0, #0053B3)"/>
<path d="M19.3381 47.0828C18.001 47.0828 17.5283 45.8209 17.5283 44.5953C17.5283 43.3697 18.0642 42.2912 19.3381 42.2912C20.612 42.2912 21.1479 43.4151 21.1479 44.5953C21.1479 45.7755 20.6752 47.0828 19.3381 47.0828ZM19.3381 47.9998C21.2941 47.9998 22.5121 46.5073 22.5121 44.5953C22.5121 42.8032 21.166 41.3742 19.3381 41.3742C17.5102 41.3742 16.1641 42.8032 16.1641 44.5953C16.1641 46.5073 17.3821 47.9998 19.3381 47.9998Z" fill="var(--fill-0, #0053B3)"/>
<path d="M24.6612 47.8872V42.3474H22.6961V41.4868H27.9091V42.3474H25.9441V47.8872H24.6612Z" fill="var(--fill-0, #0053B3)"/>
<path d="M28.649 41.4868H29.9319V47.0266H32.4599V47.8872H28.649V41.4868Z" fill="var(--fill-0, #0053B3)"/>
<path d="M34.9338 45.3561C35.2333 44.5154 35.5329 43.7365 35.7981 42.7487H35.8162C36.1157 43.7365 36.3882 44.5136 36.6624 45.3561H34.9338ZM35.4246 41.4868L32.8334 47.8872H33.9432L34.5982 46.1405H36.8519L37.4438 47.8872H38.8801L36.4892 41.4868H35.4246Z" fill="var(--fill-0, #0053B3)"/>
<path d="M45.1649 47.8872H44.2393C43.0213 46.4147 41.8033 44.953 40.6051 43.2971H40.5871V47.8872H39.5604V41.4868H40.4951C41.713 42.9503 42.9202 44.4028 44.1202 46.0497H44.1382V41.4868H45.1649V47.8872Z" fill="var(--fill-0, #0053B3)"/>
<path d="M48.4851 42.3474C49.8294 42.3474 50.5927 43.17 50.5927 44.4936C50.5927 46.2748 49.8023 47.0247 48.3389 47.0247H47.5576V42.3474H48.4851ZM46.2765 41.4868V47.8854H48.3588C50.6125 47.8854 51.9586 46.6144 51.9586 44.5045C51.9586 42.9612 51.0672 41.4886 48.4779 41.4886H46.2765V41.4868Z" fill="var(--fill-0, #0053B3)"/>
<path d="M28.5876 36.1958C27.2794 33.8354 22.8188 29.9297 14.8956 31.2116C11.8876 31.4749 10.6371 31.6638 9.04201 31.5403C2.73371 31.0537 1.63481 27.5493 1.57527 27.3587H0C0 27.3587 0.866127 34.1731 7.76627 35.3242C9.45703 35.6057 12.9793 35.2716 15.2547 34.8957C20.8466 33.9752 25.1249 33.8263 28.5948 38.6525C28.5948 38.6525 28.6399 38.7051 28.6778 38.7051C28.75 38.7051 28.7662 38.6525 28.7662 38.6525C28.7662 38.6525 29.2174 37.7283 28.5858 36.194L28.5876 36.1958Z" fill="var(--fill-0, #0053B3)"/>
<path d="M55.4881 27.3587C55.4285 27.5493 54.2611 31.0373 47.9528 31.5258C46.3577 31.6492 45.1072 31.4604 42.0992 31.1971C34.2445 29.9243 30.9189 33.8208 29.9572 35.9398C29.3256 37.3615 29.6721 38.6561 29.6721 38.6561C29.6721 38.6561 29.6937 38.7087 29.7515 38.7087C29.7894 38.7087 29.8345 38.6561 29.8345 38.6561C33.3026 33.8299 36.1482 33.9606 41.7401 34.883C44.0173 35.2571 47.5396 35.593 49.2303 35.3115C56.1305 34.1604 57.0652 27.3605 57.0652 27.3605H55.4899L55.4881 27.3587Z" fill="var(--fill-0, #0053B3)"/>
<path d="M1.94071 4.72675V0.372814H2.72423V4.72675H1.94071Z" fill="var(--fill-0, #0053B3)"/>
<path d="M3.73939 4.72675V1.45131H4.37806L4.43732 1.8907H4.45707C4.74678 1.61109 5.07599 1.37142 5.51713 1.37142C6.21506 1.37142 6.51794 1.85075 6.51794 2.67627V4.72675H5.741V2.77613C5.741 2.24354 5.58956 2.05048 5.24718 2.05048C4.96406 2.05048 4.7797 2.18362 4.52291 2.44992V4.72675H3.73939Z" fill="var(--fill-0, #0053B3)"/>
<path d="M8.74829 6.01162V1.45131H9.38696L9.44622 1.7975H9.46597C9.74251 1.56449 10.0849 1.37142 10.4404 1.37142C11.2437 1.37142 11.7112 2.0305 11.7112 3.04243C11.7112 4.16087 11.0528 4.80664 10.3351 4.80664C10.0454 4.80664 9.76226 4.67349 9.50548 4.44714L9.53182 4.99304V6.01162H8.74829ZM10.1639 4.15421C10.5853 4.15421 10.9145 3.7814 10.9145 3.04908C10.9145 2.40332 10.7038 2.02385 10.2232 2.02385C9.99271 2.02385 9.77543 2.13702 9.53182 2.38335V3.89457C9.75568 4.08764 9.97954 4.15421 10.1639 4.15421Z" fill="var(--fill-0, #0053B3)"/>
<path d="M13.1842 4.80664C12.6179 4.80664 12.2229 4.42051 12.2229 3.84797C12.2229 3.12897 12.7891 2.76947 14.1191 2.62301C14.106 2.29014 13.9743 2.01053 13.5397 2.01053C13.2237 2.01053 12.9208 2.14368 12.6311 2.31677L12.3545 1.7975C12.7101 1.57114 13.171 1.37142 13.6846 1.37142C14.4878 1.37142 14.8961 1.87738 14.8961 2.78945V4.72675H14.264L14.1981 4.36725H14.1718C13.8821 4.62023 13.566 4.80664 13.1842 4.80664ZM13.4212 4.18084C13.6846 4.18084 13.8821 4.07432 14.1191 3.84797V3.1556C13.2368 3.26212 12.9735 3.46184 12.9735 3.79471C12.9735 4.07432 13.1578 4.18084 13.4212 4.18084Z" fill="var(--fill-0, #0053B3)"/>
<path d="M15.789 4.72675V1.45131H16.4277L16.487 2.03716H16.5067C16.7438 1.61109 17.0861 1.37142 17.4285 1.37142C17.5931 1.37142 17.6985 1.39805 17.7972 1.438L17.6392 2.11039C17.5405 2.08376 17.4614 2.07045 17.3298 2.07045C17.073 2.07045 16.7635 2.24354 16.5726 2.74284V4.72675H15.789Z" fill="var(--fill-0, #0053B3)"/>
<path d="M19.4168 4.80664C18.6596 4.80664 18.3831 4.3273 18.3831 3.61496V2.07711H17.9222V1.49126L18.4226 1.45131L18.5148 0.43273H19.16V1.45131H19.9831V2.07711H19.16V3.61496C19.16 3.99443 19.3115 4.18084 19.6143 4.18084C19.7263 4.18084 19.8382 4.16087 19.9501 4.11427L20.0884 4.66683C19.9172 4.74672 19.6802 4.80664 19.4168 4.80664Z" fill="var(--fill-0, #0053B3)"/>
<path d="M20.6565 4.72675V1.45131H21.2952L21.3544 1.8907H21.3742C21.6639 1.61109 21.9931 1.37142 22.4342 1.37142C23.1322 1.37142 23.435 1.85075 23.435 2.67627V4.72675H22.6581V2.77613C22.6581 2.24354 22.5067 2.05048 22.1643 2.05048C21.8812 2.05048 21.6968 2.18362 21.44 2.44992V4.72675H20.6565Z" fill="var(--fill-0, #0053B3)"/>
<path d="M25.73 4.80664C24.8345 4.80664 24.1366 4.18084 24.1366 3.08903C24.1366 2.02385 24.874 1.37142 25.6312 1.37142C26.5069 1.37142 26.981 2.01053 26.981 2.92925C26.981 3.08903 26.9678 3.20886 26.9415 3.32869H24.9003C24.9793 3.8746 25.3217 4.19416 25.8353 4.19416C26.1118 4.19416 26.362 4.11427 26.5859 3.9678L26.8493 4.46045C26.5464 4.6868 26.1513 4.80664 25.73 4.80664ZM24.9003 2.74284H26.2962C26.2962 2.26351 26.0723 1.9839 25.6509 1.9839C25.2822 1.9839 24.9662 2.2502 24.9003 2.74284Z" fill="var(--fill-0, #0053B3)"/>
<path d="M27.6908 4.72675V1.45131H28.3295L28.3888 2.03716H28.4085C28.6455 1.61109 28.9879 1.37142 29.3303 1.37142C29.4949 1.37142 29.6002 1.39805 29.699 1.438L29.541 2.11039C29.4422 2.08376 29.3632 2.07045 29.2315 2.07045C28.9747 2.07045 28.6653 2.24354 28.4743 2.74284V4.72675H27.6908Z" fill="var(--fill-0, #0053B3)"/>
<path d="M31.0364 4.80664C30.5887 4.80664 30.1278 4.63354 29.8117 4.3273L30.1541 3.88126C30.4372 4.11427 30.7335 4.21413 31.0627 4.21413C31.4051 4.21413 31.5697 4.05435 31.5697 3.83466C31.5697 3.5617 31.2537 3.45518 30.8915 3.32204C30.424 3.14895 29.9895 2.87599 29.9895 2.35672C29.9895 1.78418 30.4504 1.37142 31.1746 1.37142C31.6158 1.37142 31.9911 1.53786 32.2545 1.77087L31.9187 2.21691C31.6882 2.04382 31.4512 1.96393 31.1944 1.96393C30.8718 1.96393 30.7269 2.12371 30.7269 2.31677C30.7269 2.55644 30.9574 2.64964 31.3656 2.78945C31.866 2.96254 32.3071 3.22218 32.3071 3.78805C32.3071 4.35393 31.8594 4.80664 31.0364 4.80664Z" fill="var(--fill-0, #0053B3)"/>
<path d="M32.9698 4.72675V0.0266296H33.7533V1.23827L33.7204 1.86407C33.9837 1.61109 34.3064 1.37142 34.7475 1.37142C35.4455 1.37142 35.7483 1.85075 35.7483 2.67627V4.72675H34.9714V2.77613C34.9714 2.24354 34.8199 2.05048 34.4776 2.05048C34.1944 2.05048 34.0101 2.18362 33.7533 2.44992V4.72675H32.9698Z" fill="var(--fill-0, #0053B3)"/>
<path d="M36.6477 4.72675V1.45131H37.4312V4.72675H36.6477ZM37.0427 0.89209C36.7662 0.89209 36.5753 0.712341 36.5753 0.446045C36.5753 0.17975 36.7662 0 37.0427 0C37.3193 0 37.5102 0.17975 37.5102 0.446045C37.5102 0.712341 37.3193 0.89209 37.0427 0.89209Z" fill="var(--fill-0, #0053B3)"/>
<path d="M38.3773 6.01162V1.45131H39.016L39.0753 1.7975H39.095C39.3716 1.56449 39.7139 1.37142 40.0695 1.37142C40.8728 1.37142 41.3402 2.0305 41.3402 3.04243C41.3402 4.16087 40.6818 4.80664 39.9641 4.80664C39.6744 4.80664 39.3913 4.67349 39.1345 4.44714L39.1609 4.99304V6.01162H38.3773ZM39.7929 4.15421C40.2143 4.15421 40.5436 3.7814 40.5436 3.04908C40.5436 2.40332 40.3329 2.02385 39.8522 2.02385C39.6218 2.02385 39.4045 2.13702 39.1609 2.38335V3.89457C39.3847 4.08764 39.6086 4.15421 39.7929 4.15421Z" fill="var(--fill-0, #0053B3)"/>
<path d="M43.9583 4.72675L43.1023 1.45797H43.8793L44.2612 3.1556C44.327 3.44853 44.3797 3.74145 44.4258 4.12758H44.4521C44.5114 3.74145 44.564 3.44853 44.6299 3.1556L45.0249 1.45797H45.8151L46.2233 3.1556C46.2957 3.44853 46.355 3.74145 46.4142 4.12758H46.4406C46.4998 3.74145 46.5393 3.44853 46.6052 3.1556L46.987 1.45797H47.7113L46.8883 4.72675H45.9204L45.5912 3.20886C45.5253 2.91594 45.4727 2.64964 45.4134 2.22357H45.3871C45.341 2.64964 45.2883 2.91594 45.2225 3.20886L44.8933 4.72675H43.9583Z" fill="var(--fill-0, #0053B3)"/>
<path d="M48.3437 4.72675V1.45131H49.1272V4.72675H48.3437ZM48.7388 0.89209C48.4622 0.89209 48.2713 0.712341 48.2713 0.446045C48.2713 0.17975 48.4622 0 48.7388 0C49.0153 0 49.2062 0.17975 49.2062 0.446045C49.2062 0.712341 49.0153 0.89209 48.7388 0.89209Z" fill="var(--fill-0, #0053B3)"/>
<path d="M51.2256 4.80664C50.4684 4.80664 50.1919 4.3273 50.1919 3.61496V2.07711H49.731V1.49126L50.2314 1.45131L50.3236 0.43273H50.9688V1.45131H51.7918V2.07711H50.9688V3.61496C50.9688 3.99443 51.1202 4.18084 51.4231 4.18084C51.5351 4.18084 51.647 4.16087 51.7589 4.11427L51.8972 4.66683C51.726 4.74672 51.489 4.80664 51.2256 4.80664Z" fill="var(--fill-0, #0053B3)"/>
<path d="M52.4653 4.72675V0.0266296H53.2488V1.23827L53.2159 1.86407C53.4792 1.61109 53.8019 1.37142 54.243 1.37142C54.941 1.37142 55.2438 1.85075 55.2438 2.67627V4.72675H54.4669V2.77613C54.4669 2.24354 54.3154 2.05048 53.9731 2.05048C53.6899 2.05048 53.5056 2.18362 53.2488 2.44992V4.72675H52.4653Z" fill="var(--fill-0, #0053B3)"/>
</g>
</svg>
