<svg preserveAspectRatio="none" width="166" height="48" overflow="visible" style="display: block;" viewBox="0 0 166 48" fill="none" xmlns="http://www.w3.org/2000/svg">
<g id="header_nhs-wales-logo 1" clip-path="url(#clip0_0_3)">
<path id="Vector" d="M39.5612 19.1384C39.9798 19.1075 40.4005 19.1165 40.8173 19.1655C43.8125 19.5164 46.1656 21.7329 47.9531 23.9961C44.2926 28.7064 39.9368 30.6474 34.646 26.7395C35.4019 25.9301 36.201 25.0266 37.122 24.4164C38.4045 25.2275 39.5208 25.6891 41.0557 25.4038C42.0487 25.1592 42.6394 24.6956 43.3486 23.9918C42.0035 22.5761 40.4241 22.1239 38.5775 22.8139C36.368 23.6394 35.1327 25.4361 33.4929 26.9863C32.6299 27.8021 31.5085 28.5552 30.5034 29.1777C31.1507 27.469 31.6311 25.8272 31.7089 23.9916C33.9572 21.5746 36.0764 19.4735 39.5612 19.1384Z" fill="var(--fill-0, #011D4B)"/>
<path id="Vector_2" d="M42.571 29.1534L42.6525 29.1764C40.9359 35.7775 35.6191 40.8356 29.1369 42.7031C29.0596 42.6 29.1017 42.5391 29.1414 42.4088C29.4905 41.2654 29.4813 40.2448 29.4213 39.0602C29.7371 38.9461 30.0488 38.8211 30.3559 38.6855C34.5177 36.8464 37.3881 33.6722 39.0178 29.4581C40.2431 29.6288 41.39 29.4834 42.571 29.1534Z" fill="var(--fill-0, #011D4B)"/>
<path id="Vector_3" d="M5.25609 29.0808C6.67055 29.4938 7.49444 29.5385 8.92359 29.4482C9.02128 29.7134 9.12615 29.9758 9.23807 30.2353C11.0838 34.5446 14.2223 37.3466 18.5203 39.0673C18.3552 40.4149 18.4876 41.3856 18.8369 42.6724C18.3418 42.761 15.4219 41.4444 14.8637 41.1362C9.89426 38.3924 6.87103 34.4458 5.25609 29.0808Z" fill="var(--fill-0, #011D4B)"/>
<path id="Vector_4" d="M29.0791 5.27279C30.5196 5.67239 31.9104 6.23367 33.225 6.94594C38.0289 9.56153 41.1471 13.7125 42.6846 18.9143C41.2678 18.5086 40.4436 18.4613 39.0204 18.5496C38.9016 18.228 38.7728 17.9103 38.6342 17.5967C36.8046 13.4329 33.6235 10.5702 29.4225 8.93659C29.599 7.70549 29.4556 6.45282 29.0791 5.27279Z" fill="var(--fill-0, #011D4B)"/>
<path id="Vector_5" d="M18.7605 5.30199L18.8322 5.30775C18.8846 5.44184 18.8 5.60776 18.7589 5.75587C18.465 6.81481 18.4436 7.8447 18.5355 8.9335C18.268 9.03057 18.0037 9.13603 17.7428 9.24982C13.4471 11.1032 10.6359 14.231 8.92354 18.5357C7.77969 18.3752 6.67189 18.5174 5.56064 18.7875L5.40637 18.8344L5.32497 18.7883C5.29475 18.2285 6.5098 15.5204 6.84955 14.9003C9.54986 9.97165 13.4607 6.93043 18.7605 5.30199Z" fill="var(--fill-0, #011D4B)"/>
<path id="Vector_6" d="M79.518 5.26666C81.2782 5.22508 82.7145 5.4959 84.3625 6.06852L83.6642 7.20296C82.8626 6.87333 82.02 6.65232 81.1597 6.5456C78.2015 6.17131 74.5481 7.30281 74.1429 10.6978C74.0124 11.8323 74.3408 12.972 75.0554 13.8626C76.2283 15.3416 78.2771 15.9954 80.1142 15.9151C80.8503 15.883 82.3313 15.7553 82.8947 15.3078C83.0945 15.0497 82.9716 11.3241 82.937 10.6912C82.93 10.5075 82.9124 10.3167 82.8985 10.1327C83.6081 10.165 84.0613 10.1948 84.7715 10.1456C84.7419 10.9639 84.6638 16.1675 84.4879 16.3723C83.9806 16.9634 81.7925 17.0307 81.0116 17.0855C78.5853 17.2558 75.8917 16.8881 73.9973 15.23C72.9177 14.2849 72.268 13.0048 72.1728 11.5693C72.0757 10.1754 72.5484 8.80172 73.4824 7.76307C75.0372 6.00651 77.27 5.39862 79.518 5.26666Z" fill="var(--fill-0, #011D4B)"/>
<path id="Vector_7" d="M60.2328 5.26668C61.955 5.21636 63.4417 5.5136 65.0551 6.07015L64.348 7.20215C63.1411 6.7084 61.8486 6.45774 60.5446 6.46449C58.8604 6.47275 57.2731 6.96928 56.0666 8.1718C54.3519 9.87388 54.3701 12.6209 56.1251 14.2819C57.6305 15.7182 59.8386 16.1607 61.8255 15.8191C63.6869 15.4991 63.7474 15.6544 63.6932 13.7722C63.6629 12.7187 63.7008 11.6265 63.5987 10.5649C63.5936 10.4031 63.5905 10.3716 63.634 10.2117C63.8652 10.0724 64.9927 10.1773 65.4685 10.1428C65.3904 10.9435 65.3828 16.1257 65.1597 16.3869C64.6814 16.9473 62.5028 17.0319 61.7695 17.0814C59.2952 17.2486 56.5906 16.9092 54.656 15.2077C53.5925 14.2723 52.9447 12.9868 52.8601 11.5696C52.7754 10.1501 53.2279 8.818 54.1746 7.75494C55.7232 6.01593 57.9915 5.391 60.2328 5.26668Z" fill="var(--fill-0, #011D4B)"/>
<path id="Vector_8" d="M66.0483 26.804C66.6704 26.8891 67.0447 26.8824 67.6667 26.824C67.5224 27.9294 67.5161 30.41 67.484 31.6208C69.3438 31.7691 72.3921 31.6558 74.2922 31.6311C74.296 29.9546 74.3036 28.4759 74.2015 26.8022C74.792 26.8975 75.2344 26.8752 75.8199 26.8302C75.7191 27.6251 75.7197 29.1463 75.6964 29.9869C75.5987 32.6911 75.6214 35.3982 75.7632 38.1004L75.1185 38.016C74.7781 38.0128 74.4693 38.0658 74.1328 38.1138C74.2714 36.206 74.2733 34.3017 74.2998 32.3896H67.4644C67.4922 34.1342 67.4487 36.3936 67.6182 38.1115C66.9212 37.987 66.671 38.0041 65.9677 38.1122C66.1227 36.2583 66.1101 34.1829 66.1208 32.3199C66.1315 30.4896 66.1448 28.6292 66.0483 26.804Z" fill="var(--fill-0, #011D4B)"/>
<path id="Vector_9" d="M16.6168 24.5446C19.5559 26.8895 22.2132 27.5109 25.8997 27.8243C25.5593 28.8217 24.7502 30.2329 23.9636 30.995C23.9017 31.0549 23.7476 31.0477 23.653 31.0558C19.7754 30.4764 17.0894 29.7037 14.2619 26.9015L16.6168 24.5446Z" fill="var(--fill-0, #011D4B)"/>
<path id="Vector_10" d="M23.9736 16.9465C27.5958 17.1303 31.0918 18.5216 33.6728 21.0985L31.4921 23.281C31.4721 23.3045 31.4588 23.3201 31.4377 23.3363C31.4244 23.3465 31.3044 23.4242 31.3033 23.4234C30.6472 22.9425 29.6645 22.2267 28.977 21.8835C26.7301 20.7618 24.5298 20.3739 22.0602 20.1802C22.39 19.007 23.2377 17.899 23.9736 16.9465Z" fill="var(--fill-0, #011D4B)"/>
<path id="Vector_11" d="M21.0522 14.3027C21.4115 14.5195 23.0395 16.2538 23.4343 16.6544C21.1595 19.1654 20.4252 22.6571 20.1528 25.9214L19.5817 25.7149C18.6104 25.289 17.7457 24.6364 16.9162 23.987C17.2269 20.2449 18.3937 16.9823 21.0522 14.3027Z" fill="var(--fill-0, #011D4B)"/>
<path id="Vector_12" d="M27.804 22.094C28.9482 22.4023 30.0906 23.2887 31.0216 24.0004C30.8913 27.285 29.5252 30.8699 27.2696 33.3099L26.8664 33.7136L24.5028 31.3479C26.8048 28.9106 27.4766 25.2801 27.804 22.094Z" fill="var(--fill-0, #011D4B)"/>
<path id="Vector_13" d="M53.5057 26.5782C53.6164 26.587 53.7654 26.5994 53.8446 26.6782C54.6937 27.5237 55.5643 28.4813 56.378 29.3532L61.9946 35.3604C62.0266 33.9144 62.0374 32.4679 62.0268 31.0216C62.0273 29.6105 62.0481 28.2702 61.946 26.8602C62.3922 26.8854 62.6438 26.8943 63.0869 26.8589C62.9822 27.7085 62.9602 29.014 62.9244 29.9018C62.8364 31.9693 62.7837 34.0382 62.7661 36.1075C62.7617 36.5612 62.8922 38.0449 62.7377 38.2844L62.5335 38.2876C61.8391 37.4095 60.8851 36.39 60.1238 35.5447C58.2158 33.4477 56.2843 31.3723 54.3296 29.319C54.2469 30.0936 54.2644 31.4098 54.2646 32.203C54.2533 34.1658 54.2997 36.1287 54.404 38.0888C53.9463 38.0329 53.7159 38.0476 53.2569 38.0888C53.3827 36.8191 53.3885 35.586 53.438 34.3162C53.5384 31.7379 53.5089 29.1595 53.5057 26.5782Z" fill="var(--fill-0, #011D4B)"/>
<path id="Vector_14" d="M90.2475 5.29828L91.0561 5.29758V44.8356L90.2475 44.836V5.29828Z" fill="var(--fill-0, #011D4B)"/>
<path id="Vector_15" d="M81.386 26.6624C82.4605 26.5486 83.4349 26.7373 84.2913 27.4165C84.1004 27.8985 83.9384 28.4917 83.7878 28.9946C83.5817 28.5609 83.4204 28.2061 83.0763 27.8696C81.8549 26.6751 79.5558 27.4842 79.5861 29.2686C79.6264 31.6072 82.7252 31.4168 84.021 32.7843C84.9039 33.6587 84.9392 34.992 84.4634 36.1036C83.7676 37.7293 82.1958 38.2924 80.5529 38.3013C79.6838 38.2843 78.671 37.9933 78.0169 37.3924C78.1845 36.7886 78.2645 36.3063 78.3471 35.6909C78.6452 36.1518 78.9874 36.6659 79.4166 37.0092C79.9749 37.4527 80.6865 37.6549 81.3948 37.5711C82.6799 37.4233 83.6321 36.159 83.4134 34.9467C82.9584 32.4206 78.5538 33.1022 78.2929 30.1855C78.1076 28.113 79.4052 26.898 81.386 26.6624Z" fill="var(--fill-0, #011D4B)"/>
<path id="Vector_16" d="M95.6372 28.6991H96.5831L97.998 33.7285C98.366 32.0889 98.8349 30.3401 99.2414 28.6991H100.453L101.719 33.734L103.123 28.6991H104.039L103.778 29.5336L102.233 34.5756H101.125L99.8464 29.462L98.569 34.5756H97.4138L95.6372 28.6991Z" fill="var(--fill-0, #011D4B)"/>
<path id="Vector_17" d="M126.674 30.1807C127.947 30.1817 127.599 30.3035 128.296 30.823C128.307 30.659 128.316 30.495 128.324 30.3309C128.457 30.2421 128.881 30.2743 129.069 30.2755C129.071 31.4337 129.042 32.6953 129.08 33.8457C129.168 36.4529 127.517 36.8683 125.29 36.1575C125.324 35.926 125.348 35.6458 125.374 35.4094C126.912 36.084 128.272 36.0769 128.25 33.979C125.248 36.5404 123.435 30.8472 126.674 30.1807ZM127.345 33.9018C128.801 33.1557 128.523 30.7451 126.725 30.8492C125.293 31.6564 125.585 34.1302 127.345 33.9018Z" fill="var(--fill-0, #011D4B)"/>
<path id="Vector_18" d="M149.309 16.4767C149.677 16.4403 150.375 16.4176 150.708 16.6279C150.803 16.6882 151.025 16.9527 151.175 17.0651C151.198 16.8983 151.211 16.751 151.224 16.583C151.368 16.504 151.769 16.5341 151.957 16.536C151.958 17.733 151.935 19.0119 151.968 20.202C152.039 22.7597 150.326 23.1115 148.188 22.4181L148.267 21.7137C148.879 21.7453 150.186 22.6011 150.844 21.6018C151.025 21.3266 151.402 20.4859 151.047 20.268C150.803 20.3061 150.624 20.7033 150.434 20.7559C147.624 21.532 146.87 17.51 149.309 16.4767ZM150.175 20.1818C151.72 19.5063 151.397 17.0371 149.679 17.0968C148.264 17.7622 148.349 20.2496 150.175 20.1818Z" fill="var(--fill-0, #011D4B)"/>
<path id="Vector_19" d="M160.485 14.5178H161.284V20.8469C161.001 20.8548 160.833 20.8656 160.551 20.8201C160.51 20.668 160.512 20.5194 160.506 20.3617C160.017 20.3729 159.838 21.4112 158.177 20.7475C158.047 20.658 157.925 20.5555 157.815 20.4418C156.97 19.5632 156.974 17.7276 157.883 16.8805C158.234 16.5517 158.704 16.3805 159.184 16.4067C159.734 16.4352 160.135 16.7031 160.485 17.1014V14.5178ZM159.515 20.2844C160.989 19.5798 160.816 17.1012 159.02 17.0937C157.438 17.6788 157.864 20.4984 159.515 20.2844Z" fill="var(--fill-0, #011D4B)"/>
<path id="Vector_20" d="M98.3509 39.3812C101.106 39.0631 101.038 44.023 98.4183 43.9345C97.8933 43.9168 97.4434 43.601 97.1062 43.2256V44.184V45.5507L96.2976 45.5509V39.4849C96.5321 39.4847 96.7665 39.4866 97.001 39.4904C97.1446 39.6364 96.9757 39.7593 97.0917 40.0174C97.548 39.5919 97.7471 39.4875 98.3509 39.3812ZM98.5797 43.2334C100.001 42.5909 99.951 39.9225 98.0597 40.0554C96.6354 40.7325 96.7558 43.2376 98.5797 43.2334Z" fill="var(--fill-0, #011D4B)"/>
<path id="Vector_21" d="M98.0837 16.4722C98.8103 16.4162 99.4052 16.4744 99.9063 17.07C100.67 17.9651 100.544 19.8137 99.6441 20.5697C98.9263 21.1734 97.7497 21.0714 97.1579 20.3338C97.0791 20.4394 97.1081 20.8635 97.1062 21.0355V22.613H96.2976V16.5362C96.505 16.5318 96.8566 16.5074 97.0432 16.5632C97.0564 16.7258 97.0722 16.8884 97.0898 17.0506C97.4516 16.8592 97.4736 16.6595 98.0559 16.4804L98.0837 16.4722ZM98.4851 20.31C100.069 19.7747 99.8792 16.9537 98.1259 17.0984C96.5825 17.7352 96.8138 20.2489 98.4851 20.31Z" fill="var(--fill-0, #011D4B)"/>
<path id="Vector_22" d="M138.471 39.3847C140.738 39.1286 141.13 42.2771 139.83 43.4773C139.498 43.7903 139.052 43.9541 138.596 43.9311C138.055 43.9015 137.626 43.6267 137.273 43.2381V44.1209V45.5507H136.474V39.4849C136.699 39.4808 137.031 39.4543 137.234 39.5268C137.241 39.6699 137.238 39.8276 137.295 39.9568C137.767 39.6241 137.906 39.4921 138.471 39.3847ZM138.781 43.2194C140.193 42.5717 140.054 39.8247 138.2 40.0614C136.718 40.8193 137.038 43.37 138.781 43.2194Z" fill="var(--fill-0, #011D4B)"/>
<path id="Vector_23" d="M68.4633 5.72648C69.1326 5.79638 69.4011 5.80638 70.0729 5.73078C70.0042 6.44127 69.9803 7.23387 69.9639 7.95046C69.8984 10.9217 69.7742 14.0517 70.0244 17.0125C69.2984 16.8985 69.0885 16.9229 68.3707 17.02C68.5144 15.7295 68.5087 13.9062 68.5245 12.6045C68.5711 10.3117 68.5509 8.01808 68.4633 5.72648Z" fill="var(--fill-0, #011D4B)"/>
<path id="Vector_24" d="M128.535 7.29726C129.746 7.02578 130.947 7.79139 131.212 9.00438C131.478 10.2174 130.708 11.4153 129.494 11.6755C128.289 11.9341 127.102 11.169 126.837 9.96394C126.573 8.75883 127.333 7.5669 128.535 7.29726ZM129.178 11.0963C130.942 10.6395 130.69 7.87136 128.839 7.89092C127.077 8.46137 127.42 11.1417 129.178 11.0963Z" fill="var(--fill-0, #011D4B)"/>
<path id="Vector_25" d="M106.413 30.1924C107.636 30.0844 108.718 30.9824 108.838 32.2055C108.958 33.4285 108.071 34.5202 106.851 34.6525C105.613 34.7866 104.503 33.884 104.381 32.6437C104.26 31.4034 105.172 30.302 106.413 30.1924ZM106.945 34.0035C108.538 33.3304 108.192 30.7027 106.323 30.847C104.62 31.5979 105.07 34.2606 106.945 34.0035Z" fill="var(--fill-0, #011D4B)"/>
<path id="Vector_26" d="M53.2044 40.0381C53.6235 40.0625 53.9852 40.0493 54.4022 40.0359C54.6422 41.1743 55.0253 42.4705 55.335 43.5999C55.7433 42.4517 56.2148 41.1969 56.5583 40.0408C56.8257 40.0431 56.9826 40.0425 57.2512 40.087C57.3943 40.1981 58.3094 43.1945 58.4363 43.5924C58.7751 42.56 59.0867 41.5306 59.3689 40.4813C59.4074 40.3384 59.5719 40.0925 59.713 40.0438C59.9027 39.9785 59.9077 39.9919 60.0683 40.0613C60.1649 40.2756 59.849 40.9471 59.7427 41.2335C59.3083 42.4686 58.8972 43.7118 58.5096 44.9625C58.1982 44.9103 58.0622 44.9323 57.7538 44.9636C57.4341 43.7752 57.0404 42.6512 56.6182 41.4985C56.4014 42.0924 55.6048 44.4866 55.3689 44.9194C55.0799 44.8995 54.9525 44.9104 54.6718 44.9149C54.6202 44.8119 54.5684 44.7073 54.5384 44.5958C54.1272 43.0671 53.6362 41.5607 53.2044 40.0381Z" fill="var(--fill-0, #011D4B)"/>
<path id="Vector_27" d="M66.7819 19.1661C67.0208 19.1676 67.1493 19.1623 67.3869 19.2205C67.7442 19.7884 68.6732 21.8095 69.0337 22.535C69.5259 21.6416 70.2305 19.9677 70.6981 19.2536C70.9136 19.1894 71.0794 19.2085 71.3018 19.2173C71.4273 19.4816 71.8463 23.4297 71.9547 24.0971C71.4474 24.0598 71.2911 24.0504 70.7775 24.0971C70.7069 23.3559 70.6407 22.6142 70.5783 21.8723L70.4618 20.8234C69.8492 21.9838 69.3412 23.1939 68.7331 24.3467C68.2528 23.54 67.5174 21.8499 67.0239 20.8952C66.9193 21.7509 66.8134 22.9623 66.7422 23.8514C66.7252 24.0604 66.3521 24.1533 66.1057 24.0027C66.0969 23.6805 66.313 22.5233 66.3723 22.1378C66.5172 21.1484 66.6533 20.1578 66.7819 19.1661Z" fill="var(--fill-0, #011D4B)"/>
<path id="Vector_28" d="M75.7197 19.1432C76.51 19.1401 77.4364 19.1348 77.7452 20.0689C77.8354 20.3367 77.8114 20.63 77.6784 20.8793C77.449 21.3189 77.0854 21.521 76.6379 21.6652C77.0961 22.4565 77.6702 23.314 78.1675 24.0911C77.6217 24.0544 77.3967 24.0513 76.8478 24.0943L76.4325 23.3724L75.4935 21.7073C75.5004 22.4987 75.5269 23.2897 75.5741 24.0797C75.1034 24.0535 74.8588 24.0591 74.388 24.0957C74.5418 22.5702 74.4599 20.7184 74.4233 19.1616C74.8941 19.1735 75.2508 19.1698 75.7197 19.1432ZM76.3751 21.276C76.9039 20.3812 76.7268 19.5624 75.5325 19.5832C75.5294 20.0728 75.4077 21.1368 75.6308 21.4477C75.9321 21.5565 76.1073 21.4429 76.3751 21.276Z" fill="var(--fill-0, #011D4B)"/>
<path id="Vector_29" d="M98.5494 5.69853C99.5414 5.61666 99.9649 5.65229 100.91 5.93758L100.848 6.8158C100.197 6.46661 99.4973 6.29397 98.758 6.44183C98.1927 6.55057 97.6955 6.88379 97.3797 7.36556C96.7041 8.38409 96.9033 9.9474 97.9633 10.6359C98.6206 11.063 99.3681 11.0412 100.11 10.8917V9.11494C99.7311 9.10649 99.2515 9.21113 98.9635 9.05086C98.8349 8.83981 98.8771 8.78266 98.8752 8.51428L98.9521 8.43739C99.3945 8.38327 100.479 8.41651 100.972 8.41986V11.4953C100.896 11.5177 100.819 11.5388 100.743 11.5588C95.4639 12.9265 94.4631 6.69867 98.5494 5.69853Z" fill="var(--fill-0, #011D4B)"/>
<path id="Vector_30" d="M136.256 7.26649C137.094 7.19364 137.492 7.26094 137.81 7.89295C137.824 7.92196 137.941 7.96631 137.94 7.96694C138.391 7.4993 138.739 7.20701 139.42 7.21843C141.227 7.2487 140.77 10.399 140.76 11.6583H139.94C139.937 10.6344 140.015 9.56715 139.881 8.55429C139.84 8.24478 139.586 7.89465 139.248 7.89453C137.917 7.89402 138.064 9.52779 138.071 10.4389V11.6586H137.262C137.256 10.8141 137.639 7.88324 136.46 7.89282C136.216 7.8939 135.984 7.994 135.816 8.1701C135.201 8.81498 135.373 10.7425 135.382 11.6583H134.583V7.32729C134.807 7.32811 135.031 7.33032 135.255 7.33379C135.437 7.49905 135.25 7.62967 135.401 7.8259C135.746 7.52983 135.828 7.41623 136.256 7.26649Z" fill="var(--fill-0, #011D4B)"/>
<path id="Vector_31" d="M146.154 7.32729H147.045L148.034 10.891C148.346 9.75423 148.779 8.46636 149.131 7.32729H150.069L151.145 10.895L152.196 7.32729L152.986 7.32685L152.758 8.06155C152.382 9.02388 151.944 10.6035 151.59 11.6583H150.674L149.554 8.04452C149.234 9.21746 148.825 10.4849 148.474 11.6583H147.541C147.149 10.2825 146.597 8.7063 146.154 7.32729Z" fill="var(--fill-0, #011D4B)"/>
<path id="Vector_32" d="M101.786 7.32729H102.678L103.667 10.8913C103.979 9.75442 104.411 8.46649 104.763 7.32729H105.702L106.778 10.895L107.828 7.32729L108.618 7.32685L108.39 8.06155C108.015 9.02388 107.576 10.6035 107.223 11.6583H106.306L105.187 8.04452C104.866 9.21746 104.458 10.4849 104.106 11.6583H103.174C102.719 10.2122 102.256 8.76849 101.786 7.32729Z" fill="var(--fill-0, #011D4B)"/>
<path id="Vector_33" d="M143.368 39.4849H144.252L145.231 43.0303L146.323 39.4849H147.276L148.353 43.034L149.393 39.4846L150.186 39.4844L149.946 40.2244L148.81 43.7846H147.88C147.497 42.5852 147.125 41.3823 146.764 40.1759L145.676 43.7846H144.745L143.368 39.4849Z" fill="var(--fill-0, #011D4B)"/>
<path id="Vector_34" d="M102.601 16.4716C105.547 16.3042 104.711 18.7431 104.818 20.8469C104.569 20.855 104.33 20.8763 104.089 20.816C104.064 20.6728 104.057 20.575 104.047 20.4315C103.37 20.4765 103.122 21.5735 101.533 20.6056C101.422 20.481 101.331 20.3403 101.261 20.1885C100.613 18.7583 102.265 18.1231 103.378 18.158C103.539 18.163 103.816 18.2316 103.937 18.1762C104.386 16.6872 102.456 17.1368 101.718 17.455C101.645 17.3613 101.647 16.9632 101.639 16.8173C102.024 16.645 102.194 16.5794 102.601 16.4716ZM103.006 20.3017C103.852 20.0518 104.015 19.6808 103.987 18.802C103.718 18.7999 103.279 18.7847 103.025 18.809C101.556 19.1106 101.795 20.3279 103.006 20.3017Z" fill="var(--fill-0, #011D4B)"/>
<path id="Vector_35" d="M102.776 39.3949C105.439 39.1389 104.744 41.997 104.814 43.7847C104.529 43.7911 104.359 43.799 104.074 43.7582C104.07 43.6058 104.063 43.5076 104.044 43.3564C103.485 43.3964 102.795 44.6317 101.426 43.4259C101.196 43.1093 101.005 42.4123 101.183 42.0439C101.727 40.9181 103.301 41.3238 103.976 41.0758C104.046 40.8847 103.942 40.704 103.858 40.5336C103.422 39.6455 102.317 40.0907 101.669 40.4604L101.639 39.7691C102.051 39.5603 102.323 39.4645 102.776 39.3949ZM103.176 43.2027C103.613 43.0194 104.206 42.3825 104.071 41.9087C103.79 41.6212 103.271 41.7304 102.878 41.7684C101.522 42.1652 101.829 43.3215 103.176 43.2027Z" fill="var(--fill-0, #011D4B)"/>
<path id="Vector_36" d="M129.185 16.475C132.269 16.2475 131.231 18.7483 131.453 20.8469C131.196 20.8524 130.994 20.8569 130.736 20.8379C130.699 20.6596 130.694 20.5615 130.685 20.3797C130.454 20.4274 130.101 20.8309 129.73 20.927C129.192 21.0666 128.677 20.8951 128.211 20.6472C127.825 20.2514 127.633 19.567 127.857 19.04C128.3 17.9969 129.942 18.3798 130.562 18.1321C130.624 17.9846 130.553 17.6289 130.464 17.5032C129.923 16.7338 128.884 17.1879 128.313 17.51L128.252 16.8219C128.608 16.6609 128.811 16.589 129.185 16.475ZM129.578 20.3051C130.478 20.089 130.628 19.6886 130.612 18.8009C130.319 18.799 129.898 18.785 129.617 18.8113C128.29 19.1125 128.313 20.224 129.578 20.3051Z" fill="var(--fill-0, #011D4B)"/>
<path id="Vector_37" d="M119.222 39.3946C120.952 39.1477 121.343 40.4496 121.422 41.8187H118.297C118.322 41.919 118.349 42.0188 118.379 42.118C118.744 43.3245 119.646 43.3595 120.66 43.0409C120.781 42.9678 120.875 42.8959 121.017 42.8938C121.135 43.1041 121.082 43.3484 121.076 43.6248C120.847 43.7119 120.611 43.7807 120.371 43.8306C116.973 44.5347 116.502 39.9176 119.222 39.3946ZM118.33 41.2188H119.773H120.601C120.381 40.3317 120.16 39.9714 119.162 40.0593C118.633 40.3536 118.531 40.5132 118.358 41.1164C118.348 41.1504 118.339 41.1846 118.33 41.2188Z" fill="var(--fill-0, #011D4B)"/>
<path id="Vector_38" d="M119.008 16.477C119.08 16.4713 119.153 16.4662 119.224 16.4617C120.976 16.3528 121.337 17.3508 121.421 18.87H118.288C118.617 20.0246 119.103 20.4651 120.338 20.2081C120.571 20.1356 120.85 19.9974 121.076 19.8943V20.6824C121.058 20.6894 121.04 20.6964 121.022 20.7033C117.3 22.1016 116.257 17.4866 119.008 16.477ZM118.331 18.2811H119.71H120.605C120.403 17.4866 120.177 17.0194 119.231 17.101C118.58 17.4032 118.521 17.6135 118.331 18.2811Z" fill="var(--fill-0, #011D4B)"/>
<path id="Vector_39" d="M110.633 7.26737C110.751 7.25847 110.87 7.25153 110.989 7.24642C112.603 7.18158 112.967 8.3221 113.002 9.68263C112.611 9.68029 110.159 9.61943 109.981 9.75069C109.902 10.1844 110.266 10.6549 110.61 10.8805C111.047 11.167 111.47 11.1031 111.947 11.0008C112.165 10.9292 112.458 10.7818 112.673 10.6822V11.4761C108.76 12.8982 107.89 8.21689 110.633 7.26737ZM111.265 9.07219C111.655 9.07162 112.183 9.20717 112.217 8.75221C112.005 8.20012 111.434 7.88764 110.859 7.89111C110.481 8.04249 109.787 8.58904 109.97 9.02406C110.182 9.12833 110.981 9.07761 111.265 9.07219Z" fill="var(--fill-0, #011D4B)"/>
<path id="Vector_40" d="M143.33 7.26653C145.2 7.13338 145.6 7.97165 145.709 9.68262H142.615C142.622 9.73301 142.631 9.78322 142.641 9.83311C142.878 10.9874 143.652 11.2121 144.688 10.9933L145.361 10.6873V11.4804C141.476 12.8945 140.566 8.23259 143.33 7.26653ZM143.911 9.07218C144.259 9.07111 144.661 9.14238 144.869 8.94849C145.038 8.34329 144.123 7.8981 143.575 7.89041C143.141 8.04753 142.589 8.4999 142.637 8.99895C142.781 9.11892 143.662 9.07413 143.911 9.07218Z" fill="var(--fill-0, #011D4B)"/>
<path id="Vector_41" d="M134.026 16.4711C135.906 16.3346 136.249 17.2099 136.386 18.87H133.278C133.483 20.0351 134.123 20.444 135.267 20.2145C135.507 20.1411 135.8 19.9965 136.034 19.8904V20.6799C135.928 20.7183 135.822 20.7549 135.715 20.7894C132.143 21.9329 131.292 17.2837 134.026 16.4711ZM133.297 18.2811H134.647C134.97 18.2794 135.34 18.3437 135.535 18.1611C135.652 17.7888 135.422 17.6549 135.168 17.427C134.83 17.1241 134.622 17.0715 134.169 17.1037C133.553 17.4042 133.445 17.6239 133.297 18.2811Z" fill="var(--fill-0, #011D4B)"/>
<path id="Vector_42" d="M140.676 14.5178L141.484 14.5175L141.485 17.0914C142.11 16.471 143.32 16.097 143.996 16.8278C144.731 17.6212 144.488 19.7396 144.479 20.8469H143.679V18.4021C143.653 18.0475 143.643 17.7216 143.406 17.437C143.066 17.0085 142.335 16.9675 141.967 17.3819C141.273 18.1651 141.475 19.8502 141.484 20.8469H140.676V14.5178Z" fill="var(--fill-0, #011D4B)"/>
<path id="Vector_43" d="M156.547 37.4665L157.355 37.4658V40.0709C158.236 38.9722 160.056 39.1619 160.291 40.6234C160.443 41.5637 160.368 42.8071 160.36 43.7846H159.54V41.5506C159.538 41.1771 159.553 40.6387 159.224 40.3422C158.31 39.5211 157.443 40.4161 157.374 41.4535C157.327 42.1759 157.347 43.0104 157.355 43.7847L156.547 43.7848V37.4665Z" fill="var(--fill-0, #011D4B)"/>
<path id="Vector_44" d="M119.647 5.30886H120.446V7.93734C121.352 6.75999 123.309 7.06641 123.434 8.67715C123.509 9.65311 123.468 10.6755 123.46 11.6583L122.652 11.6591V9.33307C122.658 8.29088 121.942 7.3662 120.952 8.16202C120.265 8.71462 120.438 10.7304 120.446 11.6583H119.647V5.30886Z" fill="var(--fill-0, #011D4B)"/>
<path id="Vector_45" d="M128.995 37.4665H129.794C129.794 37.9233 129.763 39.5996 129.835 39.9648C129.953 39.8703 130.245 39.634 130.371 39.5827C133.346 38.3675 132.809 42.1859 132.798 43.7846H131.999V41.447C131.886 40.3329 131.529 39.5506 130.281 40.325C129.631 40.7282 129.789 43.0774 129.794 43.7846H128.995V37.4665Z" fill="var(--fill-0, #011D4B)"/>
<path id="Vector_46" d="M113.114 28.2576H113.913V31.9974C114.485 31.4285 115.053 30.8547 115.615 30.276H116.722C116.299 30.7495 115.207 31.7357 114.734 32.1725C115.17 32.6757 115.673 33.1973 116.129 33.6838L116.98 34.5756H115.805L113.913 32.4015V34.5756H113.114V28.2576Z" fill="var(--fill-0, #011D4B)"/>
<path id="Vector_47" d="M64.6751 39.9889C64.8755 39.994 65.0438 39.9884 65.236 40.0504C65.4433 40.4087 65.771 41.3351 65.9443 41.7772C66.3615 42.8541 66.8002 43.9221 67.2615 44.9806C66.7397 44.9138 66.5059 44.9172 65.9834 44.9693C65.8649 44.5492 65.7294 43.9876 65.5114 43.6138C65.4345 43.482 65.3771 43.5049 65.2101 43.4702C64.7186 43.4657 64.324 43.4616 63.8318 43.5045C63.6547 43.9794 63.494 44.4802 63.3321 44.9618C63.0441 44.9106 62.9047 44.935 62.6198 44.9645C63.351 43.2917 64.0537 41.7056 64.6751 39.9889ZM64.0215 43.0208L64.6921 43.0277C64.8295 43.0273 65.1818 43.0484 65.2757 42.9832C65.2026 42.7073 64.8144 41.6522 64.6814 41.4175L64.0215 43.0208Z" fill="var(--fill-0, #011D4B)"/>
<path id="Vector_48" d="M80.5528 19.1575C80.9833 19.1927 81.3217 19.178 81.7503 19.1631C81.6267 20.1578 81.5977 21.351 81.6683 22.3491C81.7345 23.2879 82.2588 23.7191 83.1821 23.6518C85.0772 23.5137 83.893 19.7972 84.3468 19.1913C84.8572 19.0612 84.9455 19.1799 84.9543 19.6379C84.8654 20.6698 84.9965 21.9811 84.7533 22.9444C84.3953 24.3633 81.9872 24.5403 81.0633 23.6282C80.8761 23.4423 80.7425 23.2093 80.6764 22.9539C80.5333 22.4166 80.5604 19.897 80.5528 19.1575Z" fill="var(--fill-0, #011D4B)"/>
<path id="Vector_49" d="M152.654 16.5362H153.546C153.947 17.6722 154.331 18.9438 154.707 20.0986C155.067 18.9309 155.498 17.7019 155.884 16.5362H156.7L155.613 19.5731C155.279 20.3573 155.089 21.2292 154.69 21.9938C154.397 22.5559 153.275 23.0268 152.857 22.4268C152.846 21.8445 153.407 22.0955 153.719 21.9385C154.043 21.7755 154.178 21.339 154.292 21.0152C153.757 19.5185 153.21 18.0254 152.654 16.5362Z" fill="var(--fill-0, #011D4B)"/>
<path id="Vector_50" d="M155.472 7.27279C158.166 7.04124 157.557 9.75832 157.544 11.6586H156.736C156.732 10.7165 156.824 9.66705 156.689 8.74476C156.572 7.94561 155.983 7.81132 155.313 7.982C154.249 8.63091 154.529 10.5532 154.541 11.6583H153.742V7.32728C153.965 7.31839 154.158 7.3047 154.381 7.33258C154.536 7.51827 154.5 7.54975 154.537 7.80842C154.648 7.80028 155.122 7.41836 155.472 7.27279Z" fill="var(--fill-0, #011D4B)"/>
<path id="Vector_51" d="M122.144 30.1789C122.171 30.1773 122.198 30.1764 122.225 30.176C124.467 30.1493 123.945 33 123.933 34.5756H123.113C123.113 33.3635 123.627 30.1496 121.573 30.9908C120.666 31.6975 120.917 33.5196 120.929 34.5757L120.12 34.5759V30.276C120.354 30.2746 120.588 30.2778 120.821 30.2856C121.007 30.4164 120.809 30.6029 120.965 30.8306C121.351 30.3698 121.571 30.2898 122.144 30.1789Z" fill="var(--fill-0, #011D4B)"/>
<path id="Vector_52" d="M137.078 30.1796C137.098 30.1788 137.118 30.1783 137.137 30.1782C139.427 30.1649 138.88 32.9419 138.87 34.5756H138.071C138.066 33.3609 138.58 30.1446 136.501 30.9953C136.451 31.0415 136.404 31.0887 136.356 31.1368C135.663 31.848 135.866 33.5748 135.875 34.5756L135.056 34.5757V30.276C135.29 30.2746 135.524 30.2778 135.758 30.2855C135.942 30.4166 135.744 30.5879 135.901 30.839C136.233 30.3979 136.565 30.2781 137.078 30.1796Z" fill="var(--fill-0, #011D4B)"/>
<path id="Vector_53" d="M114.39 16.4757C117.076 16.2752 116.467 18.9289 116.454 20.8469H115.645C115.645 20.1373 115.662 19.4205 115.662 18.7116C115.661 17.6711 115.443 16.8746 114.223 17.187C113.161 17.8276 113.44 19.7483 113.45 20.8469H112.651V16.5362C112.85 16.5342 113.275 16.4969 113.416 16.5989C113.426 16.7767 113.436 16.917 113.46 17.0934C113.892 16.7605 113.844 16.6836 114.39 16.4757Z" fill="var(--fill-0, #011D4B)"/>
<path id="Vector_54" d="M114.668 39.3809C114.702 39.3766 114.735 39.3739 114.769 39.3729C116.977 39.2902 116.465 42.2788 116.454 43.7846L115.645 43.7848C115.64 42.5701 116.164 39.3031 114.069 40.2097C114.032 40.2452 113.996 40.2813 113.96 40.3179C113.238 41.0575 113.44 42.7496 113.45 43.7846H112.651V39.4849C112.874 39.4842 113.101 39.4893 113.323 39.4919C113.539 39.6285 113.324 39.7693 113.464 40.0402C113.893 39.59 114.083 39.4947 114.668 39.3809Z" fill="var(--fill-0, #011D4B)"/>
<path id="Vector_55" d="M76.1129 40.0213C76.7035 40.0667 78.5488 39.9487 78.8191 40.1989C78.855 40.3951 78.8494 40.4303 78.8216 40.6291C78.4372 40.6856 77.6381 40.588 77.2202 40.551C77.1931 41.0344 77.2051 41.6123 77.202 42.1029C77.541 42.1028 77.8732 42.0833 78.2097 42.0412C78.8286 41.9638 78.7971 42.2078 78.8267 42.6958C78.3288 42.644 77.7622 42.5308 77.3009 42.6792C77.1585 42.8438 77.2032 42.8681 77.1913 43.1275C77.1862 43.5529 77.2007 43.991 77.2095 44.4173C77.5366 44.4212 78.6313 44.3291 78.8216 44.3722C78.8216 44.5478 78.8279 44.7538 78.8021 44.9247C78.4473 44.9856 76.723 44.9278 76.0669 44.9765C76.0701 44.0904 76.1199 43.1674 76.1161 42.2725C76.1148 41.8697 76.0524 40.2869 76.1129 40.0213Z" fill="var(--fill-0, #011D4B)"/>
<path id="Vector_56" d="M55.8655 19.0931C56.5879 19.002 57.1255 19.1227 57.7848 19.4057L57.6015 20.2491C54.89 17.2706 53.1264 23.8622 56.4822 23.7296C56.7055 23.7208 56.9452 23.6244 57.1554 23.5458C57.2949 23.4685 57.6376 23.2218 57.7848 23.1212L57.5716 23.9023C53.1339 25.6515 51.7656 19.631 55.8655 19.0931Z" fill="var(--fill-0, #011D4B)"/>
<path id="Vector_57" d="M83.1941 39.9573C83.7953 39.9361 84.0663 39.9945 84.5818 40.2838L84.2995 41.1358C84.2478 41.0321 84.1924 40.9301 84.1331 40.8299C83.7355 40.1634 82.7296 40.3329 82.5759 40.9771C82.6868 41.8973 84.7949 42.1052 84.8094 43.3518C84.8232 44.5726 84.0216 44.9848 82.9521 45.0708C82.4107 45.0533 82.2173 44.9852 81.7162 44.7814C81.8152 44.4616 81.9097 44.0168 81.9904 43.6828C82.0906 43.9187 82.1858 44.1809 82.3937 44.3381C82.9874 44.7861 84.0562 44.7258 83.8577 43.7443C83.7985 43.3426 83.2653 43.0975 82.9508 42.9338C82.2198 42.5513 81.4219 42.0315 81.7994 41.0749C82.0805 40.3631 82.4378 40.077 83.1941 39.9573Z" fill="var(--fill-0, #011D4B)"/>
<path id="Vector_58" d="M61.1772 19.1592C61.4444 19.5275 62.014 20.8603 62.2592 21.3546C62.6544 20.6889 63.0155 19.8825 63.3157 19.1704C63.5527 19.1695 63.789 19.1699 64.026 19.1715C63.5085 20.0774 63.0056 20.9918 62.5178 21.9142C62.5078 22.6668 62.54 23.3305 62.5803 24.0836C62.0885 24.0548 61.8464 24.0547 61.3567 24.0957C61.3984 23.392 61.4327 22.7495 61.4359 22.0451C60.9357 21.2169 60.3453 20.0418 59.876 19.164C60.3552 19.1888 60.7026 19.1789 61.1772 19.1592Z" fill="var(--fill-0, #011D4B)"/>
<path id="Vector_59" d="M138.436 15.3315L138.537 15.3411C138.613 15.5709 138.578 16.2574 138.575 16.5362C138.969 16.5242 139.623 16.4291 139.821 16.8725C139.659 17.3081 138.946 17.2186 138.575 17.2088C138.58 17.983 138.422 19.3903 138.756 20.0948C138.97 20.5507 139.493 19.9529 139.77 20.3895C139.8 20.7675 139.824 20.7856 139.5 20.9271C139.364 20.9364 139.229 20.9429 139.093 20.9466C137.264 20.9879 137.759 18.4772 137.766 17.2088H136.789L136.789 16.5362H137.766V15.5553L138.436 15.3315Z" fill="var(--fill-0, #011D4B)"/>
<path id="Vector_60" d="M110.415 15.3336L110.512 15.3518C110.572 15.573 110.544 16.2696 110.541 16.5362C110.928 16.5242 111.594 16.4291 111.786 16.8725C111.63 17.3083 110.906 17.219 110.541 17.2089C110.546 17.9832 110.486 18.8961 110.544 19.5747C110.618 20.4451 111.151 20.2399 111.601 20.2371C111.679 20.2366 112.006 20.704 111.452 20.9293C111.317 20.9379 111.182 20.9436 111.047 20.9467C109.237 20.9785 109.725 18.4641 109.732 17.2089C109.375 17.2225 108.804 17.3027 108.652 16.8725C108.798 16.4425 109.379 16.5252 109.732 16.5362V15.5549L110.415 15.3336Z" fill="var(--fill-0, #011D4B)"/>
<path id="Vector_61" d="M117.429 6.11925L117.501 6.13374C117.568 6.33088 117.539 7.07497 117.536 7.32727C117.923 7.31529 118.589 7.22011 118.781 7.66359C118.626 8.09931 117.902 8.01006 117.536 7.99991C117.532 8.79471 117.481 9.63235 117.544 10.4215C117.624 11.4261 118.469 10.8027 118.73 11.1766C118.762 11.5619 118.787 11.584 118.456 11.7232C118.31 11.7326 118.163 11.7388 118.017 11.7418C116.244 11.7692 116.721 9.22122 116.727 7.99991C116.289 8.00993 115.969 8.10846 115.707 7.70585C115.807 7.21197 116.334 7.31542 116.727 7.32727V6.3452L117.429 6.11925Z" fill="var(--fill-0, #011D4B)"/>
<path id="Vector_62" d="M110.348 38.2921C110.413 38.2691 110.439 38.2847 110.505 38.3041C110.581 38.592 110.547 39.1644 110.541 39.4849C111.06 39.4709 111.347 39.3992 111.764 39.7098L111.751 39.9149C111.373 40.2055 111.017 40.1366 110.541 40.1262C110.536 40.9109 110.493 41.7324 110.539 42.5138C110.601 43.5837 111.47 42.9269 111.737 43.3442C111.754 43.5411 111.765 43.5835 111.695 43.7675L111.471 43.8621C109.152 44.1364 109.723 41.7384 109.732 40.1262C109.292 40.13 108.988 40.2302 108.689 39.858C108.713 39.3857 109.41 39.4746 109.732 39.4849V38.4977L110.348 38.2921Z" fill="var(--fill-0, #011D4B)"/>
<path id="Vector_63" d="M154.401 38.2364C154.468 38.4075 154.438 39.2478 154.436 39.4849H155.565L155.57 40.1262H154.436C154.439 40.8431 154.41 41.5639 154.429 42.2819C154.454 43.2568 154.758 43.237 155.592 43.1623C155.915 43.5825 155.528 43.7988 155.17 43.8895C155.153 43.8903 155.136 43.8909 155.119 43.8915C153.085 43.9545 153.628 41.5834 153.637 40.1262L152.67 40.1257L152.671 39.4849H153.637V38.4847L154.401 38.2364Z" fill="var(--fill-0, #011D4B)"/>
<path id="Vector_64" d="M126.614 39.3892C126.983 39.3353 127.5 39.4573 127.856 39.5397L127.793 40.238C127.281 40.0809 126.622 39.8447 126.224 40.3504C125.949 40.7997 127.001 41.2707 127.267 41.442C128.663 42.3402 128.194 43.6073 126.665 43.901C126.215 43.8794 125.762 43.9323 125.454 43.6321C125.329 43.438 125.386 43.1959 125.411 42.9597C125.997 43.1911 127.233 43.5516 127.189 42.5379C127.168 42.0619 125.382 41.6692 125.338 40.8833C125.284 39.9051 125.783 39.5342 126.614 39.3892Z" fill="var(--fill-0, #011D4B)"/>
<path id="Vector_65" d="M70.187 40.0358C70.5973 40.0655 70.9779 40.0491 71.3876 40.037C71.2666 41.0172 71.2949 43.3973 71.3397 44.4181C71.7852 44.4131 72.568 44.2802 72.8686 44.4021C72.9953 44.5825 72.9492 44.7109 72.9474 44.9636C71.9548 44.9258 71.1525 44.9076 70.163 44.9758C70.2847 43.5519 70.2412 41.4475 70.187 40.0358Z" fill="var(--fill-0, #011D4B)"/>
<path id="Vector_66" d="M124.034 16.4626C124.249 16.4489 124.562 16.4019 124.746 16.4886C124.895 16.7108 124.863 16.8787 124.826 17.1541C124.588 17.3168 124.091 17.1171 123.833 17.3186C122.897 18.0483 123.441 19.8461 123.232 20.7726C123.044 20.8799 122.878 20.8438 122.641 20.847L122.51 20.8183C122.401 20.6045 122.451 17.0625 122.452 16.5354C122.663 16.5306 122.847 16.5285 123.058 16.5362C123.226 16.6672 123.202 16.7599 123.236 17.0019C123.391 17.0009 123.63 16.6578 124.034 16.4626Z" fill="var(--fill-0, #011D4B)"/>
<path id="Vector_67" d="M124.157 39.3774C124.716 39.3743 125.079 39.4348 124.82 40.1322C122.705 39.6682 123.452 42.7033 123.231 43.7222C123.04 43.8123 122.742 43.7862 122.522 43.7846C122.391 43.6123 122.451 40.0024 122.452 39.4845C122.708 39.4802 122.897 39.4845 123.153 39.4991C123.28 39.6893 123.131 39.8541 123.226 40.0593C123.594 39.6332 123.635 39.5755 124.157 39.3774Z" fill="var(--fill-0, #011D4B)"/>
<path id="Vector_68" d="M111.588 30.1752C111.923 30.1745 112.035 30.1313 112.259 30.3769C112.303 30.5073 112.307 30.5701 112.278 30.7064C112.263 30.7734 112.249 30.8403 112.234 30.9072C111.906 30.9548 111.584 30.8195 111.296 31.0273C110.218 31.8034 110.871 33.4521 110.626 34.5128C110.435 34.6037 110.138 34.5772 109.918 34.5757C109.787 34.4033 109.846 30.7934 109.847 30.2755C110.104 30.2712 110.292 30.2756 110.548 30.2903C110.675 30.4882 110.525 30.6398 110.635 30.8223C110.995 30.4167 111.066 30.3289 111.588 30.1752Z" fill="var(--fill-0, #011D4B)"/>
<path id="Vector_69" d="M107.646 16.47C108.32 16.4158 108.629 16.3172 108.485 17.1503C108.269 17.298 107.885 17.1701 107.661 17.2496C106.431 17.6846 107.185 20.2706 106.839 20.8264L106.607 20.8632C106.453 20.8554 106.248 20.8729 106.143 20.7931C106.052 19.7322 106.117 17.6704 106.118 16.5362C106.205 16.5323 106.293 16.5301 106.38 16.5294C106.639 16.5282 106.75 16.534 106.934 16.7161C106.965 16.876 106.97 16.8088 106.878 16.9832C106.937 16.966 107.533 16.542 107.646 16.47Z" fill="var(--fill-0, #011D4B)"/>
<path id="Vector_70" d="M107.844 39.3722C108.154 39.3703 108.285 39.3514 108.504 39.5442C108.587 39.7534 108.563 39.8223 108.523 40.0481C108.364 40.234 108.003 39.9415 107.544 40.254C106.512 40.9568 107.114 42.7368 106.89 43.7139C106.715 43.8161 106.41 43.7861 106.195 43.7846C106.055 43.613 106.117 40.0071 106.118 39.4849L106.769 39.4915C106.984 39.6301 106.775 39.7038 106.909 40.0205C107.24 39.6236 107.35 39.5368 107.844 39.3722Z" fill="var(--fill-0, #011D4B)"/>
<path id="Vector_71" d="M124.877 7.32728H125.698V11.6583H124.877V7.32728Z" fill="var(--fill-0, #011D4B)"/>
<path id="Vector_72" d="M114.144 7.32729L114.952 7.32698V11.6583L114.144 11.6586V7.32729Z" fill="var(--fill-0, #011D4B)"/>
<path id="Vector_73" d="M134.237 39.4849L135.045 39.4842V43.7846L134.237 43.7848V39.4849Z" fill="var(--fill-0, #011D4B)"/>
<path id="Vector_74" d="M125.823 16.5362H126.622V20.8469H125.823V16.5362Z" fill="var(--fill-0, #011D4B)"/>
<path id="Vector_75" d="M132.84 30.276H133.639V34.5756H132.84V30.276Z" fill="var(--fill-0, #011D4B)"/>
<path id="Vector_76" d="M117.882 30.276H118.681V34.5756H117.882V30.276Z" fill="var(--fill-0, #011D4B)"/>
<path id="Vector_77" d="M151.053 39.4849H151.852V43.7846H151.053V39.4849Z" fill="var(--fill-0, #011D4B)"/>
<path id="Vector_78" d="M150.99 37.6236H151.894V38.5388H150.99V37.6236Z" fill="var(--fill-0, #011D4B)"/>
<path id="Vector_79" d="M124.836 5.48752H125.74V6.40273H124.836V5.48752Z" fill="var(--fill-0, #011D4B)"/>
<path id="Vector_80" d="M114.101 5.48752H115.004L115 6.40267L114.101 6.40273V5.48752Z" fill="var(--fill-0, #011D4B)"/>
<path id="Vector_81" d="M134.188 37.6237L135.088 37.6236V38.5388H134.174C134.17 38.2322 134.18 37.93 134.188 37.6237Z" fill="var(--fill-0, #011D4B)"/>
<path id="Vector_82" d="M117.84 28.4362H118.744V29.3298H117.84V28.4362Z" fill="var(--fill-0, #011D4B)"/>
<path id="Vector_83" d="M132.777 28.4362H133.68V29.3298H132.777V28.4362Z" fill="var(--fill-0, #011D4B)"/>
<path id="Vector_84" d="M125.781 14.6965H126.685V15.5901H125.781V14.6965Z" fill="var(--fill-0, #011D4B)"/>
<path id="Vector_85" d="M23.9367 0H23.9877C26.891 2.24819 29.5702 5.53834 28.608 9.47543C28.2327 11.0106 27.6041 12.0539 26.716 13.32C25.8839 12.5433 25.0298 11.7872 24.3888 10.8424C25.8738 8.52148 25.9346 6.617 23.9746 4.60372C21.3144 7.11106 22.5635 10.0327 24.7632 12.326C25.4515 13.0437 26.222 13.663 26.8941 14.4027C27.7616 15.3574 28.4669 16.3688 29.1463 17.4617C27.3939 16.7911 25.8303 16.3481 23.9547 16.2528C21.4309 13.8321 18.7807 11.1947 19.1273 7.30042C19.4068 4.16017 21.6424 1.91672 23.9367 0Z" fill="var(--fill-0, #011D4B)"/>
<path id="Vector_86" d="M4.60016 24.0055C7.27916 26.6602 10.207 25.4194 12.5433 22.9752C14.2228 21.2181 15.3413 20.0829 17.4587 18.8072C16.802 20.4559 16.2987 22.2229 16.2428 24.0061C13.9541 26.3802 11.6182 28.8079 8.03562 28.8776C4.58726 28.9446 2.04286 26.5142 -3.30177e-06 24.0345V23.9705C3.85952 19.3321 7.81088 17.2818 13.3018 21.2504C12.5513 22.0714 11.7613 22.9354 10.8485 23.5701L10.8305 23.5824C8.58675 22.2024 6.54029 21.9417 4.60016 24.0055Z" fill="var(--fill-0, #011D4B)"/>
<path id="Vector_87" d="M18.7779 30.519C20.5013 31.1971 22.1304 31.6622 23.9922 31.7462C25.3466 33.0636 26.4928 34.0643 27.4873 35.6917C30.5823 40.7566 28.0085 44.7197 24.0094 48H23.9378C22.4445 46.7415 21.2994 45.7094 20.2709 44.0299C18.3223 40.8479 19.0758 37.493 21.2348 34.6826C21.9464 35.3556 23.0501 36.3532 23.5501 37.1488C22.2088 39.4214 21.887 41.4239 23.9751 43.3957C27.3937 39.9434 24.2862 36.5158 21.5013 34.0912C20.6601 33.3589 19.3781 31.4825 18.7779 30.519Z" fill="var(--fill-0, #011D4B)"/>
<path id="Vector_88" d="M162.829 16.8244C163.705 16.3778 165.04 16.1285 165.697 17.0825C165.902 17.379 165.934 17.6658 166 18.0125V20.8469C165.785 20.8543 165.44 20.9006 165.28 20.7852C165.24 20.6261 165.242 20.5883 165.245 20.4277C165.103 20.4243 164.817 20.6471 164.68 20.7363C163.947 21.211 162.743 20.9789 162.39 20.0728C162.27 19.7723 162.28 19.4352 162.419 19.143C162.812 18.2976 163.845 18.1404 164.672 18.1775C164.854 18.1856 164.969 18.2017 165.145 18.1346C165.236 16.5882 163.771 17.1357 162.913 17.4514C162.827 17.3472 162.836 16.9835 162.829 16.8244ZM164.208 20.2983C165.052 20.0348 165.196 19.6791 165.171 18.8015C164.913 18.7994 164.459 18.784 164.22 18.81C162.669 19.1083 163.062 20.3915 164.208 20.2983Z" fill="var(--fill-0, #011D4B)"/>
</g>
<defs>
<clipPath id="clip0_0_3">
<rect width="166" height="48" fill="white"/>
</clipPath>
</defs>
</svg>
