<svg preserveAspectRatio="none" width="77.5758" height="32.4446" overflow="visible" style="display: block;" viewBox="0 0 77.5758 32.4446" fill="none" xmlns="http://www.w3.org/2000/svg">
<g id="Vector">
<path d="M0 6.89484V0.542291H0.803753V6.89484H0Z" fill="#1B1B1B"/>
<path d="M2.46641 6.89484V2.18853H3.12491L3.19269 2.8664H3.22175C3.4477 2.64044 3.68657 2.45322 3.93834 2.30474C4.19012 2.1498 4.47741 2.07233 4.8002 2.07233C5.2973 2.07233 5.65883 2.2305 5.88478 2.54683C6.11719 2.85671 6.2334 3.31185 6.2334 3.91224V6.89484H5.43933V4.01877C5.43933 3.57977 5.36831 3.2602 5.22629 3.06007C5.08426 2.85994 4.8583 2.75987 4.54842 2.75987C4.30956 2.75987 4.09328 2.82121 3.89961 2.94387C3.71239 3.06653 3.49935 3.24729 3.26048 3.48616V6.89484H2.46641Z" fill="#1B1B1B"/>
<path d="M9.70087 8.88002V2.18853H10.3594L10.4272 2.73082H10.4562C10.6692 2.55006 10.9017 2.39512 11.1534 2.266C11.4117 2.13689 11.6796 2.07233 11.9572 2.07233C12.564 2.07233 13.0256 2.29183 13.342 2.73082C13.6583 3.16337 13.8165 3.74439 13.8165 4.4739C13.8165 5.00328 13.7196 5.45842 13.526 5.83931C13.3387 6.22021 13.0902 6.51072 12.7803 6.71085C12.4769 6.91098 12.1444 7.01105 11.7829 7.01105C11.5634 7.01105 11.3439 6.96263 11.1244 6.86579C10.9113 6.76896 10.6951 6.63661 10.4756 6.46876L10.4949 7.29188V8.88002H9.70087ZM11.6473 6.34287C12.0347 6.34287 12.3542 6.17825 12.606 5.849C12.8642 5.51329 12.9934 5.05493 12.9934 4.4739C12.9934 3.95743 12.8965 3.54103 12.7028 3.2247C12.5156 2.9019 12.1993 2.74051 11.7538 2.74051C11.5537 2.74051 11.3503 2.79538 11.1438 2.90513C10.9436 3.01488 10.7273 3.17305 10.4949 3.37964V5.849C10.708 6.02976 10.9146 6.15888 11.1147 6.23635C11.3148 6.30736 11.4924 6.34287 11.6473 6.34287Z" fill="#1B1B1B"/>
<path d="M16.0245 7.01105C15.6307 7.01105 15.3015 6.89485 15.0368 6.66243C14.7785 6.42357 14.6494 6.09432 14.6494 5.67469C14.6494 5.15822 14.8786 4.76442 15.337 4.49327C15.8018 4.21567 16.5345 4.02199 17.5352 3.91224C17.5352 3.71211 17.5061 3.52166 17.448 3.3409C17.3964 3.16014 17.2996 3.01488 17.1575 2.90513C17.022 2.78893 16.825 2.73082 16.5668 2.73082C16.2957 2.73082 16.0407 2.78247 15.8018 2.88576C15.5629 2.98906 15.3499 3.10526 15.1627 3.23438L14.8528 2.6824C15.0723 2.54038 15.3402 2.4048 15.6565 2.27569C15.9793 2.14011 16.3279 2.07233 16.7024 2.07233C17.277 2.07233 17.6934 2.24986 17.9516 2.60493C18.2098 2.95355 18.3389 3.4216 18.3389 4.00908V6.89484H17.6804L17.6127 6.33319H17.5836C17.3641 6.51395 17.122 6.67212 16.8573 6.80769C16.5991 6.94326 16.3215 7.01105 16.0245 7.01105ZM16.2569 6.37192C16.4829 6.37192 16.6959 6.31705 16.8961 6.2073C17.0962 6.09755 17.3092 5.94261 17.5352 5.74248V4.43517C16.754 4.532 16.2053 4.67726 15.8889 4.87094C15.5791 5.06461 15.4241 5.31316 15.4241 5.61659C15.4241 5.88128 15.5048 6.07495 15.6662 6.19761C15.8276 6.31382 16.0245 6.37192 16.2569 6.37192Z" fill="#1B1B1B"/>
<path d="M19.8197 6.89484V2.18853H20.4782L20.5459 3.0407H20.575C20.7364 2.74373 20.9333 2.5081 21.1657 2.33379C21.3981 2.15948 21.6467 2.07233 21.9113 2.07233C22.0986 2.07233 22.2664 2.10461 22.4149 2.16916L22.26 2.8664C22.1825 2.84057 22.1115 2.82121 22.0469 2.80829C21.9824 2.79538 21.9017 2.78893 21.8048 2.78893C21.6047 2.78893 21.3949 2.86962 21.1754 3.03102C20.9623 3.19242 20.7751 3.47325 20.6137 3.87351V6.89484H19.8197Z" fill="#1B1B1B"/>
<path d="M24.6584 7.01105C24.1549 7.01105 23.803 6.86579 23.6029 6.57528C23.4092 6.28477 23.3124 5.9071 23.3124 5.44228V2.83734H22.6152V2.23695L23.3511 2.18853L23.448 0.871539H24.1161V2.18853H25.3847V2.83734H24.1161V5.45196C24.1161 5.74248 24.1678 5.96843 24.2711 6.12983C24.3808 6.28477 24.5713 6.36224 24.8424 6.36224C24.9264 6.36224 25.0167 6.34933 25.1136 6.3235C25.2104 6.29122 25.2976 6.26217 25.375 6.23635L25.53 6.83674C25.4009 6.88193 25.2588 6.92067 25.1039 6.95295C24.9554 6.99168 24.8069 7.01105 24.6584 7.01105Z" fill="#1B1B1B"/>
<path d="M26.4489 6.89484V2.18853H27.1074L27.1752 2.8664H27.2042C27.4302 2.64044 27.669 2.45322 27.9208 2.30474C28.1726 2.1498 28.4599 2.07233 28.7827 2.07233C29.2798 2.07233 29.6413 2.2305 29.8672 2.54683C30.0997 2.85671 30.2159 3.31185 30.2159 3.91224V6.89484H29.4218V4.01877C29.4218 3.57977 29.3508 3.2602 29.2088 3.06007C29.0667 2.85994 28.8408 2.75987 28.5309 2.75987C28.292 2.75987 28.0757 2.82121 27.8821 2.94387C27.6949 3.06653 27.4818 3.24729 27.2429 3.48616V6.89484H26.4489Z" fill="#1B1B1B"/>
<path d="M33.6524 7.01105C33.2328 7.01105 32.8519 6.91421 32.5097 6.72054C32.1675 6.52041 31.8964 6.23635 31.6963 5.86837C31.4961 5.50038 31.3961 5.06138 31.3961 4.55137C31.3961 4.0349 31.4961 3.59268 31.6963 3.2247C31.9029 2.85671 32.1675 2.57266 32.4903 2.37252C32.8131 2.17239 33.1521 2.07233 33.5071 2.07233C34.1075 2.07233 34.5691 2.27246 34.8919 2.67272C35.2212 3.07298 35.3858 3.60882 35.3858 4.28023C35.3858 4.36415 35.3826 4.44808 35.3761 4.532C35.3761 4.60947 35.3696 4.67726 35.3567 4.73536H32.1805C32.2127 5.23246 32.3677 5.6295 32.6453 5.92647C32.9293 6.22344 33.2973 6.37192 33.7492 6.37192C33.9752 6.37192 34.1818 6.33964 34.369 6.27508C34.5627 6.20407 34.7467 6.11369 34.921 6.00394L35.2018 6.52686C35.0017 6.65598 34.7725 6.76896 34.5142 6.86579C34.2625 6.96263 33.9752 7.01105 33.6524 7.01105ZM32.1708 4.16402H34.6886C34.6886 3.68629 34.5853 3.32476 34.3787 3.07944C34.1785 2.82766 33.8945 2.70177 33.5265 2.70177C33.1973 2.70177 32.9003 2.83089 32.6356 3.08912C32.3774 3.3409 32.2224 3.6992 32.1708 4.16402Z" fill="#1B1B1B"/>
<path d="M36.5487 6.89484V2.18853H37.2072L37.275 3.0407H37.3041C37.4655 2.74373 37.6624 2.5081 37.8948 2.33379C38.1272 2.15948 38.3758 2.07233 38.6404 2.07233C38.8277 2.07233 38.9955 2.10461 39.144 2.16916L38.9891 2.8664C38.9116 2.84057 38.8406 2.82121 38.776 2.80829C38.7115 2.79538 38.6308 2.78893 38.5339 2.78893C38.3338 2.78893 38.124 2.86962 37.9045 3.03102C37.6914 3.19242 37.5042 3.47325 37.3428 3.87351V6.89484H36.5487Z" fill="#1B1B1B"/>
<path d="M41.0979 7.01105C40.7622 7.01105 40.4427 6.94972 40.1392 6.82706C39.8358 6.69794 39.5711 6.543 39.3452 6.36224L39.7422 5.82963C39.9488 5.99103 40.1618 6.1266 40.3813 6.23635C40.6008 6.33964 40.8494 6.39129 41.127 6.39129C41.4369 6.39129 41.6693 6.32027 41.8242 6.17825C41.9791 6.02976 42.0566 5.85545 42.0566 5.65532C42.0566 5.49393 42.0017 5.35835 41.892 5.2486C41.7887 5.13885 41.6531 5.04847 41.4853 4.97746C41.3239 4.89999 41.156 4.82897 40.9817 4.76442C40.7622 4.68049 40.546 4.58688 40.3329 4.48359C40.1199 4.37384 39.9456 4.23504 39.81 4.06718C39.6744 3.89288 39.6066 3.67338 39.6066 3.40869C39.6066 3.02779 39.7487 2.71146 40.0327 2.45968C40.3232 2.20144 40.7235 2.07233 41.2335 2.07233C41.524 2.07233 41.7952 2.12397 42.0469 2.22727C42.2987 2.33056 42.515 2.45645 42.6957 2.60493L42.3084 3.10849C42.147 2.98583 41.9791 2.88576 41.8048 2.80829C41.6305 2.73082 41.4401 2.69209 41.2335 2.69209C40.9365 2.69209 40.717 2.75987 40.575 2.89545C40.4394 3.03102 40.3716 3.18919 40.3716 3.36995C40.3716 3.51844 40.4201 3.6411 40.5169 3.73794C40.6137 3.82832 40.7396 3.90902 40.8946 3.98003C41.0495 4.04459 41.2141 4.11237 41.3884 4.18339C41.6144 4.26732 41.8371 4.36415 42.0566 4.4739C42.2761 4.5772 42.4569 4.71922 42.5989 4.89999C42.7474 5.0743 42.8216 5.30993 42.8216 5.6069C42.8216 5.85868 42.7539 6.09109 42.6183 6.30414C42.4892 6.51718 42.2955 6.68826 42.0373 6.81737C41.7855 6.94649 41.4724 7.01105 41.0979 7.01105Z" fill="#1B1B1B"/>
<path d="M43.9251 6.89484V0H44.7191V1.87865L44.6901 2.84703C44.916 2.63399 45.1517 2.45322 45.397 2.30474C45.6488 2.1498 45.9361 2.07233 46.2588 2.07233C46.7559 2.07233 47.1175 2.2305 47.3434 2.54683C47.5758 2.85671 47.692 3.31185 47.692 3.91224V6.89484H46.898V4.01877C46.898 3.57977 46.827 3.2602 46.6849 3.06007C46.5429 2.85994 46.3169 2.75987 46.0071 2.75987C45.7682 2.75987 45.5519 2.82121 45.3583 2.94387C45.171 3.06653 44.958 3.24729 44.7191 3.48616V6.89484H43.9251Z" fill="#1B1B1B"/>
<path d="M49.1925 6.89484V2.18853H49.9866V6.89484H49.1925ZM49.5992 1.22016C49.4443 1.22016 49.3152 1.17496 49.2119 1.08458C49.115 0.987745 49.0666 0.858628 49.0666 0.697231C49.0666 0.542291 49.115 0.416402 49.2119 0.319564C49.3152 0.222727 49.4443 0.174308 49.5992 0.174308C49.7542 0.174308 49.88 0.222727 49.9769 0.319564C50.0802 0.416402 50.1318 0.542291 50.1318 0.697231C50.1318 0.858628 50.0802 0.987745 49.9769 1.08458C49.88 1.17496 49.7542 1.22016 49.5992 1.22016Z" fill="#1B1B1B"/>
<path d="M51.5756 8.88002V2.18853H52.2341L52.3019 2.73082H52.3309C52.544 2.55006 52.7764 2.39512 53.0282 2.266C53.2864 2.13689 53.5543 2.07233 53.8319 2.07233C54.4388 2.07233 54.9004 2.29183 55.2167 2.73082C55.533 3.16337 55.6912 3.74439 55.6912 4.4739C55.6912 5.00328 55.5944 5.45842 55.4007 5.83931C55.2135 6.22021 54.9649 6.51072 54.6551 6.71085C54.3516 6.91098 54.0192 7.01105 53.6576 7.01105C53.4381 7.01105 53.2186 6.96263 52.9991 6.86579C52.7861 6.76896 52.5698 6.63661 52.3503 6.46876L52.3697 7.29188V8.88002H51.5756ZM53.5221 6.34287C53.9094 6.34287 54.229 6.17825 54.4807 5.849C54.739 5.51329 54.8681 5.05493 54.8681 4.4739C54.8681 3.95743 54.7713 3.54103 54.5776 3.2247C54.3904 2.9019 54.074 2.74051 53.6286 2.74051C53.4284 2.74051 53.2251 2.79538 53.0185 2.90513C52.8184 3.01488 52.6021 3.17305 52.3697 3.37964V5.849C52.5827 6.02976 52.7893 6.15888 52.9894 6.23635C53.1896 6.30736 53.3671 6.34287 53.5221 6.34287Z" fill="#1B1B1B"/>
<path d="M59.6314 6.89484L58.3241 2.18853H59.1375L59.8347 4.90967C59.8864 5.12917 59.9348 5.34867 59.98 5.56817C60.0252 5.78121 60.0704 5.99748 60.1156 6.21698H60.1543C60.2059 5.99748 60.2576 5.78121 60.3092 5.56817C60.3609 5.34867 60.4158 5.12917 60.4739 4.90967L61.2001 2.18853H61.9748L62.7108 4.90967C62.7689 5.12917 62.8238 5.34867 62.8754 5.56817C62.9335 5.78121 62.9884 5.99748 63.0401 6.21698H63.0788C63.1304 5.99748 63.1789 5.78121 63.2241 5.56817C63.2757 5.34867 63.3241 5.12917 63.3693 4.90967L64.0569 2.18853H64.8122L63.5533 6.89484H62.5849L61.9071 4.36738C61.849 4.14143 61.7941 3.9187 61.7424 3.6992C61.6972 3.4797 61.6456 3.25052 61.5875 3.01165H61.5488C61.4971 3.25052 61.4455 3.48293 61.3938 3.70888C61.3422 3.92838 61.2841 4.15111 61.2195 4.37706L60.561 6.89484H59.6314Z" fill="#1B1B1B"/>
<path d="M65.8365 6.89484V2.18853H66.6305V6.89484H65.8365ZM66.2432 1.22016C66.0883 1.22016 65.9591 1.17496 65.8558 1.08458C65.759 0.987745 65.7106 0.858628 65.7106 0.697231C65.7106 0.542291 65.759 0.416402 65.8558 0.319564C65.9591 0.222727 66.0883 0.174308 66.2432 0.174308C66.3981 0.174308 66.524 0.222727 66.6209 0.319564C66.7242 0.416402 66.7758 0.542291 66.7758 0.697231C66.7758 0.858628 66.7242 0.987745 66.6209 1.08458C66.524 1.17496 66.3981 1.22016 66.2432 1.22016Z" fill="#1B1B1B"/>
<path d="M69.7012 7.01105C69.1977 7.01105 68.8458 6.86579 68.6457 6.57528C68.452 6.28477 68.3552 5.9071 68.3552 5.44228V2.83734H67.6579V2.23695L68.3939 2.18853L68.4907 0.871539H69.1589V2.18853H70.4275V2.83734H69.1589V5.45196C69.1589 5.74248 69.2106 5.96843 69.3139 6.12983C69.4236 6.28477 69.6141 6.36224 69.8852 6.36224C69.9691 6.36224 70.0595 6.34933 70.1563 6.3235C70.2532 6.29122 70.3403 6.26217 70.4178 6.23635L70.5728 6.83674C70.4436 6.88193 70.3016 6.92067 70.1467 6.95295C69.9982 6.99168 69.8497 7.01105 69.7012 7.01105Z" fill="#1B1B1B"/>
<path d="M71.4916 6.89484V0H72.2857V1.87865L72.2567 2.84703C72.4826 2.63399 72.7183 2.45322 72.9636 2.30474C73.2154 2.1498 73.5026 2.07233 73.8254 2.07233C74.3225 2.07233 74.6841 2.2305 74.91 2.54683C75.1424 2.85671 75.2586 3.31185 75.2586 3.91224V6.89484H74.4646V4.01877C74.4646 3.57977 74.3936 3.2602 74.2515 3.06007C74.1095 2.85994 73.8835 2.75987 73.5737 2.75987C73.3348 2.75987 73.1185 2.82121 72.9249 2.94387C72.7376 3.06653 72.5246 3.24729 72.2857 3.48616V6.89484H71.4916Z" fill="#1B1B1B"/>
<path fill-rule="evenodd" clip-rule="evenodd" d="M33.99 32.4446H77.5758V14.779H33.99V32.4446Z" fill="#0053B3"/>
<path fill-rule="evenodd" clip-rule="evenodd" d="M38.2276 16.4713H42.9383L45.8316 26.2611H45.8715L47.8535 16.4713H51.4136L48.4219 30.5886H43.7274L40.7757 20.8201H40.7358L38.7722 30.5886H35.2121L38.2276 16.4713Z" fill="var(--fill-0, white)"/>
<path fill-rule="evenodd" clip-rule="evenodd" d="M52.8085 16.4713H56.5892L55.4785 21.8721H59.9475L61.0608 16.4713H64.8415L61.9083 30.5886H58.1275L59.3816 24.5422H54.9101L53.656 30.5886H49.8753L52.8085 16.4713Z" fill="var(--fill-0, white)"/>
<path fill-rule="evenodd" clip-rule="evenodd" d="M74.7914 19.6672C74.0635 19.3244 73.0726 19.0215 71.6776 19.0215C70.1818 19.0215 68.9677 19.2422 68.9677 20.3764C68.9677 22.377 74.4488 21.6304 74.4488 25.9183C74.4488 29.8208 70.8273 30.8332 67.5515 30.8332C66.0954 30.8332 64.4162 30.4878 63.1836 30.1025L64.0737 27.2307C64.8203 27.7168 66.3186 28.041 67.5515 28.041C68.7257 28.041 70.5644 27.8177 70.5644 26.362C70.5644 24.0959 65.0832 24.9459 65.0832 20.9635C65.0832 17.3213 68.2794 16.2296 71.3747 16.2296C73.1148 16.2296 74.7517 16.4129 75.7027 16.8564L74.7914 19.6672Z" fill="var(--fill-0, white)"/>
</g>
</svg>
