<svg preserveAspectRatio="none" width="96" height="48" overflow="visible" style="display: block;" viewBox="0 0 96 48" fill="none" xmlns="http://www.w3.org/2000/svg">
<g id="Vector">
<path d="M0 8.81128V0.693022H1.01806V8.81128H0Z" fill="white"/>
<path d="M3.12403 8.81128V2.79684H3.9581L4.04396 3.66311H4.08076C4.36696 3.37436 4.66952 3.1351 4.98843 2.94534C5.30734 2.74734 5.67122 2.64833 6.08008 2.64833C6.70972 2.64833 7.16764 2.85046 7.45384 3.25473C7.74822 3.65074 7.89541 4.23238 7.89541 4.99966V8.81128H6.88962V5.13579C6.88962 4.57477 6.79967 4.16638 6.61977 3.91062C6.43988 3.65486 6.15367 3.52699 5.76117 3.52699C5.45861 3.52699 5.18468 3.60536 4.93936 3.76212C4.70223 3.91887 4.43238 4.14988 4.12982 4.45514V8.81128H3.12403Z" fill="white"/>
<path d="M12.2874 11.3482V2.79684H13.1215L13.2073 3.48986H13.2441C13.514 3.25885 13.8084 3.06085 14.1273 2.89584C14.4544 2.73084 14.7937 2.64833 15.1453 2.64833C15.914 2.64833 16.4987 2.92884 16.8993 3.48986C17.3 4.04263 17.5004 4.78515 17.5004 5.71743C17.5004 6.39395 17.3777 6.97559 17.1324 7.46236C16.8953 7.94912 16.5804 8.32039 16.1879 8.57614C15.8036 8.8319 15.3825 8.95978 14.9246 8.95978C14.6465 8.95978 14.3685 8.8979 14.0905 8.77415C13.8206 8.6504 13.5467 8.48127 13.2687 8.26676L13.2932 9.31867V11.3482H12.2874ZM14.7528 8.10588C15.2435 8.10588 15.6482 7.8955 15.9671 7.47473C16.2942 7.04572 16.4578 6.45995 16.4578 5.71743C16.4578 5.05741 16.3351 4.52527 16.0898 4.121C15.8527 3.70849 15.452 3.50223 14.8878 3.50223C14.6343 3.50223 14.3767 3.57236 14.115 3.71262C13.8615 3.85287 13.5876 4.055 13.2932 4.31901V7.47473C13.5631 7.70574 13.8247 7.87075 14.0782 7.96975C14.3317 8.0605 14.5566 8.10588 14.7528 8.10588Z" fill="white"/>
<path d="M20.2971 8.95978C19.7983 8.95978 19.3813 8.81128 19.046 8.51427C18.719 8.20901 18.5554 7.78824 18.5554 7.25198C18.5554 6.59196 18.8457 6.08869 19.4263 5.74218C20.015 5.38742 20.9431 5.13991 22.2106 4.99966C22.2106 4.7439 22.1738 4.50052 22.1002 4.26951C22.0348 4.0385 21.9121 3.85287 21.7322 3.71262C21.5605 3.56411 21.3111 3.48986 20.984 3.48986C20.6406 3.48986 20.3176 3.55586 20.015 3.68787C19.7125 3.81987 19.4426 3.96837 19.2055 4.13338L18.813 3.42798C19.091 3.24648 19.4304 3.07322 19.831 2.90822C20.2399 2.73496 20.6815 2.64833 21.1558 2.64833C21.8835 2.64833 22.4109 2.87521 22.738 3.32898C23.0651 3.77449 23.2287 4.37264 23.2287 5.12341V8.81128H22.3946L22.3087 8.0935H22.2719C21.9939 8.32451 21.6873 8.52664 21.352 8.6999C21.0249 8.87315 20.6733 8.95978 20.2971 8.95978ZM20.5915 8.143C20.8777 8.143 21.1476 8.07288 21.4011 7.93262C21.6546 7.79237 21.9244 7.59436 22.2106 7.33861V5.66793C21.2212 5.79168 20.5261 5.97731 20.1254 6.22482C19.7329 6.47233 19.5367 6.78996 19.5367 7.17772C19.5367 7.51599 19.6389 7.76349 19.8433 7.92025C20.0477 8.06875 20.2971 8.143 20.5915 8.143Z" fill="white"/>
<path d="M25.1042 8.81128V2.79684H25.9382L26.0241 3.88587H26.0609C26.2653 3.50636 26.5147 3.20523 26.8091 2.98247C27.1035 2.75971 27.4183 2.64833 27.7536 2.64833C27.9907 2.64833 28.2033 2.68958 28.3914 2.77209L28.1951 3.66311C28.097 3.63011 28.0071 3.60536 27.9253 3.58886C27.8435 3.57236 27.7413 3.56411 27.6187 3.56411C27.3652 3.56411 27.0994 3.66724 26.8214 3.8735C26.5515 4.07975 26.3144 4.43864 26.11 4.95016V8.81128H25.1042Z" fill="white"/>
<path d="M31.2331 8.95978C30.5953 8.95978 30.1497 8.77415 29.8962 8.40289C29.6508 8.03163 29.5282 7.54899 29.5282 6.95497V3.62599H28.6451V2.85871L29.5772 2.79684L29.6999 1.11378H30.5462V2.79684H32.1531V3.62599H30.5462V6.96734C30.5462 7.3386 30.6117 7.62736 30.7425 7.83362C30.8815 8.03163 31.1227 8.13063 31.4662 8.13063C31.5725 8.13063 31.687 8.11413 31.8096 8.08113C31.9323 8.03988 32.0427 8.00275 32.1408 7.96975L32.337 8.73702C32.1735 8.79478 31.9936 8.84428 31.7974 8.88553C31.6093 8.93503 31.4212 8.95978 31.2331 8.95978Z" fill="white"/>
<path d="M33.5009 8.81128V2.79684H34.335L34.4209 3.66311H34.4577C34.7439 3.37436 35.0464 3.1351 35.3653 2.94534C35.6843 2.74734 36.0481 2.64833 36.457 2.64833C37.0866 2.64833 37.5446 2.85046 37.8308 3.25473C38.1251 3.65074 38.2723 4.23238 38.2723 4.99966V8.81128H37.2665V5.13579C37.2665 4.57477 37.1766 4.16638 36.9967 3.91062C36.8168 3.65486 36.5306 3.52699 36.1381 3.52699C35.8355 3.52699 35.5616 3.60536 35.3163 3.76212C35.0791 3.91887 34.8093 4.14988 34.5067 4.45514V8.81128H33.5009Z" fill="white"/>
<path d="M42.6251 8.95978C42.0936 8.95978 41.6112 8.83603 41.1778 8.58852C40.7444 8.33276 40.401 7.96975 40.1475 7.49949C39.894 7.02922 39.7672 6.4682 39.7672 5.81643C39.7672 5.15641 39.894 4.59127 40.1475 4.121C40.4091 3.65074 40.7444 3.28773 41.1532 3.03197C41.5621 2.77621 41.9914 2.64833 42.4412 2.64833C43.2016 2.64833 43.7863 2.90409 44.1952 3.41561C44.6122 3.92712 44.8207 4.61189 44.8207 5.46992C44.8207 5.57717 44.8166 5.68443 44.8084 5.79168C44.8084 5.89068 44.8003 5.97731 44.7839 6.05156H40.7607C40.8016 6.68683 40.9979 7.19423 41.3495 7.57374C41.7093 7.95325 42.1754 8.143 42.7478 8.143C43.034 8.143 43.2957 8.10175 43.5328 8.01925C43.7781 7.9285 44.0112 7.81299 44.232 7.67274L44.5877 8.34101C44.3342 8.50602 44.0439 8.6504 43.7168 8.77415C43.3979 8.8979 43.034 8.95978 42.6251 8.95978ZM40.7485 5.32142H43.9376C43.9376 4.7109 43.8067 4.24888 43.5451 3.93537C43.2916 3.61361 42.9318 3.45273 42.4657 3.45273C42.0487 3.45273 41.6725 3.61774 41.3372 3.94775C41.0101 4.26951 40.8139 4.7274 40.7485 5.32142Z" fill="white"/>
<path d="M46.2938 8.81128V2.79684H47.1278L47.2137 3.88587H47.2505C47.4549 3.50636 47.7043 3.20523 47.9987 2.98247C48.2931 2.75971 48.6079 2.64833 48.9432 2.64833C49.1803 2.64833 49.3929 2.68958 49.581 2.77209L49.3847 3.66311C49.2866 3.63011 49.1967 3.60536 49.1149 3.58886C49.0331 3.57236 48.9309 3.56411 48.8082 3.56411C48.5547 3.56411 48.289 3.66724 48.011 3.8735C47.7411 4.07975 47.504 4.43864 47.2995 4.95016V8.81128H46.2938Z" fill="white"/>
<path d="M52.0559 8.95978C51.6307 8.95978 51.2259 8.8814 50.8416 8.72465C50.4572 8.55964 50.122 8.36164 49.8358 8.13063L50.3387 7.44998C50.6003 7.65624 50.8702 7.8295 51.1482 7.96975C51.4262 8.10175 51.7411 8.16776 52.0927 8.16776C52.4852 8.16776 52.7796 8.077 52.9758 7.8955C53.1721 7.70574 53.2702 7.48298 53.2702 7.22723C53.2702 7.02097 53.2007 6.84771 53.0617 6.70746C52.9308 6.56721 52.7591 6.4517 52.5465 6.36095C52.3421 6.26195 52.1295 6.17119 51.9087 6.08869C51.6307 5.98144 51.3567 5.86181 51.0869 5.7298C50.817 5.58955 50.5963 5.41217 50.4245 5.19766C50.2528 4.97491 50.167 4.6944 50.167 4.35614C50.167 3.86937 50.3469 3.46511 50.7066 3.14335C51.0746 2.81334 51.5816 2.64833 52.2276 2.64833C52.5956 2.64833 52.939 2.71433 53.2579 2.84634C53.5768 2.97834 53.8508 3.13922 54.0797 3.32898L53.5891 3.9725C53.3847 3.81574 53.1721 3.68787 52.9513 3.58886C52.7305 3.48986 52.4893 3.44036 52.2276 3.44036C51.8515 3.44036 51.5734 3.52699 51.3935 3.70024C51.2218 3.8735 51.1359 4.07563 51.1359 4.30663C51.1359 4.49639 51.1973 4.65315 51.3199 4.7769C51.4426 4.8924 51.602 4.99553 51.7983 5.08628C51.9946 5.16879 52.2031 5.25541 52.4239 5.34617C52.7101 5.45342 52.9922 5.57717 53.2702 5.71743C53.5482 5.84943 53.7772 6.03094 53.9571 6.26195C54.1452 6.4847 54.2392 6.78584 54.2392 7.16535C54.2392 7.48711 54.1533 7.78412 53.9816 8.05638C53.8181 8.32864 53.5727 8.54727 53.2457 8.71227C52.9267 8.87728 52.5302 8.95978 52.0559 8.95978Z" fill="white"/>
<path d="M55.6368 8.81128V0H56.6426V2.40083L56.6058 3.63836C56.892 3.36611 57.1905 3.1351 57.5012 2.94534C57.8201 2.74734 58.184 2.64833 58.5929 2.64833C59.2225 2.64833 59.6804 2.85046 59.9666 3.25473C60.261 3.65074 60.4082 4.23238 60.4082 4.99966V8.81128H59.4024V5.13579C59.4024 4.57477 59.3125 4.16638 59.1326 3.91062C58.9527 3.65486 58.6665 3.52699 58.274 3.52699C57.9714 3.52699 57.6975 3.60536 57.4521 3.76212C57.215 3.91887 56.9452 4.14988 56.6426 4.45514V8.81128H55.6368Z" fill="white"/>
<path d="M62.3087 8.81128V2.79684H63.3145V8.81128H62.3087ZM62.8239 1.5593C62.6276 1.5593 62.4641 1.50155 62.3332 1.38604C62.2106 1.26229 62.1493 1.09728 62.1493 0.891028C62.1493 0.693021 62.2106 0.532141 62.3332 0.408388C62.4641 0.284634 62.6276 0.222757 62.8239 0.222757C63.0201 0.222757 63.1796 0.284634 63.3022 0.408388C63.4331 0.532141 63.4985 0.693021 63.4985 0.891028C63.4985 1.09728 63.4331 1.26229 63.3022 1.38604C63.1796 1.50155 63.0201 1.5593 62.8239 1.5593Z" fill="white"/>
<path d="M65.3272 11.3482V2.79684H66.1613L66.2472 3.48986H66.284C66.5538 3.25885 66.8482 3.06085 67.1671 2.89584C67.4942 2.73084 67.8335 2.64833 68.1852 2.64833C68.9538 2.64833 69.5385 2.92884 69.9392 3.48986C70.3398 4.04263 70.5402 4.78515 70.5402 5.71743C70.5402 6.39395 70.4175 6.97559 70.1722 7.46236C69.9351 7.94912 69.6203 8.32039 69.2278 8.57614C68.8434 8.8319 68.4223 8.95978 67.9644 8.95978C67.6864 8.95978 67.4083 8.8979 67.1303 8.77415C66.8605 8.6504 66.5865 8.48127 66.3085 8.26676L66.333 9.31867V11.3482H65.3272ZM67.7927 8.10588C68.2833 8.10588 68.6881 7.8955 69.007 7.47473C69.3341 7.04572 69.4976 6.45995 69.4976 5.71743C69.4976 5.05741 69.3749 4.52527 69.1296 4.121C68.8925 3.70849 68.4918 3.50223 67.9276 3.50223C67.6741 3.50223 67.4165 3.57236 67.1548 3.71262C66.9013 3.85287 66.6274 4.055 66.333 4.31901V7.47473C66.6029 7.70574 66.8645 7.87075 67.118 7.96975C67.3715 8.0605 67.5964 8.10588 67.7927 8.10588Z" fill="white"/>
<path d="M75.5309 8.81128L73.875 2.79684H74.9054L75.7885 6.27432C75.8539 6.55483 75.9152 6.83534 75.9725 7.11585C76.0297 7.38811 76.087 7.66449 76.1442 7.945H76.1933C76.2587 7.66449 76.3241 7.38811 76.3895 7.11585C76.4549 6.83534 76.5244 6.55483 76.598 6.27432L77.518 2.79684H78.4992L79.4314 6.27432C79.505 6.55483 79.5745 6.83534 79.6399 7.11585C79.7135 7.38811 79.783 7.66449 79.8485 7.945H79.8975C79.9629 7.66449 80.0243 7.38811 80.0815 7.11585C80.1469 6.83534 80.2083 6.55483 80.2655 6.27432L81.1364 2.79684H82.0931L80.4986 8.81128H79.272L78.4134 5.5813C78.3398 5.29254 78.2703 5.00791 78.2049 4.7274C78.1476 4.44689 78.0822 4.15401 78.0086 3.84875H77.9595C77.8941 4.15401 77.8287 4.45101 77.7633 4.73977C77.6979 5.02028 77.6243 5.30492 77.5425 5.59368L76.7084 8.81128H75.5309Z" fill="white"/>
<path d="M83.3905 8.81128V2.79684H84.3963V8.81128H83.3905ZM83.9056 1.5593C83.7094 1.5593 83.5459 1.50155 83.415 1.38604C83.2924 1.26229 83.231 1.09728 83.231 0.891028C83.231 0.693021 83.2924 0.532141 83.415 0.408388C83.5459 0.284634 83.7094 0.222757 83.9056 0.222757C84.1019 0.222757 84.2614 0.284634 84.384 0.408388C84.5148 0.532141 84.5803 0.693021 84.5803 0.891028C84.5803 1.09728 84.5148 1.26229 84.384 1.38604C84.2614 1.50155 84.1019 1.5593 83.9056 1.5593Z" fill="white"/>
<path d="M88.2857 8.95978C87.6479 8.95978 87.2022 8.77415 86.9487 8.40289C86.7034 8.03163 86.5807 7.54899 86.5807 6.95497V3.62599H85.6976V2.85871L86.6298 2.79684L86.7525 1.11378H87.5988V2.79684H89.2056V3.62599H87.5988V6.96734C87.5988 7.3386 87.6642 7.62736 87.795 7.83362C87.9341 8.03163 88.1753 8.13063 88.5187 8.13063C88.625 8.13063 88.7395 8.11413 88.8622 8.08113C88.9848 8.03988 89.0952 8.00275 89.1933 7.96975L89.3896 8.73702C89.226 8.79478 89.0462 8.84428 88.8499 8.88553C88.6618 8.93503 88.4737 8.95978 88.2857 8.95978Z" fill="white"/>
<path d="M90.5535 8.81128V0H91.5593V2.40083L91.5225 3.63836C91.8087 3.36611 92.1072 3.1351 92.4179 2.94534C92.7368 2.74734 93.1007 2.64833 93.5095 2.64833C94.1392 2.64833 94.5971 2.85046 94.8833 3.25473C95.1777 3.65074 95.3249 4.23238 95.3249 4.99966V8.81128H94.3191V5.13579C94.3191 4.57477 94.2291 4.16638 94.0492 3.91062C93.8693 3.65486 93.5831 3.52699 93.1906 3.52699C92.8881 3.52699 92.6141 3.60536 92.3688 3.76212C92.1317 3.91887 91.8618 4.14988 91.5593 4.45514V8.81128H90.5535Z" fill="white"/>
<path fill-rule="evenodd" clip-rule="evenodd" d="M30.5826 48H96V21.1867H30.5826V48Z" fill="#0053B3"/>
<path fill-rule="evenodd" clip-rule="evenodd" d="M37.1928 23.2492H44.3255L48.7064 38.2674H48.7669L51.768 23.2492H57.1584L52.6287 44.9062H45.5204L41.0511 29.9206H40.9906L38.0174 44.9062H32.6269L37.1928 23.2492Z" fill="var(--fill-0, white)"/>
<path fill-rule="evenodd" clip-rule="evenodd" d="M58.4993 23.2492H64.1799L62.511 31.5344H69.2258L70.8986 23.2492H76.5792L72.172 44.9062H66.4913L68.3756 35.6305H61.657L59.7727 44.9062H54.092L58.4993 23.2492Z" fill="var(--fill-0, white)"/>
<path fill-rule="evenodd" clip-rule="evenodd" d="M91.5943 28.3472C90.5245 27.8388 89.0683 27.3896 87.0182 27.3896C84.8199 27.3896 83.0355 27.7169 83.0355 29.3989C83.0355 32.3657 91.0908 31.2586 91.0908 37.6174C91.0908 43.4049 85.7685 44.9062 80.9542 44.9062C78.8142 44.9062 76.3464 44.394 74.5349 43.8226L75.8429 39.5637C76.9402 40.2847 79.1423 40.7654 80.9542 40.7654C82.6799 40.7654 85.382 40.4343 85.382 38.2754C85.382 34.9149 77.3267 36.1754 77.3267 30.2695C77.3267 24.8682 82.024 23.2492 86.573 23.2492C89.1303 23.2492 91.536 23.5211 92.9336 24.1787L91.5943 28.3472Z" fill="var(--fill-0, white)"/>
</g>
</svg>
