<svg preserveAspectRatio="none" width="80" height="80" overflow="visible" style="display: block;" viewBox="0 0 80 80" fill="none" xmlns="http://www.w3.org/2000/svg">
<g id="Vector">
<path fill-rule="evenodd" clip-rule="evenodd" d="M0 0H80V80H0V0ZM77.4343 2.56567V77.4343H2.56567V2.56567H77.4343ZM8.3615 15.2939H13.1516V20.1815H14.4832V15.2939H19.2733V14.0496H14.4832V9.27231H13.1516V14.0496H8.3615V15.2939ZM14.0445 26.8394C11.6584 26.8394 9.31849 28.8406 9.31849 32.2119C9.31849 35.7371 11.6584 37.5998 14.0445 37.5998C16.4305 37.5998 18.755 35.7218 18.755 32.2119C18.755 28.7021 16.4305 26.8394 14.0445 26.8394ZM20.8332 30.965L20.787 34.7981C20.7716 36.8301 21.5413 37.569 22.7882 37.569C23.7273 37.569 24.6971 37.138 25.513 36.122L25.6669 37.4921L27.8067 37.3689V36.8147L26.7599 36.5992V32.2735L26.8061 30.1183L26.6521 29.9644L24.42 30.1799V30.7341L25.513 30.9496L25.4668 35.4755C24.7587 36.1374 24.0198 36.4761 23.3116 36.4761C22.4804 36.4761 22.0801 35.9988 22.0801 34.6596V32.2735L22.1571 30.1183L22.0031 29.9644L19.7402 30.1799V30.7341L20.8332 30.965ZM30.0388 36.6146L28.9304 36.8147V37.3689H32.6712V36.8147L31.4089 36.5838C31.3935 35.8141 31.3781 34.8135 31.3781 34.1362V32.9816C31.6398 32.1042 32.04 31.4576 32.6558 30.9958L32.8405 31.1651C33.133 31.4114 33.4255 31.55 33.7795 31.55C34.3953 31.55 34.6878 31.1497 34.6878 30.4262C34.5031 30.0876 34.0412 29.8566 33.5794 29.8566C32.7481 29.8566 31.8707 30.5956 31.3627 31.8271L31.1934 30.0106L30.9624 29.8566L28.8073 30.7957V31.3345L30.0234 31.473C30.0542 32.0888 30.0696 32.5506 30.0696 33.3973V34.1362C30.0696 34.8289 30.0542 35.8449 30.0388 36.6146ZM16.9385 43.7497H9.27231V44.3809L10.6886 44.5502C10.7193 45.8741 10.7193 47.1979 10.7193 48.5217V49.2762C10.7193 50.6154 10.7193 51.9548 10.6886 53.2478L9.27231 53.4171V54.0483H13.6442V53.4171L12.2126 53.2478C12.1818 51.9855 12.1818 50.677 12.1818 49.153H14.5678L14.7834 50.754H15.4915V46.9671H14.7834L14.5678 48.4295H12.1818C12.1818 47.1672 12.1818 45.8279 12.2126 44.5194H15.8302L16.1688 46.4745H17.0463L16.9385 43.7497ZM18.7294 47.6418L18.6832 51.4749C18.6678 53.5069 19.4375 54.2459 20.6844 54.2459C21.6234 54.2459 22.5932 53.8148 23.4091 52.7988L23.5631 54.1689L25.7028 54.0457V53.4916L24.656 53.276V48.9503L24.7022 46.7952L24.5483 46.6412L22.3162 46.8567V47.4109L23.4091 47.6264L23.3629 52.1523C22.6548 52.8142 21.9159 53.1529 21.2078 53.1529C20.3765 53.1529 19.9763 52.6757 19.9763 51.3364V48.9503L20.0532 46.7952L19.8993 46.6412L17.6364 46.8567V47.4109L18.7294 47.6418ZM27.2602 51.1825C27.2602 51.5159 27.2554 51.7638 27.2512 51.9843C27.2478 52.1609 27.2448 52.3198 27.2448 52.4909C27.2448 53.6917 27.9221 54.2459 28.9997 54.2459C29.7848 54.2459 30.416 53.9534 30.8162 53.43L30.4467 53.0297C30.0619 53.3068 29.754 53.4454 29.4153 53.4454C28.892 53.4454 28.5687 53.1067 28.5687 52.3216V47.5495H30.6623V46.7336H28.5841L28.6764 44.64H27.7528L27.3526 46.7028L25.9825 46.8721V47.5495H27.2602V51.1825ZM32.8302 47.6418L32.7841 51.4749C32.7687 53.5069 33.5384 54.2459 34.7853 54.2459C35.7243 54.2459 36.6941 53.8148 37.51 52.7988L37.664 54.1689L39.8037 54.0457V53.4916L38.7569 53.276V48.9503L38.8031 46.7952L38.6492 46.6412L36.4171 46.8567V47.4109L37.51 47.6264L37.4638 52.1523C36.7557 52.8142 36.0168 53.1529 35.3087 53.1529C34.4774 53.1529 34.0772 52.6757 34.0772 51.3364V48.9503L34.1541 46.7952L34.0002 46.6412L31.7373 46.8567V47.4109L32.8302 47.6418ZM42.0051 53.2914L40.8967 53.4915V54.0457H44.6374V53.4915L43.3751 53.2606C43.3597 52.4909 43.3443 51.4903 43.3443 50.813V49.6584C43.606 48.781 44.0063 48.1344 44.622 47.6726L44.8068 47.842C45.0993 48.0883 45.3918 48.2268 45.7458 48.2268C46.3616 48.2268 46.6541 47.8266 46.6541 47.103C46.4693 46.7644 46.0075 46.5335 45.5457 46.5335C44.7144 46.5335 43.837 47.2724 43.329 48.5039L43.1596 46.6874L42.9287 46.5335L40.7736 47.4725V48.0113L41.9897 48.1498C42.0205 48.7656 42.0359 49.2274 42.0359 50.0741V50.813C42.0359 51.5057 42.0205 52.5217 42.0051 53.2914ZM50.5795 46.5335C48.6553 46.5335 47.0389 48.1036 47.0389 50.4589C47.0389 52.8142 48.3936 54.2458 50.4718 54.2458C51.8726 54.2458 52.8578 53.5531 53.4274 52.4602L53.058 52.1677C52.5038 52.8142 51.9034 53.2452 50.9182 53.2452C49.4404 53.2452 48.4552 52.2446 48.4244 50.3512H53.335C53.3966 50.1511 53.4428 49.8432 53.4428 49.4891C53.4428 47.6264 52.1805 46.5335 50.5795 46.5335ZM20.0481 60.4265H15.707V61.0577L17.1232 61.227C17.154 62.4739 17.154 63.7362 17.154 65.0909H12.1818C12.1818 63.8594 12.1818 62.5201 12.2126 61.2116L13.6134 61.0577V60.4265H9.27231V61.0577L10.6886 61.227C10.7193 62.5509 10.7193 63.8747 10.7193 65.1986V65.953C10.7193 67.2922 10.7193 68.6316 10.6886 69.9246L9.27231 70.094V70.7251H13.6134V70.094L12.2126 69.94C12.1818 68.6778 12.1818 67.3847 12.1818 65.8146L17.154 65.8144C17.154 67.2461 17.154 68.6161 17.1232 69.9246L15.707 70.094V70.7251H20.0481V70.094L18.6319 69.9246C18.6011 68.6008 18.6011 67.2769 18.6011 65.953V65.1987C18.6011 63.8594 18.6011 62.5201 18.6319 61.227L20.0481 61.0577V60.4265ZM24.0505 63.2103C22.1263 63.2103 20.5099 64.7805 20.5099 67.1358C20.5099 69.491 21.8646 70.9227 23.9428 70.9227C25.3436 70.9227 26.3289 70.2299 26.8984 69.137L26.529 68.8445C25.9748 69.491 25.3744 69.9221 24.3892 69.9221C22.9114 69.9221 21.9262 68.9215 21.8954 67.028H26.8061C26.8676 66.8279 26.9138 66.52 26.9138 66.1659C26.9138 64.3033 25.6515 63.2103 24.0505 63.2103ZM30.2235 70.9227C31.1318 70.9227 31.6398 70.5224 32.4865 69.6912C32.6096 70.4147 33.133 70.8765 33.8719 70.8765C34.4107 70.8765 34.8417 70.6764 35.2112 70.076L34.9033 69.7373C34.734 69.9375 34.5646 70.076 34.3029 70.076C33.9643 70.076 33.7488 69.8297 33.7488 69.1678V65.8888C33.7488 63.9492 32.9329 63.2103 31.3627 63.2103C29.7925 63.2103 28.6533 63.9492 28.3609 65.1191C28.407 65.5194 28.6687 65.7503 29.0844 65.7503C29.5 65.7503 29.7463 65.4886 29.8849 65.0114L30.1774 64.0108C30.5006 63.9338 30.7777 63.9184 31.0086 63.9184C32.0246 63.9184 32.4557 64.2879 32.4557 65.7811V66.1659C31.8399 66.3045 31.1934 66.5046 30.7161 66.6739C28.638 67.4282 28.1607 68.121 28.1607 68.9984C28.1607 70.2761 29.0998 70.9227 30.2235 70.9227ZM37.1508 69.9529L35.9193 70.1684V70.7226H39.737V70.1684L38.5055 69.9529C38.4901 69.137 38.4747 68.3057 38.4747 67.4898V61.6555L38.5363 59.4696L38.3208 59.3464L35.9193 60.0391V60.5779L37.1816 60.7319V67.4898C37.1816 68.2909 37.1668 69.0919 37.1517 69.9075L37.1508 69.9529ZM41.3752 68.6611L41.3728 68.7906C41.3705 68.9179 41.3688 69.0395 41.3688 69.1678C41.3688 70.3685 42.0461 70.9227 43.1237 70.9227C43.9088 70.9227 44.54 70.6302 44.9402 70.1068L44.5707 69.7066C44.1859 69.9837 43.878 70.1222 43.5393 70.1222C43.0159 70.1222 42.6927 69.7835 42.6927 68.9984V64.2263H44.7863V63.4104H42.7081L42.8004 61.3168H41.8768L41.4765 63.3796L40.1065 63.549V64.2263H41.3842V67.8593C41.3842 68.1926 41.3794 68.4406 41.3752 68.6611ZM46.926 69.9529L45.7715 70.1684V70.7226H49.3429V70.1684L48.2807 69.9529C48.2653 69.1832 48.2499 68.1672 48.2499 67.4898V65.3193C49.035 64.6111 49.6661 64.3187 50.4205 64.3187C51.3287 64.3187 51.6828 64.7651 51.6828 66.1813V67.4898C51.6828 68.1979 51.6674 69.1986 51.652 69.9683L50.5282 70.1684V70.7226H54.0996V70.1684L53.022 69.9529C53.0066 69.1832 52.9912 68.1979 52.9912 67.4898V66.0582C52.9912 64.0416 52.3447 63.2103 51.0208 63.2103C50.0356 63.2103 48.958 63.7953 48.2037 64.6265V61.6555L48.2653 59.4696L48.0498 59.3464L45.6945 60.0391V60.5779L46.9568 60.7319V67.4898C46.9568 68.1672 46.9414 69.1832 46.926 69.9529ZM14.0445 27.6091C16.1842 27.6091 17.0617 29.9028 17.0617 32.2119C17.0617 34.5364 16.1842 36.8301 14.0445 36.8301C11.9047 36.8301 10.9964 34.521 10.9964 32.2119C10.9964 29.9028 11.9047 27.6091 14.0445 27.6091ZM48.4552 49.7046H51.2569C51.9958 49.7046 52.1651 49.3506 52.1651 48.9041C52.1651 48.0267 51.4416 47.2416 50.4872 47.2416C49.6251 47.2416 48.6245 47.9189 48.4552 49.7046ZM24.7279 66.3815H21.9262C22.0955 64.5957 23.0961 63.9184 23.9582 63.9184C24.9126 63.9184 25.6361 64.7035 25.6361 65.581C25.6361 66.0274 25.4668 66.3815 24.7279 66.3815ZM30.7623 69.9067C31.2241 69.9067 31.5166 69.7681 32.4557 69.0908V66.7355C31.9169 66.8894 31.3627 67.0742 31.0394 67.1973C29.7001 67.7207 29.5308 68.3057 29.5308 68.7675C29.5308 69.5834 30.0542 69.9067 30.7623 69.9067Z" fill="white"/>
<path d="M77.4343 2.56567V77.4343H2.56567V2.56567H77.4343ZM80 0H0V80H80V0Z" fill="white"/>
<path d="M13.1516 15.2939H8.3615V14.0496H13.1516V9.27231H14.4832V14.0496H19.2733V15.2939H14.4832V20.1815H13.1516V15.2939Z" fill="var(--fill-0, white)"/>
<path d="M9.31849 32.2119C9.31849 28.8406 11.6584 26.8394 14.0445 26.8394C16.4305 26.8394 18.755 28.7021 18.755 32.2119C18.755 35.7218 16.4305 37.5998 14.0445 37.5998C11.6584 37.5998 9.31849 35.7371 9.31849 32.2119ZM17.0617 32.2119C17.0617 29.9028 16.1842 27.6091 14.0445 27.6091C11.9047 27.6091 10.9964 29.9028 10.9964 32.2119C10.9964 34.521 11.9047 36.8301 14.0445 36.8301C16.1842 36.8301 17.0617 34.5364 17.0617 32.2119Z" fill="var(--fill-0, white)"/>
<path d="M20.787 34.7981L20.8332 30.965L19.7402 30.7341V30.1799L22.0031 29.9644L22.1571 30.1183L22.0801 32.2735V34.6596C22.0801 35.9988 22.4804 36.4761 23.3116 36.4761C24.0198 36.4761 24.7587 36.1374 25.4668 35.4755L25.513 30.9496L24.42 30.7341V30.1799L26.6521 29.9644L26.8061 30.1183L26.7599 32.2735V36.5992L27.8067 36.8147V37.3689L25.6669 37.4921L25.513 36.122C24.6971 37.138 23.7273 37.569 22.7882 37.569C21.5413 37.569 20.7716 36.8301 20.787 34.7981Z" fill="var(--fill-0, white)"/>
<path d="M28.9304 36.8147L30.0388 36.6146C30.0542 35.8449 30.0696 34.8289 30.0696 34.1362V33.3973C30.0696 32.5506 30.0542 32.0888 30.0234 31.473L28.8073 31.3345V30.7957L30.9624 29.8566L31.1934 30.0106L31.3627 31.8271C31.8707 30.5956 32.7481 29.8566 33.5794 29.8566C34.0412 29.8566 34.5031 30.0876 34.6878 30.4262C34.6878 31.1497 34.3953 31.55 33.7795 31.55C33.4255 31.55 33.133 31.4114 32.8405 31.1651L32.6558 30.9958C32.04 31.4576 31.6398 32.1042 31.3781 32.9816V34.1362C31.3781 34.8135 31.3935 35.8141 31.4089 36.5838L32.6712 36.8147V37.3689H28.9304V36.8147Z" fill="var(--fill-0, white)"/>
<path d="M9.27231 43.7497H16.9385L17.0463 46.4745H16.1688L15.8302 44.5194H12.2126C12.1818 45.8279 12.1818 47.1672 12.1818 48.4295H14.5678L14.7834 46.9671H15.4915V50.754H14.7834L14.5678 49.153H12.1818C12.1818 50.677 12.1818 51.9855 12.2126 53.2478L13.6442 53.4171V54.0483H9.27231V53.4171L10.6886 53.2478C10.7193 51.9548 10.7193 50.6154 10.7193 49.2762V48.5217C10.7193 47.1979 10.7193 45.8741 10.6886 44.5502L9.27231 44.3809V43.7497Z" fill="var(--fill-0, white)"/>
<path d="M18.6832 51.4749L18.7294 47.6418L17.6364 47.4109V46.8567L19.8993 46.6412L20.0532 46.7952L19.9763 48.9503V51.3364C19.9763 52.6757 20.3765 53.1529 21.2078 53.1529C21.9159 53.1529 22.6548 52.8142 23.3629 52.1523L23.4091 47.6264L22.3162 47.4109V46.8567L24.5483 46.6412L24.7022 46.7952L24.656 48.9503V53.276L25.7028 53.4916V54.0457L23.5631 54.1689L23.4091 52.7988C22.5932 53.8148 21.6234 54.2459 20.6844 54.2459C19.4375 54.2459 18.6678 53.5069 18.6832 51.4749Z" fill="var(--fill-0, white)"/>
<path d="M27.2448 52.4909C27.2448 52.3198 27.2478 52.1609 27.2512 51.9843C27.2554 51.7638 27.2602 51.5159 27.2602 51.1825V47.5495H25.9825V46.8721L27.3526 46.7028L27.7528 44.64H28.6764L28.5841 46.7336H30.6623V47.5495H28.5687V52.3216C28.5687 53.1067 28.892 53.4454 29.4153 53.4454C29.754 53.4454 30.0619 53.3068 30.4467 53.0297L30.8162 53.43C30.416 53.9534 29.7848 54.2459 28.9997 54.2459C27.9221 54.2459 27.2448 53.6917 27.2448 52.4909Z" fill="var(--fill-0, white)"/>
<path d="M32.7841 51.4749L32.8302 47.6418L31.7373 47.4109V46.8567L34.0002 46.6412L34.1541 46.7952L34.0772 48.9503V51.3364C34.0772 52.6757 34.4774 53.1529 35.3087 53.1529C36.0168 53.1529 36.7557 52.8142 37.4638 52.1523L37.51 47.6264L36.4171 47.4109V46.8567L38.6492 46.6412L38.8031 46.7952L38.7569 48.9503V53.276L39.8037 53.4916V54.0457L37.664 54.1689L37.51 52.7988C36.6941 53.8148 35.7243 54.2459 34.7853 54.2459C33.5384 54.2459 32.7687 53.5069 32.7841 51.4749Z" fill="var(--fill-0, white)"/>
<path d="M40.8967 53.4915L42.0051 53.2914C42.0205 52.5217 42.0359 51.5057 42.0359 50.813V50.0741C42.0359 49.2274 42.0205 48.7656 41.9897 48.1498L40.7736 48.0113V47.4725L42.9287 46.5335L43.1596 46.6874L43.329 48.5039C43.837 47.2724 44.7144 46.5335 45.5457 46.5335C46.0075 46.5335 46.4693 46.7644 46.6541 47.103C46.6541 47.8266 46.3616 48.2268 45.7458 48.2268C45.3918 48.2268 45.0993 48.0883 44.8068 47.842L44.622 47.6726C44.0063 48.1344 43.606 48.781 43.3443 49.6584V50.813C43.3443 51.4903 43.3597 52.4909 43.3751 53.2606L44.6374 53.4915V54.0457H40.8967V53.4915Z" fill="var(--fill-0, white)"/>
<path d="M47.0389 50.4589C47.0389 48.1036 48.6553 46.5335 50.5795 46.5335C52.1805 46.5335 53.4428 47.6264 53.4428 49.4891C53.4428 49.8432 53.3966 50.1511 53.335 50.3512H48.4244C48.4552 52.2446 49.4404 53.2452 50.9182 53.2452C51.9034 53.2452 52.5038 52.8142 53.058 52.1677L53.4274 52.4602C52.8578 53.5531 51.8726 54.2458 50.4718 54.2458C48.3936 54.2458 47.0389 52.8142 47.0389 50.4589ZM48.4552 49.7046H51.2569C51.9958 49.7046 52.1651 49.3506 52.1651 48.9041C52.1651 48.0267 51.4416 47.2416 50.4872 47.2416C49.6251 47.2416 48.6245 47.9189 48.4552 49.7046Z" fill="var(--fill-0, white)"/>
<path d="M15.707 60.4265H20.0481V61.0577L18.6319 61.227C18.6011 62.5201 18.6011 63.8594 18.6011 65.1987V65.953C18.6011 67.2769 18.6011 68.6008 18.6319 69.9246L20.0481 70.094V70.7251H15.707V70.094L17.1232 69.9246C17.154 68.6161 17.154 67.2461 17.154 65.8144L12.1818 65.8146C12.1818 67.3847 12.1818 68.6778 12.2126 69.94L13.6134 70.094V70.7251H9.27231V70.094L10.6886 69.9246C10.7193 68.6316 10.7193 67.2922 10.7193 65.953V65.1986C10.7193 63.8747 10.7193 62.5509 10.6886 61.227L9.27231 61.0577V60.4265H13.6134V61.0577L12.2126 61.2116C12.1818 62.5201 12.1818 63.8594 12.1818 65.0909H17.154C17.154 63.7362 17.154 62.4739 17.1232 61.227L15.707 61.0577V60.4265Z" fill="var(--fill-0, white)"/>
<path d="M20.5099 67.1358C20.5099 64.7805 22.1263 63.2103 24.0505 63.2103C25.6515 63.2103 26.9138 64.3033 26.9138 66.1659C26.9138 66.52 26.8676 66.8279 26.8061 67.028H21.8954C21.9262 68.9215 22.9114 69.9221 24.3892 69.9221C25.3744 69.9221 25.9748 69.491 26.529 68.8445L26.8984 69.137C26.3289 70.2299 25.3436 70.9227 23.9428 70.9227C21.8646 70.9227 20.5099 69.491 20.5099 67.1358ZM21.9262 66.3815H24.7279C25.4668 66.3815 25.6361 66.0274 25.6361 65.581C25.6361 64.7035 24.9126 63.9184 23.9582 63.9184C23.0961 63.9184 22.0955 64.5957 21.9262 66.3815Z" fill="var(--fill-0, white)"/>
<path d="M32.4865 69.6912C31.6398 70.5224 31.1318 70.9227 30.2235 70.9227C29.0998 70.9227 28.1607 70.2761 28.1607 68.9984C28.1607 68.121 28.638 67.4282 30.7161 66.6739C31.1934 66.5046 31.8399 66.3045 32.4557 66.1659V65.7811C32.4557 64.2879 32.0246 63.9184 31.0086 63.9184C30.7777 63.9184 30.5006 63.9338 30.1774 64.0108L29.8849 65.0114C29.7463 65.4886 29.5 65.7503 29.0844 65.7503C28.6687 65.7503 28.407 65.5194 28.3609 65.1191C28.6533 63.9492 29.7925 63.2103 31.3627 63.2103C32.9329 63.2103 33.7488 63.9492 33.7488 65.8888V69.1678C33.7488 69.8297 33.9643 70.076 34.3029 70.076C34.5646 70.076 34.734 69.9375 34.9033 69.7373L35.2112 70.076C34.8417 70.6764 34.4107 70.8765 33.8719 70.8765C33.133 70.8765 32.6096 70.4147 32.4865 69.6912ZM30.7623 69.9067C31.2241 69.9067 31.5166 69.7681 32.4557 69.0908V66.7355C31.9169 66.8894 31.3627 67.0742 31.0394 67.1973C29.7001 67.7207 29.5308 68.3057 29.5308 68.7675C29.5308 69.5834 30.0542 69.9067 30.7623 69.9067Z" fill="var(--fill-0, white)"/>
<path d="M35.9193 70.1684L37.1508 69.9529C37.1511 69.9377 37.1514 69.9226 37.1517 69.9075C37.1668 69.0919 37.1816 68.2909 37.1816 67.4898V60.7319L35.9193 60.5779V60.0391L38.3208 59.3464L38.5363 59.4696L38.4747 61.6555V67.4898C38.4747 68.3057 38.4901 69.137 38.5055 69.9529L39.737 70.1684V70.7226H35.9193V70.1684Z" fill="var(--fill-0, white)"/>
<path d="M41.3688 69.1678C41.3688 69.0395 41.3705 68.9179 41.3728 68.7906C41.3735 68.7482 41.3744 68.7052 41.3752 68.6611C41.3794 68.4406 41.3842 68.1926 41.3842 67.8593V64.2263H40.1065V63.549L41.4765 63.3796L41.8768 61.3168H42.8004L42.7081 63.4104H44.7863V64.2263H42.6927V68.9984C42.6927 69.7835 43.0159 70.1222 43.5393 70.1222C43.878 70.1222 44.1859 69.9837 44.5707 69.7066L44.9402 70.1068C44.54 70.6302 43.9088 70.9227 43.1237 70.9227C42.0461 70.9227 41.3688 70.3685 41.3688 69.1678Z" fill="var(--fill-0, white)"/>
<path d="M45.7715 70.1684L46.926 69.9529C46.9414 69.1832 46.9568 68.1672 46.9568 67.4898V60.7319L45.6945 60.5779V60.0391L48.0498 59.3464L48.2653 59.4696L48.2037 61.6555V64.6265C48.958 63.7953 50.0356 63.2103 51.0208 63.2103C52.3447 63.2103 52.9912 64.0416 52.9912 66.0582V67.4898C52.9912 68.1979 53.0066 69.1832 53.022 69.9529L54.0996 70.1684V70.7226H50.5282V70.1684L51.652 69.9683C51.6674 69.1986 51.6828 68.1979 51.6828 67.4898V66.1813C51.6828 64.7651 51.3287 64.3187 50.4205 64.3187C49.6661 64.3187 49.035 64.6111 48.2499 65.3193V67.4898C48.2499 68.1672 48.2653 69.1832 48.2807 69.9529L49.3429 70.1684V70.7226H45.7715V70.1684Z" fill="var(--fill-0, white)"/>
<path fill-rule="evenodd" clip-rule="evenodd" d="M9.31849 32.2119C9.31849 28.8406 11.6584 26.8394 14.0445 26.8394C16.4305 26.8394 18.755 28.7021 18.755 32.2119C18.755 35.7218 16.4305 37.5998 14.0445 37.5998C11.6584 37.5998 9.31849 35.7371 9.31849 32.2119ZM20.787 34.7981L20.8332 30.965L19.7402 30.7341V30.1799L22.0031 29.9644L22.1571 30.1183L22.0801 32.2735V34.6596C22.0801 35.9988 22.4804 36.4761 23.3116 36.4761C24.0198 36.4761 24.7587 36.1374 25.4668 35.4755L25.513 30.9496L24.42 30.7341V30.1799L26.6521 29.9644L26.8061 30.1183L26.7599 32.2735V36.5992L27.8067 36.8147V37.3689L25.6669 37.4921L25.513 36.122C24.6971 37.138 23.7273 37.569 22.7882 37.569C21.5413 37.569 20.7716 36.8301 20.787 34.7981ZM28.9304 36.8147L30.0388 36.6146C30.0542 35.8449 30.0696 34.8289 30.0696 34.1362V33.3973C30.0696 32.5506 30.0542 32.0888 30.0234 31.473L28.8073 31.3345V30.7957L30.9624 29.8566L31.1934 30.0106L31.3627 31.8271C31.8707 30.5956 32.7481 29.8566 33.5794 29.8566C34.0412 29.8566 34.5031 30.0876 34.6878 30.4262C34.6878 31.1497 34.3953 31.55 33.7795 31.55C33.4255 31.55 33.133 31.4114 32.8405 31.1651L32.6558 30.9958C32.04 31.4576 31.6398 32.1042 31.3781 32.9816V34.1362C31.3781 34.8135 31.3935 35.8141 31.4089 36.5838L32.6712 36.8147V37.3689H28.9304V36.8147ZM10.6886 44.5502L9.27231 44.3809V43.7497H16.9385L17.0463 46.4745H16.1688L15.8302 44.5194H12.2126C12.1818 45.8279 12.1818 47.1672 12.1818 48.4295H14.5678L14.7834 46.9671H15.4915V50.754H14.7834L14.5678 49.153H12.1818C12.1818 50.677 12.1818 51.9855 12.2126 53.2478L13.6442 53.4171V54.0483H9.27231V53.4171L10.6886 53.2478C10.7193 51.9548 10.7193 50.6154 10.7193 49.2762V48.5217C10.7193 47.1979 10.7193 45.8741 10.6886 44.5502ZM18.6832 51.4749L18.7294 47.6418L17.6364 47.4109V46.8567L19.8993 46.6412L20.0532 46.7952L19.9763 48.9503V51.3364C19.9763 52.6757 20.3765 53.1529 21.2078 53.1529C21.9159 53.1529 22.6548 52.8142 23.3629 52.1523L23.4091 47.6264L22.3162 47.4109V46.8567L24.5483 46.6412L24.7022 46.7952L24.656 48.9503V53.276L25.7028 53.4916V54.0457L23.5631 54.1689L23.4091 52.7988C22.5932 53.8148 21.6234 54.2459 20.6844 54.2459C19.4375 54.2459 18.6678 53.5069 18.6832 51.4749ZM27.2512 51.9843C27.2554 51.7638 27.2602 51.5159 27.2602 51.1825V47.5495H25.9825V46.8721L27.3526 46.7028L27.7528 44.64H28.6764L28.5841 46.7336H30.6623V47.5495H28.5687V52.3216C28.5687 53.1067 28.892 53.4454 29.4153 53.4454C29.754 53.4454 30.0619 53.3068 30.4467 53.0297L30.8162 53.43C30.416 53.9534 29.7848 54.2459 28.9997 54.2459C27.9221 54.2459 27.2448 53.6917 27.2448 52.4909C27.2448 52.3198 27.2478 52.1609 27.2512 51.9843ZM32.7841 51.4749L32.8302 47.6418L31.7373 47.4109V46.8567L34.0002 46.6412L34.1541 46.7952L34.0772 48.9503V51.3364C34.0772 52.6757 34.4774 53.1529 35.3087 53.1529C36.0168 53.1529 36.7557 52.8142 37.4638 52.1523L37.51 47.6264L36.4171 47.4109V46.8567L38.6492 46.6412L38.8031 46.7952L38.7569 48.9503V53.276L39.8037 53.4916V54.0457L37.664 54.1689L37.51 52.7988C36.6941 53.8148 35.7243 54.2459 34.7853 54.2459C33.5384 54.2459 32.7687 53.5069 32.7841 51.4749ZM40.8967 53.4915L42.0051 53.2914C42.0205 52.5217 42.0359 51.5057 42.0359 50.813V50.0741C42.0359 49.2274 42.0205 48.7656 41.9897 48.1498L40.7736 48.0113V47.4725L42.9287 46.5335L43.1596 46.6874L43.329 48.5039C43.837 47.2724 44.7144 46.5335 45.5457 46.5335C46.0075 46.5335 46.4693 46.7644 46.6541 47.103C46.6541 47.8266 46.3616 48.2268 45.7458 48.2268C45.3918 48.2268 45.0993 48.0883 44.8068 47.842L44.622 47.6726C44.0063 48.1344 43.606 48.781 43.3443 49.6584V50.813C43.3443 51.4903 43.3597 52.4909 43.3751 53.2606L44.6374 53.4915V54.0457H40.8967V53.4915ZM47.0389 50.4589C47.0389 48.1036 48.6553 46.5335 50.5795 46.5335C52.1805 46.5335 53.4428 47.6264 53.4428 49.4891C53.4428 49.8432 53.3966 50.1511 53.335 50.3512H48.4244C48.4552 52.2446 49.4404 53.2452 50.9182 53.2452C51.9034 53.2452 52.5038 52.8142 53.058 52.1677L53.4274 52.4602C52.8578 53.5531 51.8726 54.2458 50.4718 54.2458C48.3936 54.2458 47.0389 52.8142 47.0389 50.4589ZM17.1232 61.227L15.707 61.0577V60.4265H20.0481V61.0577L18.6319 61.227C18.6011 62.5201 18.6011 63.8594 18.6011 65.1987V65.953C18.6011 67.2769 18.6011 68.6008 18.6319 69.9246L20.0481 70.094V70.7251H15.707V70.094L17.1232 69.9246C17.154 68.6161 17.154 67.2461 17.154 65.8144L12.1818 65.8146C12.1818 67.3847 12.1818 68.6778 12.2126 69.94L13.6134 70.094V70.7251H9.27231V70.094L10.6886 69.9246C10.7193 68.6316 10.7193 67.2922 10.7193 65.953V65.1986C10.7193 63.8747 10.7193 62.5509 10.6886 61.227L9.27231 61.0577V60.4265H13.6134V61.0577L12.2126 61.2116C12.1818 62.5201 12.1818 63.8594 12.1818 65.0909H17.154C17.154 63.7362 17.154 62.4739 17.1232 61.227ZM20.5099 67.1358C20.5099 64.7805 22.1263 63.2103 24.0505 63.2103C25.6515 63.2103 26.9138 64.3033 26.9138 66.1659C26.9138 66.52 26.8676 66.8279 26.8061 67.028H21.8954C21.9262 68.9215 22.9114 69.9221 24.3892 69.9221C25.3744 69.9221 25.9748 69.491 26.529 68.8445L26.8984 69.137C26.3289 70.2299 25.3436 70.9227 23.9428 70.9227C21.8646 70.9227 20.5099 69.491 20.5099 67.1358ZM32.4865 69.6912C31.6398 70.5224 31.1318 70.9227 30.2235 70.9227C29.0998 70.9227 28.1607 70.2761 28.1607 68.9984C28.1607 68.121 28.638 67.4282 30.7161 66.6739C31.1934 66.5046 31.8399 66.3045 32.4557 66.1659V65.7811C32.4557 64.2879 32.0246 63.9184 31.0086 63.9184C30.7777 63.9184 30.5006 63.9338 30.1774 64.0108L29.8849 65.0114C29.7463 65.4886 29.5 65.7503 29.0844 65.7503C28.6687 65.7503 28.407 65.5194 28.3609 65.1191C28.6533 63.9492 29.7925 63.2103 31.3627 63.2103C32.9329 63.2103 33.7488 63.9492 33.7488 65.8888V69.1678C33.7488 69.8297 33.9643 70.076 34.3029 70.076C34.5646 70.076 34.734 69.9375 34.9033 69.7373L35.2112 70.076C34.8417 70.6764 34.4107 70.8765 33.8719 70.8765C33.133 70.8765 32.6096 70.4147 32.4865 69.6912ZM35.9193 70.1684L37.1508 69.9529L37.1517 69.9075C37.1668 69.0919 37.1816 68.2909 37.1816 67.4898V60.7319L35.9193 60.5779V60.0391L38.3208 59.3464L38.5363 59.4696L38.4747 61.6555V67.4898C38.4747 68.3057 38.4901 69.137 38.5055 69.9529L39.737 70.1684V70.7226H35.9193V70.1684ZM41.3728 68.7906L41.3752 68.6611L41.3768 68.5769C41.3805 68.3772 41.3842 68.1509 41.3842 67.8593V64.2263H40.1065V63.549L41.4765 63.3796L41.8768 61.3168H42.8004L42.7081 63.4104H44.7863V64.2263H42.6927V68.9984C42.6927 69.7835 43.0159 70.1222 43.5393 70.1222C43.878 70.1222 44.1859 69.9837 44.5707 69.7066L44.9402 70.1068C44.54 70.6302 43.9088 70.9227 43.1237 70.9227C42.0461 70.9227 41.3688 70.3685 41.3688 69.1678C41.3688 69.0395 41.3705 68.9179 41.3728 68.7906ZM45.7715 70.1684L46.926 69.9529C46.9414 69.1832 46.9568 68.1672 46.9568 67.4898V60.7319L45.6945 60.5779V60.0391L48.0498 59.3464L48.2653 59.4696L48.2037 61.6555V64.6265C48.958 63.7953 50.0356 63.2103 51.0208 63.2103C52.3447 63.2103 52.9912 64.0416 52.9912 66.0582V67.4898C52.9912 68.1979 53.0066 69.1832 53.022 69.9529L54.0996 70.1684V70.7226H50.5282V70.1684L51.652 69.9683C51.6674 69.1986 51.6828 68.1979 51.6828 67.4898V66.1813C51.6828 64.7651 51.3287 64.3187 50.4205 64.3187C49.6661 64.3187 49.035 64.6111 48.2499 65.3193V67.4898C48.2499 68.1672 48.2653 69.1832 48.2807 69.9529L49.3429 70.1684V70.7226H45.7715V70.1684ZM13.1516 15.2939H8.3615V14.0496H13.1516V9.27231H14.4832V14.0496H19.2733V15.2939H14.4832V20.1815H13.1516V15.2939ZM14.0445 27.6091C16.1842 27.6091 17.0617 29.9028 17.0617 32.2119C17.0617 34.5364 16.1842 36.8301 14.0445 36.8301C11.9047 36.8301 10.9964 34.521 10.9964 32.2119C10.9964 29.9028 11.9047 27.6091 14.0445 27.6091ZM48.4552 49.7046H51.2569C51.9958 49.7046 52.1651 49.3506 52.1651 48.9041C52.1651 48.0267 51.4416 47.2416 50.4872 47.2416C49.6251 47.2416 48.6245 47.9189 48.4552 49.7046ZM24.7279 66.3815H21.9262C22.0955 64.5957 23.0961 63.9184 23.9582 63.9184C24.9126 63.9184 25.6361 64.7035 25.6361 65.581C25.6361 66.0274 25.4668 66.3815 24.7279 66.3815ZM30.7623 69.9067C31.2241 69.9067 31.5166 69.7681 32.4557 69.0908V66.7355C31.9169 66.8894 31.3627 67.0742 31.0394 67.1973C29.7001 67.7207 29.5308 68.3057 29.5308 68.7675C29.5308 69.5834 30.0542 69.9067 30.7623 69.9067Z" fill="white"/>
</g>
</svg>
