<svg preserveAspectRatio="none" width="80" height="80" overflow="visible" style="display: block;" viewBox="0 0 80 80" fill="none" xmlns="http://www.w3.org/2000/svg">
<g id="Vector">
<path fill-rule="evenodd" clip-rule="evenodd" d="M0 80H80V0H0V80Z" fill="white"/>
<path fill-rule="evenodd" clip-rule="evenodd" d="M13.1527 15.2945H8.36361V14.0509H13.1527V9.27264H14.4835V14.0509H19.2728V15.2945H14.4835V20.1818H13.1527V15.2945Z" fill="var(--fill-0, #1B1B1B)"/>
<path fill-rule="evenodd" clip-rule="evenodd" d="M17.0624 32.2131C17.0624 29.904 16.185 27.6105 14.0455 27.6105C11.9057 27.6105 10.9975 29.904 10.9975 32.2131C10.9975 34.5375 11.9057 36.8312 14.0455 36.8312C16.185 36.8312 17.0624 34.5375 17.0624 32.2131ZM9.31952 32.213C9.31952 28.8418 11.6594 26.8408 14.0455 26.8408C16.4159 26.8408 18.7557 28.7032 18.7557 32.213C18.7557 35.5997 16.4313 37.6009 14.0455 37.6009C11.644 37.6009 9.31952 35.7383 9.31952 32.213Z" fill="var(--fill-0, #1B1B1B)"/>
<path fill-rule="evenodd" clip-rule="evenodd" d="M20.7877 34.7991L20.8339 30.9663L19.741 30.7354V30.181L22.0039 29.9657L22.1578 30.1196L22.0808 32.2745V34.6606C22.0808 35.9999 22.4811 36.4771 23.3124 36.4771C24.0205 36.4771 24.7591 36.1384 25.4672 35.4765L25.5134 30.9507L24.4207 30.7354V30.181L26.6526 29.9657L26.8065 30.1196L26.7603 32.2745V36.6002L27.8071 36.8155V37.3699L25.6676 37.4931L25.5134 36.123C24.6978 37.1388 23.7277 37.57 22.789 37.57C21.5421 37.57 20.7724 36.8311 20.7877 34.7991Z" fill="var(--fill-0, #1B1B1B)"/>
<path fill-rule="evenodd" clip-rule="evenodd" d="M28.9311 36.8156L30.0394 36.6157C30.0548 35.846 30.07 34.83 30.07 34.1373V33.3984C30.07 32.5517 30.0548 32.0899 30.024 31.4741L28.8079 31.3356V30.7968L30.9628 29.8578L31.1937 30.0117L31.3631 31.8282C31.8711 30.5967 32.7485 29.8578 33.5798 29.8578C34.0416 29.8578 34.5034 30.0887 34.6881 30.4273C34.6881 31.1508 34.3957 31.5511 33.7799 31.5511C33.4258 31.5511 33.1334 31.4125 32.8409 31.1662L32.6564 30.9969C32.0404 31.4587 31.6404 32.1053 31.3787 32.9827V34.1373C31.3787 34.8144 31.3941 35.8152 31.4095 36.5849L32.6715 36.8156V37.3697H28.9311V36.8156Z" fill="var(--fill-0, #1B1B1B)"/>
<path fill-rule="evenodd" clip-rule="evenodd" d="M9.27346 43.7483H16.9391L17.0469 46.4731H16.1697L15.831 44.518H12.2134C12.1827 45.8265 12.1827 47.1655 12.1827 48.4278H14.5687L14.7842 46.9657H15.4924V50.7523H14.7842L14.5687 49.1516H12.1827C12.1827 50.6754 12.1827 51.9839 12.2134 53.2462L13.6451 53.4155V54.0466H9.27346V53.4155L10.6897 53.2462C10.7205 51.9531 10.7205 50.6138 10.7205 49.2745V48.5205C10.7205 47.1963 10.7205 45.8727 10.6897 44.5488L9.27346 44.3795V43.7483Z" fill="var(--fill-0, #1B1B1B)"/>
<path fill-rule="evenodd" clip-rule="evenodd" d="M18.6833 51.4759L18.7295 47.6431L17.6366 47.4119V46.858L19.8995 46.6425L20.0534 46.7964L19.9764 48.9513V51.3374C19.9764 52.6766 20.3767 53.1538 21.208 53.1538C21.9161 53.1538 22.6547 52.8152 23.3628 52.1532L23.409 47.6277L22.3163 47.4119V46.858L24.5482 46.6425L24.7021 46.7964L24.6559 48.9513V53.277L25.7027 53.4923V54.0467L23.5632 54.1698L23.409 52.7998C22.5934 53.8155 21.6233 54.2468 20.6846 54.2468C19.4376 54.2468 18.668 53.5079 18.6833 51.4759Z" fill="var(--fill-0, #1B1B1B)"/>
<path fill-rule="evenodd" clip-rule="evenodd" d="M27.2445 52.4919C27.2445 52.107 27.2599 51.7838 27.2599 51.1834V47.5504H25.9822V46.8733L27.3522 46.7038L27.7525 44.6412H28.6761L28.5838 46.7348H30.6617V47.5504H28.5684V52.3225C28.5684 53.1074 28.8914 53.4463 29.4148 53.4463C29.7534 53.4463 30.0613 53.3078 30.4462 53.0307L30.8156 53.4307C30.4154 53.954 29.7842 54.2468 28.9991 54.2468C27.9218 54.2468 27.2445 53.6926 27.2445 52.4919Z" fill="var(--fill-0, #1B1B1B)"/>
<path fill-rule="evenodd" clip-rule="evenodd" d="M32.7841 51.4759L32.8302 47.6431L31.7373 47.4119V46.858L34.0002 46.6425L34.1541 46.7964L34.0772 48.9513V51.3374C34.0772 52.6766 34.4774 53.1538 35.3087 53.1538C36.0168 53.1538 36.7554 52.8152 37.4636 52.1532L37.5098 47.6277L36.417 47.4119V46.858L38.6489 46.6425L38.8028 46.7964L38.7567 48.9513V53.277L39.8034 53.4923V54.0467L37.6639 54.1698L37.5098 52.7998C36.6941 53.8155 35.7243 54.2468 34.7853 54.2468C33.5384 54.2468 32.7687 53.5079 32.7841 51.4759Z" fill="var(--fill-0, #1B1B1B)"/>
<path fill-rule="evenodd" clip-rule="evenodd" d="M40.8966 53.4923L42.0049 53.2925C42.0203 52.5228 42.0357 51.5068 42.0357 50.814V50.0751C42.0357 49.2285 42.0203 48.7666 41.9895 48.1509L40.7737 48.0123V47.4736L42.9286 46.5345L43.1595 46.6885L43.3286 48.5049C43.8368 47.2737 44.7143 46.5345 45.5455 46.5345C46.0074 46.5345 46.4692 46.7654 46.6536 47.1044C46.6536 47.8276 46.3614 48.2279 45.7454 48.2279C45.3916 48.2279 45.0991 48.0893 44.8064 47.843L44.6219 47.6737C44.0061 48.1355 43.6059 48.782 43.3442 49.6595V50.814C43.3442 51.4911 43.3596 52.492 43.375 53.2617L44.6373 53.4923V54.0465H40.8966V53.4923Z" fill="var(--fill-0, #1B1B1B)"/>
<path fill-rule="evenodd" clip-rule="evenodd" d="M48.4547 49.7058H51.2564C51.9953 49.7058 52.1644 49.3517 52.1644 48.9053C52.1644 48.0278 51.4412 47.2427 50.4867 47.2427C49.6247 47.2427 48.6241 47.9201 48.4547 49.7058ZM47.0385 50.4598C47.0385 48.1048 48.6549 46.5346 50.5788 46.5346C52.1801 46.5346 53.4421 47.6276 53.4421 49.49C53.4421 49.8443 53.3959 50.1519 53.3346 50.3523H48.424C48.4547 52.2455 49.44 53.2461 50.9178 53.2461C51.9027 53.2461 52.5031 52.8151 53.0573 52.1688L53.4267 52.461C52.8572 53.554 51.8719 54.2467 50.4711 54.2467C48.3932 54.2467 47.0385 52.8151 47.0385 50.4598Z" fill="var(--fill-0, #1B1B1B)"/>
<path fill-rule="evenodd" clip-rule="evenodd" d="M15.7078 60.4251H20.0486V61.0563L18.6326 61.2256C18.6019 62.5187 18.6019 63.858 18.6019 65.1972V65.9513C18.6019 67.2752 18.6019 68.599 18.6326 69.9229L20.0486 70.0923V70.7234H15.7078V70.0923L17.124 69.9229C17.1548 68.6144 17.1548 67.2444 17.1548 65.8127H12.1828C12.1828 67.3829 12.1828 68.676 12.2136 69.9383L13.6142 70.0923V70.7234H9.27339V70.0923L10.6896 69.9229C10.7204 68.6298 10.7204 67.2906 10.7204 65.9513V65.1972C10.7204 63.8731 10.7204 62.5495 10.6896 61.2256L9.27339 61.0563V60.4251H13.6142V61.0563L12.2136 61.2105C12.1828 62.5187 12.1828 63.858 12.1828 65.0895H17.1548C17.1548 63.7346 17.1548 62.4725 17.124 61.2256L15.7078 61.0563V60.4251Z" fill="var(--fill-0, #1B1B1B)"/>
<path fill-rule="evenodd" clip-rule="evenodd" d="M21.927 66.3825H24.7284C25.4674 66.3825 25.6367 66.0285 25.6367 65.582C25.6367 64.7046 24.9134 63.9195 23.9587 63.9195C23.0969 63.9195 22.0963 64.5968 21.927 66.3825ZM20.5108 67.1366C20.5108 64.7815 22.1271 63.2114 24.0514 63.2114C25.6523 63.2114 26.9144 64.3043 26.9144 66.1667C26.9144 66.5211 26.8682 66.8287 26.8066 67.0291H21.8962C21.927 68.9223 22.9122 69.9229 24.39 69.9229C25.375 69.9229 25.9754 69.4918 26.5295 68.8456L26.899 69.1378C26.3294 70.2308 25.3442 70.9235 23.9436 70.9235C21.8654 70.9235 20.5108 69.4918 20.5108 67.1366Z" fill="var(--fill-0, #1B1B1B)"/>
<path fill-rule="evenodd" clip-rule="evenodd" d="M30.763 69.9075C31.2248 69.9075 31.5173 69.769 32.4563 69.0917V66.7366C31.9175 66.8903 31.3634 67.075 31.0401 67.1982C29.7008 67.7216 29.5315 68.3066 29.5315 68.7684C29.5315 69.5843 30.0549 69.9075 30.763 69.9075ZM32.4871 69.692C31.6404 70.523 31.1324 70.9235 30.2242 70.9235C29.1007 70.9235 28.1614 70.2767 28.1614 68.9993C28.1614 68.1218 28.6386 67.4291 30.7168 66.6748C31.194 66.5055 31.8406 66.3054 32.4563 66.1668V65.7822C32.4563 64.289 32.0253 63.9195 31.0093 63.9195C30.7784 63.9195 30.5013 63.9349 30.178 64.0119L29.8855 65.0125C29.7473 65.4895 29.5009 65.7514 29.0851 65.7514C28.654 65.7514 28.4077 65.5203 28.3618 65.1203C28.654 63.9503 29.7932 63.2112 31.3634 63.2112C32.9797 63.2112 33.7494 63.9503 33.7494 65.89V69.1686C33.7494 69.8306 33.9647 70.0769 34.3033 70.0769C34.565 70.0769 34.7344 69.9383 34.904 69.7382L35.2116 70.0769C34.8421 70.6772 34.4114 70.8771 33.8726 70.8771C33.1337 70.8771 32.6103 70.4153 32.4871 69.692Z" fill="var(--fill-0, #1B1B1B)"/>
<path fill-rule="evenodd" clip-rule="evenodd" d="M35.9198 70.1691L37.1514 69.9536C37.1667 69.1223 37.1821 68.3064 37.1821 67.4908V60.7331L35.9198 60.5792V60.0401L38.321 59.3477L38.5368 59.4708L38.475 61.6565V67.4908C38.475 68.3064 38.4906 69.1377 38.506 69.9536L39.7373 70.1691V70.7233H35.9198V70.1691Z" fill="var(--fill-0, #1B1B1B)"/>
<path fill-rule="evenodd" clip-rule="evenodd" d="M41.3689 69.1687C41.3689 68.7838 41.3843 68.4605 41.3843 67.8602V64.2272H40.1068V63.5501L41.4766 63.3805L41.8766 61.318H42.8002L42.7081 63.4116H44.7861V64.2272H42.6925V68.9993C42.6925 69.7841 43.016 70.1231 43.5394 70.1231C43.8778 70.1231 44.1857 69.9845 44.5705 69.7074L44.94 70.1074C44.5398 70.6308 43.9086 70.9236 43.1238 70.9236C42.0462 70.9236 41.3689 70.3694 41.3689 69.1687Z" fill="var(--fill-0, #1B1B1B)"/>
<path fill-rule="evenodd" clip-rule="evenodd" d="M45.7716 70.1691L46.9261 69.9536C46.9415 69.1839 46.9569 68.1679 46.9569 67.4908V60.7331L45.6946 60.5792V60.0401L48.0499 59.3477L48.2654 59.4708L48.2036 61.6565V64.6275C48.9581 63.7963 50.0354 63.2113 51.0207 63.2113C52.3445 63.2113 52.9911 64.0426 52.9911 66.0589V67.4908C52.9911 68.1987 53.0065 69.1839 53.0219 69.9536L54.0994 70.1691V70.7233H50.528V70.1691L51.6518 69.9692C51.6672 69.1995 51.6826 68.1987 51.6826 67.4908V66.1823C51.6826 64.7661 51.3285 64.3197 50.4203 64.3197C49.6662 64.3197 49.0351 64.6121 48.25 65.3203V67.4908C48.25 68.1679 48.2654 69.1839 48.2805 69.9536L49.343 70.1691V70.7233H45.7716V70.1691Z" fill="var(--fill-0, #1B1B1B)"/>
</g>
</svg>
