<?xml version="1.0" encoding="UTF-8"?>
<svg width="82px" height="82px" viewBox="0 0 82 82" version="1.1" xmlns="http://www.w3.org/2000/svg" xmlns:xlink="http://www.w3.org/1999/xlink">
    <!-- Generator: Sketch 59.1 (86144) - https://sketch.com -->
    <title>Group 34</title>
    <desc>Created with Sketch.</desc>
    <g id="OFH-corp-+-rec-site-templates-v2" stroke="none" stroke-width="0" fill="none" fill-rule="evenodd">
        <g id="PS---Participants-v1---Desktop" transform="translate(-236.000000, 0.000000)">
            <g id="Group-34" transform="translate(236.000000, 0.000000)">
                <polygon id="Fill-1" fill="#FFFFFF" points="0 82 82 82 82 0 0 0"></polygon>
                <polygon id="Fill-2" fill="#000000" points="12.9873094 15.2580636 8.09876543 15.2580636 8.09876543 13.9886554 12.9873094 13.9886554 12.9873094 9.11111111 14.3457621 9.11111111 14.3457621 13.9886554 19.2345679 13.9886554 19.2345679 15.2580636 14.3457621 15.2580636 14.3457621 20.2469136 12.9873094 20.2469136"></polygon>
                <g id="Group-33" transform="translate(10.123457, 27.333333)" fill="#000000">
                    <path d="M7.94048952,5.72572768 C7.94048952,3.35578548 7.05020381,1.00190623 4.87941651,1.00190623 C2.70836889,1.00190623 1.78684508,3.35578548 1.78684508,5.72572768 C1.78684508,8.11146949 2.70836889,10.4656121 4.87941651,10.4656121 C7.05020381,10.4656121 7.94048952,8.11146949 7.94048952,5.72572768 M0.0843688889,5.72572768 C0.0843688889,2.26561207 2.45846413,0.211925498 4.87941651,0.211925498 C7.28448952,0.211925498 9.65858476,2.12341554 9.65858476,5.72572768 C9.65858476,9.2016429 7.30010857,11.2555928 4.87941651,11.2555928 C2.44284508,11.2555928 0.0843688889,9.34383943 0.0843688889,5.72572768" id="Fill-3"></path>
                    <path d="M11.720299,8.37995761 L11.7671562,4.44611689 L10.6582038,4.20912267 L10.6582038,3.64007322 L12.9542038,3.41914194 L13.1103943,3.57713809 L13.032299,5.78882081 L13.032299,8.23776108 C13.032299,9.61232755 13.4383943,10.1021156 14.2818229,10.1021156 C15.000299,10.1021156 15.749753,9.75452408 16.4682292,9.07514066 L16.5150863,4.43005395 L15.4063943,4.20912267 L15.4063943,3.64007322 L17.6708959,3.41914194 L17.8270863,3.57713809 L17.7802292,5.78882081 L17.7802292,10.2285125 L18.8423244,10.4494438 L18.8423244,11.0184933 L16.6715371,11.1448902 L16.5150863,9.73872447 C15.6875371,10.7812357 14.7032768,11.2238882 13.7507752,11.2238882 C12.4856324,11.2238882 11.70468,10.4655067 11.720299,8.37995761" id="Fill-5"></path>
                    <path d="M19.9826971,10.4495228 L21.1072686,10.2443911 C21.1228876,9.4544104 21.1382463,8.41163584 21.1382463,7.70065318 L21.1382463,6.94227168 C21.1382463,6.07329287 21.1228876,5.59930443 21.0916495,4.96731985 L19.8577448,4.82512331 L19.8577448,4.2721368 L22.0441511,3.30836031 L22.2784368,3.46635645 L22.4502463,5.33071098 C22.9656749,4.06674181 23.8559606,3.30836031 24.6993892,3.30836031 C25.1679606,3.30836031 25.6365321,3.54535453 25.8239606,3.89294605 C25.8239606,4.63552794 25.5271987,5.04631792 24.9024368,5.04631792 C24.5431987,5.04631792 24.2464368,4.90412139 23.9496749,4.65132755 L23.7625067,4.47753179 C23.1374844,4.95152023 22.7316495,5.61510405 22.4661257,6.51568208 L22.4661257,7.70065318 C22.4661257,8.3955729 22.4817448,9.42281118 22.4973638,10.2127919 L23.7778654,10.4495228 L23.7778654,11.0183089 L19.9826971,11.0183089 L19.9826971,10.4495228 Z" id="Fill-7"></path>
                    <path d="M0.0376419048,17.5650109 L7.81540698,17.5650109 L7.92474032,20.3615427 L7.03471492,20.3615427 L6.69109587,18.3549917 L3.02061968,18.3549917 C2.98938159,19.6979589 2.98938159,21.072262 2.98938159,22.3678304 L5.41033397,22.3678304 L5.62900063,20.8671304 L6.34747683,20.8671304 L6.34747683,24.7535723 L5.62900063,24.7535723 L5.41033397,23.1106757 L2.98938159,23.1106757 C2.98938159,24.6745742 2.98938159,26.0175414 3.02061968,27.3131098 L4.47319111,27.4869056 L4.47319111,28.1346898 L0.0376419048,28.1346898 L0.0376419048,27.4869056 L1.47459429,27.3131098 C1.50583238,25.9859422 1.50583238,24.6113757 1.50583238,23.2368092 L1.50583238,22.4628915 C1.50583238,21.1038613 1.50583238,19.7453577 1.47459429,18.3865909 L0.0376419048,18.2127951 L0.0376419048,17.5650109 Z" id="Fill-9"></path>
                    <path d="M9.58512317,25.4962068 L9.63198032,21.5623661 L8.52302794,21.3251085 L8.52302794,20.7565857 L10.8190279,20.5353911 L10.9752184,20.6933873 L10.8971232,22.90507 L10.8971232,25.3540103 C10.8971232,26.7285768 11.3032184,27.2183648 12.146647,27.2183648 C12.8651232,27.2183648 13.6145771,26.8707733 14.3330533,26.1913899 L14.3799105,21.5465665 L13.2712184,21.3251085 L13.2712184,20.7565857 L15.53572,20.5353911 L15.6919105,20.6933873 L15.6450533,22.90507 L15.6450533,27.3447617 L16.7071486,27.565693 L16.7071486,28.1347425 L14.5363613,28.2611394 L14.3799105,26.8549737 C13.5523613,27.8974849 12.568101,28.3401374 11.6155994,28.3401374 C10.3504565,28.3401374 9.56950413,27.5817559 9.58512317,25.4962068" id="Fill-11"></path>
                    <path d="M18.2714483,26.538955 C18.2714483,26.1439647 18.2870673,25.8121728 18.2870673,25.1959878 L18.2870673,21.4672787 L16.9906863,21.4672787 L16.9906863,20.772359 L18.3807816,20.5982999 L18.7868768,18.4814149 L19.7240197,18.4814149 L19.6303054,20.6301625 L21.7386165,20.6301625 L21.7386165,21.4672787 L19.6146863,21.4672787 L19.6146863,26.3651593 C19.6146863,27.1706763 19.942426,27.5185311 20.4734737,27.5185311 C20.8170927,27.5185311 21.1294737,27.3763346 21.5199498,27.0919416 L21.894807,27.5024682 C21.4887117,28.0396551 20.8483308,28.3401111 20.0517594,28.3401111 C18.9586863,28.3401111 18.2714483,27.771325 18.2714483,26.538955" id="Fill-13"></path>
                    <path d="M23.8920406,25.4962068 L23.9388978,21.5623661 L22.8299454,21.3251085 L22.8299454,20.7565857 L25.1259454,20.5353911 L25.2821359,20.6933873 L25.2040406,22.90507 L25.2040406,25.3540103 C25.2040406,26.7285768 25.6101359,27.2183648 26.4535644,27.2183648 C27.1720406,27.2183648 27.9214946,26.8707733 28.6399708,26.1913899 L28.6868279,21.5465665 L27.5781359,21.3251085 L27.5781359,20.7565857 L29.8426375,20.5353911 L29.9988279,20.6933873 L29.9519708,22.90507 L29.9519708,27.3447617 L31.014066,27.565693 L31.014066,28.1347425 L28.8432787,28.2611394 L28.6868279,26.8549737 C27.8592787,27.8974849 26.8752787,28.3401374 25.9225168,28.3401374 C24.657374,28.3401374 23.8764216,27.5817559 23.8920406,25.4962068" id="Fill-15"></path>
                    <path d="M32.1231746,27.565772 L33.247746,27.3606403 C33.2633651,26.5706596 33.2789841,25.527885 33.2789841,24.8169024 L33.2789841,24.0585209 C33.2789841,23.1895421 33.2633651,22.7155536 33.232127,22.083569 L31.9984825,21.9413725 L31.9984825,21.388386 L34.1848889,20.4246095 L34.4191746,20.5826057 L34.5907238,22.4469602 C35.1064127,21.1832543 35.9966984,20.4246095 36.840127,20.4246095 C37.3086984,20.4246095 37.7772698,20.6616037 37.9644381,21.0094586 C37.9644381,21.7517771 37.6679365,22.1625671 37.0429143,22.1625671 C36.6839365,22.1625671 36.3871746,22.0203706 36.0901524,21.7675768 L35.9029841,21.593781 C35.2782222,22.0677694 34.872127,22.7313532 34.6066032,23.6319313 L34.6066032,24.8169024 C34.6066032,25.5118221 34.6222222,26.5390604 34.6378413,27.3290411 L35.9186032,27.565772 L35.9186032,28.1345581 L32.1231746,28.1345581 L32.1231746,27.565772 Z" id="Fill-17"></path>
                    <path d="M39.7918667,23.6794091 L42.6345333,23.6794091 C43.3842476,23.6794091 43.5557968,23.316018 43.5557968,22.8578292 C43.5557968,21.9572511 42.8219619,21.1514708 41.853581,21.1514708 C40.9789143,21.1514708 39.9636762,21.8466538 39.7918667,23.6794091 M38.3549143,24.4533269 C38.3549143,22.0362492 39.9949143,20.4246885 41.9470349,20.4246885 C43.5716762,20.4246885 44.8521778,21.5464611 44.8521778,23.4579512 C44.8521778,23.8216057 44.8053206,24.1373346 44.7431048,24.3429929 L39.7606286,24.3429929 C39.7918667,26.2860822 40.7914857,27.3130572 42.2909143,27.3130572 C43.290273,27.3130572 43.8994159,26.870668 44.4617016,26.2073475 L44.8365587,26.5072768 C44.258654,27.6290495 43.2590349,28.3400321 41.8377016,28.3400321 C39.7293905,28.3400321 38.3549143,26.870668 38.3549143,24.4533269" id="Fill-19"></path>
                    <path d="M6.5660654,34.6812601 L10.9703765,34.6812601 L10.9703765,35.3290443 L9.53368444,35.5028401 C9.50244635,36.8300077 9.50244635,38.2045742 9.50244635,39.5791407 L9.50244635,40.3530584 C9.50244635,41.7118253 9.50244635,43.0705922 9.53368444,44.429359 L10.9703765,44.6031548 L10.9703765,45.250939 L6.5660654,45.250939 L6.5660654,44.6031548 L8.00301778,44.429359 C8.03425587,43.0863918 8.03425587,41.6802261 8.03425587,40.2108619 L2.98956381,40.2108619 C2.98956381,41.8224226 2.98956381,43.1495902 3.0208019,44.4451586 L4.44187492,44.6031548 L4.44187492,45.250939 L0.0375638095,45.250939 L0.0375638095,44.6031548 L1.47451619,44.429359 C1.50575429,43.1021914 1.50575429,41.7276249 1.50575429,40.3530584 L1.50575429,39.5791407 C1.50575429,38.2201105 1.50575429,36.8616069 1.47451619,35.5028401 L0.0375638095,35.3290443 L0.0375638095,34.6812601 L4.44187492,34.6812601 L4.44187492,35.3290443 L3.0208019,35.4873038 C2.98956381,36.8300077 2.98956381,38.2045742 2.98956381,39.4685434 L8.03425587,39.4685434 C8.03425587,38.0779139 8.03425587,36.7826089 8.00301778,35.5028401 L6.5660654,35.3290443 L6.5660654,34.6812601 Z" id="Fill-21"></path>
                    <path d="M12.8762127,40.7956583 L15.718619,40.7956583 C16.4683333,40.7956583 16.6401429,40.4322672 16.6401429,39.9740784 C16.6401429,39.0735003 15.9063079,38.26772 14.9376667,38.26772 C14.0632603,38.26772 13.0480222,38.962903 12.8762127,40.7956583 M11.4392603,41.5695761 C11.4392603,39.1524984 13.0792603,37.5409377 15.0316413,37.5409377 C16.6560222,37.5409377 17.9365238,38.6627103 17.9365238,40.5742004 C17.9365238,40.9378548 17.8896667,41.2535838 17.8271905,41.4592421 L12.8449746,41.4592421 C12.8762127,43.4023314 13.8758317,44.4293064 15.3752603,44.4293064 C16.374619,44.4293064 16.9837619,43.9869171 17.5460476,43.3235967 L17.9209048,43.623526 C17.343,44.7452987 16.343381,45.4562813 14.9223079,45.4562813 C12.8137365,45.4562813 11.4392603,43.9869171 11.4392603,41.5695761" id="Fill-23"></path>
                    <path d="M21.8414159,44.4135594 C22.3099873,44.4135594 22.6067492,44.2713629 23.5595111,43.5761798 L23.5595111,41.1591021 C23.0128444,41.3168349 22.4505587,41.5064303 22.1225587,41.6328272 C20.7637016,42.1700141 20.5918921,42.7703995 20.5918921,43.2443879 C20.5918921,44.0817675 21.1229397,44.4135594 21.8414159,44.4135594 M23.5907492,44.1923648 C22.7317016,45.0452807 22.216273,45.456334 21.2947492,45.456334 C20.154819,45.456334 19.2017968,44.7924868 19.2017968,43.4813821 C19.2017968,42.5808041 19.6859873,41.8698215 21.7945587,41.0956403 C22.2787492,40.9218446 22.9347492,40.7164496 23.5595111,40.5742531 L23.5595111,40.179526 C23.5595111,38.6469634 23.1221778,38.2677726 22.0913206,38.2677726 C21.8570349,38.2677726 21.5758921,38.2835723 21.2478921,38.3625703 L20.9511302,39.3895453 C20.810819,39.87907 20.5609143,40.1479268 20.1389397,40.1479268 C19.7016063,40.1479268 19.4517016,39.9106692 19.4051048,39.5001426 C19.7016063,38.2993719 20.8574159,37.540727 22.4505587,37.540727 C24.0905587,37.540727 24.8715111,38.2993719 24.8715111,40.2901233 L24.8715111,43.6551779 C24.8715111,44.3345613 25.0899175,44.5873552 25.4335365,44.5873552 C25.6990603,44.5873552 25.8708698,44.4451586 26.0429397,44.2397636 L26.3550603,44.5873552 C25.9802032,45.2035401 25.5431302,45.4086718 24.9964635,45.4086718 C24.2467492,45.4086718 23.7157016,44.9346834 23.5907492,44.1923648" id="Fill-25"></path>
                    <path d="M27.0736667,44.6820212 L28.3231905,44.4608266 C28.3388095,43.6076474 28.3544286,42.7702678 28.3544286,41.9331516 L28.3544286,34.9973841 L27.0736667,34.8393879 L27.0736667,34.2861381 L29.5099778,33.5754188 L29.7289048,33.7018157 L29.6661683,35.9450976 L29.6661683,41.9331516 C29.6661683,42.7702678 29.6820476,43.623447 29.6976667,44.4608266 L30.9469302,44.6820212 L30.9469302,45.2508073 L27.0736667,45.2508073 L27.0736667,44.6820212 Z" id="Fill-27"></path>
                    <path d="M32.602367,43.6552042 C32.602367,43.2602139 32.617986,42.928422 32.617986,42.312237 L32.617986,38.5835279 L31.3218654,38.5835279 L31.3218654,37.8886082 L32.7117003,37.7145491 L33.1175352,35.5976641 L34.0546781,35.5976641 L33.9612241,37.7464117 L36.0695352,37.7464117 L36.0695352,38.5835279 L33.9453448,38.5835279 L33.9453448,43.4814085 C33.9453448,44.2869255 34.2736051,44.6347803 34.8046527,44.6347803 C35.1480114,44.6347803 35.4603924,44.4925838 35.8508686,44.2081908 L36.2257257,44.6187174 C35.8196305,45.1559043 35.1792495,45.4563603 34.3829384,45.4563603 C33.2896051,45.4563603 32.602367,44.8875742 32.602367,43.6552042" id="Fill-29"></path>
                    <path d="M37.0694667,44.6820212 L38.2408952,44.4608266 C38.2565143,43.6708459 38.2721333,42.6280713 38.2721333,41.9331516 L38.2721333,34.9973841 L36.9913714,34.8393879 L36.9913714,34.2861381 L39.3810857,33.5754188 L39.5997524,33.7018157 L39.5370159,35.9450976 L39.5370159,38.9944232 C40.3026095,38.1412441 41.3956825,37.5408587 42.3953016,37.5408587 C43.7385397,37.5408587 44.3945397,38.3940379 44.3945397,40.4635241 L44.3945397,41.9331516 C44.3945397,42.6596705 44.4101587,43.6708459 44.4257778,44.4608266 L45.5191111,44.6820212 L45.5191111,45.2508073 L41.8954921,45.2508073 L41.8954921,44.6820212 L43.0356825,44.4768895 C43.0513016,43.6869088 43.0669206,42.6596705 43.0669206,41.9331516 L43.0669206,40.5901843 C43.0669206,39.1366198 42.7076825,38.678431 41.7861587,38.678431 C41.0210857,38.678431 40.3807048,38.9786236 39.5841333,39.7054059 L39.5841333,41.9331516 C39.5841333,42.6280713 39.5997524,43.6708459 39.6151111,44.4608266 L40.6930857,44.6820212 L40.6930857,45.2508073 L37.0694667,45.2508073 L37.0694667,44.6820212 Z" id="Fill-31"></path>
                </g>
            </g>
        </g>
    </g>
</svg>