<svg width="24" height="24" viewBox="0 0 24 24" fill="none" xmlns="http://www.w3.org/2000/svg">
<path d="M16.0012 12L12.0007 16.0005L10.6011 14.6001L12.2007 13.0005H8.00098V11.0002H12.2007L10.6011 9.3999L12.0007 8.00024L16.0012 12Z" fill="#011D4B"/>
<path d="M12.001 16.0002L16.001 12.0002L12.001 8.00024L10.601 9.40024L12.201 11.0002H8.00098V13.0002H12.201L10.601 14.6002L12.001 16.0002ZM12.001 22.0002C10.6176 22.0002 9.31764 21.7377 8.10098 21.2127C6.88431 20.6877 5.82598 19.9752 4.92598 19.0752C4.02598 18.1752 3.31348 17.1169 2.78848 15.9002C2.26348 14.6836 2.00098 13.3836 2.00098 12.0002C2.00098 10.6169 2.26348 9.31691 2.78848 8.10024C3.31348 6.88358 4.02598 5.82524 4.92598 4.92524C5.82598 4.02524 6.88431 3.31274 8.10098 2.78774C9.31764 2.26274 10.6176 2.00024 12.001 2.00024C13.3843 2.00024 14.6843 2.26274 15.901 2.78774C17.1176 3.31274 18.176 4.02524 19.076 4.92524C19.976 5.82524 20.6885 6.88358 21.2135 8.10024C21.7385 9.31691 22.001 10.6169 22.001 12.0002C22.001 13.3836 21.7385 14.6836 21.2135 15.9002C20.6885 17.1169 19.976 18.1752 19.076 19.0752C18.176 19.9752 17.1176 20.6877 15.901 21.2127C14.6843 21.7377 13.3843 22.0002 12.001 22.0002Z" fill="#FFC62C"/>
</svg>
