<svg width="24" height="24" viewBox="0 0 32 32" fill="none" xmlns="http://www.w3.org/2000/svg">
<path d="M0 16C0 7.16344 7.16344 0 16 0C24.8366 0 32 7.16344 32 16C32 24.8366 24.8366 32 16 32C7.16344 32 0 24.8366 0 16Z" fill="#011D4B"/>
<path d="M20.3337 13.3191H17.3195V11.6088C17.3195 10.7264 17.3913 10.1705 18.656 10.1705H20.2534V7.45131C19.4761 7.37093 18.6945 7.3316 17.9121 7.33331C15.5922 7.33331 13.8991 8.75022 13.8991 11.3515V13.3191H11.3337V16.7395L13.8991 16.7386V24.4354H17.3195V16.7369L19.9412 16.7361L20.3337 13.3191Z" fill="white"/>
</svg>
