<svg width="24" height="24" viewBox="0 0 24 24" fill="none" xmlns="http://www.w3.org/2000/svg">
<path d="M6 16C5.45 16 4.97917 15.8042 4.5875 15.4125C4.19583 15.0208 4 14.55 4 14C4 13.45 4.19583 12.9792 4.5875 12.5875C4.97917 12.1958 5.45 12 6 12C6.55 12 7.02083 12.1958 7.4125 12.5875C7.80417 12.9792 8 13.45 8 14C8 14.55 7.80417 15.0208 7.4125 15.4125C7.02083 15.8042 6.55 16 6 16ZM18 16C17.45 16 16.9792 15.8042 16.5875 15.4125C16.1958 15.0208 16 14.55 16 14C16 13.45 16.1958 12.9792 16.5875 12.5875C16.9792 12.1958 17.45 12 18 12C18.55 12 19.0208 12.1958 19.4125 12.5875C19.8042 12.9792 20 13.45 20 14C20 14.55 19.8042 15.0208 19.4125 15.4125C19.0208 15.8042 18.55 16 18 16ZM12 15C11.3 15 10.7083 14.7583 10.225 14.275C9.74167 13.7917 9.5 13.2 9.5 12.5C9.5 11.8 9.74167 11.2083 10.225 10.725C10.7083 10.2417 11.3 10 12 10C12.7 10 13.2917 10.2417 13.775 10.725C14.2583 11.2083 14.5 11.8 14.5 12.5C14.5 13.2 14.2583 13.7917 13.775 14.275C13.2917 14.7583 12.7 15 12 15ZM7.1 21C7.33333 19.85 7.90417 18.8958 8.8125 18.1375C9.72083 17.3792 10.7833 17 12 17C13.2167 17 14.2792 17.3792 15.1875 18.1375C16.0958 18.8958 16.6667 19.85 16.9 21H7.1ZM2 21C2 19.9 2.39167 18.9583 3.175 18.175C3.95833 17.3917 4.9 17 6 17C6.28333 17 6.55 17.025 6.8 17.075C7.05 17.125 7.29167 17.2 7.525 17.3C7.025 17.7833 6.60833 18.3375 6.275 18.9625C5.94167 19.5875 5.71667 20.2667 5.6 21H2ZM18.4 21C18.2833 20.2667 18.0583 19.5875 17.725 18.9625C17.3917 18.3375 16.975 17.7833 16.475 17.3C16.7083 17.2 16.95 17.125 17.2 17.075C17.45 17.025 17.7167 17 18 17C19.1 17 20.0417 17.3917 20.825 18.175C21.6083 18.9583 22 19.9 22 21H18.4ZM2.2 12L1 10.4L12 2L16 5.05V3H19V7.35L23 10.4L21.8 12L12 4.525L2.2 12Z" fill="currentColor"/>
</svg>
