<svg xmlns="http://www.w3.org/2000/svg" style="display:none" aria-hidden="true">
  <symbol id="ofh-icon-AccessTime" viewBox="0 0 24 24">
    <path d="M14.55 16.55L11 13V8H13V12.175L15.95 15.125L14.55 16.55ZM12 22C10.6167 22 9.31667 21.7375 8.1 21.2125C6.88333 20.6875 5.825 19.975 4.925 19.075C4.025 18.175 3.3125 17.1167 2.7875 15.9C2.2625 14.6833 2 13.3833 2 12C2 10.6167 2.2625 9.31667 2.7875 8.1C3.3125 6.88333 4.025 5.825 4.925 4.925C5.825 4.025 6.88333 3.3125 8.1 2.7875C9.31667 2.2625 10.6167 2 12 2C13.3833 2 14.6833 2.2625 15.9 2.7875C17.1167 3.3125 18.175 4.025 19.075 4.925C19.975 5.825 20.6875 6.88333 21.2125 8.1C21.7375 9.31667 22 10.6167 22 12C22 13.3833 21.7375 14.6833 21.2125 15.9C20.6875 17.1167 19.975 18.175 19.075 19.075C18.175 19.975 17.1167 20.6875 15.9 21.2125C14.6833 21.7375 13.3833 22 12 22ZM12 20C14.2333 20 16.125 19.225 17.675 17.675C19.225 16.125 20 14.2333 20 12C20 9.76667 19.225 7.875 17.675 6.325C16.125 4.775 14.2333 4 12 4C9.76667 4 7.875 4.775 6.325 6.325C4.775 7.875 4 9.76667 4 12C4 14.2333 4.775 16.125 6.325 17.675C7.875 19.225 9.76667 20 12 20Z" fill="currentColor"/>
  </symbol>
  <symbol id="ofh-icon-AccountCircle" viewBox="0 0 24 24">
    <path d="M5.85 17.1C6.7 16.45 7.65 15.9375 8.7 15.5625C9.75 15.1875 10.85 15 12 15C13.15 15 14.25 15.1875 15.3 15.5625C16.35 15.9375 17.3 16.45 18.15 17.1C18.7333 16.4167 19.1875 15.6417 19.5125 14.775C19.8375 13.9083 20 12.9833 20 12C20 9.78333 19.2208 7.89583 17.6625 6.3375C16.1042 4.77917 14.2167 4 12 4C9.78333 4 7.89583 4.77917 6.3375 6.3375C4.77917 7.89583 4 9.78333 4 12C4 12.9833 4.1625 13.9083 4.4875 14.775C4.8125 15.6417 5.26667 16.4167 5.85 17.1ZM12 13C11.0167 13 10.1875 12.6625 9.5125 11.9875C8.8375 11.3125 8.5 10.4833 8.5 9.5C8.5 8.51667 8.8375 7.6875 9.5125 7.0125C10.1875 6.3375 11.0167 6 12 6C12.9833 6 13.8125 6.3375 14.4875 7.0125C15.1625 7.6875 15.5 8.51667 15.5 9.5C15.5 10.4833 15.1625 11.3125 14.4875 11.9875C13.8125 12.6625 12.9833 13 12 13ZM12 22C10.6167 22 9.31667 21.7375 8.1 21.2125C6.88333 20.6875 5.825 19.975 4.925 19.075C4.025 18.175 3.3125 17.1167 2.7875 15.9C2.2625 14.6833 2 13.3833 2 12C2 10.6167 2.2625 9.31667 2.7875 8.1C3.3125 6.88333 4.025 5.825 4.925 4.925C5.825 4.025 6.88333 3.3125 8.1 2.7875C9.31667 2.2625 10.6167 2 12 2C13.3833 2 14.6833 2.2625 15.9 2.7875C17.1167 3.3125 18.175 4.025 19.075 4.925C19.975 5.825 20.6875 6.88333 21.2125 8.1C21.7375 9.31667 22 10.6167 22 12C22 13.3833 21.7375 14.6833 21.2125 15.9C20.6875 17.1167 19.975 18.175 19.075 19.075C18.175 19.975 17.1167 20.6875 15.9 21.2125C14.6833 21.7375 13.3833 22 12 22Z" fill="currentColor"/>
  </symbol>
  <symbol id="ofh-icon-AccountCircleOutlined" viewBox="0 0 24 24">
    <path d="M5.85 17.1C6.7 16.45 7.65 15.9375 8.7 15.5625C9.75 15.1875 10.85 15 12 15C13.15 15 14.25 15.1875 15.3 15.5625C16.35 15.9375 17.3 16.45 18.15 17.1C18.7333 16.4167 19.1875 15.6417 19.5125 14.775C19.8375 13.9083 20 12.9833 20 12C20 9.78333 19.2208 7.89583 17.6625 6.3375C16.1042 4.77917 14.2167 4 12 4C9.78333 4 7.89583 4.77917 6.3375 6.3375C4.77917 7.89583 4 9.78333 4 12C4 12.9833 4.1625 13.9083 4.4875 14.775C4.8125 15.6417 5.26667 16.4167 5.85 17.1ZM12 13C11.0167 13 10.1875 12.6625 9.5125 11.9875C8.8375 11.3125 8.5 10.4833 8.5 9.5C8.5 8.51667 8.8375 7.6875 9.5125 7.0125C10.1875 6.3375 11.0167 6 12 6C12.9833 6 13.8125 6.3375 14.4875 7.0125C15.1625 7.6875 15.5 8.51667 15.5 9.5C15.5 10.4833 15.1625 11.3125 14.4875 11.9875C13.8125 12.6625 12.9833 13 12 13ZM12 22C10.6167 22 9.31667 21.7375 8.1 21.2125C6.88333 20.6875 5.825 19.975 4.925 19.075C4.025 18.175 3.3125 17.1167 2.7875 15.9C2.2625 14.6833 2 13.3833 2 12C2 10.6167 2.2625 9.31667 2.7875 8.1C3.3125 6.88333 4.025 5.825 4.925 4.925C5.825 4.025 6.88333 3.3125 8.1 2.7875C9.31667 2.2625 10.6167 2 12 2C13.3833 2 14.6833 2.2625 15.9 2.7875C17.1167 3.3125 18.175 4.025 19.075 4.925C19.975 5.825 20.6875 6.88333 21.2125 8.1C21.7375 9.31667 22 10.6167 22 12C22 13.3833 21.7375 14.6833 21.2125 15.9C20.6875 17.1167 19.975 18.175 19.075 19.075C18.175 19.975 17.1167 20.6875 15.9 21.2125C14.6833 21.7375 13.3833 22 12 22ZM12 20C12.8833 20 13.7167 19.8708 14.5 19.6125C15.2833 19.3542 16 18.9833 16.65 18.5C16 18.0167 15.2833 17.6458 14.5 17.3875C13.7167 17.1292 12.8833 17 12 17C11.1167 17 10.2833 17.1292 9.5 17.3875C8.71667 17.6458 8 18.0167 7.35 18.5C8 18.9833 8.71667 19.3542 9.5 19.6125C10.2833 19.8708 11.1167 20 12 20ZM12 11C12.4333 11 12.7917 10.8583 13.075 10.575C13.3583 10.2917 13.5 9.93333 13.5 9.5C13.5 9.06667 13.3583 8.70833 13.075 8.425C12.7917 8.14167 12.4333 8 12 8C11.5667 8 11.2083 8.14167 10.925 8.425C10.6417 8.70833 10.5 9.06667 10.5 9.5C10.5 9.93333 10.6417 10.2917 10.925 10.575C11.2083 10.8583 11.5667 11 12 11Z" fill="currentColor"/>
  </symbol>
  <symbol id="ofh-icon-AddCircle" viewBox="0 0 24 24">
    <path d="M11 17H13V13H17V11H13V7H11V11H7V13H11V17ZM12 22C10.6167 22 9.31667 21.7375 8.1 21.2125C6.88333 20.6875 5.825 19.975 4.925 19.075C4.025 18.175 3.3125 17.1167 2.7875 15.9C2.2625 14.6833 2 13.3833 2 12C2 10.6167 2.2625 9.31667 2.7875 8.1C3.3125 6.88333 4.025 5.825 4.925 4.925C5.825 4.025 6.88333 3.3125 8.1 2.7875C9.31667 2.2625 10.6167 2 12 2C13.3833 2 14.6833 2.2625 15.9 2.7875C17.1167 3.3125 18.175 4.025 19.075 4.925C19.975 5.825 20.6875 6.88333 21.2125 8.1C21.7375 9.31667 22 10.6167 22 12C22 13.3833 21.7375 14.6833 21.2125 15.9C20.6875 17.1167 19.975 18.175 19.075 19.075C18.175 19.975 17.1167 20.6875 15.9 21.2125C14.6833 21.7375 13.3833 22 12 22Z" fill="currentColor"/>
  </symbol>
  <symbol id="ofh-icon-ArrowCircleRight" viewBox="0 0 24 24">
    <path d="M12 16L16 12L12 8L10.6 9.4L12.2 11H8V13H12.2L10.6 14.6L12 16ZM12 22C10.6167 22 9.31667 21.7375 8.1 21.2125C6.88333 20.6875 5.825 19.975 4.925 19.075C4.025 18.175 3.3125 17.1167 2.7875 15.9C2.2625 14.6833 2 13.3833 2 12C2 10.6167 2.2625 9.31667 2.7875 8.1C3.3125 6.88333 4.025 5.825 4.925 4.925C5.825 4.025 6.88333 3.3125 8.1 2.7875C9.31667 2.2625 10.6167 2 12 2C13.3833 2 14.6833 2.2625 15.9 2.7875C17.1167 3.3125 18.175 4.025 19.075 4.925C19.975 5.825 20.6875 6.88333 21.2125 8.1C21.7375 9.31667 22 10.6167 22 12C22 13.3833 21.7375 14.6833 21.2125 15.9C20.6875 17.1167 19.975 18.175 19.075 19.075C18.175 19.975 17.1167 20.6875 15.9 21.2125C14.6833 21.7375 13.3833 22 12 22Z" fill="currentColor"/>
  </symbol>
  <symbol id="ofh-icon-ArrowCircleRightColour" viewBox="0 0 24 24">
    <path d="M16.0012 12L12.0007 16.0005L10.6011 14.6001L12.2007 13.0005H8.00098V11.0002H12.2007L10.6011 9.3999L12.0007 8.00024L16.0012 12Z" fill="#011D4B"/>
    <path d="M12.001 16.0002L16.001 12.0002L12.001 8.00024L10.601 9.40024L12.201 11.0002H8.00098V13.0002H12.201L10.601 14.6002L12.001 16.0002ZM12.001 22.0002C10.6176 22.0002 9.31764 21.7377 8.10098 21.2127C6.88431 20.6877 5.82598 19.9752 4.92598 19.0752C4.02598 18.1752 3.31348 17.1169 2.78848 15.9002C2.26348 14.6836 2.00098 13.3836 2.00098 12.0002C2.00098 10.6169 2.26348 9.31691 2.78848 8.10024C3.31348 6.88358 4.02598 5.82524 4.92598 4.92524C5.82598 4.02524 6.88431 3.31274 8.10098 2.78774C9.31764 2.26274 10.6176 2.00024 12.001 2.00024C13.3843 2.00024 14.6843 2.26274 15.901 2.78774C17.1176 3.31274 18.176 4.02524 19.076 4.92524C19.976 5.82524 20.6885 6.88358 21.2135 8.10024C21.7385 9.31691 22.001 10.6169 22.001 12.0002C22.001 13.3836 21.7385 14.6836 21.2135 15.9002C20.6885 17.1169 19.976 18.1752 19.076 19.0752C18.176 19.9752 17.1176 20.6877 15.901 21.2127C14.6843 21.7377 13.3843 22.0002 12.001 22.0002Z" fill="#FFC62C"/>
  </symbol>
  <symbol id="ofh-icon-CalendarToday" viewBox="0 0 24 24">
    <path d="M5 22C4.45 22 3.97917 21.8042 3.5875 21.4125C3.19583 21.0208 3 20.55 3 20V6C3 5.45 3.19583 4.97917 3.5875 4.5875C3.97917 4.19583 4.45 4 5 4H6V2H8V4H16V2H18V4H19C19.55 4 20.0208 4.19583 20.4125 4.5875C20.8042 4.97917 21 5.45 21 6V20C21 20.55 20.8042 21.0208 20.4125 21.4125C20.0208 21.8042 19.55 22 19 22H5ZM5 20H19V10H5V20Z" fill="currentColor"/>
  </symbol>
  <symbol id="ofh-icon-CalendarTodayOutlined" viewBox="0 0 24 24">
    <path d="M5 22C4.45 22 3.97917 21.8042 3.5875 21.4125C3.19583 21.0208 3 20.55 3 20V6C3 5.45 3.19583 4.97917 3.5875 4.5875C3.97917 4.19583 4.45 4 5 4H6V2H8V4H16V2H18V4H19C19.55 4 20.0208 4.19583 20.4125 4.5875C20.8042 4.97917 21 5.45 21 6V20C21 20.55 20.8042 21.0208 20.4125 21.4125C20.0208 21.8042 19.55 22 19 22H5ZM5 20H19V10H5V20ZM5 8H19V6H5V8Z" fill="currentColor"/>
  </symbol>
  <symbol id="ofh-icon-Cancel" viewBox="0 0 24 24">
    <path d="M8.4 17L12 13.4L15.6 17L17 15.6L13.4 12L17 8.4L15.6 7L12 10.6L8.4 7L7 8.4L10.6 12L7 15.6L8.4 17ZM12 22C10.6167 22 9.31667 21.7375 8.1 21.2125C6.88333 20.6875 5.825 19.975 4.925 19.075C4.025 18.175 3.3125 17.1167 2.7875 15.9C2.2625 14.6833 2 13.3833 2 12C2 10.6167 2.2625 9.31667 2.7875 8.1C3.3125 6.88333 4.025 5.825 4.925 4.925C5.825 4.025 6.88333 3.3125 8.1 2.7875C9.31667 2.2625 10.6167 2 12 2C13.3833 2 14.6833 2.2625 15.9 2.7875C17.1167 3.3125 18.175 4.025 19.075 4.925C19.975 5.825 20.6875 6.88333 21.2125 8.1C21.7375 9.31667 22 10.6167 22 12C22 13.3833 21.7375 14.6833 21.2125 15.9C20.6875 17.1167 19.975 18.175 19.075 19.075C18.175 19.975 17.1167 20.6875 15.9 21.2125C14.6833 21.7375 13.3833 22 12 22Z" fill="currentColor"/>
  </symbol>
  <symbol id="ofh-icon-CancelOutlined" viewBox="0 0 24 24">
    <path d="M8.4 17L12 13.4L15.6 17L17 15.6L13.4 12L17 8.4L15.6 7L12 10.6L8.4 7L7 8.4L10.6 12L7 15.6L8.4 17ZM12 22C10.6167 22 9.31667 21.7375 8.1 21.2125C6.88333 20.6875 5.825 19.975 4.925 19.075C4.025 18.175 3.3125 17.1167 2.7875 15.9C2.2625 14.6833 2 13.3833 2 12C2 10.6167 2.2625 9.31667 2.7875 8.1C3.3125 6.88333 4.025 5.825 4.925 4.925C5.825 4.025 6.88333 3.3125 8.1 2.7875C9.31667 2.2625 10.6167 2 12 2C13.3833 2 14.6833 2.2625 15.9 2.7875C17.1167 3.3125 18.175 4.025 19.075 4.925C19.975 5.825 20.6875 6.88333 21.2125 8.1C21.7375 9.31667 22 10.6167 22 12C22 13.3833 21.7375 14.6833 21.2125 15.9C20.6875 17.1167 19.975 18.175 19.075 19.075C18.175 19.975 17.1167 20.6875 15.9 21.2125C14.6833 21.7375 13.3833 22 12 22ZM12 20C14.2333 20 16.125 19.225 17.675 17.675C19.225 16.125 20 14.2333 20 12C20 9.76667 19.225 7.875 17.675 6.325C16.125 4.775 14.2333 4 12 4C9.76667 4 7.875 4.775 6.325 6.325C4.775 7.875 4 9.76667 4 12C4 14.2333 4.775 16.125 6.325 17.675C7.875 19.225 9.76667 20 12 20Z" fill="currentColor"/>
  </symbol>
  <symbol id="ofh-icon-CheckCircle" viewBox="0 0 24 24">
    <path d="M10.6 16.6L17.65 9.55L16.25 8.15L10.6 13.8L7.75 10.95L6.35 12.35L10.6 16.6ZM12 22C10.6167 22 9.31667 21.7375 8.1 21.2125C6.88333 20.6875 5.825 19.975 4.925 19.075C4.025 18.175 3.3125 17.1167 2.7875 15.9C2.2625 14.6833 2 13.3833 2 12C2 10.6167 2.2625 9.31667 2.7875 8.1C3.3125 6.88333 4.025 5.825 4.925 4.925C5.825 4.025 6.88333 3.3125 8.1 2.7875C9.31667 2.2625 10.6167 2 12 2C13.3833 2 14.6833 2.2625 15.9 2.7875C17.1167 3.3125 18.175 4.025 19.075 4.925C19.975 5.825 20.6875 6.88333 21.2125 8.1C21.7375 9.31667 22 10.6167 22 12C22 13.3833 21.7375 14.6833 21.2125 15.9C20.6875 17.1167 19.975 18.175 19.075 19.075C18.175 19.975 17.1167 20.6875 15.9 21.2125C14.6833 21.7375 13.3833 22 12 22Z" fill="currentColor"/>
  </symbol>
  <symbol id="ofh-icon-CheckCircleOutline" viewBox="0 0 24 24">
    <path d="M10.6 16.6L17.65 9.55L16.25 8.15L10.6 13.8L7.75 10.95L6.35 12.35L10.6 16.6ZM12 22C10.6167 22 9.31667 21.7375 8.1 21.2125C6.88333 20.6875 5.825 19.975 4.925 19.075C4.025 18.175 3.3125 17.1167 2.7875 15.9C2.2625 14.6833 2 13.3833 2 12C2 10.6167 2.2625 9.31667 2.7875 8.1C3.3125 6.88333 4.025 5.825 4.925 4.925C5.825 4.025 6.88333 3.3125 8.1 2.7875C9.31667 2.2625 10.6167 2 12 2C13.3833 2 14.6833 2.2625 15.9 2.7875C17.1167 3.3125 18.175 4.025 19.075 4.925C19.975 5.825 20.6875 6.88333 21.2125 8.1C21.7375 9.31667 22 10.6167 22 12C22 13.3833 21.7375 14.6833 21.2125 15.9C20.6875 17.1167 19.975 18.175 19.075 19.075C18.175 19.975 17.1167 20.6875 15.9 21.2125C14.6833 21.7375 13.3833 22 12 22ZM12 20C14.2333 20 16.125 19.225 17.675 17.675C19.225 16.125 20 14.2333 20 12C20 9.76667 19.225 7.875 17.675 6.325C16.125 4.775 14.2333 4 12 4C9.76667 4 7.875 4.775 6.325 6.325C4.775 7.875 4 9.76667 4 12C4 14.2333 4.775 16.125 6.325 17.675C7.875 19.225 9.76667 20 12 20Z" fill="currentColor"/>
  </symbol>
  <symbol id="ofh-icon-ChevronLeft" viewBox="0 0 24 24">
    <path d="M14 18L8 12L14 6L15.4 7.4L10.8 12L15.4 16.6L14 18Z" fill="currentColor"/>
  </symbol>
  <symbol id="ofh-icon-ChevronRight" viewBox="0 0 24 24">
    <path d="M12.6 12L8 7.4L9.4 6L15.4 12L9.4 18L8 16.6L12.6 12Z" fill="currentColor"/>
  </symbol>
  <symbol id="ofh-icon-Close" viewBox="0 0 24 24">
    <path d="M6.4 19L5 17.6L10.6 12L5 6.4L6.4 5L12 10.6L17.6 5L19 6.4L13.4 12L19 17.6L17.6 19L12 13.4L6.4 19Z" fill="currentColor"/>
  </symbol>
  <symbol id="ofh-icon-Done" viewBox="0 0 24 24">
    <path d="M9.5501 18L3.8501 12.3L5.2751 10.875L9.5501 15.15L18.7251 5.97501L20.1501 7.40001L9.5501 18Z" fill="currentColor"/>
  </symbol>
  <symbol id="ofh-icon-East" viewBox="0 0 24 24">
    <path d="M14 18L12.6 16.55L16.15 13H4V11H16.15L12.6 7.45L14 6L20 12L14 18Z" fill="currentColor"/>
  </symbol>
  <symbol id="ofh-icon-ExpandLess" viewBox="0 0 24 24">
    <path d="M12 10.8L7.4 15.4L6 14L12 8L18 14L16.6 15.4L12 10.8Z" fill="currentColor"/>
  </symbol>
  <symbol id="ofh-icon-ExpandMore" viewBox="0 0 24 24">
    <path d="M12 15.4L6 9.4L7.4 8L12 12.6L16.6 8L18 9.4L12 15.4Z" fill="currentColor"/>
  </symbol>
  <symbol id="ofh-icon-Facebook" viewBox="0 0 32 32">
    <path d="M0 16C0 7.16344 7.16344 0 16 0C24.8366 0 32 7.16344 32 16C32 24.8366 24.8366 32 16 32C7.16344 32 0 24.8366 0 16Z" fill="#011D4B"/>
    <path d="M20.3337 13.3191H17.3195V11.6088C17.3195 10.7264 17.3913 10.1705 18.656 10.1705H20.2534V7.45131C19.4761 7.37093 18.6945 7.3316 17.9121 7.33331C15.5922 7.33331 13.8991 8.75022 13.8991 11.3515V13.3191H11.3337V16.7395L13.8991 16.7386V24.4354H17.3195V16.7369L19.9412 16.7361L20.3337 13.3191Z" fill="white"/>
  </symbol>
  <symbol id="ofh-icon-FacebookHover" viewBox="0 0 32 32">
    <path d="M0 16C0 7.16344 7.16344 0 16 0C24.8366 0 32 7.16344 32 16C32 24.8366 24.8366 32 16 32C7.16344 32 0 24.8366 0 16Z" fill="#FFC62C"/>
    <path d="M20.3337 13.3191H17.3195V11.6088C17.3195 10.7264 17.3913 10.1705 18.656 10.1705H20.2534V7.45131C19.4761 7.37093 18.6945 7.3316 17.9121 7.33331C15.5922 7.33331 13.8991 8.75022 13.8991 11.3515V13.3191H11.3337V16.7395L13.8991 16.7386V24.4354H17.3195V16.7369L19.9412 16.7361L20.3337 13.3191Z" fill="#1B1B1B"/>
  </symbol>
  <symbol id="ofh-icon-FamilyHome" viewBox="0 0 24 24">
    <path d="M6 16C5.45 16 4.97917 15.8042 4.5875 15.4125C4.19583 15.0208 4 14.55 4 14C4 13.45 4.19583 12.9792 4.5875 12.5875C4.97917 12.1958 5.45 12 6 12C6.55 12 7.02083 12.1958 7.4125 12.5875C7.80417 12.9792 8 13.45 8 14C8 14.55 7.80417 15.0208 7.4125 15.4125C7.02083 15.8042 6.55 16 6 16ZM18 16C17.45 16 16.9792 15.8042 16.5875 15.4125C16.1958 15.0208 16 14.55 16 14C16 13.45 16.1958 12.9792 16.5875 12.5875C16.9792 12.1958 17.45 12 18 12C18.55 12 19.0208 12.1958 19.4125 12.5875C19.8042 12.9792 20 13.45 20 14C20 14.55 19.8042 15.0208 19.4125 15.4125C19.0208 15.8042 18.55 16 18 16ZM12 15C11.3 15 10.7083 14.7583 10.225 14.275C9.74167 13.7917 9.5 13.2 9.5 12.5C9.5 11.8 9.74167 11.2083 10.225 10.725C10.7083 10.2417 11.3 10 12 10C12.7 10 13.2917 10.2417 13.775 10.725C14.2583 11.2083 14.5 11.8 14.5 12.5C14.5 13.2 14.2583 13.7917 13.775 14.275C13.2917 14.7583 12.7 15 12 15ZM7.1 21C7.33333 19.85 7.90417 18.8958 8.8125 18.1375C9.72083 17.3792 10.7833 17 12 17C13.2167 17 14.2792 17.3792 15.1875 18.1375C16.0958 18.8958 16.6667 19.85 16.9 21H7.1ZM2 21C2 19.9 2.39167 18.9583 3.175 18.175C3.95833 17.3917 4.9 17 6 17C6.28333 17 6.55 17.025 6.8 17.075C7.05 17.125 7.29167 17.2 7.525 17.3C7.025 17.7833 6.60833 18.3375 6.275 18.9625C5.94167 19.5875 5.71667 20.2667 5.6 21H2ZM18.4 21C18.2833 20.2667 18.0583 19.5875 17.725 18.9625C17.3917 18.3375 16.975 17.7833 16.475 17.3C16.7083 17.2 16.95 17.125 17.2 17.075C17.45 17.025 17.7167 17 18 17C19.1 17 20.0417 17.3917 20.825 18.175C21.6083 18.9583 22 19.9 22 21H18.4ZM2.2 12L1 10.4L12 2L16 5.05V3H19V7.35L23 10.4L21.8 12L12 4.525L2.2 12Z" fill="currentColor"/>
  </symbol>
  <symbol id="ofh-icon-Favorite" viewBox="0 0 24 24">
    <path d="M12 21L10.55 19.7C8.86667 18.1834 7.475 16.875 6.375 15.775C5.275 14.675 4.4 13.6875 3.75 12.8125C3.1 11.9375 2.64583 11.1334 2.3875 10.4C2.12917 9.66669 2 8.91669 2 8.15002C2 6.58336 2.525 5.27502 3.575 4.22502C4.625 3.17502 5.93333 2.65002 7.5 2.65002C8.36667 2.65002 9.19167 2.83336 9.975 3.20002C10.7583 3.56669 11.4333 4.08336 12 4.75002C12.5667 4.08336 13.2417 3.56669 14.025 3.20002C14.8083 2.83336 15.6333 2.65002 16.5 2.65002C18.0667 2.65002 19.375 3.17502 20.425 4.22502C21.475 5.27502 22 6.58336 22 8.15002C22 8.91669 21.8708 9.66669 21.6125 10.4C21.3542 11.1334 20.9 11.9375 20.25 12.8125C19.6 13.6875 18.725 14.675 17.625 15.775C16.525 16.875 15.1333 18.1834 13.45 19.7L12 21Z" fill="currentColor"/>
  </symbol>
  <symbol id="ofh-icon-FavoriteBorderOutlined" viewBox="0 0 24 24">
    <path d="M12 21L10.55 19.7C8.86667 18.1834 7.475 16.875 6.375 15.775C5.275 14.675 4.4 13.6875 3.75 12.8125C3.1 11.9375 2.64583 11.1334 2.3875 10.4C2.12917 9.66669 2 8.91669 2 8.15002C2 6.58336 2.525 5.27502 3.575 4.22502C4.625 3.17502 5.93333 2.65002 7.5 2.65002C8.36667 2.65002 9.19167 2.83336 9.975 3.20002C10.7583 3.56669 11.4333 4.08336 12 4.75002C12.5667 4.08336 13.2417 3.56669 14.025 3.20002C14.8083 2.83336 15.6333 2.65002 16.5 2.65002C18.0667 2.65002 19.375 3.17502 20.425 4.22502C21.475 5.27502 22 6.58336 22 8.15002C22 8.91669 21.8708 9.66669 21.6125 10.4C21.3542 11.1334 20.9 11.9375 20.25 12.8125C19.6 13.6875 18.725 14.675 17.625 15.775C16.525 16.875 15.1333 18.1834 13.45 19.7L12 21ZM12 18.3C13.6 16.8667 14.9167 15.6375 15.95 14.6125C16.9833 13.5875 17.8 12.6959 18.4 11.9375C19 11.1792 19.4167 10.5042 19.65 9.91252C19.8833 9.32086 20 8.73336 20 8.15002C20 7.15002 19.6667 6.31669 19 5.65002C18.3333 4.98336 17.5 4.65002 16.5 4.65002C15.7167 4.65002 14.9917 4.87086 14.325 5.31252C13.6583 5.75419 13.2 6.31669 12.95 7.00002H11.05C10.8 6.31669 10.3417 5.75419 9.675 5.31252C9.00833 4.87086 8.28333 4.65002 7.5 4.65002C6.5 4.65002 5.66667 4.98336 5 5.65002C4.33333 6.31669 4 7.15002 4 8.15002C4 8.73336 4.11667 9.32086 4.35 9.91252C4.58333 10.5042 5 11.1792 5.6 11.9375C6.2 12.6959 7.01667 13.5875 8.05 14.6125C9.08333 15.6375 10.4 16.8667 12 18.3Z" fill="currentColor"/>
  </symbol>
  <symbol id="ofh-icon-FileDownloadOutlined" viewBox="0 0 24 24">
    <path d="M12 16L7 11L8.4 9.55L11 12.15V4H13V12.15L15.6 9.55L17 11L12 16ZM6 20C5.45 20 4.97917 19.8042 4.5875 19.4125C4.19583 19.0208 4 18.55 4 18V15H6V18H18V15H20V18C20 18.55 19.8042 19.0208 19.4125 19.4125C19.0208 19.8042 18.55 20 18 20H6Z" fill="currentColor"/>
  </symbol>
  <symbol id="ofh-icon-FmdGoodOutlined" viewBox="0 0 24 24">
    <path d="M12 12C12.55 12 13.0208 11.8042 13.4125 11.4125C13.8042 11.0208 14 10.55 14 10C14 9.45 13.8042 8.97917 13.4125 8.5875C13.0208 8.19583 12.55 8 12 8C11.45 8 10.9792 8.19583 10.5875 8.5875C10.1958 8.97917 10 9.45 10 10C10 10.55 10.1958 11.0208 10.5875 11.4125C10.9792 11.8042 11.45 12 12 12ZM12 19.35C14.0333 17.4833 15.5417 15.7875 16.525 14.2625C17.5083 12.7375 18 11.3833 18 10.2C18 8.38333 17.4208 6.89583 16.2625 5.7375C15.1042 4.57917 13.6833 4 12 4C10.3167 4 8.89583 4.57917 7.7375 5.7375C6.57917 6.89583 6 8.38333 6 10.2C6 11.3833 6.49167 12.7375 7.475 14.2625C8.45833 15.7875 9.96667 17.4833 12 19.35ZM12 22C9.31667 19.7167 7.3125 17.5958 5.9875 15.6375C4.6625 13.6792 4 11.8667 4 10.2C4 7.7 4.80417 5.70833 6.4125 4.225C8.02083 2.74167 9.88333 2 12 2C14.1167 2 15.9792 2.74167 17.5875 4.225C19.1958 5.70833 20 7.7 20 10.2C20 11.8667 19.3375 13.6792 18.0125 15.6375C16.6875 17.5958 14.6833 19.7167 12 22Z" fill="currentColor"/>
  </symbol>
  <symbol id="ofh-icon-HealthAndSafetyOutlined" viewBox="0 0 24 24">
    <path d="M10.5 15.5H13.5V13H16V10H13.5V7.5H10.5V10H8V13H10.5V15.5ZM12 22C9.68333 21.4167 7.77083 20.0875 6.2625 18.0125C4.75417 15.9375 4 13.6333 4 11.1V5L12 2L20 5V11.1C20 13.6333 19.2458 15.9375 17.7375 18.0125C16.2292 20.0875 14.3167 21.4167 12 22ZM12 19.9C13.7333 19.35 15.1667 18.25 16.3 16.6C17.4333 14.95 18 13.1167 18 11.1V6.375L12 4.125L6 6.375V11.1C6 13.1167 6.56667 14.95 7.7 16.6C8.83333 18.25 10.2667 19.35 12 19.9Z" fill="currentColor"/>
  </symbol>
  <symbol id="ofh-icon-HealthCrossOutlined" viewBox="0 0 24 24">
    <path d="M8 21V16H3V8H8V3H16V8H21V16H16V21H8ZM10 19H14V14H19V10H14V5H10V10H5V14H10V19Z" fill="currentColor"/>
  </symbol>
  <symbol id="ofh-icon-HospitalOutlined" viewBox="0 0 24 24">
    <path d="M10.5 17H13.5V14.5H16V11.5H13.5V9H10.5V11.5H8V14.5H10.5V17ZM4 21V9L12 3L20 9V21H4ZM6 19H18V10L12 5.5L6 10V19Z" fill="currentColor"/>
  </symbol>
  <symbol id="ofh-icon-InfoOutlined" viewBox="0 0 24 24">
    <path d="M11 17H13V11H11V17ZM12 9C12.2833 9 12.5208 8.90417 12.7125 8.7125C12.9042 8.52083 13 8.28333 13 8C13 7.71667 12.9042 7.47917 12.7125 7.2875C12.5208 7.09583 12.2833 7 12 7C11.7167 7 11.4792 7.09583 11.2875 7.2875C11.0958 7.47917 11 7.71667 11 8C11 8.28333 11.0958 8.52083 11.2875 8.7125C11.4792 8.90417 11.7167 9 12 9ZM12 22C10.6167 22 9.31667 21.7375 8.1 21.2125C6.88333 20.6875 5.825 19.975 4.925 19.075C4.025 18.175 3.3125 17.1167 2.7875 15.9C2.2625 14.6833 2 13.3833 2 12C2 10.6167 2.2625 9.31667 2.7875 8.1C3.3125 6.88333 4.025 5.825 4.925 4.925C5.825 4.025 6.88333 3.3125 8.1 2.7875C9.31667 2.2625 10.6167 2 12 2C13.3833 2 14.6833 2.2625 15.9 2.7875C17.1167 3.3125 18.175 4.025 19.075 4.925C19.975 5.825 20.6875 6.88333 21.2125 8.1C21.7375 9.31667 22 10.6167 22 12C22 13.3833 21.7375 14.6833 21.2125 15.9C20.6875 17.1167 19.975 18.175 19.075 19.075C18.175 19.975 17.1167 20.6875 15.9 21.2125C14.6833 21.7375 13.3833 22 12 22ZM12 20C14.2333 20 16.125 19.225 17.675 17.675C19.225 16.125 20 14.2333 20 12C20 9.76667 19.225 7.875 17.675 6.325C16.125 4.775 14.2333 4 12 4C9.76667 4 7.875 4.775 6.325 6.325C4.775 7.875 4 9.76667 4 12C4 14.2333 4.775 16.125 6.325 17.675C7.875 19.225 9.76667 20 12 20Z" fill="currentColor"/>
  </symbol>
  <symbol id="ofh-icon-Instagram" viewBox="0 0 32 32">
    <path d="M0 16C0 7.16344 7.16344 0 16 0C24.8366 0 32 7.16344 32 16C32 24.8366 24.8366 32 16 32C7.16344 32 0 24.8366 0 16Z" fill="#011D4B"/>
    <path d="M19.6923 8H12.3077C11.1656 8.00122 10.0706 8.45546 9.26304 9.26304C8.45546 10.0706 8.00122 11.1656 8 12.3077V19.6923C8.00122 20.8344 8.45546 21.9294 9.26304 22.737C10.0706 23.5445 11.1656 23.9988 12.3077 24H19.6923C20.8344 23.9988 21.9294 23.5445 22.737 22.737C23.5445 21.9294 23.9988 20.8344 24 19.6923V12.3077C23.9988 11.1656 23.5445 10.0706 22.737 9.26304C21.9294 8.45546 20.8344 8.00122 19.6923 8ZM16 19.6923C15.2697 19.6923 14.5559 19.4758 13.9487 19.07C13.3415 18.6643 12.8682 18.0877 12.5888 17.413C12.3093 16.7383 12.2362 15.9959 12.3786 15.2797C12.5211 14.5634 12.8728 13.9055 13.3891 13.3891C13.9055 12.8728 14.5634 12.5211 15.2797 12.3786C15.9959 12.2362 16.7383 12.3093 17.413 12.5888C18.0877 12.8682 18.6643 13.3415 19.07 13.9487C19.4758 14.5559 19.6923 15.2697 19.6923 16C19.6913 16.9789 19.302 17.9175 18.6097 18.6097C17.9175 19.302 16.9789 19.6913 16 19.6923ZM20.6154 12.3077C20.4328 12.3077 20.2544 12.2536 20.1026 12.1521C19.9508 12.0507 19.8324 11.9065 19.7626 11.7379C19.6927 11.5692 19.6744 11.3836 19.71 11.2045C19.7457 11.0255 19.8336 10.861 19.9627 10.7319C20.0918 10.6028 20.2562 10.5149 20.4353 10.4793C20.6144 10.4437 20.8 10.4619 20.9686 10.5318C21.1373 10.6017 21.2815 10.72 21.3829 10.8718C21.4843 11.0236 21.5385 11.202 21.5385 11.3846C21.5385 11.6294 21.4412 11.8642 21.2681 12.0373C21.095 12.2104 20.8602 12.3077 20.6154 12.3077ZM18.4615 16C18.4615 16.4868 18.3172 16.9628 18.0467 17.3676C17.7762 17.7724 17.3918 18.0879 16.942 18.2742C16.4922 18.4605 15.9973 18.5092 15.5198 18.4142C15.0423 18.3193 14.6037 18.0848 14.2594 17.7406C13.9152 17.3963 13.6807 16.9577 13.5858 16.4802C13.4908 16.0027 13.5395 15.5078 13.7258 15.058C13.9121 14.6082 14.2276 14.2238 14.6324 13.9533C15.0372 13.6828 15.5132 13.5385 16 13.5385C16.6528 13.5385 17.2789 13.7978 17.7406 14.2594C18.2022 14.7211 18.4615 15.3472 18.4615 16Z" fill="white"/>
  </symbol>
  <symbol id="ofh-icon-InstagramHover" viewBox="0 0 32 32">
    <path d="M0 16C0 7.16344 7.16344 0 16 0C24.8366 0 32 7.16344 32 16C32 24.8366 24.8366 32 16 32C7.16344 32 0 24.8366 0 16Z" fill="#FFC62C"/>
    <path d="M19.6923 8H12.3077C11.1656 8.00122 10.0706 8.45546 9.26304 9.26304C8.45546 10.0706 8.00122 11.1656 8 12.3077V19.6923C8.00122 20.8344 8.45546 21.9294 9.26304 22.737C10.0706 23.5445 11.1656 23.9988 12.3077 24H19.6923C20.8344 23.9988 21.9294 23.5445 22.737 22.737C23.5445 21.9294 23.9988 20.8344 24 19.6923V12.3077C23.9988 11.1656 23.5445 10.0706 22.737 9.26304C21.9294 8.45546 20.8344 8.00122 19.6923 8ZM16 19.6923C15.2697 19.6923 14.5559 19.4758 13.9487 19.07C13.3415 18.6643 12.8682 18.0877 12.5888 17.413C12.3093 16.7383 12.2362 15.9959 12.3786 15.2797C12.5211 14.5634 12.8728 13.9055 13.3891 13.3891C13.9055 12.8728 14.5634 12.5211 15.2797 12.3786C15.9959 12.2362 16.7383 12.3093 17.413 12.5888C18.0877 12.8682 18.6643 13.3415 19.07 13.9487C19.4758 14.5559 19.6923 15.2697 19.6923 16C19.6913 16.9789 19.302 17.9175 18.6097 18.6097C17.9175 19.302 16.9789 19.6913 16 19.6923ZM20.6154 12.3077C20.4328 12.3077 20.2544 12.2536 20.1026 12.1521C19.9508 12.0507 19.8324 11.9065 19.7626 11.7379C19.6927 11.5692 19.6744 11.3836 19.71 11.2045C19.7457 11.0255 19.8336 10.861 19.9627 10.7319C20.0918 10.6028 20.2562 10.5149 20.4353 10.4793C20.6144 10.4437 20.8 10.4619 20.9686 10.5318C21.1373 10.6017 21.2815 10.72 21.3829 10.8718C21.4843 11.0236 21.5385 11.202 21.5385 11.3846C21.5385 11.6294 21.4412 11.8642 21.2681 12.0373C21.095 12.2104 20.8602 12.3077 20.6154 12.3077ZM18.4615 16C18.4615 16.4868 18.3172 16.9628 18.0467 17.3676C17.7762 17.7724 17.3918 18.0879 16.942 18.2742C16.4922 18.4605 15.9973 18.5092 15.5198 18.4142C15.0423 18.3193 14.6037 18.0848 14.2594 17.7406C13.9152 17.3963 13.6807 16.9577 13.5858 16.4802C13.4908 16.0027 13.5395 15.5078 13.7258 15.058C13.9121 14.6082 14.2276 14.2238 14.6324 13.9533C15.0372 13.6828 15.5132 13.5385 16 13.5385C16.6528 13.5385 17.2789 13.7978 17.7406 14.2594C18.2022 14.7211 18.4615 15.3472 18.4615 16Z" fill="#1B1B1B"/>
  </symbol>
  <symbol id="ofh-icon-Launch" viewBox="0 0 24 24">
    <path d="M5 21C4.45 21 3.97917 20.8042 3.5875 20.4125C3.19583 20.0208 3 19.55 3 19V5C3 4.45 3.19583 3.97917 3.5875 3.5875C3.97917 3.19583 4.45 3 5 3H12V5H5V19H19V12H21V19C21 19.55 20.8042 20.0208 20.4125 20.4125C20.0208 20.8042 19.55 21 19 21H5ZM9.7 15.7L8.3 14.3L17.6 5H14V3H21V10H19V6.4L9.7 15.7Z" fill="currentColor"/>
  </symbol>
  <symbol id="ofh-icon-LinkedIn" viewBox="0 0 32 32">
    <path d="M0 16C0 7.16344 7.16344 0 16 0C24.8366 0 32 7.16344 32 16C32 24.8366 24.8366 32 16 32C7.16344 32 0 24.8366 0 16Z" fill="#011D4B"/>
    <path d="M12.0566 23.1308H8.74471V12.4342H12.0566V23.1308Z" fill="white"/>
    <path d="M20.5735 12.1067C22.8418 12.1067 24.466 13.4922 24.4661 16.3573V23.1308H21.1705C21.1705 23.1308 21.1705 19.0568 21.1705 17.5155C21.1705 15.9761 20.5852 15.1158 19.3678 15.1158C18.042 15.1159 17.3502 16.0123 17.3502 17.5155V23.1308H14.1737V12.4335H17.3502V13.8743C17.3502 13.8743 18.3044 12.1067 20.5735 12.1067Z" fill="white"/>
    <path d="M10.3853 7.08521C11.4664 7.08532 12.343 7.96896 12.343 9.05851C12.3429 10.1479 11.4664 11.033 10.3853 11.0331C9.30338 11.0331 8.42716 10.148 8.427 9.05851C8.427 7.96889 9.30328 7.08521 10.3853 7.08521Z" fill="white"/>
  </symbol>
  <symbol id="ofh-icon-LinkedInHover" viewBox="0 0 32 32">
    <path d="M0 16C0 7.16344 7.16344 0 16 0C24.8366 0 32 7.16344 32 16C32 24.8366 24.8366 32 16 32C7.16344 32 0 24.8366 0 16Z" fill="#FFC62C"/>
    <path d="M12.0566 23.1308H8.74471V12.4342H12.0566V23.1308Z" fill="#1B1B1B"/>
    <path d="M20.5735 12.1067C22.8418 12.1067 24.466 13.4922 24.4661 16.3573V23.1308H21.1705C21.1705 23.1308 21.1705 19.0568 21.1705 17.5155C21.1705 15.9761 20.5852 15.1158 19.3678 15.1158C18.042 15.1159 17.3502 16.0123 17.3502 17.5155V23.1308H14.1737V12.4335H17.3502V13.8743C17.3502 13.8743 18.3044 12.1067 20.5735 12.1067Z" fill="#1B1B1B"/>
    <path d="M10.3853 7.08521C11.4664 7.08532 12.343 7.96896 12.343 9.05851C12.3429 10.1479 11.4664 11.033 10.3853 11.0331C9.30338 11.0331 8.42716 10.148 8.427 9.05851C8.427 7.96889 9.30328 7.08521 10.3853 7.08521Z" fill="#1B1B1B"/>
  </symbol>
  <symbol id="ofh-icon-ListAltCheckedOutlined" viewBox="0 0 24 24">
    <path d="M5 19V5V16.35V14.225V19ZM5 21C4.45 21 3.97917 20.8042 3.5875 20.4125C3.19583 20.0208 3 19.55 3 19V5C3 4.45 3.19583 3.97917 3.5875 3.5875C3.97917 3.19583 4.45 3 5 3H19C19.55 3 20.0208 3.19583 20.4125 3.5875C20.8042 3.97917 21 4.45 21 5V13H19V5H5V19H12V21H5ZM17.35 22L13.8 18.45L15.225 17.05L17.35 19.175L21.6 14.925L23 16.35L17.35 22ZM8 13C8.28333 13 8.52083 12.9042 8.7125 12.7125C8.90417 12.5208 9 12.2833 9 12C9 11.7167 8.90417 11.4792 8.7125 11.2875C8.52083 11.0958 8.28333 11 8 11C7.71667 11 7.47917 11.0958 7.2875 11.2875C7.09583 11.4792 7 11.7167 7 12C7 12.2833 7.09583 12.5208 7.2875 12.7125C7.47917 12.9042 7.71667 13 8 13ZM8 9C8.28333 9 8.52083 8.90417 8.7125 8.7125C8.90417 8.52083 9 8.28333 9 8C9 7.71667 8.90417 7.47917 8.7125 7.2875C8.52083 7.09583 8.28333 7 8 7C7.71667 7 7.47917 7.09583 7.2875 7.2875C7.09583 7.47917 7 7.71667 7 8C7 8.28333 7.09583 8.52083 7.2875 8.7125C7.47917 8.90417 7.71667 9 8 9ZM11 13H17V11H11V13ZM11 9H17V7H11V9Z" fill="currentColor"/>
  </symbol>
  <symbol id="ofh-icon-ListAltOutlined" viewBox="0 0 24 24">
    <path d="M8 17C8.28333 17 8.52083 16.9042 8.7125 16.7125C8.90417 16.5208 9 16.2833 9 16C9 15.7167 8.90417 15.4792 8.7125 15.2875C8.52083 15.0958 8.28333 15 8 15C7.71667 15 7.47917 15.0958 7.2875 15.2875C7.09583 15.4792 7 15.7167 7 16C7 16.2833 7.09583 16.5208 7.2875 16.7125C7.47917 16.9042 7.71667 17 8 17ZM8 13C8.28333 13 8.52083 12.9042 8.7125 12.7125C8.90417 12.5208 9 12.2833 9 12C9 11.7167 8.90417 11.4792 8.7125 11.2875C8.52083 11.0958 8.28333 11 8 11C7.71667 11 7.47917 11.0958 7.2875 11.2875C7.09583 11.4792 7 11.7167 7 12C7 12.2833 7.09583 12.5208 7.2875 12.7125C7.47917 12.9042 7.71667 13 8 13ZM8 9C8.28333 9 8.52083 8.90417 8.7125 8.7125C8.90417 8.52083 9 8.28333 9 8C9 7.71667 8.90417 7.47917 8.7125 7.2875C8.52083 7.09583 8.28333 7 8 7C7.71667 7 7.47917 7.09583 7.2875 7.2875C7.09583 7.47917 7 7.71667 7 8C7 8.28333 7.09583 8.52083 7.2875 8.7125C7.47917 8.90417 7.71667 9 8 9ZM11 17H17V15H11V17ZM11 13H17V11H11V13ZM11 9H17V7H11V9ZM5 21C4.45 21 3.97917 20.8042 3.5875 20.4125C3.19583 20.0208 3 19.55 3 19V5C3 4.45 3.19583 3.97917 3.5875 3.5875C3.97917 3.19583 4.45 3 5 3H19C19.55 3 20.0208 3.19583 20.4125 3.5875C20.8042 3.97917 21 4.45 21 5V19C21 19.55 20.8042 20.0208 20.4125 20.4125C20.0208 20.8042 19.55 21 19 21H5ZM5 19H19V5H5V19Z" fill="currentColor"/>
  </symbol>
  <symbol id="ofh-icon-LooksEight" viewBox="0 0 24 24">
    <g transform="translate(-1052, -62)">
      <path d="M1071.5 74C1071.5 69.8579 1068.14 66.5 1064 66.5C1059.86 66.5 1056.5 69.8579 1056.5 74C1056.5 78.1421 1059.86 81.5 1064 81.5V83C1059.03 83 1055 78.9706 1055 74C1055 69.0294 1059.03 65 1064 65C1068.97 65 1073 69.0294 1073 74C1073 78.9706 1068.97 83 1064 83V81.5C1068.14 81.5 1071.5 78.1421 1071.5 74Z" fill="currentColor"/>
      <path d="M1064 77.894C1063.51 77.894 1063.06 77.806 1062.67 77.63C1062.28 77.446 1061.97 77.198 1061.75 76.886C1061.52 76.574 1061.41 76.21 1061.41 75.794C1061.41 75.322 1061.55 74.926 1061.83 74.606C1062.11 74.286 1062.43 74.03 1062.79 73.838V73.79C1062.5 73.582 1062.24 73.334 1062.04 73.046C1061.84 72.75 1061.74 72.402 1061.74 72.002C1061.74 71.586 1061.84 71.23 1062.04 70.934C1062.24 70.63 1062.51 70.394 1062.85 70.226C1063.2 70.058 1063.6 69.974 1064.04 69.974C1064.73 69.974 1065.27 70.166 1065.67 70.55C1066.08 70.926 1066.28 71.422 1066.28 72.038C1066.28 72.414 1066.18 72.754 1065.96 73.058C1065.74 73.362 1065.51 73.606 1065.26 73.79V73.838C1065.62 74.038 1065.92 74.29 1066.19 74.594C1066.45 74.898 1066.58 75.306 1066.58 75.818C1066.58 76.21 1066.48 76.562 1066.26 76.874C1066.04 77.186 1065.74 77.434 1065.36 77.618C1064.98 77.802 1064.52 77.894 1064 77.894ZM1064.51 73.442C1064.72 73.234 1064.87 73.022 1064.98 72.806C1065.09 72.59 1065.14 72.362 1065.14 72.122C1065.14 71.786 1065.04 71.51 1064.84 71.294C1064.64 71.07 1064.37 70.958 1064.02 70.958C1063.72 70.958 1063.47 71.05 1063.27 71.234C1063.07 71.418 1062.97 71.674 1062.97 72.002C1062.97 72.258 1063.04 72.474 1063.18 72.65C1063.31 72.818 1063.5 72.966 1063.73 73.094C1063.97 73.214 1064.23 73.33 1064.51 73.442ZM1064.03 76.91C1064.4 76.91 1064.7 76.81 1064.93 76.61C1065.17 76.402 1065.29 76.122 1065.29 75.77C1065.29 75.49 1065.2 75.262 1065.04 75.086C1064.88 74.91 1064.66 74.758 1064.38 74.63C1064.1 74.494 1063.8 74.358 1063.45 74.222C1063.21 74.398 1063.01 74.606 1062.85 74.846C1062.7 75.086 1062.62 75.354 1062.62 75.65C1062.62 76.026 1062.76 76.33 1063.03 76.562C1063.3 76.794 1063.64 76.91 1064.03 76.91Z" fill="currentColor"/>
    </g>
  </symbol>
  <symbol id="ofh-icon-LooksFive" viewBox="0 0 24 24">
    <g transform="translate(-668, -62)">
      <path d="M687.5 74C687.5 69.8579 684.142 66.5 680 66.5C675.858 66.5 672.5 69.8579 672.5 74C672.5 78.1421 675.858 81.5 680 81.5V83C675.029 83 671 78.9706 671 74C671 69.0294 675.029 65 680 65C684.971 65 689 69.0294 689 74C689 78.9706 684.971 83 680 83V81.5C684.142 81.5 687.5 78.1421 687.5 74Z" fill="currentColor"/>
      <path d="M679.957 77.894C679.34 77.894 678.821 77.79 678.397 77.582C677.981 77.366 677.633 77.118 677.352 76.838L677.989 75.95C678.221 76.166 678.48 76.358 678.768 76.526C679.056 76.686 679.392 76.766 679.777 76.766C680.201 76.766 680.553 76.638 680.833 76.382C681.113 76.126 681.253 75.766 681.253 75.302C681.253 74.846 681.125 74.494 680.869 74.246C680.613 73.998 680.273 73.874 679.849 73.874C679.601 73.874 679.392 73.91 679.225 73.982C679.057 74.046 678.857 74.154 678.625 74.306L677.965 73.886L678.193 70.118H682.273V71.282H679.392L679.236 73.13C679.397 73.05 679.553 72.99 679.705 72.95C679.865 72.902 680.045 72.878 680.245 72.878C680.685 72.878 681.085 72.962 681.444 73.13C681.805 73.298 682.093 73.558 682.309 73.91C682.533 74.262 682.645 74.714 682.645 75.266C682.645 75.818 682.517 76.29 682.261 76.682C682.013 77.074 681.685 77.374 681.277 77.582C680.869 77.79 680.429 77.894 679.957 77.894Z" fill="currentColor"/>
    </g>
  </symbol>
  <symbol id="ofh-icon-LooksFour" viewBox="0 0 24 24">
    <g transform="translate(-540, -62)">
      <path d="M559.5 74C559.5 69.8579 556.142 66.5 552 66.5C547.858 66.5 544.5 69.8579 544.5 74C544.5 78.1421 547.858 81.5 552 81.5V83C547.029 83 543 78.9706 543 74C543 69.0294 547.029 65 552 65C556.971 65 561 69.0294 561 74C561 78.9706 556.971 83 552 83V81.5C556.142 81.5 559.5 78.1421 559.5 74Z" fill="currentColor"/>
      <path d="M550.209 74.714H552.213V72.986C552.213 72.762 552.221 72.498 552.237 72.194C552.253 71.89 552.265 71.626 552.273 71.402H552.225C552.129 71.602 552.029 71.798 551.925 71.99C551.821 72.182 551.713 72.382 551.601 72.59L550.209 74.714ZM552.213 77.75V75.782H548.841V74.846L551.865 70.118H553.509V74.714H554.469V75.782H553.509V77.75H552.213Z" fill="currentColor"/>
    </g>
  </symbol>
  <symbol id="ofh-icon-LooksNine" viewBox="0 0 24 24">
    <g transform="translate(-1180, -62)">
      <path d="M1199.5 74C1199.5 69.8579 1196.14 66.5 1192 66.5C1187.86 66.5 1184.5 69.8579 1184.5 74C1184.5 78.1421 1187.86 81.5 1192 81.5V83C1187.03 83 1183 78.9706 1183 74C1183 69.0294 1187.03 65 1192 65C1196.97 65 1201 69.0294 1201 74C1201 78.9706 1196.97 83 1192 83V81.5C1196.14 81.5 1199.5 78.1421 1199.5 74Z" fill="currentColor"/>
      <path d="M1190.69 72.47C1190.69 72.918 1190.8 73.258 1191 73.49C1191.22 73.722 1191.52 73.838 1191.9 73.838C1192.13 73.838 1192.36 73.77 1192.6 73.634C1192.85 73.49 1193.07 73.262 1193.27 72.95C1193.2 72.278 1193.04 71.79 1192.78 71.486C1192.52 71.182 1192.21 71.03 1191.83 71.03C1191.52 71.03 1191.25 71.154 1191.03 71.402C1190.8 71.65 1190.69 72.006 1190.69 72.47ZM1191.58 77.894C1191.12 77.894 1190.73 77.81 1190.39 77.642C1190.06 77.474 1189.77 77.27 1189.54 77.03L1190.28 76.19C1190.43 76.358 1190.61 76.498 1190.82 76.61C1191.05 76.714 1191.28 76.766 1191.51 76.766C1191.83 76.766 1192.12 76.678 1192.38 76.502C1192.65 76.326 1192.86 76.034 1193.03 75.626C1193.2 75.21 1193.29 74.65 1193.31 73.946C1193.08 74.218 1192.82 74.434 1192.52 74.594C1192.21 74.754 1191.92 74.834 1191.64 74.834C1190.98 74.834 1190.45 74.642 1190.03 74.258C1189.62 73.866 1189.42 73.27 1189.42 72.47C1189.42 71.958 1189.53 71.518 1189.74 71.15C1189.97 70.774 1190.26 70.486 1190.62 70.286C1190.99 70.078 1191.39 69.974 1191.82 69.974C1192.32 69.974 1192.77 70.106 1193.19 70.37C1193.61 70.634 1193.95 71.042 1194.2 71.594C1194.45 72.138 1194.58 72.838 1194.58 73.694C1194.58 74.678 1194.44 75.482 1194.16 76.106C1193.88 76.722 1193.51 77.174 1193.06 77.462C1192.6 77.75 1192.11 77.894 1191.58 77.894Z" fill="currentColor"/>
    </g>
  </symbol>
  <symbol id="ofh-icon-LooksOne" viewBox="0 0 24 24">
    <g transform="translate(-156, -62)">
      <path d="M175.5 74C175.5 69.8579 172.142 66.5 168 66.5C163.858 66.5 160.5 69.8579 160.5 74C160.5 78.1421 163.858 81.5 168 81.5V83C163.029 83 159 78.9706 159 74C159 69.0294 163.029 65 168 65C172.971 65 177 69.0294 177 74C177 78.9706 172.971 83 168 83V81.5C172.142 81.5 175.5 78.1421 175.5 74Z" fill="currentColor"/>
      <path d="M165.701 77.75V76.622H167.405V71.606H166.001V70.742C166.377 70.67 166.705 70.586 166.985 70.49C167.265 70.386 167.525 70.262 167.765 70.118H168.797V76.622H170.297V77.75H165.701Z" fill="currentColor"/>
    </g>
  </symbol>
  <symbol id="ofh-icon-LooksSeven" viewBox="0 0 24 24">
    <g transform="translate(-924, -62)">
      <path d="M943.5 74C943.5 69.8579 940.142 66.5 936 66.5C931.858 66.5 928.5 69.8579 928.5 74C928.5 78.1421 931.858 81.5 936 81.5V83C931.029 83 927 78.9706 927 74C927 69.0294 931.029 65 936 65C940.971 65 945 69.0294 945 74C945 78.9706 940.971 83 936 83V81.5C940.142 81.5 943.5 78.1421 943.5 74Z" fill="currentColor"/>
      <path d="M934.927 77.75C934.975 76.846 935.071 76.038 935.215 75.326C935.359 74.606 935.579 73.922 935.875 73.274C936.171 72.626 936.563 71.962 937.051 71.282H933.439V70.118H938.563V70.958C938.115 71.51 937.751 72.038 937.471 72.542C937.199 73.046 936.983 73.558 936.823 74.078C936.671 74.59 936.559 75.146 936.487 75.746C936.415 76.338 936.363 77.006 936.331 77.75H934.927Z" fill="currentColor"/>
    </g>
  </symbol>
  <symbol id="ofh-icon-LooksSix" viewBox="0 0 24 24">
    <g transform="translate(-796, -62)">
      <path d="M815.5 74C815.5 69.8579 812.142 66.5 808 66.5C803.858 66.5 800.5 69.8579 800.5 74C800.5 78.1421 803.858 81.5 808 81.5V83C803.029 83 799 78.9706 799 74C799 69.0294 803.029 65 808 65C812.971 65 817 69.0294 817 74C817 78.9706 812.971 83 808 83V81.5C812.142 81.5 815.5 78.1421 815.5 74Z" fill="currentColor"/>
      <path d="M808.101 74.03C807.885 74.03 807.656 74.098 807.417 74.234C807.177 74.362 806.949 74.586 806.733 74.906C806.805 75.586 806.969 76.078 807.225 76.382C807.481 76.686 807.793 76.838 808.161 76.838C808.481 76.838 808.749 76.714 808.965 76.466C809.189 76.21 809.301 75.85 809.301 75.386C809.301 74.938 809.193 74.602 808.976 74.378C808.769 74.146 808.477 74.03 808.101 74.03ZM808.184 77.894C807.689 77.894 807.229 77.762 806.805 77.498C806.38 77.234 806.041 76.826 805.785 76.274C805.537 75.722 805.413 75.018 805.413 74.162C805.413 73.17 805.553 72.37 805.833 71.762C806.121 71.146 806.493 70.694 806.949 70.406C807.405 70.118 807.892 69.974 808.413 69.974C808.877 69.974 809.277 70.058 809.613 70.226C809.949 70.394 810.229 70.598 810.453 70.838L809.708 71.678C809.573 71.51 809.392 71.374 809.169 71.27C808.953 71.158 808.729 71.102 808.497 71.102C808.177 71.102 807.885 71.19 807.621 71.366C807.357 71.542 807.141 71.838 806.972 72.254C806.812 72.662 806.72 73.218 806.696 73.922C806.92 73.642 807.185 73.422 807.489 73.262C807.793 73.102 808.081 73.022 808.352 73.022C809.017 73.022 809.553 73.218 809.961 73.61C810.377 73.994 810.585 74.586 810.585 75.386C810.585 75.89 810.473 76.33 810.249 76.706C810.033 77.082 809.745 77.374 809.385 77.582C809.025 77.79 808.625 77.894 808.184 77.894Z" fill="currentColor"/>
    </g>
  </symbol>
  <symbol id="ofh-icon-LooksThree" viewBox="0 0 24 24">
    <g transform="translate(-412, -62)">
      <path d="M431.5 74C431.5 69.8579 428.142 66.5 424 66.5C419.858 66.5 416.5 69.8579 416.5 74C416.5 78.1421 419.858 81.5 424 81.5V83C419.029 83 415 78.9706 415 74C415 69.0294 419.029 65 424 65C428.971 65 433 69.0294 433 74C433 78.9706 428.971 83 424 83V81.5C428.142 81.5 431.5 78.1421 431.5 74Z" fill="currentColor"/>
      <path d="M423.96 77.894C423.344 77.894 422.824 77.79 422.399 77.582C421.984 77.366 421.639 77.11 421.367 76.814L422.028 75.926C422.26 76.158 422.523 76.358 422.819 76.526C423.115 76.686 423.455 76.766 423.839 76.766C424.255 76.766 424.592 76.666 424.847 76.466C425.111 76.258 425.243 75.974 425.243 75.614C425.243 75.35 425.175 75.122 425.039 74.93C424.911 74.73 424.684 74.578 424.356 74.474C424.035 74.37 423.583 74.318 423 74.318V73.31C423.752 73.31 424.271 73.194 424.559 72.962C424.847 72.73 424.992 72.438 424.992 72.086C424.992 71.766 424.892 71.518 424.692 71.342C424.492 71.158 424.215 71.066 423.863 71.066C423.568 71.066 423.295 71.134 423.047 71.27C422.799 71.398 422.559 71.57 422.327 71.786L421.62 70.934C421.948 70.646 422.295 70.414 422.663 70.238C423.039 70.062 423.455 69.974 423.911 69.974C424.648 69.974 425.244 70.15 425.7 70.502C426.156 70.846 426.384 71.342 426.384 71.99C426.384 72.414 426.264 72.774 426.024 73.07C425.792 73.358 425.468 73.582 425.052 73.742V73.79C425.5 73.91 425.876 74.13 426.18 74.45C426.484 74.77 426.635 75.182 426.635 75.686C426.635 76.15 426.512 76.546 426.264 76.874C426.023 77.202 425.7 77.454 425.292 77.63C424.892 77.806 424.448 77.894 423.96 77.894Z" fill="currentColor"/>
    </g>
  </symbol>
  <symbol id="ofh-icon-LooksTwo" viewBox="0 0 24 24">
    <g transform="translate(-284, -62)">
      <path d="M303.5 74C303.5 69.8579 300.142 66.5 296 66.5C291.858 66.5 288.5 69.8579 288.5 74C288.5 78.1421 291.858 81.5 296 81.5V83C291.029 83 287 78.9706 287 74C287 69.0294 291.029 65 296 65C300.971 65 305 69.0294 305 74C305 78.9706 300.971 83 296 83V81.5C300.142 81.5 303.5 78.1421 303.5 74Z" fill="currentColor"/>
      <path d="M293.45 77.75V76.946C294.162 76.258 294.774 75.646 295.286 75.11C295.806 74.566 296.206 74.074 296.486 73.634C296.766 73.186 296.906 72.77 296.906 72.386C296.906 71.986 296.798 71.666 296.582 71.426C296.366 71.186 296.054 71.066 295.646 71.066C295.35 71.066 295.078 71.15 294.83 71.318C294.59 71.486 294.366 71.686 294.158 71.918L293.39 71.15C293.742 70.774 294.106 70.486 294.482 70.286C294.858 70.078 295.306 69.974 295.826 69.974C296.562 69.974 297.146 70.186 297.578 70.61C298.018 71.034 298.238 71.602 298.238 72.314C298.238 72.762 298.11 73.222 297.854 73.694C297.606 74.158 297.27 74.634 296.846 75.122C296.43 75.61 295.97 76.122 295.466 76.658C295.666 76.642 295.882 76.626 296.114 76.61C296.346 76.586 296.554 76.574 296.738 76.574H298.61V77.75H293.45Z" fill="currentColor"/>
    </g>
  </symbol>
  <symbol id="ofh-icon-LooksZero" viewBox="0 0 24 24">
    <g transform="translate(-24, -62)">
      <path d="M43.5 74C43.5 69.8579 40.1421 66.5 36 66.5C31.8579 66.5 28.5 69.8579 28.5 74C28.5 78.1421 31.8579 81.5 36 81.5V83C31.0294 83 27 78.9706 27 74C27 69.0294 31.0294 65 36 65C40.9706 65 45 69.0294 45 74C45 78.9706 40.9706 83 36 83V81.5C40.1421 81.5 43.5 78.1421 43.5 74Z" fill="currentColor"/>
      <path d="M36.0008 77.894C35.2087 77.894 34.5768 77.55 34.1048 76.862C33.6408 76.174 33.4088 75.186 33.4088 73.898C33.4088 72.61 33.6408 71.634 34.1048 70.97C34.5768 70.306 35.2087 69.974 36.0008 69.974C36.7928 69.974 37.4208 70.306 37.8848 70.97C38.3568 71.634 38.5928 72.61 38.5928 73.898C38.5928 75.186 38.3568 76.174 37.8848 76.862C37.4208 77.55 36.7928 77.894 36.0008 77.894ZM36.0008 76.814C36.2488 76.814 36.4688 76.722 36.6608 76.538C36.8528 76.346 37.0008 76.038 37.1048 75.614C37.2168 75.19 37.2728 74.618 37.2728 73.898C37.2728 73.178 37.2168 72.61 37.1048 72.194C37.0008 71.778 36.8528 71.486 36.6608 71.318C36.4688 71.142 36.2488 71.054 36.0008 71.054C35.7607 71.054 35.5448 71.142 35.3527 71.318C35.1608 71.486 35.0087 71.778 34.8968 72.194C34.7848 72.61 34.7288 73.178 34.7288 73.898C34.7288 74.618 34.7848 75.19 34.8968 75.614C35.0087 76.038 35.1608 76.346 35.3527 76.538C35.5448 76.722 35.7607 76.814 36.0008 76.814Z" fill="currentColor"/>
    </g>
  </symbol>
  <symbol id="ofh-icon-RemoveCircle" viewBox="0 0 24 24">
    <path d="M7 13H17V11H7V13ZM12 22C10.6167 22 9.31667 21.7375 8.1 21.2125C6.88333 20.6875 5.825 19.975 4.925 19.075C4.025 18.175 3.3125 17.1167 2.7875 15.9C2.2625 14.6833 2 13.3833 2 12C2 10.6167 2.2625 9.31667 2.7875 8.1C3.3125 6.88333 4.025 5.825 4.925 4.925C5.825 4.025 6.88333 3.3125 8.1 2.7875C9.31667 2.2625 10.6167 2 12 2C13.3833 2 14.6833 2.2625 15.9 2.7875C17.1167 3.3125 18.175 4.025 19.075 4.925C19.975 5.825 20.6875 6.88333 21.2125 8.1C21.7375 9.31667 22 10.6167 22 12C22 13.3833 21.7375 14.6833 21.2125 15.9C20.6875 17.1167 19.975 18.175 19.075 19.075C18.175 19.975 17.1167 20.6875 15.9 21.2125C14.6833 21.7375 13.3833 22 12 22Z" fill="currentColor"/>
  </symbol>
  <symbol id="ofh-icon-Search" viewBox="0 0 24 24">
    <path d="M19.6 21L13.3 14.7C12.8 15.1 12.225 15.4167 11.575 15.65C10.925 15.8833 10.2333 16 9.5 16C7.68333 16 6.14583 15.3708 4.8875 14.1125C3.62917 12.8542 3 11.3167 3 9.5C3 7.68333 3.62917 6.14583 4.8875 4.8875C6.14583 3.62917 7.68333 3 9.5 3C11.3167 3 12.8542 3.62917 14.1125 4.8875C15.3708 6.14583 16 7.68333 16 9.5C16 10.2333 15.8833 10.925 15.65 11.575C15.4167 12.225 15.1 12.8 14.7 13.3L21 19.6L19.6 21ZM9.5 14C10.75 14 11.8125 13.5625 12.6875 12.6875C13.5625 11.8125 14 10.75 14 9.5C14 8.25 13.5625 7.1875 12.6875 6.3125C11.8125 5.4375 10.75 5 9.5 5C8.25 5 7.1875 5.4375 6.3125 6.3125C5.4375 7.1875 5 8.25 5 9.5C5 10.75 5.4375 11.8125 6.3125 12.6875C7.1875 13.5625 8.25 14 9.5 14Z" fill="currentColor"/>
  </symbol>
  <symbol id="ofh-icon-TestTubeOutlined" viewBox="0 0 24 24">
    <path d="M12 22C10.6167 22 9.4375 21.5125 8.4625 20.5375C7.4875 19.5625 7 18.3833 7 17V8C6.45 8 5.97917 7.80417 5.5875 7.4125C5.19583 7.02083 5 6.55 5 6V4C5 3.45 5.19583 2.97917 5.5875 2.5875C5.97917 2.19583 6.45 2 7 2H17C17.55 2 18.0208 2.19583 18.4125 2.5875C18.8042 2.97917 19 3.45 19 4V6C19 6.55 18.8042 7.02083 18.4125 7.4125C18.0208 7.80417 17.55 8 17 8V17C17 18.3833 16.5125 19.5625 15.5375 20.5375C14.5625 21.5125 13.3833 22 12 22ZM7 6H17V4H7V6ZM12 20C12.8333 20 13.5417 19.7083 14.125 19.125C14.7083 18.5417 15 17.8333 15 17H12V15H15V13H12V11H15V8H9V17C9 17.8333 9.29167 18.5417 9.875 19.125C10.4583 19.7083 11.1667 20 12 20Z" fill="currentColor"/>
  </symbol>
  <symbol id="ofh-icon-Tiktok" viewBox="0 0 32 32">
    <path d="M0 16C0 7.16344 7.16344 0 16 0C24.8366 0 32 7.16344 32 16C32 24.8366 24.8366 32 16 32C7.16344 32 0 24.8366 0 16Z" fill="#011D4B"/>
    <path d="M24 12.2715V15.3579C24 15.5217 23.9352 15.6787 23.8198 15.7944C23.7044 15.9102 23.5478 15.9752 23.3846 15.9752C22.0991 15.9782 20.832 15.6682 19.6923 15.0717V18.1357C19.6923 19.691 19.0764 21.1826 17.98 22.2823C16.8836 23.3821 15.3967 23.9999 13.8462 23.9999C12.2957 23.9999 10.8087 23.3821 9.7123 22.2823C8.61593 21.1826 8 19.691 8 18.1357C8 15.2885 10.07 12.7715 12.8154 12.2808C12.904 12.265 12.9949 12.2689 13.0818 12.2921C13.1687 12.3154 13.2495 12.3575 13.3184 12.4155C13.3874 12.4735 13.4428 12.5459 13.4808 12.6277C13.5188 12.7094 13.5385 12.7986 13.5385 12.8888V16.1828C13.5385 16.2996 13.5055 16.4141 13.4433 16.5128C13.381 16.6116 13.2921 16.6906 13.1869 16.7407C12.9382 16.859 12.7257 17.0421 12.5715 17.2709C12.4173 17.4997 12.3272 17.7658 12.3105 18.0414C12.2938 18.3171 12.3512 18.5921 12.4766 18.838C12.602 19.0838 12.7908 19.2914 13.0235 19.439C13.2561 19.5867 13.524 19.6691 13.7991 19.6775C14.0743 19.6859 14.3467 19.6202 14.5879 19.487C14.8291 19.3539 15.0302 19.1583 15.1704 18.9206C15.3105 18.6829 15.3845 18.4119 15.3846 18.1357V7.95054C15.3846 7.78682 15.4495 7.62981 15.5649 7.51405C15.6803 7.39829 15.8368 7.33325 16 7.33325H19.0769C19.2401 7.33325 19.3967 7.39829 19.5121 7.51405C19.6275 7.62981 19.6923 7.78682 19.6923 7.95054C19.6933 8.93251 20.0827 9.87396 20.7749 10.5683C21.4671 11.2627 22.4057 11.6532 23.3846 11.6542C23.5478 11.6542 23.7044 11.7193 23.8198 11.835C23.9352 11.9508 24 12.1078 24 12.2715Z" fill="white"/>
  </symbol>
  <symbol id="ofh-icon-TiktokHover" viewBox="0 0 32 32">
    <path d="M0 16C0 7.16344 7.16344 0 16 0C24.8366 0 32 7.16344 32 16C32 24.8366 24.8366 32 16 32C7.16344 32 0 24.8366 0 16Z" fill="#FFC62C"/>
    <path d="M24 12.2715V15.3579C24 15.5217 23.9352 15.6787 23.8198 15.7944C23.7044 15.9102 23.5478 15.9752 23.3846 15.9752C22.0991 15.9782 20.832 15.6682 19.6923 15.0717V18.1357C19.6923 19.691 19.0764 21.1826 17.98 22.2823C16.8836 23.3821 15.3967 23.9999 13.8462 23.9999C12.2957 23.9999 10.8087 23.3821 9.7123 22.2823C8.61593 21.1826 8 19.691 8 18.1357C8 15.2885 10.07 12.7715 12.8154 12.2808C12.904 12.265 12.9949 12.2689 13.0818 12.2921C13.1687 12.3154 13.2495 12.3575 13.3184 12.4155C13.3874 12.4735 13.4428 12.5459 13.4808 12.6277C13.5188 12.7094 13.5385 12.7986 13.5385 12.8888V16.1828C13.5385 16.2996 13.5055 16.4141 13.4433 16.5128C13.381 16.6116 13.2921 16.6906 13.1869 16.7407C12.9382 16.859 12.7257 17.0421 12.5715 17.2709C12.4173 17.4997 12.3272 17.7658 12.3105 18.0414C12.2938 18.3171 12.3512 18.5921 12.4766 18.838C12.602 19.0838 12.7908 19.2914 13.0235 19.439C13.2561 19.5867 13.524 19.6691 13.7991 19.6775C14.0743 19.6859 14.3467 19.6202 14.5879 19.487C14.8291 19.3539 15.0302 19.1583 15.1704 18.9206C15.3105 18.6829 15.3845 18.4119 15.3846 18.1357V7.95054C15.3846 7.78682 15.4495 7.62981 15.5649 7.51405C15.6803 7.39829 15.8368 7.33325 16 7.33325H19.0769C19.2401 7.33325 19.3967 7.39829 19.5121 7.51405C19.6275 7.62981 19.6923 7.78682 19.6923 7.95054C19.6933 8.93251 20.0827 9.87396 20.7749 10.5683C21.4671 11.2627 22.4057 11.6532 23.3846 11.6542C23.5478 11.6542 23.7044 11.7193 23.8198 11.835C23.9352 11.9508 24 12.1078 24 12.2715Z" fill="#1B1B1B"/>
  </symbol>
  <symbol id="ofh-icon-UnfoldLess" viewBox="0 0 24 24">
    <path d="M8.9 20L7.5 18.6L12 14.1L16.5 18.6L15.1 20L12 16.9L8.9 20ZM12 9.9L7.5 5.4L8.9 4L12 7.1L15.1 4L16.5 5.4L12 9.9Z" fill="currentColor"/>
  </symbol>
  <symbol id="ofh-icon-UnfoldMore" viewBox="0 0 24 24">
    <path d="M12 21L7.5 16.5L8.95 15.05L12 18.1L15.05 15.05L16.5 16.5L12 21ZM8.95 9.04998L7.5 7.59998L12 3.09998L16.5 7.59998L15.05 9.04998L12 5.99998L8.95 9.04998Z" fill="currentColor"/>
  </symbol>
  <symbol id="ofh-icon-WatchLater" viewBox="0 0 24 24">
    <path d="M14.55 16.55L15.95 15.125L13 12.175V8H11V13L14.55 16.55ZM12 22C10.6167 22 9.31667 21.7375 8.1 21.2125C6.88333 20.6875 5.825 19.975 4.925 19.075C4.025 18.175 3.3125 17.1167 2.7875 15.9C2.2625 14.6833 2 13.3833 2 12C2 10.6167 2.2625 9.31667 2.7875 8.1C3.3125 6.88333 4.025 5.825 4.925 4.925C5.825 4.025 6.88333 3.3125 8.1 2.7875C9.31667 2.2625 10.6167 2 12 2C13.3833 2 14.6833 2.2625 15.9 2.7875C17.1167 3.3125 18.175 4.025 19.075 4.925C19.975 5.825 20.6875 6.88333 21.2125 8.1C21.7375 9.31667 22 10.6167 22 12C22 13.3833 21.7375 14.6833 21.2125 15.9C20.6875 17.1167 19.975 18.175 19.075 19.075C18.175 19.975 17.1167 20.6875 15.9 21.2125C14.6833 21.7375 13.3833 22 12 22Z" fill="currentColor"/>
  </symbol>
  <symbol id="ofh-icon-West" viewBox="0 0 24 24">
    <path d="M10 18L4 12L10 6L11.4 7.45L7.85 11H20V13H7.85L11.4 16.55L10 18Z" fill="currentColor"/>
  </symbol>
  <symbol id="ofh-icon-WorkOutlined" viewBox="0 0 24 24">
    <path d="M4 21C3.45 21 2.97917 20.8042 2.5875 20.4125C2.19583 20.0208 2 19.55 2 19V8C2 7.45 2.19583 6.97917 2.5875 6.5875C2.97917 6.19583 3.45 6 4 6H8V4C8 3.45 8.19583 2.97917 8.5875 2.5875C8.97917 2.19583 9.45 2 10 2H14C14.55 2 15.0208 2.19583 15.4125 2.5875C15.8042 2.97917 16 3.45 16 4V6H20C20.55 6 21.0208 6.19583 21.4125 6.5875C21.8042 6.97917 22 7.45 22 8V19C22 19.55 21.8042 20.0208 21.4125 20.4125C21.0208 20.8042 20.55 21 20 21H4ZM4 19H20V8H4V19ZM10 6H14V4H10V6Z" fill="currentColor"/>
  </symbol>
  <symbol id="ofh-icon-X" viewBox="0 0 32 32">
    <path d="M0 16C0 7.16344 7.16344 0 16 0C24.8366 0 32 7.16344 32 16C32 24.8366 24.8366 32 16 32C7.16344 32 0 24.8366 0 16Z" fill="#011D4B"/>
    <path d="M21.9285 23.0164C21.8789 23.1122 21.806 23.1922 21.7174 23.248C21.6288 23.3037 21.5277 23.3332 21.4247 23.3334H17.9701C17.8732 23.3334 17.7779 23.3074 17.6929 23.2579C17.608 23.2083 17.5363 23.1368 17.4843 23.05L14.5702 18.1894L10.3354 23.1333C10.2321 23.251 10.0894 23.3207 9.93798 23.3275C9.7866 23.3342 9.63884 23.2773 9.52671 23.1691C9.41459 23.061 9.34715 22.9103 9.33901 22.7497C9.33087 22.5891 9.38269 22.4316 9.48323 22.3113L13.9289 17.1169L9.4235 9.60633C9.36801 9.51393 9.33694 9.4074 9.33356 9.29789C9.33018 9.18838 9.3546 9.07991 9.40426 8.98386C9.45393 8.8878 9.52701 8.80768 9.61587 8.75189C9.70472 8.6961 9.80607 8.66669 9.9093 8.66675H13.3639C13.4608 8.66678 13.5562 8.69277 13.6411 8.74231C13.726 8.79185 13.7978 8.86334 13.8497 8.95015L16.7639 13.8108L20.9986 8.86689C21.1019 8.74919 21.2447 8.67942 21.396 8.6727C21.5474 8.66599 21.6952 8.72288 21.8073 8.83103C21.9194 8.93918 21.9869 9.08988 21.995 9.25045C22.0032 9.41103 21.9513 9.56854 21.8508 9.68883L17.4051 14.8795L21.9105 22.3946C21.9657 22.487 21.9965 22.5935 21.9996 22.7029C22.0028 22.8123 21.9782 22.9205 21.9285 23.0164Z" fill="white"/>
  </symbol>
  <symbol id="ofh-icon-XHover" viewBox="0 0 32 32">
    <path d="M0 16C0 7.16344 7.16344 0 16 0C24.8366 0 32 7.16344 32 16C32 24.8366 24.8366 32 16 32C7.16344 32 0 24.8366 0 16Z" fill="#FFC62C"/>
    <path d="M21.9285 23.0164C21.8789 23.1122 21.806 23.1922 21.7174 23.248C21.6288 23.3037 21.5277 23.3332 21.4247 23.3334H17.9701C17.8732 23.3334 17.7779 23.3074 17.6929 23.2579C17.608 23.2083 17.5363 23.1368 17.4843 23.05L14.5702 18.1894L10.3354 23.1333C10.2321 23.251 10.0894 23.3207 9.93798 23.3275C9.7866 23.3342 9.63884 23.2773 9.52671 23.1691C9.41459 23.061 9.34715 22.9103 9.33901 22.7497C9.33087 22.5891 9.38269 22.4316 9.48323 22.3113L13.9289 17.1169L9.4235 9.60633C9.36801 9.51393 9.33694 9.4074 9.33356 9.29789C9.33018 9.18838 9.3546 9.07991 9.40426 8.98386C9.45393 8.8878 9.52701 8.80768 9.61587 8.75189C9.70472 8.6961 9.80607 8.66669 9.9093 8.66675H13.3639C13.4608 8.66678 13.5562 8.69277 13.6411 8.74231C13.726 8.79185 13.7978 8.86334 13.8497 8.95015L16.7639 13.8108L20.9986 8.86689C21.1019 8.74919 21.2447 8.67942 21.396 8.6727C21.5474 8.66599 21.6952 8.72288 21.8073 8.83103C21.9194 8.93918 21.9869 9.08988 21.995 9.25045C22.0032 9.41103 21.9513 9.56854 21.8508 9.68883L17.4051 14.8795L21.9105 22.3946C21.9657 22.487 21.9965 22.5935 21.9996 22.7029C22.0028 22.8123 21.9782 22.9205 21.9285 23.0164Z" fill="#1B1B1B"/>
  </symbol>
  <symbol id="ofh-icon-Youtube" viewBox="0 0 32 32">
    <path d="M0 16C0 7.16344 7.16344 0 16 0C24.8366 0 32 7.16344 32 16C32 24.8366 24.8366 32 16 32C7.16344 32 0 24.8366 0 16Z" fill="#011D4B"/>
    <path d="M23.9852 11.1549C23.7935 10.4383 23.2285 9.87325 22.5119 9.68159C21.2119 9.33325 16.0002 9.33325 16.0002 9.33325C16.0002 9.33325 10.7885 9.33325 9.48854 9.68159C8.77187 9.87325 8.20687 10.4383 8.0152 11.1549C7.66687 12.4549 7.66687 15.9999 7.66687 15.9999C7.66687 15.9999 7.66687 19.5449 8.0152 20.8449C8.20687 21.5616 8.77187 22.1266 9.48854 22.3183C10.7885 22.6666 16.0002 22.6666 16.0002 22.6666C16.0002 22.6666 21.2119 22.6666 22.5119 22.3183C23.2294 22.1266 23.7935 21.5616 23.9852 20.8449C24.3335 19.5449 24.3335 15.9999 24.3335 15.9999C24.3335 15.9999 24.3335 12.4549 23.9852 11.1549ZM14.3335 18.1649V13.8349C14.3335 13.5141 14.681 13.3141 14.9585 13.4741L18.7085 15.6391C18.986 15.7991 18.986 16.2008 18.7085 16.3608L14.9585 18.5258C14.681 18.6866 14.3335 18.4858 14.3335 18.1649Z" fill="white"/>
  </symbol>
  <symbol id="ofh-icon-YoutubeHover" viewBox="0 0 32 32">
    <path d="M0 16C0 7.16344 7.16344 0 16 0C24.8366 0 32 7.16344 32 16C32 24.8366 24.8366 32 16 32C7.16344 32 0 24.8366 0 16Z" fill="#FFC62C"/>
    <path d="M23.9852 11.1549C23.7935 10.4383 23.2285 9.87325 22.5119 9.68159C21.2119 9.33325 16.0002 9.33325 16.0002 9.33325C16.0002 9.33325 10.7885 9.33325 9.48854 9.68159C8.77187 9.87325 8.20687 10.4383 8.0152 11.1549C7.66687 12.4549 7.66687 15.9999 7.66687 15.9999C7.66687 15.9999 7.66687 19.5449 8.0152 20.8449C8.20687 21.5616 8.77187 22.1266 9.48854 22.3183C10.7885 22.6666 16.0002 22.6666 16.0002 22.6666C16.0002 22.6666 21.2119 22.6666 22.5119 22.3183C23.2294 22.1266 23.7935 21.5616 23.9852 20.8449C24.3335 19.5449 24.3335 15.9999 24.3335 15.9999C24.3335 15.9999 24.3335 12.4549 23.9852 11.1549ZM14.3335 18.1649V13.8349C14.3335 13.5141 14.681 13.3141 14.9585 13.4741L18.7085 15.6391C18.986 15.7991 18.986 16.2008 18.7085 16.3608L14.9585 18.5258C14.681 18.6866 14.3335 18.4858 14.3335 18.1649Z" fill="#1B1B1B"/>
  </symbol>
</svg>
