<svg width="24" height="24" viewBox="0 0 32 32" fill="none" xmlns="http://www.w3.org/2000/svg">
<path d="M0 16C0 7.16344 7.16344 0 16 0C24.8366 0 32 7.16344 32 16C32 24.8366 24.8366 32 16 32C7.16344 32 0 24.8366 0 16Z" fill="#FFC62C"/>
<path d="M19.6923 8H12.3077C11.1656 8.00122 10.0706 8.45546 9.26304 9.26304C8.45546 10.0706 8.00122 11.1656 8 12.3077V19.6923C8.00122 20.8344 8.45546 21.9294 9.26304 22.737C10.0706 23.5445 11.1656 23.9988 12.3077 24H19.6923C20.8344 23.9988 21.9294 23.5445 22.737 22.737C23.5445 21.9294 23.9988 20.8344 24 19.6923V12.3077C23.9988 11.1656 23.5445 10.0706 22.737 9.26304C21.9294 8.45546 20.8344 8.00122 19.6923 8ZM16 19.6923C15.2697 19.6923 14.5559 19.4758 13.9487 19.07C13.3415 18.6643 12.8682 18.0877 12.5888 17.413C12.3093 16.7383 12.2362 15.9959 12.3786 15.2797C12.5211 14.5634 12.8728 13.9055 13.3891 13.3891C13.9055 12.8728 14.5634 12.5211 15.2797 12.3786C15.9959 12.2362 16.7383 12.3093 17.413 12.5888C18.0877 12.8682 18.6643 13.3415 19.07 13.9487C19.4758 14.5559 19.6923 15.2697 19.6923 16C19.6913 16.9789 19.302 17.9175 18.6097 18.6097C17.9175 19.302 16.9789 19.6913 16 19.6923ZM20.6154 12.3077C20.4328 12.3077 20.2544 12.2536 20.1026 12.1521C19.9508 12.0507 19.8324 11.9065 19.7626 11.7379C19.6927 11.5692 19.6744 11.3836 19.71 11.2045C19.7457 11.0255 19.8336 10.861 19.9627 10.7319C20.0918 10.6028 20.2562 10.5149 20.4353 10.4793C20.6144 10.4437 20.8 10.4619 20.9686 10.5318C21.1373 10.6017 21.2815 10.72 21.3829 10.8718C21.4843 11.0236 21.5385 11.202 21.5385 11.3846C21.5385 11.6294 21.4412 11.8642 21.2681 12.0373C21.095 12.2104 20.8602 12.3077 20.6154 12.3077ZM18.4615 16C18.4615 16.4868 18.3172 16.9628 18.0467 17.3676C17.7762 17.7724 17.3918 18.0879 16.942 18.2742C16.4922 18.4605 15.9973 18.5092 15.5198 18.4142C15.0423 18.3193 14.6037 18.0848 14.2594 17.7406C13.9152 17.3963 13.6807 16.9577 13.5858 16.4802C13.4908 16.0027 13.5395 15.5078 13.7258 15.058C13.9121 14.6082 14.2276 14.2238 14.6324 13.9533C15.0372 13.6828 15.5132 13.5385 16 13.5385C16.6528 13.5385 17.2789 13.7978 17.7406 14.2594C18.2022 14.7211 18.4615 15.3472 18.4615 16Z" fill="#1B1B1B"/>
</svg>
