<svg width="24" height="24" viewBox="0 0 32 32" fill="none" xmlns="http://www.w3.org/2000/svg">
<path d="M0 16C0 7.16344 7.16344 0 16 0C24.8366 0 32 7.16344 32 16C32 24.8366 24.8366 32 16 32C7.16344 32 0 24.8366 0 16Z" fill="#011D4B"/>
<path d="M12.0566 23.1308H8.74471V12.4342H12.0566V23.1308Z" fill="white"/>
<path d="M20.5735 12.1067C22.8418 12.1067 24.466 13.4922 24.4661 16.3573V23.1308H21.1705C21.1705 23.1308 21.1705 19.0568 21.1705 17.5155C21.1705 15.9761 20.5852 15.1158 19.3678 15.1158C18.042 15.1159 17.3502 16.0123 17.3502 17.5155V23.1308H14.1737V12.4335H17.3502V13.8743C17.3502 13.8743 18.3044 12.1067 20.5735 12.1067Z" fill="white"/>
<path d="M10.3853 7.08521C11.4664 7.08532 12.343 7.96896 12.343 9.05851C12.3429 10.1479 11.4664 11.033 10.3853 11.0331C9.30338 11.0331 8.42716 10.148 8.427 9.05851C8.427 7.96889 9.30328 7.08521 10.3853 7.08521Z" fill="white"/>
</svg>
