<svg width="24" height="24" viewBox="0 0 24 24" fill="none" xmlns="http://www.w3.org/2000/svg">
<g transform="translate(-924, -62)">
  <path d="M943.5 74C943.5 69.8579 940.142 66.5 936 66.5C931.858 66.5 928.5 69.8579 928.5 74C928.5 78.1421 931.858 81.5 936 81.5V83C931.029 83 927 78.9706 927 74C927 69.0294 931.029 65 936 65C940.971 65 945 69.0294 945 74C945 78.9706 940.971 83 936 83V81.5C940.142 81.5 943.5 78.1421 943.5 74Z" fill="currentColor"/>
  <path d="M934.927 77.75C934.975 76.846 935.071 76.038 935.215 75.326C935.359 74.606 935.579 73.922 935.875 73.274C936.171 72.626 936.563 71.962 937.051 71.282H933.439V70.118H938.563V70.958C938.115 71.51 937.751 72.038 937.471 72.542C937.199 73.046 936.983 73.558 936.823 74.078C936.671 74.59 936.559 75.146 936.487 75.746C936.415 76.338 936.363 77.006 936.331 77.75H934.927Z" fill="currentColor"/>
</g>
</svg>
