<svg width="24" height="24" viewBox="0 0 24 24" fill="none" xmlns="http://www.w3.org/2000/svg">
<g transform="translate(-796, -62)">
  <path d="M815.5 74C815.5 69.8579 812.142 66.5 808 66.5C803.858 66.5 800.5 69.8579 800.5 74C800.5 78.1421 803.858 81.5 808 81.5V83C803.029 83 799 78.9706 799 74C799 69.0294 803.029 65 808 65C812.971 65 817 69.0294 817 74C817 78.9706 812.971 83 808 83V81.5C812.142 81.5 815.5 78.1421 815.5 74Z" fill="currentColor"/>
  <path d="M808.101 74.03C807.885 74.03 807.656 74.098 807.417 74.234C807.177 74.362 806.949 74.586 806.733 74.906C806.805 75.586 806.969 76.078 807.225 76.382C807.481 76.686 807.793 76.838 808.161 76.838C808.481 76.838 808.749 76.714 808.965 76.466C809.189 76.21 809.301 75.85 809.301 75.386C809.301 74.938 809.193 74.602 808.976 74.378C808.769 74.146 808.477 74.03 808.101 74.03ZM808.184 77.894C807.689 77.894 807.229 77.762 806.805 77.498C806.38 77.234 806.041 76.826 805.785 76.274C805.537 75.722 805.413 75.018 805.413 74.162C805.413 73.17 805.553 72.37 805.833 71.762C806.121 71.146 806.493 70.694 806.949 70.406C807.405 70.118 807.892 69.974 808.413 69.974C808.877 69.974 809.277 70.058 809.613 70.226C809.949 70.394 810.229 70.598 810.453 70.838L809.708 71.678C809.573 71.51 809.392 71.374 809.169 71.27C808.953 71.158 808.729 71.102 808.497 71.102C808.177 71.102 807.885 71.19 807.621 71.366C807.357 71.542 807.141 71.838 806.972 72.254C806.812 72.662 806.72 73.218 806.696 73.922C806.92 73.642 807.185 73.422 807.489 73.262C807.793 73.102 808.081 73.022 808.352 73.022C809.017 73.022 809.553 73.218 809.961 73.61C810.377 73.994 810.585 74.586 810.585 75.386C810.585 75.89 810.473 76.33 810.249 76.706C810.033 77.082 809.745 77.374 809.385 77.582C809.025 77.79 808.625 77.894 808.184 77.894Z" fill="currentColor"/>
</g>
</svg>
