<svg width="24" height="24" viewBox="0 0 24 24" fill="none" xmlns="http://www.w3.org/2000/svg">
<g transform="translate(-412, -62)">
  <path d="M431.5 74C431.5 69.8579 428.142 66.5 424 66.5C419.858 66.5 416.5 69.8579 416.5 74C416.5 78.1421 419.858 81.5 424 81.5V83C419.029 83 415 78.9706 415 74C415 69.0294 419.029 65 424 65C428.971 65 433 69.0294 433 74C433 78.9706 428.971 83 424 83V81.5C428.142 81.5 431.5 78.1421 431.5 74Z" fill="currentColor"/>
  <path d="M423.96 77.894C423.344 77.894 422.824 77.79 422.399 77.582C421.984 77.366 421.639 77.11 421.367 76.814L422.028 75.926C422.26 76.158 422.523 76.358 422.819 76.526C423.115 76.686 423.455 76.766 423.839 76.766C424.255 76.766 424.592 76.666 424.847 76.466C425.111 76.258 425.243 75.974 425.243 75.614C425.243 75.35 425.175 75.122 425.039 74.93C424.911 74.73 424.684 74.578 424.356 74.474C424.035 74.37 423.583 74.318 423 74.318V73.31C423.752 73.31 424.271 73.194 424.559 72.962C424.847 72.73 424.992 72.438 424.992 72.086C424.992 71.766 424.892 71.518 424.692 71.342C424.492 71.158 424.215 71.066 423.863 71.066C423.568 71.066 423.295 71.134 423.047 71.27C422.799 71.398 422.559 71.57 422.327 71.786L421.62 70.934C421.948 70.646 422.295 70.414 422.663 70.238C423.039 70.062 423.455 69.974 423.911 69.974C424.648 69.974 425.244 70.15 425.7 70.502C426.156 70.846 426.384 71.342 426.384 71.99C426.384 72.414 426.264 72.774 426.024 73.07C425.792 73.358 425.468 73.582 425.052 73.742V73.79C425.5 73.91 425.876 74.13 426.18 74.45C426.484 74.77 426.635 75.182 426.635 75.686C426.635 76.15 426.512 76.546 426.264 76.874C426.023 77.202 425.7 77.454 425.292 77.63C424.892 77.806 424.448 77.894 423.96 77.894Z" fill="currentColor"/>
</g>
</svg>
