<svg width="24" height="24" viewBox="0 0 24 24" fill="none" xmlns="http://www.w3.org/2000/svg">
<g transform="translate(-540, -62)">
  <path d="M559.5 74C559.5 69.8579 556.142 66.5 552 66.5C547.858 66.5 544.5 69.8579 544.5 74C544.5 78.1421 547.858 81.5 552 81.5V83C547.029 83 543 78.9706 543 74C543 69.0294 547.029 65 552 65C556.971 65 561 69.0294 561 74C561 78.9706 556.971 83 552 83V81.5C556.142 81.5 559.5 78.1421 559.5 74Z" fill="currentColor"/>
  <path d="M550.209 74.714H552.213V72.986C552.213 72.762 552.221 72.498 552.237 72.194C552.253 71.89 552.265 71.626 552.273 71.402H552.225C552.129 71.602 552.029 71.798 551.925 71.99C551.821 72.182 551.713 72.382 551.601 72.59L550.209 74.714ZM552.213 77.75V75.782H548.841V74.846L551.865 70.118H553.509V74.714H554.469V75.782H553.509V77.75H552.213Z" fill="currentColor"/>
</g>
</svg>
