<svg width="24" height="24" viewBox="0 0 24 24" fill="none" xmlns="http://www.w3.org/2000/svg">
<g transform="translate(-24, -62)">
  <path d="M43.5 74C43.5 69.8579 40.1421 66.5 36 66.5C31.8579 66.5 28.5 69.8579 28.5 74C28.5 78.1421 31.8579 81.5 36 81.5V83C31.0294 83 27 78.9706 27 74C27 69.0294 31.0294 65 36 65C40.9706 65 45 69.0294 45 74C45 78.9706 40.9706 83 36 83V81.5C40.1421 81.5 43.5 78.1421 43.5 74Z" fill="currentColor"/>
  <path d="M36.0008 77.894C35.2087 77.894 34.5768 77.55 34.1048 76.862C33.6408 76.174 33.4088 75.186 33.4088 73.898C33.4088 72.61 33.6408 71.634 34.1048 70.97C34.5768 70.306 35.2087 69.974 36.0008 69.974C36.7928 69.974 37.4208 70.306 37.8848 70.97C38.3568 71.634 38.5928 72.61 38.5928 73.898C38.5928 75.186 38.3568 76.174 37.8848 76.862C37.4208 77.55 36.7928 77.894 36.0008 77.894ZM36.0008 76.814C36.2488 76.814 36.4688 76.722 36.6608 76.538C36.8528 76.346 37.0008 76.038 37.1048 75.614C37.2168 75.19 37.2728 74.618 37.2728 73.898C37.2728 73.178 37.2168 72.61 37.1048 72.194C37.0008 71.778 36.8528 71.486 36.6608 71.318C36.4688 71.142 36.2488 71.054 36.0008 71.054C35.7607 71.054 35.5448 71.142 35.3527 71.318C35.1608 71.486 35.0087 71.778 34.8968 72.194C34.7848 72.61 34.7288 73.178 34.7288 73.898C34.7288 74.618 34.7848 75.19 34.8968 75.614C35.0087 76.038 35.1608 76.346 35.3527 76.538C35.5448 76.722 35.7607 76.814 36.0008 76.814Z" fill="currentColor"/>
</g>
</svg>
