<svg width="24" height="24" viewBox="0 0 24 24" fill="none" xmlns="http://www.w3.org/2000/svg">
<g transform="translate(-156, -62)">
  <path d="M175.5 74C175.5 69.8579 172.142 66.5 168 66.5C163.858 66.5 160.5 69.8579 160.5 74C160.5 78.1421 163.858 81.5 168 81.5V83C163.029 83 159 78.9706 159 74C159 69.0294 163.029 65 168 65C172.971 65 177 69.0294 177 74C177 78.9706 172.971 83 168 83V81.5C172.142 81.5 175.5 78.1421 175.5 74Z" fill="currentColor"/>
  <path d="M165.701 77.75V76.622H167.405V71.606H166.001V70.742C166.377 70.67 166.705 70.586 166.985 70.49C167.265 70.386 167.525 70.262 167.765 70.118H168.797V76.622H170.297V77.75H165.701Z" fill="currentColor"/>
</g>
</svg>
