<svg xmlns="http://www.w3.org/2000/svg" style="display:none" aria-hidden="true">
  <symbol id="ofh-icon-AccessTime" viewBox="0 0 24 24">
    <path d="M14.55 16.55L11 13V8H13V12.175L15.95 15.125L14.55 16.55ZM12 22C10.6167 22 9.31667 21.7375 8.1 21.2125C6.88333 20.6875 5.825 19.975 4.925 19.075C4.025 18.175 3.3125 17.1167 2.7875 15.9C2.2625 14.6833 2 13.3833 2 12C2 10.6167 2.2625 9.31667 2.7875 8.1C3.3125 6.88333 4.025 5.825 4.925 4.925C5.825 4.025 6.88333 3.3125 8.1 2.7875C9.31667 2.2625 10.6167 2 12 2C13.3833 2 14.6833 2.2625 15.9 2.7875C17.1167 3.3125 18.175 4.025 19.075 4.925C19.975 5.825 20.6875 6.88333 21.2125 8.1C21.7375 9.31667 22 10.6167 22 12C22 13.3833 21.7375 14.6833 21.2125 15.9C20.6875 17.1167 19.975 18.175 19.075 19.075C18.175 19.975 17.1167 20.6875 15.9 21.2125C14.6833 21.7375 13.3833 22 12 22ZM12 20C14.2333 20 16.125 19.225 17.675 17.675C19.225 16.125 20 14.2333 20 12C20 9.76667 19.225 7.875 17.675 6.325C16.125 4.775 14.2333 4 12 4C9.76667 4 7.875 4.775 6.325 6.325C4.775 7.875 4 9.76667 4 12C4 14.2333 4.775 16.125 6.325 17.675C7.875 19.225 9.76667 20 12 20Z" fill="currentColor"/>
  </symbol>
  <symbol id="ofh-icon-AccountCircle" viewBox="0 0 24 24">
    <path d="M5.85 17.1C6.7 16.45 7.65 15.9375 8.7 15.5625C9.75 15.1875 10.85 15 12 15C13.15 15 14.25 15.1875 15.3 15.5625C16.35 15.9375 17.3 16.45 18.15 17.1C18.7333 16.4167 19.1875 15.6417 19.5125 14.775C19.8375 13.9083 20 12.9833 20 12C20 9.78333 19.2208 7.89583 17.6625 6.3375C16.1042 4.77917 14.2167 4 12 4C9.78333 4 7.89583 4.77917 6.3375 6.3375C4.77917 7.89583 4 9.78333 4 12C4 12.9833 4.1625 13.9083 4.4875 14.775C4.8125 15.6417 5.26667 16.4167 5.85 17.1ZM12 13C11.0167 13 10.1875 12.6625 9.5125 11.9875C8.8375 11.3125 8.5 10.4833 8.5 9.5C8.5 8.51667 8.8375 7.6875 9.5125 7.0125C10.1875 6.3375 11.0167 6 12 6C12.9833 6 13.8125 6.3375 14.4875 7.0125C15.1625 7.6875 15.5 8.51667 15.5 9.5C15.5 10.4833 15.1625 11.3125 14.4875 11.9875C13.8125 12.6625 12.9833 13 12 13ZM12 22C10.6167 22 9.31667 21.7375 8.1 21.2125C6.88333 20.6875 5.825 19.975 4.925 19.075C4.025 18.175 3.3125 17.1167 2.7875 15.9C2.2625 14.6833 2 13.3833 2 12C2 10.6167 2.2625 9.31667 2.7875 8.1C3.3125 6.88333 4.025 5.825 4.925 4.925C5.825 4.025 6.88333 3.3125 8.1 2.7875C9.31667 2.2625 10.6167 2 12 2C13.3833 2 14.6833 2.2625 15.9 2.7875C17.1167 3.3125 18.175 4.025 19.075 4.925C19.975 5.825 20.6875 6.88333 21.2125 8.1C21.7375 9.31667 22 10.6167 22 12C22 13.3833 21.7375 14.6833 21.2125 15.9C20.6875 17.1167 19.975 18.175 19.075 19.075C18.175 19.975 17.1167 20.6875 15.9 21.2125C14.6833 21.7375 13.3833 22 12 22Z" fill="currentColor"/>
  </symbol>
  <symbol id="ofh-icon-AccountCircleOutlined" viewBox="0 0 24 24">
    <path d="M5.85 17.1C6.7 16.45 7.65 15.9375 8.7 15.5625C9.75 15.1875 10.85 15 12 15C13.15 15 14.25 15.1875 15.3 15.5625C16.35 15.9375 17.3 16.45 18.15 17.1C18.7333 16.4167 19.1875 15.6417 19.5125 14.775C19.8375 13.9083 20 12.9833 20 12C20 9.78333 19.2208 7.89583 17.6625 6.3375C16.1042 4.77917 14.2167 4 12 4C9.78333 4 7.89583 4.77917 6.3375 6.3375C4.77917 7.89583 4 9.78333 4 12C4 12.9833 4.1625 13.9083 4.4875 14.775C4.8125 15.6417 5.26667 16.4167 5.85 17.1ZM12 13C11.0167 13 10.1875 12.6625 9.5125 11.9875C8.8375 11.3125 8.5 10.4833 8.5 9.5C8.5 8.51667 8.8375 7.6875 9.5125 7.0125C10.1875 6.3375 11.0167 6 12 6C12.9833 6 13.8125 6.3375 14.4875 7.0125C15.1625 7.6875 15.5 8.51667 15.5 9.5C15.5 10.4833 15.1625 11.3125 14.4875 11.9875C13.8125 12.6625 12.9833 13 12 13ZM12 22C10.6167 22 9.31667 21.7375 8.1 21.2125C6.88333 20.6875 5.825 19.975 4.925 19.075C4.025 18.175 3.3125 17.1167 2.7875 15.9C2.2625 14.6833 2 13.3833 2 12C2 10.6167 2.2625 9.31667 2.7875 8.1C3.3125 6.88333 4.025 5.825 4.925 4.925C5.825 4.025 6.88333 3.3125 8.1 2.7875C9.31667 2.2625 10.6167 2 12 2C13.3833 2 14.6833 2.2625 15.9 2.7875C17.1167 3.3125 18.175 4.025 19.075 4.925C19.975 5.825 20.6875 6.88333 21.2125 8.1C21.7375 9.31667 22 10.6167 22 12C22 13.3833 21.7375 14.6833 21.2125 15.9C20.6875 17.1167 19.975 18.175 19.075 19.075C18.175 19.975 17.1167 20.6875 15.9 21.2125C14.6833 21.7375 13.3833 22 12 22ZM12 20C12.8833 20 13.7167 19.8708 14.5 19.6125C15.2833 19.3542 16 18.9833 16.65 18.5C16 18.0167 15.2833 17.6458 14.5 17.3875C13.7167 17.1292 12.8833 17 12 17C11.1167 17 10.2833 17.1292 9.5 17.3875C8.71667 17.6458 8 18.0167 7.35 18.5C8 18.9833 8.71667 19.3542 9.5 19.6125C10.2833 19.8708 11.1167 20 12 20ZM12 11C12.4333 11 12.7917 10.8583 13.075 10.575C13.3583 10.2917 13.5 9.93333 13.5 9.5C13.5 9.06667 13.3583 8.70833 13.075 8.425C12.7917 8.14167 12.4333 8 12 8C11.5667 8 11.2083 8.14167 10.925 8.425C10.6417 8.70833 10.5 9.06667 10.5 9.5C10.5 9.93333 10.6417 10.2917 10.925 10.575C11.2083 10.8583 11.5667 11 12 11Z" fill="currentColor"/>
  </symbol>
  <symbol id="ofh-icon-AddCircle" viewBox="0 0 24 24">
    <path d="M11 17H13V13H17V11H13V7H11V11H7V13H11V17ZM12 22C10.6167 22 9.31667 21.7375 8.1 21.2125C6.88333 20.6875 5.825 19.975 4.925 19.075C4.025 18.175 3.3125 17.1167 2.7875 15.9C2.2625 14.6833 2 13.3833 2 12C2 10.6167 2.2625 9.31667 2.7875 8.1C3.3125 6.88333 4.025 5.825 4.925 4.925C5.825 4.025 6.88333 3.3125 8.1 2.7875C9.31667 2.2625 10.6167 2 12 2C13.3833 2 14.6833 2.2625 15.9 2.7875C17.1167 3.3125 18.175 4.025 19.075 4.925C19.975 5.825 20.6875 6.88333 21.2125 8.1C21.7375 9.31667 22 10.6167 22 12C22 13.3833 21.7375 14.6833 21.2125 15.9C20.6875 17.1167 19.975 18.175 19.075 19.075C18.175 19.975 17.1167 20.6875 15.9 21.2125C14.6833 21.7375 13.3833 22 12 22Z" fill="currentColor"/>
  </symbol>
  <symbol id="ofh-icon-ArrowCircleRight" viewBox="0 0 24 24">
    <path d="M12 16L16 12L12 8L10.6 9.4L12.2 11H8V13H12.2L10.6 14.6L12 16ZM12 22C10.6167 22 9.31667 21.7375 8.1 21.2125C6.88333 20.6875 5.825 19.975 4.925 19.075C4.025 18.175 3.3125 17.1167 2.7875 15.9C2.2625 14.6833 2 13.3833 2 12C2 10.6167 2.2625 9.31667 2.7875 8.1C3.3125 6.88333 4.025 5.825 4.925 4.925C5.825 4.025 6.88333 3.3125 8.1 2.7875C9.31667 2.2625 10.6167 2 12 2C13.3833 2 14.6833 2.2625 15.9 2.7875C17.1167 3.3125 18.175 4.025 19.075 4.925C19.975 5.825 20.6875 6.88333 21.2125 8.1C21.7375 9.31667 22 10.6167 22 12C22 13.3833 21.7375 14.6833 21.2125 15.9C20.6875 17.1167 19.975 18.175 19.075 19.075C18.175 19.975 17.1167 20.6875 15.9 21.2125C14.6833 21.7375 13.3833 22 12 22Z" fill="currentColor"/>
  </symbol>
  <symbol id="ofh-icon-ArrowCircleRightColour" viewBox="0 0 24 24">
    <path d="M16.0012 12L12.0007 16.0005L10.6011 14.6001L12.2007 13.0005H8.00098V11.0002H12.2007L10.6011 9.3999L12.0007 8.00024L16.0012 12Z" fill="#011D4B"/>
    <path d="M12.001 16.0002L16.001 12.0002L12.001 8.00024L10.601 9.40024L12.201 11.0002H8.00098V13.0002H12.201L10.601 14.6002L12.001 16.0002ZM12.001 22.0002C10.6176 22.0002 9.31764 21.7377 8.10098 21.2127C6.88431 20.6877 5.82598 19.9752 4.92598 19.0752C4.02598 18.1752 3.31348 17.1169 2.78848 15.9002C2.26348 14.6836 2.00098 13.3836 2.00098 12.0002C2.00098 10.6169 2.26348 9.31691 2.78848 8.10024C3.31348 6.88358 4.02598 5.82524 4.92598 4.92524C5.82598 4.02524 6.88431 3.31274 8.10098 2.78774C9.31764 2.26274 10.6176 2.00024 12.001 2.00024C13.3843 2.00024 14.6843 2.26274 15.901 2.78774C17.1176 3.31274 18.176 4.02524 19.076 4.92524C19.976 5.82524 20.6885 6.88358 21.2135 8.10024C21.7385 9.31691 22.001 10.6169 22.001 12.0002C22.001 13.3836 21.7385 14.6836 21.2135 15.9002C20.6885 17.1169 19.976 18.1752 19.076 19.0752C18.176 19.9752 17.1176 20.6877 15.901 21.2127C14.6843 21.7377 13.3843 22.0002 12.001 22.0002Z" fill="#FFC62C"/>
  </symbol>
  <symbol id="ofh-icon-CalendarToday" viewBox="0 0 24 24">
    <path d="M5 22C4.45 22 3.97917 21.8042 3.5875 21.4125C3.19583 21.0208 3 20.55 3 20V6C3 5.45 3.19583 4.97917 3.5875 4.5875C3.97917 4.19583 4.45 4 5 4H6V2H8V4H16V2H18V4H19C19.55 4 20.0208 4.19583 20.4125 4.5875C20.8042 4.97917 21 5.45 21 6V20C21 20.55 20.8042 21.0208 20.4125 21.4125C20.0208 21.8042 19.55 22 19 22H5ZM5 20H19V10H5V20Z" fill="currentColor"/>
  </symbol>
  <symbol id="ofh-icon-CalendarTodayOutlined" viewBox="0 0 24 24">
    <path d="M5 22C4.45 22 3.97917 21.8042 3.5875 21.4125C3.19583 21.0208 3 20.55 3 20V6C3 5.45 3.19583 4.97917 3.5875 4.5875C3.97917 4.19583 4.45 4 5 4H6V2H8V4H16V2H18V4H19C19.55 4 20.0208 4.19583 20.4125 4.5875C20.8042 4.97917 21 5.45 21 6V20C21 20.55 20.8042 21.0208 20.4125 21.4125C20.0208 21.8042 19.55 22 19 22H5ZM5 20H19V10H5V20ZM5 8H19V6H5V8Z" fill="currentColor"/>
  </symbol>
  <symbol id="ofh-icon-Cancel" viewBox="0 0 24 24">
    <path d="M8.4 17L12 13.4L15.6 17L17 15.6L13.4 12L17 8.4L15.6 7L12 10.6L8.4 7L7 8.4L10.6 12L7 15.6L8.4 17ZM12 22C10.6167 22 9.31667 21.7375 8.1 21.2125C6.88333 20.6875 5.825 19.975 4.925 19.075C4.025 18.175 3.3125 17.1167 2.7875 15.9C2.2625 14.6833 2 13.3833 2 12C2 10.6167 2.2625 9.31667 2.7875 8.1C3.3125 6.88333 4.025 5.825 4.925 4.925C5.825 4.025 6.88333 3.3125 8.1 2.7875C9.31667 2.2625 10.6167 2 12 2C13.3833 2 14.6833 2.2625 15.9 2.7875C17.1167 3.3125 18.175 4.025 19.075 4.925C19.975 5.825 20.6875 6.88333 21.2125 8.1C21.7375 9.31667 22 10.6167 22 12C22 13.3833 21.7375 14.6833 21.2125 15.9C20.6875 17.1167 19.975 18.175 19.075 19.075C18.175 19.975 17.1167 20.6875 15.9 21.2125C14.6833 21.7375 13.3833 22 12 22Z" fill="currentColor"/>
  </symbol>
  <symbol id="ofh-icon-CancelOutlined" viewBox="0 0 24 24">
    <path d="M8.4 17L12 13.4L15.6 17L17 15.6L13.4 12L17 8.4L15.6 7L12 10.6L8.4 7L7 8.4L10.6 12L7 15.6L8.4 17ZM12 22C10.6167 22 9.31667 21.7375 8.1 21.2125C6.88333 20.6875 5.825 19.975 4.925 19.075C4.025 18.175 3.3125 17.1167 2.7875 15.9C2.2625 14.6833 2 13.3833 2 12C2 10.6167 2.2625 9.31667 2.7875 8.1C3.3125 6.88333 4.025 5.825 4.925 4.925C5.825 4.025 6.88333 3.3125 8.1 2.7875C9.31667 2.2625 10.6167 2 12 2C13.3833 2 14.6833 2.2625 15.9 2.7875C17.1167 3.3125 18.175 4.025 19.075 4.925C19.975 5.825 20.6875 6.88333 21.2125 8.1C21.7375 9.31667 22 10.6167 22 12C22 13.3833 21.7375 14.6833 21.2125 15.9C20.6875 17.1167 19.975 18.175 19.075 19.075C18.175 19.975 17.1167 20.6875 15.9 21.2125C14.6833 21.7375 13.3833 22 12 22ZM12 20C14.2333 20 16.125 19.225 17.675 17.675C19.225 16.125 20 14.2333 20 12C20 9.76667 19.225 7.875 17.675 6.325C16.125 4.775 14.2333 4 12 4C9.76667 4 7.875 4.775 6.325 6.325C4.775 7.875 4 9.76667 4 12C4 14.2333 4.775 16.125 6.325 17.675C7.875 19.225 9.76667 20 12 20Z" fill="currentColor"/>
  </symbol>
  <symbol id="ofh-icon-CheckCircle" viewBox="0 0 24 24">
    <path d="M10.6 16.6L17.65 9.55L16.25 8.15L10.6 13.8L7.75 10.95L6.35 12.35L10.6 16.6ZM12 22C10.6167 22 9.31667 21.7375 8.1 21.2125C6.88333 20.6875 5.825 19.975 4.925 19.075C4.025 18.175 3.3125 17.1167 2.7875 15.9C2.2625 14.6833 2 13.3833 2 12C2 10.6167 2.2625 9.31667 2.7875 8.1C3.3125 6.88333 4.025 5.825 4.925 4.925C5.825 4.025 6.88333 3.3125 8.1 2.7875C9.31667 2.2625 10.6167 2 12 2C13.3833 2 14.6833 2.2625 15.9 2.7875C17.1167 3.3125 18.175 4.025 19.075 4.925C19.975 5.825 20.6875 6.88333 21.2125 8.1C21.7375 9.31667 22 10.6167 22 12C22 13.3833 21.7375 14.6833 21.2125 15.9C20.6875 17.1167 19.975 18.175 19.075 19.075C18.175 19.975 17.1167 20.6875 15.9 21.2125C14.6833 21.7375 13.3833 22 12 22Z" fill="currentColor"/>
  </symbol>
  <symbol id="ofh-icon-CheckCircleOutline" viewBox="0 0 24 24">
    <path d="M10.6 16.6L17.65 9.55L16.25 8.15L10.6 13.8L7.75 10.95L6.35 12.35L10.6 16.6ZM12 22C10.6167 22 9.31667 21.7375 8.1 21.2125C6.88333 20.6875 5.825 19.975 4.925 19.075C4.025 18.175 3.3125 17.1167 2.7875 15.9C2.2625 14.6833 2 13.3833 2 12C2 10.6167 2.2625 9.31667 2.7875 8.1C3.3125 6.88333 4.025 5.825 4.925 4.925C5.825 4.025 6.88333 3.3125 8.1 2.7875C9.31667 2.2625 10.6167 2 12 2C13.3833 2 14.6833 2.2625 15.9 2.7875C17.1167 3.3125 18.175 4.025 19.075 4.925C19.975 5.825 20.6875 6.88333 21.2125 8.1C21.7375 9.31667 22 10.6167 22 12C22 13.3833 21.7375 14.6833 21.2125 15.9C20.6875 17.1167 19.975 18.175 19.075 19.075C18.175 19.975 17.1167 20.6875 15.9 21.2125C14.6833 21.7375 13.3833 22 12 22ZM12 20C14.2333 20 16.125 19.225 17.675 17.675C19.225 16.125 20 14.2333 20 12C20 9.76667 19.225 7.875 17.675 6.325C16.125 4.775 14.2333 4 12 4C9.76667 4 7.875 4.775 6.325 6.325C4.775 7.875 4 9.76667 4 12C4 14.2333 4.775 16.125 6.325 17.675C7.875 19.225 9.76667 20 12 20Z" fill="currentColor"/>
  </symbol>
  <symbol id="ofh-icon-ChevronLeft" viewBox="0 0 24 24">
    <path d="M14 18L8 12L14 6L15.4 7.4L10.8 12L15.4 16.6L14 18Z" fill="currentColor"/>
  </symbol>
  <symbol id="ofh-icon-ChevronRight" viewBox="0 0 24 24">
    <path d="M12.6 12L8 7.4L9.4 6L15.4 12L9.4 18L8 16.6L12.6 12Z" fill="currentColor"/>
  </symbol>
  <symbol id="ofh-icon-Close" viewBox="0 0 24 24">
    <path d="M6.4 19L5 17.6L10.6 12L5 6.4L6.4 5L12 10.6L17.6 5L19 6.4L13.4 12L19 17.6L17.6 19L12 13.4L6.4 19Z" fill="currentColor"/>
  </symbol>
  <symbol id="ofh-icon-Done" viewBox="0 0 24 24">
    <path d="M9.5501 18L3.8501 12.3L5.2751 10.875L9.5501 15.15L18.7251 5.97501L20.1501 7.40001L9.5501 18Z" fill="currentColor"/>
  </symbol>
  <symbol id="ofh-icon-East" viewBox="0 0 24 24">
    <path d="M14 18L12.6 16.55L16.15 13H4V11H16.15L12.6 7.45L14 6L20 12L14 18Z" fill="currentColor"/>
  </symbol>
  <symbol id="ofh-icon-ExpandLess" viewBox="0 0 24 24">
    <path d="M12 10.8L7.4 15.4L6 14L12 8L18 14L16.6 15.4L12 10.8Z" fill="currentColor"/>
  </symbol>
  <symbol id="ofh-icon-ExpandMore" viewBox="0 0 24 24">
    <path d="M12 15.4L6 9.4L7.4 8L12 12.6L16.6 8L18 9.4L12 15.4Z" fill="currentColor"/>
  </symbol>
  <symbol id="ofh-icon-Facebook" viewBox="0 0 32 32">
    <path d="M0 16C0 7.16344 7.16344 0 16 0C24.8366 0 32 7.16344 32 16C32 24.8366 24.8366 32 16 32C7.16344 32 0 24.8366 0 16Z" fill="#084571"/>
    <path d="M20.3337 13.3191H17.3195V11.6088C17.3195 10.7264 17.3913 10.1705 18.656 10.1705H20.2534V7.45131C19.4761 7.37093 18.6945 7.3316 17.9121 7.33331C15.5922 7.33331 13.8991 8.75022 13.8991 11.3515V13.3191H11.3337V16.7395L13.8991 16.7386V24.4354H17.3195V16.7369L19.9412 16.7361L20.3337 13.3191Z" fill="white"/>
  </symbol>
  <symbol id="ofh-icon-FacebookHover" viewBox="0 0 32 32">
    <path d="M0 16C0 7.16344 7.16344 0 16 0C24.8366 0 32 7.16344 32 16C32 24.8366 24.8366 32 16 32C7.16344 32 0 24.8366 0 16Z" fill="#FFC62C"/>
    <path d="M20.3337 13.3191H17.3195V11.6088C17.3195 10.7264 17.3913 10.1705 18.656 10.1705H20.2534V7.45131C19.4761 7.37093 18.6945 7.3316 17.9121 7.33331C15.5922 7.33331 13.8991 8.75022 13.8991 11.3515V13.3191H11.3337V16.7395L13.8991 16.7386V24.4354H17.3195V16.7369L19.9412 16.7361L20.3337 13.3191Z" fill="#1B1B1B"/>
  </symbol>
  <symbol id="ofh-icon-FamilyHome" viewBox="0 0 24 24">
    <path d="M6 16C5.45 16 4.97917 15.8042 4.5875 15.4125C4.19583 15.0208 4 14.55 4 14C4 13.45 4.19583 12.9792 4.5875 12.5875C4.97917 12.1958 5.45 12 6 12C6.55 12 7.02083 12.1958 7.4125 12.5875C7.80417 12.9792 8 13.45 8 14C8 14.55 7.80417 15.0208 7.4125 15.4125C7.02083 15.8042 6.55 16 6 16ZM18 16C17.45 16 16.9792 15.8042 16.5875 15.4125C16.1958 15.0208 16 14.55 16 14C16 13.45 16.1958 12.9792 16.5875 12.5875C16.9792 12.1958 17.45 12 18 12C18.55 12 19.0208 12.1958 19.4125 12.5875C19.8042 12.9792 20 13.45 20 14C20 14.55 19.8042 15.0208 19.4125 15.4125C19.0208 15.8042 18.55 16 18 16ZM12 15C11.3 15 10.7083 14.7583 10.225 14.275C9.74167 13.7917 9.5 13.2 9.5 12.5C9.5 11.8 9.74167 11.2083 10.225 10.725C10.7083 10.2417 11.3 10 12 10C12.7 10 13.2917 10.2417 13.775 10.725C14.2583 11.2083 14.5 11.8 14.5 12.5C14.5 13.2 14.2583 13.7917 13.775 14.275C13.2917 14.7583 12.7 15 12 15ZM7.1 21C7.33333 19.85 7.90417 18.8958 8.8125 18.1375C9.72083 17.3792 10.7833 17 12 17C13.2167 17 14.2792 17.3792 15.1875 18.1375C16.0958 18.8958 16.6667 19.85 16.9 21H7.1ZM2 21C2 19.9 2.39167 18.9583 3.175 18.175C3.95833 17.3917 4.9 17 6 17C6.28333 17 6.55 17.025 6.8 17.075C7.05 17.125 7.29167 17.2 7.525 17.3C7.025 17.7833 6.60833 18.3375 6.275 18.9625C5.94167 19.5875 5.71667 20.2667 5.6 21H2ZM18.4 21C18.2833 20.2667 18.0583 19.5875 17.725 18.9625C17.3917 18.3375 16.975 17.7833 16.475 17.3C16.7083 17.2 16.95 17.125 17.2 17.075C17.45 17.025 17.7167 17 18 17C19.1 17 20.0417 17.3917 20.825 18.175C21.6083 18.9583 22 19.9 22 21H18.4ZM2.2 12L1 10.4L12 2L16 5.05V3H19V7.35L23 10.4L21.8 12L12 4.525L2.2 12Z" fill="currentColor"/>
  </symbol>
  <symbol id="ofh-icon-Favorite" viewBox="0 0 24 24">
    <path d="M12 21L10.55 19.7C8.86667 18.1834 7.475 16.875 6.375 15.775C5.275 14.675 4.4 13.6875 3.75 12.8125C3.1 11.9375 2.64583 11.1334 2.3875 10.4C2.12917 9.66669 2 8.91669 2 8.15002C2 6.58336 2.525 5.27502 3.575 4.22502C4.625 3.17502 5.93333 2.65002 7.5 2.65002C8.36667 2.65002 9.19167 2.83336 9.975 3.20002C10.7583 3.56669 11.4333 4.08336 12 4.75002C12.5667 4.08336 13.2417 3.56669 14.025 3.20002C14.8083 2.83336 15.6333 2.65002 16.5 2.65002C18.0667 2.65002 19.375 3.17502 20.425 4.22502C21.475 5.27502 22 6.58336 22 8.15002C22 8.91669 21.8708 9.66669 21.6125 10.4C21.3542 11.1334 20.9 11.9375 20.25 12.8125C19.6 13.6875 18.725 14.675 17.625 15.775C16.525 16.875 15.1333 18.1834 13.45 19.7L12 21Z" fill="currentColor"/>
  </symbol>
  <symbol id="ofh-icon-FavoriteBorderOutlined" viewBox="0 0 24 24">
    <path d="M12 21L10.55 19.7C8.86667 18.1834 7.475 16.875 6.375 15.775C5.275 14.675 4.4 13.6875 3.75 12.8125C3.1 11.9375 2.64583 11.1334 2.3875 10.4C2.12917 9.66669 2 8.91669 2 8.15002C2 6.58336 2.525 5.27502 3.575 4.22502C4.625 3.17502 5.93333 2.65002 7.5 2.65002C8.36667 2.65002 9.19167 2.83336 9.975 3.20002C10.7583 3.56669 11.4333 4.08336 12 4.75002C12.5667 4.08336 13.2417 3.56669 14.025 3.20002C14.8083 2.83336 15.6333 2.65002 16.5 2.65002C18.0667 2.65002 19.375 3.17502 20.425 4.22502C21.475 5.27502 22 6.58336 22 8.15002C22 8.91669 21.8708 9.66669 21.6125 10.4C21.3542 11.1334 20.9 11.9375 20.25 12.8125C19.6 13.6875 18.725 14.675 17.625 15.775C16.525 16.875 15.1333 18.1834 13.45 19.7L12 21ZM12 18.3C13.6 16.8667 14.9167 15.6375 15.95 14.6125C16.9833 13.5875 17.8 12.6959 18.4 11.9375C19 11.1792 19.4167 10.5042 19.65 9.91252C19.8833 9.32086 20 8.73336 20 8.15002C20 7.15002 19.6667 6.31669 19 5.65002C18.3333 4.98336 17.5 4.65002 16.5 4.65002C15.7167 4.65002 14.9917 4.87086 14.325 5.31252C13.6583 5.75419 13.2 6.31669 12.95 7.00002H11.05C10.8 6.31669 10.3417 5.75419 9.675 5.31252C9.00833 4.87086 8.28333 4.65002 7.5 4.65002C6.5 4.65002 5.66667 4.98336 5 5.65002C4.33333 6.31669 4 7.15002 4 8.15002C4 8.73336 4.11667 9.32086 4.35 9.91252C4.58333 10.5042 5 11.1792 5.6 11.9375C6.2 12.6959 7.01667 13.5875 8.05 14.6125C9.08333 15.6375 10.4 16.8667 12 18.3Z" fill="currentColor"/>
  </symbol>
  <symbol id="ofh-icon-FileDownloadOutlined" viewBox="0 0 24 24">
    <path d="M12 16L7 11L8.4 9.55L11 12.15V4H13V12.15L15.6 9.55L17 11L12 16ZM6 20C5.45 20 4.97917 19.8042 4.5875 19.4125C4.19583 19.0208 4 18.55 4 18V15H6V18H18V15H20V18C20 18.55 19.8042 19.0208 19.4125 19.4125C19.0208 19.8042 18.55 20 18 20H6Z" fill="currentColor"/>
  </symbol>
  <symbol id="ofh-icon-FmdGoodOutlined" viewBox="0 0 24 24">
    <path d="M12 12C12.55 12 13.0208 11.8042 13.4125 11.4125C13.8042 11.0208 14 10.55 14 10C14 9.45 13.8042 8.97917 13.4125 8.5875C13.0208 8.19583 12.55 8 12 8C11.45 8 10.9792 8.19583 10.5875 8.5875C10.1958 8.97917 10 9.45 10 10C10 10.55 10.1958 11.0208 10.5875 11.4125C10.9792 11.8042 11.45 12 12 12ZM12 19.35C14.0333 17.4833 15.5417 15.7875 16.525 14.2625C17.5083 12.7375 18 11.3833 18 10.2C18 8.38333 17.4208 6.89583 16.2625 5.7375C15.1042 4.57917 13.6833 4 12 4C10.3167 4 8.89583 4.57917 7.7375 5.7375C6.57917 6.89583 6 8.38333 6 10.2C6 11.3833 6.49167 12.7375 7.475 14.2625C8.45833 15.7875 9.96667 17.4833 12 19.35ZM12 22C9.31667 19.7167 7.3125 17.5958 5.9875 15.6375C4.6625 13.6792 4 11.8667 4 10.2C4 7.7 4.80417 5.70833 6.4125 4.225C8.02083 2.74167 9.88333 2 12 2C14.1167 2 15.9792 2.74167 17.5875 4.225C19.1958 5.70833 20 7.7 20 10.2C20 11.8667 19.3375 13.6792 18.0125 15.6375C16.6875 17.5958 14.6833 19.7167 12 22Z" fill="currentColor"/>
  </symbol>
  <symbol id="ofh-icon-HealthAndSafetyOutlined" viewBox="0 0 24 24">
    <path d="M10.5 15.5H13.5V13H16V10H13.5V7.5H10.5V10H8V13H10.5V15.5ZM12 22C9.68333 21.4167 7.77083 20.0875 6.2625 18.0125C4.75417 15.9375 4 13.6333 4 11.1V5L12 2L20 5V11.1C20 13.6333 19.2458 15.9375 17.7375 18.0125C16.2292 20.0875 14.3167 21.4167 12 22ZM12 19.9C13.7333 19.35 15.1667 18.25 16.3 16.6C17.4333 14.95 18 13.1167 18 11.1V6.375L12 4.125L6 6.375V11.1C6 13.1167 6.56667 14.95 7.7 16.6C8.83333 18.25 10.2667 19.35 12 19.9Z" fill="currentColor"/>
  </symbol>
  <symbol id="ofh-icon-HealthCrossOutlined" viewBox="0 0 24 24">
    <path d="M8 21V16H3V8H8V3H16V8H21V16H16V21H8ZM10 19H14V14H19V10H14V5H10V10H5V14H10V19Z" fill="currentColor"/>
  </symbol>
  <symbol id="ofh-icon-HospitalOutlined" viewBox="0 0 24 24">
    <path d="M10.5 17H13.5V14.5H16V11.5H13.5V9H10.5V11.5H8V14.5H10.5V17ZM4 21V9L12 3L20 9V21H4ZM6 19H18V10L12 5.5L6 10V19Z" fill="currentColor"/>
  </symbol>
  <symbol id="ofh-icon-InfoOutlined" viewBox="0 0 24 24">
    <path d="M11 17H13V11H11V17ZM12 9C12.2833 9 12.5208 8.90417 12.7125 8.7125C12.9042 8.52083 13 8.28333 13 8C13 7.71667 12.9042 7.47917 12.7125 7.2875C12.5208 7.09583 12.2833 7 12 7C11.7167 7 11.4792 7.09583 11.2875 7.2875C11.0958 7.47917 11 7.71667 11 8C11 8.28333 11.0958 8.52083 11.2875 8.7125C11.4792 8.90417 11.7167 9 12 9ZM12 22C10.6167 22 9.31667 21.7375 8.1 21.2125C6.88333 20.6875 5.825 19.975 4.925 19.075C4.025 18.175 3.3125 17.1167 2.7875 15.9C2.2625 14.6833 2 13.3833 2 12C2 10.6167 2.2625 9.31667 2.7875 8.1C3.3125 6.88333 4.025 5.825 4.925 4.925C5.825 4.025 6.88333 3.3125 8.1 2.7875C9.31667 2.2625 10.6167 2 12 2C13.3833 2 14.6833 2.2625 15.9 2.7875C17.1167 3.3125 18.175 4.025 19.075 4.925C19.975 5.825 20.6875 6.88333 21.2125 8.1C21.7375 9.31667 22 10.6167 22 12C22 13.3833 21.7375 14.6833 21.2125 15.9C20.6875 17.1167 19.975 18.175 19.075 19.075C18.175 19.975 17.1167 20.6875 15.9 21.2125C14.6833 21.7375 13.3833 22 12 22ZM12 20C14.2333 20 16.125 19.225 17.675 17.675C19.225 16.125 20 14.2333 20 12C20 9.76667 19.225 7.875 17.675 6.325C16.125 4.775 14.2333 4 12 4C9.76667 4 7.875 4.775 6.325 6.325C4.775 7.875 4 9.76667 4 12C4 14.2333 4.775 16.125 6.325 17.675C7.875 19.225 9.76667 20 12 20Z" fill="currentColor"/>
  </symbol>
  <symbol id="ofh-icon-Instagram" viewBox="0 0 32 32">
    <path d="M0 16C0 7.16344 7.16344 0 16 0C24.8366 0 32 7.16344 32 16C32 24.8366 24.8366 32 16 32C7.16344 32 0 24.8366 0 16Z" fill="#084571"/>
    <path d="M19.6923 8H12.3077C11.1656 8.00122 10.0706 8.45546 9.26304 9.26304C8.45546 10.0706 8.00122 11.1656 8 12.3077V19.6923C8.00122 20.8344 8.45546 21.9294 9.26304 22.737C10.0706 23.5445 11.1656 23.9988 12.3077 24H19.6923C20.8344 23.9988 21.9294 23.5445 22.737 22.737C23.5445 21.9294 23.9988 20.8344 24 19.6923V12.3077C23.9988 11.1656 23.5445 10.0706 22.737 9.26304C21.9294 8.45546 20.8344 8.00122 19.6923 8ZM16 19.6923C15.2697 19.6923 14.5559 19.4758 13.9487 19.07C13.3415 18.6643 12.8682 18.0877 12.5888 17.413C12.3093 16.7383 12.2362 15.9959 12.3786 15.2797C12.5211 14.5634 12.8728 13.9055 13.3891 13.3891C13.9055 12.8728 14.5634 12.5211 15.2797 12.3786C15.9959 12.2362 16.7383 12.3093 17.413 12.5888C18.0877 12.8682 18.6643 13.3415 19.07 13.9487C19.4758 14.5559 19.6923 15.2697 19.6923 16C19.6913 16.9789 19.302 17.9175 18.6097 18.6097C17.9175 19.302 16.9789 19.6913 16 19.6923ZM20.6154 12.3077C20.4328 12.3077 20.2544 12.2536 20.1026 12.1521C19.9508 12.0507 19.8324 11.9065 19.7626 11.7379C19.6927 11.5692 19.6744 11.3836 19.71 11.2045C19.7457 11.0255 19.8336 10.861 19.9627 10.7319C20.0918 10.6028 20.2562 10.5149 20.4353 10.4793C20.6144 10.4437 20.8 10.4619 20.9686 10.5318C21.1373 10.6017 21.2815 10.72 21.3829 10.8718C21.4843 11.0236 21.5385 11.202 21.5385 11.3846C21.5385 11.6294 21.4412 11.8642 21.2681 12.0373C21.095 12.2104 20.8602 12.3077 20.6154 12.3077ZM18.4615 16C18.4615 16.4868 18.3172 16.9628 18.0467 17.3676C17.7762 17.7724 17.3918 18.0879 16.942 18.2742C16.4922 18.4605 15.9973 18.5092 15.5198 18.4142C15.0423 18.3193 14.6037 18.0848 14.2594 17.7406C13.9152 17.3963 13.6807 16.9577 13.5858 16.4802C13.4908 16.0027 13.5395 15.5078 13.7258 15.058C13.9121 14.6082 14.2276 14.2238 14.6324 13.9533C15.0372 13.6828 15.5132 13.5385 16 13.5385C16.6528 13.5385 17.2789 13.7978 17.7406 14.2594C18.2022 14.7211 18.4615 15.3472 18.4615 16Z" fill="white"/>
  </symbol>
  <symbol id="ofh-icon-InstagramHover" viewBox="0 0 32 32">
    <path d="M0 16C0 7.16344 7.16344 0 16 0C24.8366 0 32 7.16344 32 16C32 24.8366 24.8366 32 16 32C7.16344 32 0 24.8366 0 16Z" fill="#FFC62C"/>
    <path d="M19.6923 8H12.3077C11.1656 8.00122 10.0706 8.45546 9.26304 9.26304C8.45546 10.0706 8.00122 11.1656 8 12.3077V19.6923C8.00122 20.8344 8.45546 21.9294 9.26304 22.737C10.0706 23.5445 11.1656 23.9988 12.3077 24H19.6923C20.8344 23.9988 21.9294 23.5445 22.737 22.737C23.5445 21.9294 23.9988 20.8344 24 19.6923V12.3077C23.9988 11.1656 23.5445 10.0706 22.737 9.26304C21.9294 8.45546 20.8344 8.00122 19.6923 8ZM16 19.6923C15.2697 19.6923 14.5559 19.4758 13.9487 19.07C13.3415 18.6643 12.8682 18.0877 12.5888 17.413C12.3093 16.7383 12.2362 15.9959 12.3786 15.2797C12.5211 14.5634 12.8728 13.9055 13.3891 13.3891C13.9055 12.8728 14.5634 12.5211 15.2797 12.3786C15.9959 12.2362 16.7383 12.3093 17.413 12.5888C18.0877 12.8682 18.6643 13.3415 19.07 13.9487C19.4758 14.5559 19.6923 15.2697 19.6923 16C19.6913 16.9789 19.302 17.9175 18.6097 18.6097C17.9175 19.302 16.9789 19.6913 16 19.6923ZM20.6154 12.3077C20.4328 12.3077 20.2544 12.2536 20.1026 12.1521C19.9508 12.0507 19.8324 11.9065 19.7626 11.7379C19.6927 11.5692 19.6744 11.3836 19.71 11.2045C19.7457 11.0255 19.8336 10.861 19.9627 10.7319C20.0918 10.6028 20.2562 10.5149 20.4353 10.4793C20.6144 10.4437 20.8 10.4619 20.9686 10.5318C21.1373 10.6017 21.2815 10.72 21.3829 10.8718C21.4843 11.0236 21.5385 11.202 21.5385 11.3846C21.5385 11.6294 21.4412 11.8642 21.2681 12.0373C21.095 12.2104 20.8602 12.3077 20.6154 12.3077ZM18.4615 16C18.4615 16.4868 18.3172 16.9628 18.0467 17.3676C17.7762 17.7724 17.3918 18.0879 16.942 18.2742C16.4922 18.4605 15.9973 18.5092 15.5198 18.4142C15.0423 18.3193 14.6037 18.0848 14.2594 17.7406C13.9152 17.3963 13.6807 16.9577 13.5858 16.4802C13.4908 16.0027 13.5395 15.5078 13.7258 15.058C13.9121 14.6082 14.2276 14.2238 14.6324 13.9533C15.0372 13.6828 15.5132 13.5385 16 13.5385C16.6528 13.5385 17.2789 13.7978 17.7406 14.2594C18.2022 14.7211 18.4615 15.3472 18.4615 16Z" fill="#1B1B1B"/>
  </symbol>
  <symbol id="ofh-icon-Launch" viewBox="0 0 24 24">
    <path d="M5 21C4.45 21 3.97917 20.8042 3.5875 20.4125C3.19583 20.0208 3 19.55 3 19V5C3 4.45 3.19583 3.97917 3.5875 3.5875C3.97917 3.19583 4.45 3 5 3H12V5H5V19H19V12H21V19C21 19.55 20.8042 20.0208 20.4125 20.4125C20.0208 20.8042 19.55 21 19 21H5ZM9.7 15.7L8.3 14.3L17.6 5H14V3H21V10H19V6.4L9.7 15.7Z" fill="currentColor"/>
  </symbol>
  <symbol id="ofh-icon-LinkedIn" viewBox="0 0 32 32">
    <path d="M0 16C0 7.16344 7.16344 0 16 0C24.8366 0 32 7.16344 32 16C32 24.8366 24.8366 32 16 32C7.16344 32 0 24.8366 0 16Z" fill="#084571"/>
    <path d="M12.0566 23.1308H8.74471V12.4342H12.0566V23.1308Z" fill="white"/>
    <path d="M20.5735 12.1067C22.8418 12.1067 24.466 13.4922 24.4661 16.3573V23.1308H21.1705C21.1705 23.1308 21.1705 19.0568 21.1705 17.5155C21.1705 15.9761 20.5852 15.1158 19.3678 15.1158C18.042 15.1159 17.3502 16.0123 17.3502 17.5155V23.1308H14.1737V12.4335H17.3502V13.8743C17.3502 13.8743 18.3044 12.1067 20.5735 12.1067Z" fill="white"/>
    <path d="M10.3853 7.08521C11.4664 7.08532 12.343 7.96896 12.343 9.05851C12.3429 10.1479 11.4664 11.033 10.3853 11.0331C9.30338 11.0331 8.42716 10.148 8.427 9.05851C8.427 7.96889 9.30328 7.08521 10.3853 7.08521Z" fill="white"/>
  </symbol>
  <symbol id="ofh-icon-LinkedInHover" viewBox="0 0 32 32">
    <path d="M0 16C0 7.16344 7.16344 0 16 0C24.8366 0 32 7.16344 32 16C32 24.8366 24.8366 32 16 32C7.16344 32 0 24.8366 0 16Z" fill="#FFC62C"/>
    <path d="M12.0566 23.1308H8.74471V12.4342H12.0566V23.1308Z" fill="#1B1B1B"/>
    <path d="M20.5735 12.1067C22.8418 12.1067 24.466 13.4922 24.4661 16.3573V23.1308H21.1705C21.1705 23.1308 21.1705 19.0568 21.1705 17.5155C21.1705 15.9761 20.5852 15.1158 19.3678 15.1158C18.042 15.1159 17.3502 16.0123 17.3502 17.5155V23.1308H14.1737V12.4335H17.3502V13.8743C17.3502 13.8743 18.3044 12.1067 20.5735 12.1067Z" fill="#1B1B1B"/>
    <path d="M10.3853 7.08521C11.4664 7.08532 12.343 7.96896 12.343 9.05851C12.3429 10.1479 11.4664 11.033 10.3853 11.0331C9.30338 11.0331 8.42716 10.148 8.427 9.05851C8.427 7.96889 9.30328 7.08521 10.3853 7.08521Z" fill="#1B1B1B"/>
  </symbol>
  <symbol id="ofh-icon-ListAltCheckedOutlined" viewBox="0 0 24 24">
    <path d="M5 19V5V16.35V14.225V19ZM5 21C4.45 21 3.97917 20.8042 3.5875 20.4125C3.19583 20.0208 3 19.55 3 19V5C3 4.45 3.19583 3.97917 3.5875 3.5875C3.97917 3.19583 4.45 3 5 3H19C19.55 3 20.0208 3.19583 20.4125 3.5875C20.8042 3.97917 21 4.45 21 5V13H19V5H5V19H12V21H5ZM17.35 22L13.8 18.45L15.225 17.05L17.35 19.175L21.6 14.925L23 16.35L17.35 22ZM8 13C8.28333 13 8.52083 12.9042 8.7125 12.7125C8.90417 12.5208 9 12.2833 9 12C9 11.7167 8.90417 11.4792 8.7125 11.2875C8.52083 11.0958 8.28333 11 8 11C7.71667 11 7.47917 11.0958 7.2875 11.2875C7.09583 11.4792 7 11.7167 7 12C7 12.2833 7.09583 12.5208 7.2875 12.7125C7.47917 12.9042 7.71667 13 8 13ZM8 9C8.28333 9 8.52083 8.90417 8.7125 8.7125C8.90417 8.52083 9 8.28333 9 8C9 7.71667 8.90417 7.47917 8.7125 7.2875C8.52083 7.09583 8.28333 7 8 7C7.71667 7 7.47917 7.09583 7.2875 7.2875C7.09583 7.47917 7 7.71667 7 8C7 8.28333 7.09583 8.52083 7.2875 8.7125C7.47917 8.90417 7.71667 9 8 9ZM11 13H17V11H11V13ZM11 9H17V7H11V9Z" fill="currentColor"/>
  </symbol>
  <symbol id="ofh-icon-ListAltOutlined" viewBox="0 0 24 24">
    <path d="M8 17C8.28333 17 8.52083 16.9042 8.7125 16.7125C8.90417 16.5208 9 16.2833 9 16C9 15.7167 8.90417 15.4792 8.7125 15.2875C8.52083 15.0958 8.28333 15 8 15C7.71667 15 7.47917 15.0958 7.2875 15.2875C7.09583 15.4792 7 15.7167 7 16C7 16.2833 7.09583 16.5208 7.2875 16.7125C7.47917 16.9042 7.71667 17 8 17ZM8 13C8.28333 13 8.52083 12.9042 8.7125 12.7125C8.90417 12.5208 9 12.2833 9 12C9 11.7167 8.90417 11.4792 8.7125 11.2875C8.52083 11.0958 8.28333 11 8 11C7.71667 11 7.47917 11.0958 7.2875 11.2875C7.09583 11.4792 7 11.7167 7 12C7 12.2833 7.09583 12.5208 7.2875 12.7125C7.47917 12.9042 7.71667 13 8 13ZM8 9C8.28333 9 8.52083 8.90417 8.7125 8.7125C8.90417 8.52083 9 8.28333 9 8C9 7.71667 8.90417 7.47917 8.7125 7.2875C8.52083 7.09583 8.28333 7 8 7C7.71667 7 7.47917 7.09583 7.2875 7.2875C7.09583 7.47917 7 7.71667 7 8C7 8.28333 7.09583 8.52083 7.2875 8.7125C7.47917 8.90417 7.71667 9 8 9ZM11 17H17V15H11V17ZM11 13H17V11H11V13ZM11 9H17V7H11V9ZM5 21C4.45 21 3.97917 20.8042 3.5875 20.4125C3.19583 20.0208 3 19.55 3 19V5C3 4.45 3.19583 3.97917 3.5875 3.5875C3.97917 3.19583 4.45 3 5 3H19C19.55 3 20.0208 3.19583 20.4125 3.5875C20.8042 3.97917 21 4.45 21 5V19C21 19.55 20.8042 20.0208 20.4125 20.4125C20.0208 20.8042 19.55 21 19 21H5ZM5 19H19V5H5V19Z" fill="currentColor"/>
  </symbol>
  <symbol id="ofh-icon-LooksEight" viewBox="0 0 24 24">
    <path d="M5 21C3.89543 21 3 20.1046 3 19V5C3 3.89543 3.89543 3 5 3H19C20.1046 3 21 3.89543 21 5V19C21 20.1046 20.1046 21 19 21H5ZM5 19H19V5H5V19Z" fill="currentColor"/>
    <path d="M11.9861 16.144C11.4821 16.144 11.0301 16.056 10.6301 15.88C10.2301 15.704 9.91408 15.46 9.68208 15.148C9.45008 14.828 9.33408 14.464 9.33408 14.056C9.33408 13.592 9.45808 13.212 9.70608 12.916C9.96208 12.62 10.2701 12.376 10.6301 12.184V12.136C10.3341 11.912 10.0901 11.656 9.89808 11.368C9.70608 11.08 9.61008 10.736 9.61008 10.336C9.61008 9.904 9.71408 9.532 9.92208 9.22C10.1301 8.9 10.4181 8.656 10.7861 8.488C11.1541 8.32 11.5741 8.236 12.0461 8.236C12.7421 8.236 13.3021 8.428 13.7261 8.812C14.1501 9.188 14.3621 9.692 14.3621 10.324C14.3621 10.692 14.2621 11.02 14.0621 11.308C13.8621 11.588 13.6301 11.816 13.3661 11.992V12.04C13.7341 12.24 14.0461 12.496 14.3021 12.808C14.5581 13.12 14.6861 13.528 14.6861 14.032C14.6861 14.432 14.5741 14.792 14.3501 15.112C14.1261 15.432 13.8101 15.684 13.4021 15.868C13.0021 16.052 12.5301 16.144 11.9861 16.144ZM12.4661 11.56C12.7781 11.2 12.9341 10.828 12.9341 10.444C12.9341 10.148 12.8501 9.912 12.6821 9.736C12.5221 9.552 12.2981 9.46 12.0101 9.46C11.7781 9.46 11.5781 9.532 11.4101 9.676C11.2421 9.82 11.1581 10.04 11.1581 10.336C11.1581 10.648 11.2781 10.892 11.5181 11.068C11.7581 11.244 12.0741 11.408 12.4661 11.56ZM12.0221 14.92C12.3181 14.92 12.5621 14.844 12.7541 14.692C12.9461 14.532 13.0421 14.292 13.0421 13.972C13.0421 13.748 12.9741 13.564 12.8381 13.42C12.7021 13.268 12.5141 13.136 12.2741 13.024C12.0341 12.904 11.7541 12.776 11.4341 12.64C11.2661 12.792 11.1261 12.976 11.0141 13.192C10.9021 13.4 10.8461 13.62 10.8461 13.852C10.8461 14.188 10.9621 14.452 11.1941 14.644C11.4261 14.828 11.7021 14.92 12.0221 14.92Z" fill="currentColor"/>
  </symbol>
  <symbol id="ofh-icon-LooksFive" viewBox="0 0 24 24">
    <path d="M5 21C3.89543 21 3 20.1046 3 19V5C3 3.89543 3.89543 3 5 3H19C20.1046 3 21 3.89543 21 5V19C21 20.1046 20.1046 21 19 21H5ZM5 19H19V5H5V19Z" fill="currentColor"/>
    <path d="M11.7941 16.144C11.1701 16.144 10.6421 16.04 10.2101 15.832C9.77808 15.624 9.41008 15.372 9.10608 15.076L9.89808 13.96C10.1301 14.168 10.3821 14.348 10.6541 14.5C10.9261 14.644 11.2221 14.716 11.5421 14.716C11.9341 14.716 12.2461 14.616 12.4781 14.416C12.7101 14.216 12.8261 13.92 12.8261 13.528C12.8261 13.144 12.7141 12.852 12.4901 12.652C12.2661 12.452 11.9781 12.352 11.6261 12.352C11.4021 12.352 11.2141 12.38 11.0621 12.436C10.9181 12.492 10.7301 12.592 10.4981 12.736L9.70608 12.232L9.92208 8.38H14.2421V9.868H11.4461L11.3141 11.296C11.5781 11.176 11.8621 11.116 12.1661 11.116C12.6061 11.116 13.0061 11.2 13.3661 11.368C13.7341 11.536 14.0301 11.796 14.2541 12.148C14.4781 12.492 14.5901 12.936 14.5901 13.48C14.5901 14.04 14.4581 14.52 14.1941 14.92C13.9381 15.32 13.5981 15.624 13.1741 15.832C12.7501 16.04 12.2901 16.144 11.7941 16.144Z" fill="currentColor"/>
  </symbol>
  <symbol id="ofh-icon-LooksFour" viewBox="0 0 24 24">
    <path d="M5 21C3.89543 21 3 20.1046 3 19V5C3 3.89543 3.89543 3 5 3H19C20.1046 3 21 3.89543 21 5V19C21 20.1046 20.1046 21 19 21H5ZM5 19H19V5H5V19Z" fill="currentColor"/>
    <path d="M10.7501 12.832H12.3581V11.596C12.3581 11.348 12.3661 11.064 12.3821 10.744C12.4061 10.416 12.4221 10.132 12.4301 9.892H12.3821C12.2861 10.1 12.1861 10.312 12.0821 10.528C11.9781 10.744 11.8701 10.96 11.7581 11.176L10.7501 12.832ZM12.3581 16V14.176H9.05808V12.964L11.8421 8.38H14.0021V12.832H14.8781V14.176H14.0021V16H12.3581Z" fill="currentColor"/>
  </symbol>
  <symbol id="ofh-icon-LooksNine" viewBox="0 0 24 24">
    <path d="M5 21C3.89543 21 3 20.1046 3 19V5C3 3.89543 3.89543 3 5 3H19C20.1046 3 21 3.89543 21 5V19C21 20.1046 20.1046 21 19 21H5ZM5 19H19V5H5V19Z" fill="currentColor"/>
    <path d="M10.8461 10.792C10.8461 11.192 10.9421 11.476 11.1341 11.644C11.3261 11.812 11.5661 11.896 11.8541 11.896C12.0541 11.896 12.2541 11.84 12.4541 11.728C12.6621 11.608 12.8421 11.412 12.9941 11.14C12.9141 10.54 12.7621 10.128 12.5381 9.904C12.3221 9.672 12.0781 9.556 11.8061 9.556C11.5501 9.556 11.3261 9.656 11.1341 9.856C10.9421 10.048 10.8461 10.36 10.8461 10.792ZM11.5781 16.144C11.0741 16.144 10.6341 16.052 10.2581 15.868C9.89008 15.684 9.58608 15.472 9.34608 15.232L10.2821 14.176C10.4101 14.32 10.5821 14.448 10.7981 14.56C11.0141 14.664 11.2341 14.716 11.4581 14.716C11.7461 14.716 12.0021 14.644 12.2261 14.5C12.4581 14.348 12.6461 14.1 12.7901 13.756C12.9341 13.404 13.0141 12.932 13.0301 12.34C12.8301 12.588 12.5821 12.784 12.2861 12.928C11.9981 13.072 11.7381 13.144 11.5061 13.144C11.0741 13.144 10.6861 13.06 10.3421 12.892C10.0061 12.724 9.73808 12.468 9.53808 12.124C9.33808 11.772 9.23808 11.328 9.23808 10.792C9.23808 10.264 9.35408 9.808 9.58608 9.424C9.81808 9.04 10.1261 8.748 10.5101 8.548C10.8941 8.34 11.3141 8.236 11.7701 8.236C12.2661 8.236 12.7341 8.368 13.1741 8.632C13.6141 8.888 13.9701 9.292 14.2421 9.844C14.5221 10.396 14.6621 11.12 14.6621 12.016C14.6621 12.96 14.5141 13.74 14.2181 14.356C13.9301 14.964 13.5501 15.416 13.0781 15.712C12.6141 16 12.1141 16.144 11.5781 16.144Z" fill="currentColor"/>
  </symbol>
  <symbol id="ofh-icon-LooksOne" viewBox="0 0 24 24">
    <path d="M5 21C3.89543 21 3 20.1046 3 19V5C3 3.89543 3.89543 3 5 3H19C20.1046 3 21 3.89543 21 5V19C21 20.1046 20.1046 21 19 21H5ZM5 19H19V5H5V19Z" fill="currentColor"/>
    <path d="M9.67008 16V14.572H11.3261V10.168H9.89808V9.076C10.3141 8.996 10.6661 8.9 10.9541 8.788C11.2421 8.676 11.5221 8.54 11.7941 8.38H13.0901V14.572H14.5181V16H9.67008Z" fill="currentColor"/>
  </symbol>
  <symbol id="ofh-icon-LooksSeven" viewBox="0 0 24 24">
    <path d="M5 21C3.89543 21 3 20.1046 3 19V5C3 3.89543 3.89543 3 5 3H19C20.1046 3 21 3.89543 21 5V19C21 20.1046 20.1046 21 19 21H5ZM5 19H19V5H5V19Z" fill="currentColor"/>
    <path d="M10.7381 16C10.7861 15.152 10.8781 14.392 11.0141 13.72C11.1501 13.048 11.3581 12.404 11.6381 11.788C11.9181 11.172 12.2981 10.532 12.7781 9.868H9.35808V8.38H14.6621V9.46C14.2221 9.996 13.8661 10.5 13.5941 10.972C13.3301 11.444 13.1221 11.928 12.9701 12.424C12.8261 12.912 12.7221 13.444 12.6581 14.02C12.5941 14.596 12.5461 15.256 12.5141 16H10.7381Z" fill="currentColor"/>
  </symbol>
  <symbol id="ofh-icon-LooksSix" viewBox="0 0 24 24">
    <path d="M5 21C3.89543 21 3 20.1046 3 19V5C3 3.89543 3.89543 3 5 3H19C20.1046 3 21 3.89543 21 5V19C21 20.1046 20.1046 21 19 21H5ZM5 19H19V5H5V19Z" fill="currentColor"/>
    <path d="M12.1301 12.484C11.9301 12.484 11.7261 12.544 11.5181 12.664C11.3181 12.776 11.1381 12.968 10.9781 13.24C11.0581 13.84 11.2101 14.256 11.4341 14.488C11.6581 14.712 11.9021 14.824 12.1661 14.824C12.4301 14.824 12.6541 14.728 12.8381 14.536C13.0301 14.336 13.1261 14.02 13.1261 13.588C13.1261 13.188 13.0301 12.904 12.8381 12.736C12.6541 12.568 12.4181 12.484 12.1301 12.484ZM12.2021 16.144C11.7141 16.144 11.2501 16.016 10.8101 15.76C10.3701 15.496 10.0101 15.088 9.73008 14.536C9.45808 13.976 9.32208 13.252 9.32208 12.364C9.32208 11.412 9.46608 10.632 9.75408 10.024C10.0501 9.416 10.4301 8.968 10.8941 8.68C11.3661 8.384 11.8701 8.236 12.4061 8.236C12.9101 8.236 13.3461 8.328 13.7141 8.512C14.0821 8.688 14.3861 8.9 14.6261 9.148L13.7021 10.204C13.5741 10.06 13.3981 9.936 13.1741 9.832C12.9581 9.72 12.7381 9.664 12.5141 9.664C12.2341 9.664 11.9781 9.74 11.7461 9.892C11.5141 10.036 11.3261 10.284 11.1821 10.636C11.0461 10.98 10.9661 11.448 10.9421 12.04C11.1421 11.784 11.3861 11.588 11.6741 11.452C11.9701 11.308 12.2341 11.236 12.4661 11.236C13.1221 11.236 13.6621 11.428 14.0861 11.812C14.5181 12.188 14.7341 12.78 14.7341 13.588C14.7341 14.116 14.6181 14.572 14.3861 14.956C14.1541 15.332 13.8461 15.624 13.4621 15.832C13.0861 16.04 12.6661 16.144 12.2021 16.144Z" fill="currentColor"/>
  </symbol>
  <symbol id="ofh-icon-LooksThree" viewBox="0 0 24 24">
    <path d="M5 21C3.89543 21 3 20.1046 3 19V5C3 3.89543 3.89543 3 5 3H19C20.1046 3 21 3.89543 21 5V19C21 20.1046 20.1046 21 19 21H5ZM5 19H19V5H5V19Z" fill="currentColor"/>
    <path d="M11.7461 16.144C11.1301 16.144 10.6021 16.044 10.1621 15.844C9.73008 15.644 9.37408 15.384 9.09408 15.064L9.91008 13.948C10.1421 14.172 10.3981 14.356 10.6781 14.5C10.9581 14.644 11.2581 14.716 11.5781 14.716C11.9541 14.716 12.2541 14.64 12.4781 14.488C12.7021 14.328 12.8141 14.104 12.8141 13.816C12.8141 13.592 12.7581 13.4 12.6461 13.24C12.5341 13.072 12.3301 12.944 12.0341 12.856C11.7381 12.768 11.3141 12.724 10.7621 12.724V11.476C11.4501 11.476 11.9221 11.384 12.1781 11.2C12.4341 11.008 12.5621 10.76 12.5621 10.456C12.5621 10.192 12.4821 9.988 12.3221 9.844C12.1621 9.692 11.9301 9.616 11.6261 9.616C11.3541 9.616 11.1061 9.676 10.8821 9.796C10.6661 9.916 10.4381 10.08 10.1981 10.288L9.31008 9.208C9.66208 8.904 10.0341 8.668 10.4261 8.5C10.8181 8.324 11.2461 8.236 11.7101 8.236C12.4941 8.236 13.1261 8.42 13.6061 8.788C14.0941 9.148 14.3381 9.66 14.3381 10.324C14.3381 10.716 14.2261 11.052 14.0021 11.332C13.7861 11.612 13.4741 11.84 13.0661 12.016V12.064C13.5061 12.192 13.8661 12.412 14.1461 12.724C14.4341 13.028 14.5781 13.428 14.5781 13.924C14.5781 14.396 14.4461 14.8 14.1821 15.136C13.9261 15.464 13.5821 15.716 13.1501 15.892C12.7261 16.06 12.2581 16.144 11.7461 16.144Z" fill="currentColor"/>
  </symbol>
  <symbol id="ofh-icon-LooksTwo" viewBox="0 0 24 24">
    <path d="M5 21C3.89543 21 3 20.1046 3 19V5C3 3.89543 3.89543 3 5 3H19C20.1046 3 21 3.89543 21 5V19C21 20.1046 20.1046 21 19 21H5ZM5 19H19V5H5V19Z" fill="currentColor"/>
    <path d="M9.27408 16V14.992C9.92208 14.376 10.4941 13.82 10.9901 13.324C11.4941 12.82 11.8861 12.36 12.1661 11.944C12.4461 11.52 12.5861 11.128 12.5861 10.768C12.5861 10.392 12.4861 10.108 12.2861 9.916C12.0941 9.716 11.8341 9.616 11.5061 9.616C11.2341 9.616 10.9861 9.696 10.7621 9.856C10.5461 10.008 10.3421 10.188 10.1501 10.396L9.19008 9.448C9.56608 9.048 9.95008 8.748 10.3421 8.548C10.7341 8.34 11.2021 8.236 11.7461 8.236C12.2501 8.236 12.6901 8.336 13.0661 8.536C13.4421 8.736 13.7341 9.02 13.9421 9.388C14.1581 9.748 14.2661 10.172 14.2661 10.66C14.2661 11.084 14.1461 11.52 13.9061 11.968C13.6741 12.408 13.3741 12.852 13.0061 13.3C12.6381 13.74 12.2461 14.176 11.8301 14.608C12.0221 14.584 12.2381 14.564 12.4781 14.548C12.7181 14.524 12.9261 14.512 13.1021 14.512H14.6381V16H9.27408Z" fill="currentColor"/>
  </symbol>
  <symbol id="ofh-icon-LooksZero" viewBox="0 0 24 24">
    <path d="M5 21C3.89543 21 3 20.1046 3 19V5C3 3.89543 3.89543 3 5 3H19C20.1046 3 21 3.89543 21 5V19C21 20.1046 20.1046 21 19 21H5ZM5 19H19V5H5V19Z" fill="currentColor"/>
    <path d="M11.9981 16.144C11.1821 16.144 10.5221 15.804 10.0181 15.124C9.52208 14.444 9.27408 13.456 9.27408 12.16C9.27408 10.864 9.52208 9.888 10.0181 9.232C10.5221 8.568 11.1821 8.236 11.9981 8.236C12.8141 8.236 13.4701 8.568 13.9661 9.232C14.4701 9.888 14.7221 10.864 14.7221 12.16C14.7221 13.456 14.4701 14.444 13.9661 15.124C13.4701 15.804 12.8141 16.144 11.9981 16.144ZM11.9981 14.776C12.1981 14.776 12.3781 14.704 12.5381 14.56C12.6981 14.408 12.8221 14.144 12.9101 13.768C13.0061 13.392 13.0541 12.856 13.0541 12.16C13.0541 11.464 13.0061 10.932 12.9101 10.564C12.8221 10.196 12.6981 9.944 12.5381 9.808C12.3781 9.672 12.1981 9.604 11.9981 9.604C11.8061 9.604 11.6301 9.672 11.4701 9.808C11.3101 9.944 11.1821 10.196 11.0861 10.564C10.9901 10.932 10.9421 11.464 10.9421 12.16C10.9421 12.856 10.9901 13.392 11.0861 13.768C11.1821 14.144 11.3101 14.408 11.4701 14.56C11.6301 14.704 11.8061 14.776 11.9981 14.776Z" fill="currentColor"/>
  </symbol>
  <symbol id="ofh-icon-RemoveCircle" viewBox="0 0 24 24">
    <path d="M7 13H17V11H7V13ZM12 22C10.6167 22 9.31667 21.7375 8.1 21.2125C6.88333 20.6875 5.825 19.975 4.925 19.075C4.025 18.175 3.3125 17.1167 2.7875 15.9C2.2625 14.6833 2 13.3833 2 12C2 10.6167 2.2625 9.31667 2.7875 8.1C3.3125 6.88333 4.025 5.825 4.925 4.925C5.825 4.025 6.88333 3.3125 8.1 2.7875C9.31667 2.2625 10.6167 2 12 2C13.3833 2 14.6833 2.2625 15.9 2.7875C17.1167 3.3125 18.175 4.025 19.075 4.925C19.975 5.825 20.6875 6.88333 21.2125 8.1C21.7375 9.31667 22 10.6167 22 12C22 13.3833 21.7375 14.6833 21.2125 15.9C20.6875 17.1167 19.975 18.175 19.075 19.075C18.175 19.975 17.1167 20.6875 15.9 21.2125C14.6833 21.7375 13.3833 22 12 22Z" fill="currentColor"/>
  </symbol>
  <symbol id="ofh-icon-Search" viewBox="0 0 24 24">
    <path d="M19.6 21L13.3 14.7C12.8 15.1 12.225 15.4167 11.575 15.65C10.925 15.8833 10.2333 16 9.5 16C7.68333 16 6.14583 15.3708 4.8875 14.1125C3.62917 12.8542 3 11.3167 3 9.5C3 7.68333 3.62917 6.14583 4.8875 4.8875C6.14583 3.62917 7.68333 3 9.5 3C11.3167 3 12.8542 3.62917 14.1125 4.8875C15.3708 6.14583 16 7.68333 16 9.5C16 10.2333 15.8833 10.925 15.65 11.575C15.4167 12.225 15.1 12.8 14.7 13.3L21 19.6L19.6 21ZM9.5 14C10.75 14 11.8125 13.5625 12.6875 12.6875C13.5625 11.8125 14 10.75 14 9.5C14 8.25 13.5625 7.1875 12.6875 6.3125C11.8125 5.4375 10.75 5 9.5 5C8.25 5 7.1875 5.4375 6.3125 6.3125C5.4375 7.1875 5 8.25 5 9.5C5 10.75 5.4375 11.8125 6.3125 12.6875C7.1875 13.5625 8.25 14 9.5 14Z" fill="currentColor"/>
  </symbol>
  <symbol id="ofh-icon-TestTubeOutlined" viewBox="0 0 24 24">
    <path d="M12 22C10.6167 22 9.4375 21.5125 8.4625 20.5375C7.4875 19.5625 7 18.3833 7 17V8C6.45 8 5.97917 7.80417 5.5875 7.4125C5.19583 7.02083 5 6.55 5 6V4C5 3.45 5.19583 2.97917 5.5875 2.5875C5.97917 2.19583 6.45 2 7 2H17C17.55 2 18.0208 2.19583 18.4125 2.5875C18.8042 2.97917 19 3.45 19 4V6C19 6.55 18.8042 7.02083 18.4125 7.4125C18.0208 7.80417 17.55 8 17 8V17C17 18.3833 16.5125 19.5625 15.5375 20.5375C14.5625 21.5125 13.3833 22 12 22ZM7 6H17V4H7V6ZM12 20C12.8333 20 13.5417 19.7083 14.125 19.125C14.7083 18.5417 15 17.8333 15 17H12V15H15V13H12V11H15V8H9V17C9 17.8333 9.29167 18.5417 9.875 19.125C10.4583 19.7083 11.1667 20 12 20Z" fill="currentColor"/>
  </symbol>
  <symbol id="ofh-icon-Tiktok" viewBox="0 0 32 32">
    <path d="M0 16C0 7.16344 7.16344 0 16 0C24.8366 0 32 7.16344 32 16C32 24.8366 24.8366 32 16 32C7.16344 32 0 24.8366 0 16Z" fill="#084571"/>
    <path d="M24 12.2715V15.3579C24 15.5217 23.9352 15.6787 23.8198 15.7944C23.7044 15.9102 23.5478 15.9752 23.3846 15.9752C22.0991 15.9782 20.832 15.6682 19.6923 15.0717V18.1357C19.6923 19.691 19.0764 21.1826 17.98 22.2823C16.8836 23.3821 15.3967 23.9999 13.8462 23.9999C12.2957 23.9999 10.8087 23.3821 9.7123 22.2823C8.61593 21.1826 8 19.691 8 18.1357C8 15.2885 10.07 12.7715 12.8154 12.2808C12.904 12.265 12.9949 12.2689 13.0818 12.2921C13.1687 12.3154 13.2495 12.3575 13.3184 12.4155C13.3874 12.4735 13.4428 12.5459 13.4808 12.6277C13.5188 12.7094 13.5385 12.7986 13.5385 12.8888V16.1828C13.5385 16.2996 13.5055 16.4141 13.4433 16.5128C13.381 16.6116 13.2921 16.6906 13.1869 16.7407C12.9382 16.859 12.7257 17.0421 12.5715 17.2709C12.4173 17.4997 12.3272 17.7658 12.3105 18.0414C12.2938 18.3171 12.3512 18.5921 12.4766 18.838C12.602 19.0838 12.7908 19.2914 13.0235 19.439C13.2561 19.5867 13.524 19.6691 13.7991 19.6775C14.0743 19.6859 14.3467 19.6202 14.5879 19.487C14.8291 19.3539 15.0302 19.1583 15.1704 18.9206C15.3105 18.6829 15.3845 18.4119 15.3846 18.1357V7.95054C15.3846 7.78682 15.4495 7.62981 15.5649 7.51405C15.6803 7.39829 15.8368 7.33325 16 7.33325H19.0769C19.2401 7.33325 19.3967 7.39829 19.5121 7.51405C19.6275 7.62981 19.6923 7.78682 19.6923 7.95054C19.6933 8.93251 20.0827 9.87396 20.7749 10.5683C21.4671 11.2627 22.4057 11.6532 23.3846 11.6542C23.5478 11.6542 23.7044 11.7193 23.8198 11.835C23.9352 11.9508 24 12.1078 24 12.2715Z" fill="white"/>
  </symbol>
  <symbol id="ofh-icon-TiktokHover" viewBox="0 0 32 32">
    <path d="M0 16C0 7.16344 7.16344 0 16 0C24.8366 0 32 7.16344 32 16C32 24.8366 24.8366 32 16 32C7.16344 32 0 24.8366 0 16Z" fill="#FFC62C"/>
    <path d="M24 12.2715V15.3579C24 15.5217 23.9352 15.6787 23.8198 15.7944C23.7044 15.9102 23.5478 15.9752 23.3846 15.9752C22.0991 15.9782 20.832 15.6682 19.6923 15.0717V18.1357C19.6923 19.691 19.0764 21.1826 17.98 22.2823C16.8836 23.3821 15.3967 23.9999 13.8462 23.9999C12.2957 23.9999 10.8087 23.3821 9.7123 22.2823C8.61593 21.1826 8 19.691 8 18.1357C8 15.2885 10.07 12.7715 12.8154 12.2808C12.904 12.265 12.9949 12.2689 13.0818 12.2921C13.1687 12.3154 13.2495 12.3575 13.3184 12.4155C13.3874 12.4735 13.4428 12.5459 13.4808 12.6277C13.5188 12.7094 13.5385 12.7986 13.5385 12.8888V16.1828C13.5385 16.2996 13.5055 16.4141 13.4433 16.5128C13.381 16.6116 13.2921 16.6906 13.1869 16.7407C12.9382 16.859 12.7257 17.0421 12.5715 17.2709C12.4173 17.4997 12.3272 17.7658 12.3105 18.0414C12.2938 18.3171 12.3512 18.5921 12.4766 18.838C12.602 19.0838 12.7908 19.2914 13.0235 19.439C13.2561 19.5867 13.524 19.6691 13.7991 19.6775C14.0743 19.6859 14.3467 19.6202 14.5879 19.487C14.8291 19.3539 15.0302 19.1583 15.1704 18.9206C15.3105 18.6829 15.3845 18.4119 15.3846 18.1357V7.95054C15.3846 7.78682 15.4495 7.62981 15.5649 7.51405C15.6803 7.39829 15.8368 7.33325 16 7.33325H19.0769C19.2401 7.33325 19.3967 7.39829 19.5121 7.51405C19.6275 7.62981 19.6923 7.78682 19.6923 7.95054C19.6933 8.93251 20.0827 9.87396 20.7749 10.5683C21.4671 11.2627 22.4057 11.6532 23.3846 11.6542C23.5478 11.6542 23.7044 11.7193 23.8198 11.835C23.9352 11.9508 24 12.1078 24 12.2715Z" fill="#1B1B1B"/>
  </symbol>
  <symbol id="ofh-icon-UnfoldLess" viewBox="0 0 24 24">
    <path d="M8.9 20L7.5 18.6L12 14.1L16.5 18.6L15.1 20L12 16.9L8.9 20ZM12 9.9L7.5 5.4L8.9 4L12 7.1L15.1 4L16.5 5.4L12 9.9Z" fill="currentColor"/>
  </symbol>
  <symbol id="ofh-icon-UnfoldMore" viewBox="0 0 24 24">
    <path d="M12 21L7.5 16.5L8.95 15.05L12 18.1L15.05 15.05L16.5 16.5L12 21ZM8.95 9.04998L7.5 7.59998L12 3.09998L16.5 7.59998L15.05 9.04998L12 5.99998L8.95 9.04998Z" fill="currentColor"/>
  </symbol>
  <symbol id="ofh-icon-WatchLater" viewBox="0 0 24 24">
    <path d="M14.55 16.55L15.95 15.125L13 12.175V8H11V13L14.55 16.55ZM12 22C10.6167 22 9.31667 21.7375 8.1 21.2125C6.88333 20.6875 5.825 19.975 4.925 19.075C4.025 18.175 3.3125 17.1167 2.7875 15.9C2.2625 14.6833 2 13.3833 2 12C2 10.6167 2.2625 9.31667 2.7875 8.1C3.3125 6.88333 4.025 5.825 4.925 4.925C5.825 4.025 6.88333 3.3125 8.1 2.7875C9.31667 2.2625 10.6167 2 12 2C13.3833 2 14.6833 2.2625 15.9 2.7875C17.1167 3.3125 18.175 4.025 19.075 4.925C19.975 5.825 20.6875 6.88333 21.2125 8.1C21.7375 9.31667 22 10.6167 22 12C22 13.3833 21.7375 14.6833 21.2125 15.9C20.6875 17.1167 19.975 18.175 19.075 19.075C18.175 19.975 17.1167 20.6875 15.9 21.2125C14.6833 21.7375 13.3833 22 12 22Z" fill="currentColor"/>
  </symbol>
  <symbol id="ofh-icon-West" viewBox="0 0 24 24">
    <path d="M10 18L4 12L10 6L11.4 7.45L7.85 11H20V13H7.85L11.4 16.55L10 18Z" fill="currentColor"/>
  </symbol>
  <symbol id="ofh-icon-WorkOutlineOutlined" viewBox="0 0 24 24">
    <path d="M4 21C3.45 21 2.97917 20.8042 2.5875 20.4125C2.19583 20.0208 2 19.55 2 19V8C2 7.45 2.19583 6.97917 2.5875 6.5875C2.97917 6.19583 3.45 6 4 6H8V4C8 3.45 8.19583 2.97917 8.5875 2.5875C8.97917 2.19583 9.45 2 10 2H14C14.55 2 15.0208 2.19583 15.4125 2.5875C15.8042 2.97917 16 3.45 16 4V6H20C20.55 6 21.0208 6.19583 21.4125 6.5875C21.8042 6.97917 22 7.45 22 8V19C22 19.55 21.8042 20.0208 21.4125 20.4125C21.0208 20.8042 20.55 21 20 21H4ZM4 19H20V8H4V19ZM10 6H14V4H10V6Z" fill="currentColor"/>
  </symbol>
  <symbol id="ofh-icon-X" viewBox="0 0 32 32">
    <path d="M0 16C0 7.16344 7.16344 0 16 0C24.8366 0 32 7.16344 32 16C32 24.8366 24.8366 32 16 32C7.16344 32 0 24.8366 0 16Z" fill="#084571"/>
    <path d="M21.9285 23.0164C21.8789 23.1122 21.806 23.1922 21.7174 23.248C21.6288 23.3037 21.5277 23.3332 21.4247 23.3334H17.9701C17.8732 23.3334 17.7779 23.3074 17.6929 23.2579C17.608 23.2083 17.5363 23.1368 17.4843 23.05L14.5702 18.1894L10.3354 23.1333C10.2321 23.251 10.0894 23.3207 9.93798 23.3275C9.7866 23.3342 9.63884 23.2773 9.52671 23.1691C9.41459 23.061 9.34715 22.9103 9.33901 22.7497C9.33087 22.5891 9.38269 22.4316 9.48323 22.3113L13.9289 17.1169L9.4235 9.60633C9.36801 9.51393 9.33694 9.4074 9.33356 9.29789C9.33018 9.18838 9.3546 9.07991 9.40426 8.98386C9.45393 8.8878 9.52701 8.80768 9.61587 8.75189C9.70472 8.6961 9.80607 8.66669 9.9093 8.66675H13.3639C13.4608 8.66678 13.5562 8.69277 13.6411 8.74231C13.726 8.79185 13.7978 8.86334 13.8497 8.95015L16.7639 13.8108L20.9986 8.86689C21.1019 8.74919 21.2447 8.67942 21.396 8.6727C21.5474 8.66599 21.6952 8.72288 21.8073 8.83103C21.9194 8.93918 21.9869 9.08988 21.995 9.25045C22.0032 9.41103 21.9513 9.56854 21.8508 9.68883L17.4051 14.8795L21.9105 22.3946C21.9657 22.487 21.9965 22.5935 21.9996 22.7029C22.0028 22.8123 21.9782 22.9205 21.9285 23.0164Z" fill="white"/>
  </symbol>
  <symbol id="ofh-icon-XHover" viewBox="0 0 32 32">
    <path d="M0 16C0 7.16344 7.16344 0 16 0C24.8366 0 32 7.16344 32 16C32 24.8366 24.8366 32 16 32C7.16344 32 0 24.8366 0 16Z" fill="#FFC62C"/>
    <path d="M21.9285 23.0164C21.8789 23.1122 21.806 23.1922 21.7174 23.248C21.6288 23.3037 21.5277 23.3332 21.4247 23.3334H17.9701C17.8732 23.3334 17.7779 23.3074 17.6929 23.2579C17.608 23.2083 17.5363 23.1368 17.4843 23.05L14.5702 18.1894L10.3354 23.1333C10.2321 23.251 10.0894 23.3207 9.93798 23.3275C9.7866 23.3342 9.63884 23.2773 9.52671 23.1691C9.41459 23.061 9.34715 22.9103 9.33901 22.7497C9.33087 22.5891 9.38269 22.4316 9.48323 22.3113L13.9289 17.1169L9.4235 9.60633C9.36801 9.51393 9.33694 9.4074 9.33356 9.29789C9.33018 9.18838 9.3546 9.07991 9.40426 8.98386C9.45393 8.8878 9.52701 8.80768 9.61587 8.75189C9.70472 8.6961 9.80607 8.66669 9.9093 8.66675H13.3639C13.4608 8.66678 13.5562 8.69277 13.6411 8.74231C13.726 8.79185 13.7978 8.86334 13.8497 8.95015L16.7639 13.8108L20.9986 8.86689C21.1019 8.74919 21.2447 8.67942 21.396 8.6727C21.5474 8.66599 21.6952 8.72288 21.8073 8.83103C21.9194 8.93918 21.9869 9.08988 21.995 9.25045C22.0032 9.41103 21.9513 9.56854 21.8508 9.68883L17.4051 14.8795L21.9105 22.3946C21.9657 22.487 21.9965 22.5935 21.9996 22.7029C22.0028 22.8123 21.9782 22.9205 21.9285 23.0164Z" fill="#1B1B1B"/>
  </symbol>
  <symbol id="ofh-icon-Youtube" viewBox="0 0 32 32">
    <path d="M0 16C0 7.16344 7.16344 0 16 0C24.8366 0 32 7.16344 32 16C32 24.8366 24.8366 32 16 32C7.16344 32 0 24.8366 0 16Z" fill="#084571"/>
    <path d="M23.9852 11.1549C23.7935 10.4383 23.2285 9.87325 22.5119 9.68159C21.2119 9.33325 16.0002 9.33325 16.0002 9.33325C16.0002 9.33325 10.7885 9.33325 9.48854 9.68159C8.77187 9.87325 8.20687 10.4383 8.0152 11.1549C7.66687 12.4549 7.66687 15.9999 7.66687 15.9999C7.66687 15.9999 7.66687 19.5449 8.0152 20.8449C8.20687 21.5616 8.77187 22.1266 9.48854 22.3183C10.7885 22.6666 16.0002 22.6666 16.0002 22.6666C16.0002 22.6666 21.2119 22.6666 22.5119 22.3183C23.2294 22.1266 23.7935 21.5616 23.9852 20.8449C24.3335 19.5449 24.3335 15.9999 24.3335 15.9999C24.3335 15.9999 24.3335 12.4549 23.9852 11.1549ZM14.3335 18.1649V13.8349C14.3335 13.5141 14.681 13.3141 14.9585 13.4741L18.7085 15.6391C18.986 15.7991 18.986 16.2008 18.7085 16.3608L14.9585 18.5258C14.681 18.6866 14.3335 18.4858 14.3335 18.1649Z" fill="white"/>
  </symbol>
  <symbol id="ofh-icon-YoutubeHover" viewBox="0 0 32 32">
    <path d="M0 16C0 7.16344 7.16344 0 16 0C24.8366 0 32 7.16344 32 16C32 24.8366 24.8366 32 16 32C7.16344 32 0 24.8366 0 16Z" fill="#FFC62C"/>
    <path d="M23.9852 11.1549C23.7935 10.4383 23.2285 9.87325 22.5119 9.68159C21.2119 9.33325 16.0002 9.33325 16.0002 9.33325C16.0002 9.33325 10.7885 9.33325 9.48854 9.68159C8.77187 9.87325 8.20687 10.4383 8.0152 11.1549C7.66687 12.4549 7.66687 15.9999 7.66687 15.9999C7.66687 15.9999 7.66687 19.5449 8.0152 20.8449C8.20687 21.5616 8.77187 22.1266 9.48854 22.3183C10.7885 22.6666 16.0002 22.6666 16.0002 22.6666C16.0002 22.6666 21.2119 22.6666 22.5119 22.3183C23.2294 22.1266 23.7935 21.5616 23.9852 20.8449C24.3335 19.5449 24.3335 15.9999 24.3335 15.9999C24.3335 15.9999 24.3335 12.4549 23.9852 11.1549ZM14.3335 18.1649V13.8349C14.3335 13.5141 14.681 13.3141 14.9585 13.4741L18.7085 15.6391C18.986 15.7991 18.986 16.2008 18.7085 16.3608L14.9585 18.5258C14.681 18.6866 14.3335 18.4858 14.3335 18.1649Z" fill="#1B1B1B"/>
  </symbol>
</svg>
