<svg width="24" height="24" viewBox="0 0 32 32" fill="none" xmlns="http://www.w3.org/2000/svg">
<path d="M0 16C0 7.16344 7.16344 0 16 0C24.8366 0 32 7.16344 32 16C32 24.8366 24.8366 32 16 32C7.16344 32 0 24.8366 0 16Z" fill="#011D4B"/>
<path d="M24 12.2715V15.3579C24 15.5217 23.9352 15.6787 23.8198 15.7944C23.7044 15.9102 23.5478 15.9752 23.3846 15.9752C22.0991 15.9782 20.832 15.6682 19.6923 15.0717V18.1357C19.6923 19.691 19.0764 21.1826 17.98 22.2823C16.8836 23.3821 15.3967 23.9999 13.8462 23.9999C12.2957 23.9999 10.8087 23.3821 9.7123 22.2823C8.61593 21.1826 8 19.691 8 18.1357C8 15.2885 10.07 12.7715 12.8154 12.2808C12.904 12.265 12.9949 12.2689 13.0818 12.2921C13.1687 12.3154 13.2495 12.3575 13.3184 12.4155C13.3874 12.4735 13.4428 12.5459 13.4808 12.6277C13.5188 12.7094 13.5385 12.7986 13.5385 12.8888V16.1828C13.5385 16.2996 13.5055 16.4141 13.4433 16.5128C13.381 16.6116 13.2921 16.6906 13.1869 16.7407C12.9382 16.859 12.7257 17.0421 12.5715 17.2709C12.4173 17.4997 12.3272 17.7658 12.3105 18.0414C12.2938 18.3171 12.3512 18.5921 12.4766 18.838C12.602 19.0838 12.7908 19.2914 13.0235 19.439C13.2561 19.5867 13.524 19.6691 13.7991 19.6775C14.0743 19.6859 14.3467 19.6202 14.5879 19.487C14.8291 19.3539 15.0302 19.1583 15.1704 18.9206C15.3105 18.6829 15.3845 18.4119 15.3846 18.1357V7.95054C15.3846 7.78682 15.4495 7.62981 15.5649 7.51405C15.6803 7.39829 15.8368 7.33325 16 7.33325H19.0769C19.2401 7.33325 19.3967 7.39829 19.5121 7.51405C19.6275 7.62981 19.6923 7.78682 19.6923 7.95054C19.6933 8.93251 20.0827 9.87396 20.7749 10.5683C21.4671 11.2627 22.4057 11.6532 23.3846 11.6542C23.5478 11.6542 23.7044 11.7193 23.8198 11.835C23.9352 11.9508 24 12.1078 24 12.2715Z" fill="white"/>
</svg>
