<svg width="24" height="24" viewBox="0 0 32 32" fill="none" xmlns="http://www.w3.org/2000/svg">
<path d="M0 16C0 7.16344 7.16344 0 16 0C24.8366 0 32 7.16344 32 16C32 24.8366 24.8366 32 16 32C7.16344 32 0 24.8366 0 16Z" fill="#011D4B"/>
<path d="M21.9285 23.0164C21.8789 23.1122 21.806 23.1922 21.7174 23.248C21.6288 23.3037 21.5277 23.3332 21.4247 23.3334H17.9701C17.8732 23.3334 17.7779 23.3074 17.6929 23.2579C17.608 23.2083 17.5363 23.1368 17.4843 23.05L14.5702 18.1894L10.3354 23.1333C10.2321 23.251 10.0894 23.3207 9.93798 23.3275C9.7866 23.3342 9.63884 23.2773 9.52671 23.1691C9.41459 23.061 9.34715 22.9103 9.33901 22.7497C9.33087 22.5891 9.38269 22.4316 9.48323 22.3113L13.9289 17.1169L9.4235 9.60633C9.36801 9.51393 9.33694 9.4074 9.33356 9.29789C9.33018 9.18838 9.3546 9.07991 9.40426 8.98386C9.45393 8.8878 9.52701 8.80768 9.61587 8.75189C9.70472 8.6961 9.80607 8.66669 9.9093 8.66675H13.3639C13.4608 8.66678 13.5562 8.69277 13.6411 8.74231C13.726 8.79185 13.7978 8.86334 13.8497 8.95015L16.7639 13.8108L20.9986 8.86689C21.1019 8.74919 21.2447 8.67942 21.396 8.6727C21.5474 8.66599 21.6952 8.72288 21.8073 8.83103C21.9194 8.93918 21.9869 9.08988 21.995 9.25045C22.0032 9.41103 21.9513 9.56854 21.8508 9.68883L17.4051 14.8795L21.9105 22.3946C21.9657 22.487 21.9965 22.5935 21.9996 22.7029C22.0028 22.8123 21.9782 22.9205 21.9285 23.0164Z" fill="white"/>
</svg>
