<svg width="24" height="24" viewBox="0 0 32 32" fill="none" xmlns="http://www.w3.org/2000/svg">
<path d="M0 16C0 7.16344 7.16344 0 16 0C24.8366 0 32 7.16344 32 16C32 24.8366 24.8366 32 16 32C7.16344 32 0 24.8366 0 16Z" fill="#011D4B"/>
<path d="M23.9852 11.1549C23.7935 10.4383 23.2285 9.87325 22.5119 9.68159C21.2119 9.33325 16.0002 9.33325 16.0002 9.33325C16.0002 9.33325 10.7885 9.33325 9.48854 9.68159C8.77187 9.87325 8.20687 10.4383 8.0152 11.1549C7.66687 12.4549 7.66687 15.9999 7.66687 15.9999C7.66687 15.9999 7.66687 19.5449 8.0152 20.8449C8.20687 21.5616 8.77187 22.1266 9.48854 22.3183C10.7885 22.6666 16.0002 22.6666 16.0002 22.6666C16.0002 22.6666 21.2119 22.6666 22.5119 22.3183C23.2294 22.1266 23.7935 21.5616 23.9852 20.8449C24.3335 19.5449 24.3335 15.9999 24.3335 15.9999C24.3335 15.9999 24.3335 12.4549 23.9852 11.1549ZM14.3335 18.1649V13.8349C14.3335 13.5141 14.681 13.3141 14.9585 13.4741L18.7085 15.6391C18.986 15.7991 18.986 16.2008 18.7085 16.3608L14.9585 18.5258C14.681 18.6866 14.3335 18.4858 14.3335 18.1649Z" fill="white"/>
</svg>
