<?xml version="1.0" encoding="UTF-8"?>
<svg id="Layer_1" data-name="Layer 1" xmlns="http://www.w3.org/2000/svg" xmlns:xlink="http://www.w3.org/1999/xlink" viewBox="0 0 1405 348">
  <defs>
    <style>
      .cls-1 {
        fill: none;
      }

      .cls-2 {
        fill: #40b8a8;
      }

      .cls-3 {
        fill: #1b1b1b;
      }

      .cls-4 {
        fill: #ffd461;
      }

      .cls-5 {
        fill: #f4d1d1;
      }

      .cls-6 {
        clip-path: url(#clippath-1);
      }

      .cls-7 {
        clip-path: url(#clippath-3);
      }

      .cls-8 {
        clip-path: url(#clippath-4);
      }

      .cls-9 {
        clip-path: url(#clippath-2);
      }

      .cls-10 {
        clip-path: url(#clippath-7);
      }

      .cls-11 {
        clip-path: url(#clippath-6);
      }

      .cls-12 {
        clip-path: url(#clippath-8);
      }

      .cls-13 {
        clip-path: url(#clippath-5);
      }

      .cls-14 {
        fill: #fff;
      }

      .cls-15 {
        fill: #4ca8e9;
      }

      .cls-16 {
        fill: #f67676;
      }

      .cls-17 {
        fill: #f8f5ef;
      }

      .cls-18 {
        fill: #f9a3a3;
      }

      .cls-19 {
        fill: #011d4b;
      }

      .cls-20 {
        clip-path: url(#clippath);
      }
    </style>
    <clipPath id="clippath">
      <rect class="cls-1" x="-28.35" y="-36.02" width="127.26" height="127.26"/>
    </clipPath>
    <clipPath id="clippath-1">
      <rect class="cls-1" x="-28.35" y="91.24" width="127.26" height="127.26"/>
    </clipPath>
    <clipPath id="clippath-2">
      <rect class="cls-1" x="98.91" y="91.24" width="127.26" height="127.26"/>
    </clipPath>
    <clipPath id="clippath-3">
      <rect class="cls-1" x="98.91" y="218.49" width="127.26" height="127.26"/>
    </clipPath>
    <clipPath id="clippath-4">
      <rect class="cls-1" x="788.91" y="241.93" width="127.26" height="109.94"/>
    </clipPath>
    <clipPath id="clippath-5">
      <rect class="cls-1" x="661.34" y="241.93" width="127.26" height="109.94"/>
    </clipPath>
    <clipPath id="clippath-6">
      <rect class="cls-1" x="916.17" y="241.93" width="127.26" height="120.1"/>
    </clipPath>
    <clipPath id="clippath-7">
      <rect class="cls-1" x="1298.14" y="114.37" width="127.26" height="127.26"/>
    </clipPath>
    <clipPath id="clippath-8">
      <rect class="cls-1" x="534.81" y="-13.2" width="127.57" height="127.57"/>
    </clipPath>
  </defs>
  <g class="cls-20">
    <g>
      <path class="cls-17" d="M3.49,91.24l-31.84-31.84v-3.53L7.02,91.24h-3.53Z"/>
      <path class="cls-17" d="M-28.35,34.71l56.52,56.52h-3.53L-28.35,38.24v-3.53Z"/>
      <path class="cls-17" d="M-28.35,13.45L49.44,91.24h-3.53L-28.35,16.98v-3.53Z"/>
      <path class="cls-17" d="M-28.35-7.71l98.94,98.94h-3.53L-28.35-4.18v-3.53Z"/>
      <path class="cls-17" d="M-28.35-28.97l120.2,120.2h-3.53L-28.35-25.44v-3.53Z"/>
      <path class="cls-17" d="M-17.77-36.02h3.53l113.15,113.15v3.53L-17.77-36.02Z"/>
      <path class="cls-17" d="M3.49-36.02h3.53L98.91,55.87v3.53L3.49-36.02Z"/>
      <path class="cls-17" d="M24.65-36.02h3.53L98.91,34.71v3.53L24.65-36.02Z"/>
      <path class="cls-17" d="M45.91-36.02h3.53L98.91,13.45v3.53l-53-53Z"/>
    </g>
  </g>
  <g class="cls-6">
    <g>
      <path class="cls-19" d="M-28.35,123.08L3.49,91.24h3.53l-35.37,35.37v-3.53h0Z"/>
      <path class="cls-19" d="M28.17,91.24l-56.52,56.52v-3.53l53-53h3.53Z"/>
      <path class="cls-19" d="M49.44,91.24L-28.35,169.02v-3.53L45.91,91.24h3.53Z"/>
      <path class="cls-19" d="M70.59,91.24L-28.35,190.18v-3.53l95.42-95.42h3.53Z"/>
      <path class="cls-19" d="M91.85,91.24L-28.35,211.44v-3.53l116.68-116.68h3.53Z"/>
      <path class="cls-19" d="M98.91,101.82v3.53L-14.24,218.49h-3.53l116.68-116.68Z"/>
      <path class="cls-19" d="M98.91,123.08v3.53L7.02,218.49h-3.53l95.42-95.42Z"/>
      <path class="cls-19" d="M98.91,144.23v3.53L28.17,218.49h-3.53l74.26-74.26Z"/>
      <path class="cls-19" d="M98.91,165.5v3.53l-49.47,49.47h-3.53l53-53Z"/>
      <path class="cls-19" d="M98.91,186.65v3.53l-28.31,28.31h-3.53l31.84-31.84Z"/>
      <path class="cls-19" d="M98.91,207.91v3.53l-7.05,7.05h-3.53l10.58-10.58Z"/>
    </g>
  </g>
  <g class="cls-9">
    <g>
      <path class="cls-4" d="M134.27,91.24l-35.37,35.37v-3.53l31.84-31.84h3.53Z"/>
      <path class="cls-4" d="M113.01,91.24l-14.1,14.11v-3.53l10.58-10.58h3.53Z"/>
      <path class="cls-4" d="M155.43,91.24l-56.52,56.52v-3.53l53-53h3.53Z"/>
      <path class="cls-4" d="M176.69,91.24l-77.78,77.78v-3.53l74.26-74.26h3.53Z"/>
      <path class="cls-4" d="M197.85,91.24l-98.94,98.94v-3.53l95.42-95.42h3.53Z"/>
      <path class="cls-4" d="M219.11,91.24l-120.2,120.2v-3.53l116.68-116.68h3.53Z"/>
      <path class="cls-4" d="M226.16,101.82v3.53l-113.15,113.15h-3.53l116.68-116.68Z"/>
      <path class="cls-4" d="M226.16,123.08v3.53l-91.89,91.89h-3.53l95.42-95.42Z"/>
      <path class="cls-4" d="M226.16,144.23v3.53l-70.73,70.73h-3.53l74.26-74.26Z"/>
      <path class="cls-4" d="M226.16,165.5v3.53l-49.47,49.47h-3.53l53-53Z"/>
      <path class="cls-4" d="M226.16,197.34v3.53l-17.73,17.74h-3.42l21.16-21.26Z"/>
      <path class="cls-4" d="M226.16,186.65v3.53l-28.31,28.31h-3.53l31.84-31.84Z"/>
      <path class="cls-4" d="M226.16,207.91v3.53l-7.05,7.05h-3.53l10.58-10.58Z"/>
      <path class="cls-4" d="M102.43,91.24l-3.53,3.53v-3.53h3.53Z"/>
      <path class="cls-4" d="M123.69,91.24l-24.68,24.68v-3.53l21.26-21.26,3.42.1h0Z"/>
      <path class="cls-4" d="M144.85,91.24l-45.94,45.95v-3.53l42.42-42.42s3.53,0,3.53,0Z"/>
      <path class="cls-4" d="M166.11,91.24l-67.21,67.21v-3.53l63.68-63.68s3.53,0,3.53,0Z"/>
      <path class="cls-4" d="M187.27,91.24l-88.36,88.36v-3.53l84.84-84.84h3.53Z"/>
      <path class="cls-4" d="M208.53,91.24l-109.62,109.62v-3.53l106.1-106.1h3.53Z"/>
      <path class="cls-4" d="M226.16,91.24v3.53l-123.73,123.73h-3.53l127.26-127.26Z"/>
      <path class="cls-4" d="M226.16,112.5v3.53l-102.47,102.57h-3.53l106-106.1Z"/>
      <path class="cls-4" d="M226.16,133.66v3.53l-81.31,81.31h-3.53l84.84-84.84Z"/>
      <path class="cls-4" d="M226.16,154.92v3.53l-60.15,60.05h-3.53l63.68-63.58Z"/>
      <path class="cls-4" d="M226.16,176.07v3.53l-38.89,38.89h-3.53l42.42-42.42Z"/>
    </g>
  </g>
  <g class="cls-7">
    <g>
      <path class="cls-14" d="M98.91,310.38l35.37,35.37h-3.53l-31.84-31.84v-3.53h0Z"/>
      <path class="cls-14" d="M98.91,331.64l14.1,14.11h-3.53l-10.58-10.58v-3.53h0Z"/>
      <path class="cls-14" d="M98.91,289.23l56.52,56.52h-3.53l-53-53v-3.53Z"/>
      <path class="cls-14" d="M98.91,267.96l77.78,77.78h-3.53l-74.26-74.26s0-3.53,0-3.53Z"/>
      <path class="cls-14" d="M98.91,246.81l98.94,98.94h-3.53l-95.42-95.42v-3.53h0Z"/>
      <path class="cls-14" d="M98.91,225.55l120.2,120.2h-3.53l-116.68-116.68v-3.53Z"/>
      <path class="cls-14" d="M109.49,218.49h3.53l113.15,113.15v3.53l-116.68-116.68Z"/>
      <path class="cls-14" d="M130.75,218.49h3.53l91.89,91.89v3.53l-95.42-95.42Z"/>
      <path class="cls-14" d="M151.9,218.49h3.53l70.73,70.73v3.53l-74.26-74.26Z"/>
      <path class="cls-14" d="M173.16,218.49h3.53l49.47,49.47v3.53l-53-53Z"/>
      <path class="cls-14" d="M205,218.49h3.53l17.73,17.74v3.53l-21.26-21.26Z"/>
      <path class="cls-14" d="M194.32,218.49h3.53l28.31,28.31v3.53l-31.84-31.84Z"/>
      <path class="cls-14" d="M215.58,218.49h3.53l7.05,7.05v3.53l-10.58-10.58Z"/>
      <path class="cls-14" d="M98.91,342.22l3.53,3.53h-3.53v-3.53Z"/>
      <path class="cls-14" d="M98.91,321.07l24.68,24.68h-3.53l-21.26-21.26v-3.42h.1Z"/>
      <path class="cls-14" d="M98.91,299.8l45.94,45.95h-3.53l-42.42-42.42v-3.53h0Z"/>
      <path class="cls-14" d="M98.91,278.65l67.21,67.21h-3.53l-63.68-63.68s0-3.53,0-3.53Z"/>
      <path class="cls-14" d="M98.91,257.39l88.36,88.36h-3.53l-84.84-84.84v-3.53Z"/>
      <path class="cls-14" d="M98.91,236.23l109.52,109.52h-3.42l-106.1-106.1v-3.42Z"/>
      <path class="cls-14" d="M98.91,218.49h3.53l123.73,123.73v3.53l-127.26-127.26Z"/>
      <path class="cls-14" d="M120.17,218.49h3.53l102.57,102.47v3.53l-106.1-105.99Z"/>
      <path class="cls-14" d="M141.32,218.49h3.53l81.31,81.31v3.53l-84.84-84.84Z"/>
      <path class="cls-14" d="M162.59,218.49h3.53l60.15,60.05v3.53l-63.68-63.58Z"/>
      <path class="cls-14" d="M183.74,218.49h3.53l38.89,38.89v3.53l-42.42-42.42Z"/>
    </g>
  </g>
  <g class="cls-8">
    <g>
      <path class="cls-18" d="M916.17,263.19h-127.26v3.53h127.26v-3.53Z"/>
      <path class="cls-18" d="M916.17,284.46h-127.26v3.53h127.26v-3.53Z"/>
      <path class="cls-18" d="M916.17,305.82h-127.26v3.53h127.26v-3.53Z"/>
      <path class="cls-18" d="M916.17,327.08h-127.26v3.53h127.26v-3.53Z"/>
      <path class="cls-18" d="M916.17,241.93h-127.26v3.53h127.26v-3.53Z"/>
    </g>
  </g>
  <g class="cls-13">
    <g>
      <path class="cls-5" d="M788.6,263.19h-127.26v3.53h127.26v-3.53Z"/>
      <path class="cls-5" d="M788.6,284.46h-127.26v3.53h127.26v-3.53Z"/>
      <path class="cls-5" d="M788.6,305.82h-127.26v3.53h127.26v-3.53Z"/>
      <path class="cls-5" d="M788.6,327.08h-127.26v3.53h127.26v-3.53Z"/>
      <path class="cls-5" d="M788.6,241.93h-127.26v3.53h127.26v-3.53Z"/>
    </g>
  </g>
  <g class="cls-11">
    <g>
      <path class="cls-16" d="M1043.42,252.51h-127.26v3.53h127.26v-3.53Z"/>
      <path class="cls-16" d="M1043.42,263.09h-127.26v3.53h127.26v-3.53Z"/>
      <path class="cls-16" d="M1043.42,273.77h-127.26v3.53h127.26v-3.53Z"/>
      <path class="cls-16" d="M1043.42,284.35h-127.26v3.53h127.26v-3.53Z"/>
      <path class="cls-16" d="M1043.42,294.93h-127.26v3.53h127.26v-3.53Z"/>
      <path class="cls-16" d="M1043.42,305.51h-127.26v3.53h127.26v-3.53Z"/>
      <path class="cls-16" d="M1043.42,316.19h-127.26v3.53h127.26v-3.53Z"/>
      <path class="cls-16" d="M1043.42,326.77h-127.26v3.53h127.26v-3.53Z"/>
      <path class="cls-16" d="M1043.42,337.35h-127.26v3.53h127.26v-3.53Z"/>
      <path class="cls-16" d="M1043.42,347.93h-127.26v3.53h127.26v-3.53Z"/>
      <path class="cls-16" d="M1043.42,241.93h-127.26v3.53h127.26v-3.53Z"/>
    </g>
  </g>
  <g class="cls-10">
    <g>
      <path class="cls-3" d="M1333.51,114.37l-35.37,35.37v-3.53l31.84-31.84h3.53Z"/>
      <path class="cls-3" d="M1312.25,114.37l-14.1,14.11v-3.53l10.58-10.58h3.53Z"/>
      <path class="cls-3" d="M1354.67,114.37l-56.52,56.52v-3.53l53-53h3.53Z"/>
      <path class="cls-3" d="M1375.93,114.37l-77.78,77.78v-3.53l74.26-74.26h3.53Z"/>
      <path class="cls-3" d="M1397.09,114.37l-98.94,98.94v-3.53l95.42-95.42h3.53Z"/>
      <path class="cls-3" d="M1418.35,114.37l-120.2,120.2v-3.53l116.68-116.68h3.53Z"/>
      <path class="cls-3" d="M1425.4,124.94v3.53l-113.15,113.15h-3.53l116.68-116.68Z"/>
      <path class="cls-3" d="M1425.4,146.21v3.53l-91.89,91.89h-3.53l95.42-95.42Z"/>
      <path class="cls-3" d="M1425.4,167.36v3.53l-70.73,70.73h-3.53l74.26-74.26Z"/>
      <path class="cls-3" d="M1425.4,188.62v3.53l-49.47,49.47h-3.53l53-53Z"/>
      <path class="cls-3" d="M1425.4,220.46v3.53l-17.63,17.74h-3.53l21.16-21.26Z"/>
      <path class="cls-3" d="M1425.4,209.78v3.53l-28.31,28.31h-3.53l31.84-31.84Z"/>
      <path class="cls-3" d="M1301.67,114.37l-3.53,3.53v-3.53h3.53Z"/>
      <path class="cls-3" d="M1322.83,114.37l-24.68,24.68v-3.53l21.26-21.26h3.42v.1Z"/>
      <path class="cls-3" d="M1344.09,114.37l-45.95,45.95v-3.53l42.42-42.42h3.53Z"/>
      <path class="cls-3" d="M1365.35,114.37l-67.21,67.21v-3.53l63.68-63.68h3.53Z"/>
      <path class="cls-3" d="M1386.51,114.37l-88.36,88.36v-3.53l84.84-84.84h3.53Z"/>
      <path class="cls-3" d="M1407.77,114.37l-109.62,109.52v-3.53l106.1-105.99h3.53Z"/>
      <path class="cls-3" d="M1425.4,114.37v3.53l-123.73,123.73h-3.53l127.26-127.26Z"/>
      <path class="cls-3" d="M1425.4,135.63v3.53l-102.47,102.57h-3.53l106-106.1Z"/>
      <path class="cls-3" d="M1425.4,156.78v3.53l-81.31,81.31h-3.53l84.84-84.84Z"/>
      <path class="cls-3" d="M1425.4,178.05v3.53l-60.05,60.05h-3.53l63.58-63.58Z"/>
      <path class="cls-3" d="M1425.4,199.2v3.53l-38.89,38.89h-3.53l42.42-42.42Z"/>
    </g>
  </g>
  <g class="cls-12">
    <g>
      <path class="cls-14" d="M536.99,114.37c1.24,0,2.18-.93,2.18-2.18s-.93-2.18-2.18-2.18-2.18.93-2.18,2.18.93,2.18,2.18,2.18Z"/>
      <path class="cls-14" d="M536.99,89.68c1.24,0,2.18-.93,2.18-2.18s-.93-2.18-2.18-2.18-2.18.93-2.18,2.18.93,2.18,2.18,2.18Z"/>
      <path class="cls-14" d="M561.68,114.37c1.24,0,2.18-.93,2.18-2.18s-.93-2.18-2.18-2.18-2.18.93-2.18,2.18.93,2.18,2.18,2.18Z"/>
      <path class="cls-14" d="M536.99,65.1c1.24,0,2.18-.93,2.18-2.18s-.93-2.18-2.18-2.18-2.18.93-2.18,2.18c0,1.14.93,2.18,2.18,2.18Z"/>
      <path class="cls-14" d="M561.68,89.68c1.24,0,2.18-.93,2.18-2.18s-.93-2.18-2.18-2.18-2.18.93-2.18,2.18.93,2.18,2.18,2.18Z"/>
      <path class="cls-14" d="M586.26,114.37c1.24,0,2.18-.93,2.18-2.18s-.93-2.18-2.18-2.18-2.18.93-2.18,2.18,1.04,2.18,2.18,2.18Z"/>
      <path class="cls-14" d="M536.99,40.42c1.24,0,2.18-.93,2.18-2.18s-.93-2.18-2.18-2.18-2.18.93-2.18,2.18.93,2.18,2.18,2.18Z"/>
      <path class="cls-14" d="M561.68,65.1c1.24,0,2.18-.93,2.18-2.18s-.93-2.18-2.18-2.18-2.18.93-2.18,2.18c0,1.14.93,2.18,2.18,2.18Z"/>
      <path class="cls-14" d="M586.26,89.68c1.24,0,2.18-.93,2.18-2.18s-.93-2.18-2.18-2.18-2.18.93-2.18,2.18,1.04,2.18,2.18,2.18Z"/>
      <path class="cls-14" d="M610.94,114.37c1.24,0,2.18-.93,2.18-2.18s-.93-2.18-2.18-2.18-2.18.93-2.18,2.18.93,2.18,2.18,2.18Z"/>
      <path class="cls-14" d="M536.99,15.84c1.24,0,2.18-.93,2.18-2.18s-.93-2.18-2.18-2.18-2.18.93-2.18,2.18c0,1.14.93,2.18,2.18,2.18Z"/>
      <path class="cls-14" d="M561.68,40.42c1.24,0,2.18-.93,2.18-2.18s-.93-2.18-2.18-2.18-2.18.93-2.18,2.18.93,2.18,2.18,2.18Z"/>
      <path class="cls-14" d="M586.26,65.1c1.24,0,2.18-.93,2.18-2.18s-.93-2.18-2.18-2.18-2.18.93-2.18,2.18c0,1.14,1.04,2.18,2.18,2.18Z"/>
      <path class="cls-14" d="M610.94,89.68c1.24,0,2.18-.93,2.18-2.18s-.93-2.18-2.18-2.18-2.18.93-2.18,2.18.93,2.18,2.18,2.18Z"/>
      <path class="cls-14" d="M635.52,114.37c1.24,0,2.18-.93,2.18-2.18s-.93-2.18-2.18-2.18-2.18.93-2.18,2.18,1.04,2.18,2.18,2.18Z"/>
      <path class="cls-14" d="M561.68,15.84c1.24,0,2.18-.93,2.18-2.18s-.93-2.18-2.18-2.18-2.18.93-2.18,2.18c0,1.14.93,2.18,2.18,2.18Z"/>
      <path class="cls-14" d="M586.26,40.42c1.24,0,2.18-.93,2.18-2.18s-.93-2.18-2.18-2.18-2.18.93-2.18,2.18,1.04,2.18,2.18,2.18Z"/>
      <path class="cls-14" d="M610.94,65.1c1.24,0,2.18-.93,2.18-2.18s-.93-2.18-2.18-2.18-2.18.93-2.18,2.18c0,1.14.93,2.18,2.18,2.18Z"/>
      <path class="cls-14" d="M635.52,89.68c1.24,0,2.18-.93,2.18-2.18s-.93-2.18-2.18-2.18-2.18.93-2.18,2.18,1.04,2.18,2.18,2.18Z"/>
      <path class="cls-14" d="M660.2,114.37c1.24,0,2.18-.93,2.18-2.18s-.93-2.18-2.18-2.18-2.18.93-2.18,2.18.93,2.18,2.18,2.18Z"/>
      <path class="cls-14" d="M586.26,15.84c1.24,0,2.18-.93,2.18-2.18s-.93-2.18-2.18-2.18-2.18.93-2.18,2.18c0,1.14,1.04,2.18,2.18,2.18Z"/>
      <path class="cls-14" d="M610.94,40.42c1.24,0,2.18-.93,2.18-2.18s-.93-2.18-2.18-2.18-2.18.93-2.18,2.18.93,2.18,2.18,2.18Z"/>
      <path class="cls-14" d="M635.52,65.1c1.24,0,2.18-.93,2.18-2.18s-.93-2.18-2.18-2.18-2.18.93-2.18,2.18c0,1.14,1.04,2.18,2.18,2.18Z"/>
      <path class="cls-14" d="M660.2,89.68c1.24,0,2.18-.93,2.18-2.18s-.93-2.18-2.18-2.18-2.18.93-2.18,2.18.93,2.18,2.18,2.18Z"/>
      <path class="cls-14" d="M610.94,15.84c1.24,0,2.18-.93,2.18-2.18s-.93-2.18-2.18-2.18-2.18.93-2.18,2.18c0,1.14.93,2.18,2.18,2.18Z"/>
      <path class="cls-14" d="M635.52,40.42c1.24,0,2.18-.93,2.18-2.18s-.93-2.18-2.18-2.18-2.18.93-2.18,2.18,1.04,2.18,2.18,2.18Z"/>
      <path class="cls-14" d="M660.2,65.1c1.24,0,2.18-.93,2.18-2.18s-.93-2.18-2.18-2.18-2.18.93-2.18,2.18c0,1.14.93,2.18,2.18,2.18Z"/>
      <path class="cls-14" d="M635.52,15.84c1.24,0,2.18-.93,2.18-2.18s-.93-2.18-2.18-2.18-2.18.93-2.18,2.18c0,1.14,1.04,2.18,2.18,2.18Z"/>
      <path class="cls-14" d="M660.2,40.42c1.24,0,2.18-.93,2.18-2.18s-.93-2.18-2.18-2.18-2.18.93-2.18,2.18.93,2.18,2.18,2.18Z"/>
      <path class="cls-14" d="M660.2,15.84c1.24,0,2.18-.93,2.18-2.18s-.93-2.18-2.18-2.18-2.18.93-2.18,2.18c0,1.14.93,2.18,2.18,2.18Z"/>
    </g>
  </g>
  <rect class="cls-2" x="1170.58" y="-13.51" width="127.57" height="127.57"/>
  <rect class="cls-14" x="1043.42" y="114.21" width="127.57" height="127.57"/>
  <rect class="cls-15" x="1170.99" y="241.93" width="127.57" height="127.57"/>
</svg>