<svg width="24" height="24" viewBox="0 0 24 24" fill="none" xmlns="http://www.w3.org/2000/svg">
<path d="M5 21C3.89543 21 3 20.1046 3 19V5C3 3.89543 3.89543 3 5 3H19C20.1046 3 21 3.89543 21 5V19C21 20.1046 20.1046 21 19 21H5ZM5 19H19V5H5V19Z" fill="currentColor"/>
<path d="M10.7381 16C10.7861 15.152 10.8781 14.392 11.0141 13.72C11.1501 13.048 11.3581 12.404 11.6381 11.788C11.9181 11.172 12.2981 10.532 12.7781 9.868H9.35808V8.38H14.6621V9.46C14.2221 9.996 13.8661 10.5 13.5941 10.972C13.3301 11.444 13.1221 11.928 12.9701 12.424C12.8261 12.912 12.7221 13.444 12.6581 14.02C12.5941 14.596 12.5461 15.256 12.5141 16H10.7381Z" fill="currentColor"/>
</svg>
