<svg width="24" height="24" viewBox="0 0 24 24" fill="none" xmlns="http://www.w3.org/2000/svg">
<path d="M5 21C3.89543 21 3 20.1046 3 19V5C3 3.89543 3.89543 3 5 3H19C20.1046 3 21 3.89543 21 5V19C21 20.1046 20.1046 21 19 21H5ZM5 19H19V5H5V19Z" fill="currentColor"/>
<path d="M10.8461 10.792C10.8461 11.192 10.9421 11.476 11.1341 11.644C11.3261 11.812 11.5661 11.896 11.8541 11.896C12.0541 11.896 12.2541 11.84 12.4541 11.728C12.6621 11.608 12.8421 11.412 12.9941 11.14C12.9141 10.54 12.7621 10.128 12.5381 9.904C12.3221 9.672 12.0781 9.556 11.8061 9.556C11.5501 9.556 11.3261 9.656 11.1341 9.856C10.9421 10.048 10.8461 10.36 10.8461 10.792ZM11.5781 16.144C11.0741 16.144 10.6341 16.052 10.2581 15.868C9.89008 15.684 9.58608 15.472 9.34608 15.232L10.2821 14.176C10.4101 14.32 10.5821 14.448 10.7981 14.56C11.0141 14.664 11.2341 14.716 11.4581 14.716C11.7461 14.716 12.0021 14.644 12.2261 14.5C12.4581 14.348 12.6461 14.1 12.7901 13.756C12.9341 13.404 13.0141 12.932 13.0301 12.34C12.8301 12.588 12.5821 12.784 12.2861 12.928C11.9981 13.072 11.7381 13.144 11.5061 13.144C11.0741 13.144 10.6861 13.06 10.3421 12.892C10.0061 12.724 9.73808 12.468 9.53808 12.124C9.33808 11.772 9.23808 11.328 9.23808 10.792C9.23808 10.264 9.35408 9.808 9.58608 9.424C9.81808 9.04 10.1261 8.748 10.5101 8.548C10.8941 8.34 11.3141 8.236 11.7701 8.236C12.2661 8.236 12.7341 8.368 13.1741 8.632C13.6141 8.888 13.9701 9.292 14.2421 9.844C14.5221 10.396 14.6621 11.12 14.6621 12.016C14.6621 12.96 14.5141 13.74 14.2181 14.356C13.9301 14.964 13.5501 15.416 13.0781 15.712C12.6141 16 12.1141 16.144 11.5781 16.144Z" fill="currentColor"/>
</svg>
