<svg width="24" height="24" viewBox="0 0 24 24" fill="none" xmlns="http://www.w3.org/2000/svg">
<path d="M5 21C3.89543 21 3 20.1046 3 19V5C3 3.89543 3.89543 3 5 3H19C20.1046 3 21 3.89543 21 5V19C21 20.1046 20.1046 21 19 21H5ZM5 19H19V5H5V19Z" fill="currentColor"/>
<path d="M12.1301 12.484C11.9301 12.484 11.7261 12.544 11.5181 12.664C11.3181 12.776 11.1381 12.968 10.9781 13.24C11.0581 13.84 11.2101 14.256 11.4341 14.488C11.6581 14.712 11.9021 14.824 12.1661 14.824C12.4301 14.824 12.6541 14.728 12.8381 14.536C13.0301 14.336 13.1261 14.02 13.1261 13.588C13.1261 13.188 13.0301 12.904 12.8381 12.736C12.6541 12.568 12.4181 12.484 12.1301 12.484ZM12.2021 16.144C11.7141 16.144 11.2501 16.016 10.8101 15.76C10.3701 15.496 10.0101 15.088 9.73008 14.536C9.45808 13.976 9.32208 13.252 9.32208 12.364C9.32208 11.412 9.46608 10.632 9.75408 10.024C10.0501 9.416 10.4301 8.968 10.8941 8.68C11.3661 8.384 11.8701 8.236 12.4061 8.236C12.9101 8.236 13.3461 8.328 13.7141 8.512C14.0821 8.688 14.3861 8.9 14.6261 9.148L13.7021 10.204C13.5741 10.06 13.3981 9.936 13.1741 9.832C12.9581 9.72 12.7381 9.664 12.5141 9.664C12.2341 9.664 11.9781 9.74 11.7461 9.892C11.5141 10.036 11.3261 10.284 11.1821 10.636C11.0461 10.98 10.9661 11.448 10.9421 12.04C11.1421 11.784 11.3861 11.588 11.6741 11.452C11.9701 11.308 12.2341 11.236 12.4661 11.236C13.1221 11.236 13.6621 11.428 14.0861 11.812C14.5181 12.188 14.7341 12.78 14.7341 13.588C14.7341 14.116 14.6181 14.572 14.3861 14.956C14.1541 15.332 13.8461 15.624 13.4621 15.832C13.0861 16.04 12.6661 16.144 12.2021 16.144Z" fill="currentColor"/>
</svg>
