<svg width="24" height="24" viewBox="0 0 24 24" fill="none" xmlns="http://www.w3.org/2000/svg">
<g transform="translate(-1052, -62)">
  <path d="M1071.5 74C1071.5 69.8579 1068.14 66.5 1064 66.5C1059.86 66.5 1056.5 69.8579 1056.5 74C1056.5 78.1421 1059.86 81.5 1064 81.5V83C1059.03 83 1055 78.9706 1055 74C1055 69.0294 1059.03 65 1064 65C1068.97 65 1073 69.0294 1073 74C1073 78.9706 1068.97 83 1064 83V81.5C1068.14 81.5 1071.5 78.1421 1071.5 74Z" fill="currentColor"/>
  <path d="M1064 77.894C1063.51 77.894 1063.06 77.806 1062.67 77.63C1062.28 77.446 1061.97 77.198 1061.75 76.886C1061.52 76.574 1061.41 76.21 1061.41 75.794C1061.41 75.322 1061.55 74.926 1061.83 74.606C1062.11 74.286 1062.43 74.03 1062.79 73.838V73.79C1062.5 73.582 1062.24 73.334 1062.04 73.046C1061.84 72.75 1061.74 72.402 1061.74 72.002C1061.74 71.586 1061.84 71.23 1062.04 70.934C1062.24 70.63 1062.51 70.394 1062.85 70.226C1063.2 70.058 1063.6 69.974 1064.04 69.974C1064.73 69.974 1065.27 70.166 1065.67 70.55C1066.08 70.926 1066.28 71.422 1066.28 72.038C1066.28 72.414 1066.18 72.754 1065.96 73.058C1065.74 73.362 1065.51 73.606 1065.26 73.79V73.838C1065.62 74.038 1065.92 74.29 1066.19 74.594C1066.45 74.898 1066.58 75.306 1066.58 75.818C1066.58 76.21 1066.48 76.562 1066.26 76.874C1066.04 77.186 1065.74 77.434 1065.36 77.618C1064.98 77.802 1064.52 77.894 1064 77.894ZM1064.51 73.442C1064.72 73.234 1064.87 73.022 1064.98 72.806C1065.09 72.59 1065.14 72.362 1065.14 72.122C1065.14 71.786 1065.04 71.51 1064.84 71.294C1064.64 71.07 1064.37 70.958 1064.02 70.958C1063.72 70.958 1063.47 71.05 1063.27 71.234C1063.07 71.418 1062.97 71.674 1062.97 72.002C1062.97 72.258 1063.04 72.474 1063.18 72.65C1063.31 72.818 1063.5 72.966 1063.73 73.094C1063.97 73.214 1064.23 73.33 1064.51 73.442ZM1064.03 76.91C1064.4 76.91 1064.7 76.81 1064.93 76.61C1065.17 76.402 1065.29 76.122 1065.29 75.77C1065.29 75.49 1065.2 75.262 1065.04 75.086C1064.88 74.91 1064.66 74.758 1064.38 74.63C1064.1 74.494 1063.8 74.358 1063.45 74.222C1063.21 74.398 1063.01 74.606 1062.85 74.846C1062.7 75.086 1062.62 75.354 1062.62 75.65C1062.62 76.026 1062.76 76.33 1063.03 76.562C1063.3 76.794 1063.64 76.91 1064.03 76.91Z" fill="currentColor"/>
</g>
</svg>
