<svg width="24" height="24" viewBox="0 0 24 24" fill="none" xmlns="http://www.w3.org/2000/svg">
<g transform="translate(-284, -62)">
  <path d="M303.5 74C303.5 69.8579 300.142 66.5 296 66.5C291.858 66.5 288.5 69.8579 288.5 74C288.5 78.1421 291.858 81.5 296 81.5V83C291.029 83 287 78.9706 287 74C287 69.0294 291.029 65 296 65C300.971 65 305 69.0294 305 74C305 78.9706 300.971 83 296 83V81.5C300.142 81.5 303.5 78.1421 303.5 74Z" fill="currentColor"/>
  <path d="M293.45 77.75V76.946C294.162 76.258 294.774 75.646 295.286 75.11C295.806 74.566 296.206 74.074 296.486 73.634C296.766 73.186 296.906 72.77 296.906 72.386C296.906 71.986 296.798 71.666 296.582 71.426C296.366 71.186 296.054 71.066 295.646 71.066C295.35 71.066 295.078 71.15 294.83 71.318C294.59 71.486 294.366 71.686 294.158 71.918L293.39 71.15C293.742 70.774 294.106 70.486 294.482 70.286C294.858 70.078 295.306 69.974 295.826 69.974C296.562 69.974 297.146 70.186 297.578 70.61C298.018 71.034 298.238 71.602 298.238 72.314C298.238 72.762 298.11 73.222 297.854 73.694C297.606 74.158 297.27 74.634 296.846 75.122C296.43 75.61 295.97 76.122 295.466 76.658C295.666 76.642 295.882 76.626 296.114 76.61C296.346 76.586 296.554 76.574 296.738 76.574H298.61V77.75H293.45Z" fill="currentColor"/>
</g>
</svg>
