<svg width="24" height="24" viewBox="0 0 24 24" fill="none" xmlns="http://www.w3.org/2000/svg">
<g transform="translate(-1180, -62)">
  <path d="M1199.5 74C1199.5 69.8579 1196.14 66.5 1192 66.5C1187.86 66.5 1184.5 69.8579 1184.5 74C1184.5 78.1421 1187.86 81.5 1192 81.5V83C1187.03 83 1183 78.9706 1183 74C1183 69.0294 1187.03 65 1192 65C1196.97 65 1201 69.0294 1201 74C1201 78.9706 1196.97 83 1192 83V81.5C1196.14 81.5 1199.5 78.1421 1199.5 74Z" fill="currentColor"/>
  <path d="M1190.69 72.47C1190.69 72.918 1190.8 73.258 1191 73.49C1191.22 73.722 1191.52 73.838 1191.9 73.838C1192.13 73.838 1192.36 73.77 1192.6 73.634C1192.85 73.49 1193.07 73.262 1193.27 72.95C1193.2 72.278 1193.04 71.79 1192.78 71.486C1192.52 71.182 1192.21 71.03 1191.83 71.03C1191.52 71.03 1191.25 71.154 1191.03 71.402C1190.8 71.65 1190.69 72.006 1190.69 72.47ZM1191.58 77.894C1191.12 77.894 1190.73 77.81 1190.39 77.642C1190.06 77.474 1189.77 77.27 1189.54 77.03L1190.28 76.19C1190.43 76.358 1190.61 76.498 1190.82 76.61C1191.05 76.714 1191.28 76.766 1191.51 76.766C1191.83 76.766 1192.12 76.678 1192.38 76.502C1192.65 76.326 1192.86 76.034 1193.03 75.626C1193.2 75.21 1193.29 74.65 1193.31 73.946C1193.08 74.218 1192.82 74.434 1192.52 74.594C1192.21 74.754 1191.92 74.834 1191.64 74.834C1190.98 74.834 1190.45 74.642 1190.03 74.258C1189.62 73.866 1189.42 73.27 1189.42 72.47C1189.42 71.958 1189.53 71.518 1189.74 71.15C1189.97 70.774 1190.26 70.486 1190.62 70.286C1190.99 70.078 1191.39 69.974 1191.82 69.974C1192.32 69.974 1192.77 70.106 1193.19 70.37C1193.61 70.634 1193.95 71.042 1194.2 71.594C1194.45 72.138 1194.58 72.838 1194.58 73.694C1194.58 74.678 1194.44 75.482 1194.16 76.106C1193.88 76.722 1193.51 77.174 1193.06 77.462C1192.6 77.75 1192.11 77.894 1191.58 77.894Z" fill="currentColor"/>
</g>
</svg>
