<svg width="24" height="24" viewBox="0 0 24 24" fill="none" xmlns="http://www.w3.org/2000/svg">
<path d="M5 21C3.89543 21 3 20.1046 3 19V5C3 3.89543 3.89543 3 5 3H19C20.1046 3 21 3.89543 21 5V19C21 20.1046 20.1046 21 19 21H5ZM5 19H19V5H5V19Z" fill="currentColor"/>
<path d="M10.7501 12.832H12.3581V11.596C12.3581 11.348 12.3661 11.064 12.3821 10.744C12.4061 10.416 12.4221 10.132 12.4301 9.892H12.3821C12.2861 10.1 12.1861 10.312 12.0821 10.528C11.9781 10.744 11.8701 10.96 11.7581 11.176L10.7501 12.832ZM12.3581 16V14.176H9.05808V12.964L11.8421 8.38H14.0021V12.832H14.8781V14.176H14.0021V16H12.3581Z" fill="currentColor"/>
</svg>
