<svg width="24" height="24" viewBox="0 0 24 24" fill="none" xmlns="http://www.w3.org/2000/svg">
<path d="M5 21C3.89543 21 3 20.1046 3 19V5C3 3.89543 3.89543 3 5 3H19C20.1046 3 21 3.89543 21 5V19C21 20.1046 20.1046 21 19 21H5ZM5 19H19V5H5V19Z" fill="currentColor"/>
<path d="M11.7941 16.144C11.1701 16.144 10.6421 16.04 10.2101 15.832C9.77808 15.624 9.41008 15.372 9.10608 15.076L9.89808 13.96C10.1301 14.168 10.3821 14.348 10.6541 14.5C10.9261 14.644 11.2221 14.716 11.5421 14.716C11.9341 14.716 12.2461 14.616 12.4781 14.416C12.7101 14.216 12.8261 13.92 12.8261 13.528C12.8261 13.144 12.7141 12.852 12.4901 12.652C12.2661 12.452 11.9781 12.352 11.6261 12.352C11.4021 12.352 11.2141 12.38 11.0621 12.436C10.9181 12.492 10.7301 12.592 10.4981 12.736L9.70608 12.232L9.92208 8.38H14.2421V9.868H11.4461L11.3141 11.296C11.5781 11.176 11.8621 11.116 12.1661 11.116C12.6061 11.116 13.0061 11.2 13.3661 11.368C13.7341 11.536 14.0301 11.796 14.2541 12.148C14.4781 12.492 14.5901 12.936 14.5901 13.48C14.5901 14.04 14.4581 14.52 14.1941 14.92C13.9381 15.32 13.5981 15.624 13.1741 15.832C12.7501 16.04 12.2901 16.144 11.7941 16.144Z" fill="currentColor"/>
</svg>
