<svg width="24" height="24" viewBox="0 0 24 24" fill="none" xmlns="http://www.w3.org/2000/svg">
<g transform="translate(-668, -62)">
  <path d="M687.5 74C687.5 69.8579 684.142 66.5 680 66.5C675.858 66.5 672.5 69.8579 672.5 74C672.5 78.1421 675.858 81.5 680 81.5V83C675.029 83 671 78.9706 671 74C671 69.0294 675.029 65 680 65C684.971 65 689 69.0294 689 74C689 78.9706 684.971 83 680 83V81.5C684.142 81.5 687.5 78.1421 687.5 74Z" fill="currentColor"/>
  <path d="M679.957 77.894C679.34 77.894 678.821 77.79 678.397 77.582C677.981 77.366 677.633 77.118 677.352 76.838L677.989 75.95C678.221 76.166 678.48 76.358 678.768 76.526C679.056 76.686 679.392 76.766 679.777 76.766C680.201 76.766 680.553 76.638 680.833 76.382C681.113 76.126 681.253 75.766 681.253 75.302C681.253 74.846 681.125 74.494 680.869 74.246C680.613 73.998 680.273 73.874 679.849 73.874C679.601 73.874 679.392 73.91 679.225 73.982C679.057 74.046 678.857 74.154 678.625 74.306L677.965 73.886L678.193 70.118H682.273V71.282H679.392L679.236 73.13C679.397 73.05 679.553 72.99 679.705 72.95C679.865 72.902 680.045 72.878 680.245 72.878C680.685 72.878 681.085 72.962 681.444 73.13C681.805 73.298 682.093 73.558 682.309 73.91C682.533 74.262 682.645 74.714 682.645 75.266C682.645 75.818 682.517 76.29 682.261 76.682C682.013 77.074 681.685 77.374 681.277 77.582C680.869 77.79 680.429 77.894 679.957 77.894Z" fill="currentColor"/>
</g>
</svg>
