<svg width="24" height="24" viewBox="0 0 24 24" fill="none" xmlns="http://www.w3.org/2000/svg">
<path d="M5 21C3.89543 21 3 20.1046 3 19V5C3 3.89543 3.89543 3 5 3H19C20.1046 3 21 3.89543 21 5V19C21 20.1046 20.1046 21 19 21H5ZM5 19H19V5H5V19Z" fill="currentColor"/>
<path d="M11.9861 16.144C11.4821 16.144 11.0301 16.056 10.6301 15.88C10.2301 15.704 9.91408 15.46 9.68208 15.148C9.45008 14.828 9.33408 14.464 9.33408 14.056C9.33408 13.592 9.45808 13.212 9.70608 12.916C9.96208 12.62 10.2701 12.376 10.6301 12.184V12.136C10.3341 11.912 10.0901 11.656 9.89808 11.368C9.70608 11.08 9.61008 10.736 9.61008 10.336C9.61008 9.904 9.71408 9.532 9.92208 9.22C10.1301 8.9 10.4181 8.656 10.7861 8.488C11.1541 8.32 11.5741 8.236 12.0461 8.236C12.7421 8.236 13.3021 8.428 13.7261 8.812C14.1501 9.188 14.3621 9.692 14.3621 10.324C14.3621 10.692 14.2621 11.02 14.0621 11.308C13.8621 11.588 13.6301 11.816 13.3661 11.992V12.04C13.7341 12.24 14.0461 12.496 14.3021 12.808C14.5581 13.12 14.6861 13.528 14.6861 14.032C14.6861 14.432 14.5741 14.792 14.3501 15.112C14.1261 15.432 13.8101 15.684 13.4021 15.868C13.0021 16.052 12.5301 16.144 11.9861 16.144ZM12.4661 11.56C12.7781 11.2 12.9341 10.828 12.9341 10.444C12.9341 10.148 12.8501 9.912 12.6821 9.736C12.5221 9.552 12.2981 9.46 12.0101 9.46C11.7781 9.46 11.5781 9.532 11.4101 9.676C11.2421 9.82 11.1581 10.04 11.1581 10.336C11.1581 10.648 11.2781 10.892 11.5181 11.068C11.7581 11.244 12.0741 11.408 12.4661 11.56ZM12.0221 14.92C12.3181 14.92 12.5621 14.844 12.7541 14.692C12.9461 14.532 13.0421 14.292 13.0421 13.972C13.0421 13.748 12.9741 13.564 12.8381 13.42C12.7021 13.268 12.5141 13.136 12.2741 13.024C12.0341 12.904 11.7541 12.776 11.4341 12.64C11.2661 12.792 11.1261 12.976 11.0141 13.192C10.9021 13.4 10.8461 13.62 10.8461 13.852C10.8461 14.188 10.9621 14.452 11.1941 14.644C11.4261 14.828 11.7021 14.92 12.0221 14.92Z" fill="currentColor"/>
</svg>
