<svg width="24" height="24" viewBox="0 0 24 24" fill="none" xmlns="http://www.w3.org/2000/svg">
<path d="M5 21C3.89543 21 3 20.1046 3 19V5C3 3.89543 3.89543 3 5 3H19C20.1046 3 21 3.89543 21 5V19C21 20.1046 20.1046 21 19 21H5ZM5 19H19V5H5V19Z" fill="currentColor"/>
<path d="M11.9981 16.144C11.1821 16.144 10.5221 15.804 10.0181 15.124C9.52208 14.444 9.27408 13.456 9.27408 12.16C9.27408 10.864 9.52208 9.888 10.0181 9.232C10.5221 8.568 11.1821 8.236 11.9981 8.236C12.8141 8.236 13.4701 8.568 13.9661 9.232C14.4701 9.888 14.7221 10.864 14.7221 12.16C14.7221 13.456 14.4701 14.444 13.9661 15.124C13.4701 15.804 12.8141 16.144 11.9981 16.144ZM11.9981 14.776C12.1981 14.776 12.3781 14.704 12.5381 14.56C12.6981 14.408 12.8221 14.144 12.9101 13.768C13.0061 13.392 13.0541 12.856 13.0541 12.16C13.0541 11.464 13.0061 10.932 12.9101 10.564C12.8221 10.196 12.6981 9.944 12.5381 9.808C12.3781 9.672 12.1981 9.604 11.9981 9.604C11.8061 9.604 11.6301 9.672 11.4701 9.808C11.3101 9.944 11.1821 10.196 11.0861 10.564C10.9901 10.932 10.9421 11.464 10.9421 12.16C10.9421 12.856 10.9901 13.392 11.0861 13.768C11.1821 14.144 11.3101 14.408 11.4701 14.56C11.6301 14.704 11.8061 14.776 11.9981 14.776Z" fill="currentColor"/>
</svg>
