<svg width="24" height="24" viewBox="0 0 24 24" fill="none" xmlns="http://www.w3.org/2000/svg">
<path d="M5 21C3.89543 21 3 20.1046 3 19V5C3 3.89543 3.89543 3 5 3H19C20.1046 3 21 3.89543 21 5V19C21 20.1046 20.1046 21 19 21H5ZM5 19H19V5H5V19Z" fill="currentColor"/>
<path d="M11.7461 16.144C11.1301 16.144 10.6021 16.044 10.1621 15.844C9.73008 15.644 9.37408 15.384 9.09408 15.064L9.91008 13.948C10.1421 14.172 10.3981 14.356 10.6781 14.5C10.9581 14.644 11.2581 14.716 11.5781 14.716C11.9541 14.716 12.2541 14.64 12.4781 14.488C12.7021 14.328 12.8141 14.104 12.8141 13.816C12.8141 13.592 12.7581 13.4 12.6461 13.24C12.5341 13.072 12.3301 12.944 12.0341 12.856C11.7381 12.768 11.3141 12.724 10.7621 12.724V11.476C11.4501 11.476 11.9221 11.384 12.1781 11.2C12.4341 11.008 12.5621 10.76 12.5621 10.456C12.5621 10.192 12.4821 9.988 12.3221 9.844C12.1621 9.692 11.9301 9.616 11.6261 9.616C11.3541 9.616 11.1061 9.676 10.8821 9.796C10.6661 9.916 10.4381 10.08 10.1981 10.288L9.31008 9.208C9.66208 8.904 10.0341 8.668 10.4261 8.5C10.8181 8.324 11.2461 8.236 11.7101 8.236C12.4941 8.236 13.1261 8.42 13.6061 8.788C14.0941 9.148 14.3381 9.66 14.3381 10.324C14.3381 10.716 14.2261 11.052 14.0021 11.332C13.7861 11.612 13.4741 11.84 13.0661 12.016V12.064C13.5061 12.192 13.8661 12.412 14.1461 12.724C14.4341 13.028 14.5781 13.428 14.5781 13.924C14.5781 14.396 14.4461 14.8 14.1821 15.136C13.9261 15.464 13.5821 15.716 13.1501 15.892C12.7261 16.06 12.2581 16.144 11.7461 16.144Z" fill="currentColor"/>
</svg>
