<svg width="24" height="24" viewBox="0 0 24 24" fill="none" xmlns="http://www.w3.org/2000/svg">
<path d="M5 21C3.89543 21 3 20.1046 3 19V5C3 3.89543 3.89543 3 5 3H19C20.1046 3 21 3.89543 21 5V19C21 20.1046 20.1046 21 19 21H5ZM5 19H19V5H5V19Z" fill="currentColor"/>
<path d="M9.27408 16V14.992C9.92208 14.376 10.4941 13.82 10.9901 13.324C11.4941 12.82 11.8861 12.36 12.1661 11.944C12.4461 11.52 12.5861 11.128 12.5861 10.768C12.5861 10.392 12.4861 10.108 12.2861 9.916C12.0941 9.716 11.8341 9.616 11.5061 9.616C11.2341 9.616 10.9861 9.696 10.7621 9.856C10.5461 10.008 10.3421 10.188 10.1501 10.396L9.19008 9.448C9.56608 9.048 9.95008 8.748 10.3421 8.548C10.7341 8.34 11.2021 8.236 11.7461 8.236C12.2501 8.236 12.6901 8.336 13.0661 8.536C13.4421 8.736 13.7341 9.02 13.9421 9.388C14.1581 9.748 14.2661 10.172 14.2661 10.66C14.2661 11.084 14.1461 11.52 13.9061 11.968C13.6741 12.408 13.3741 12.852 13.0061 13.3C12.6381 13.74 12.2461 14.176 11.8301 14.608C12.0221 14.584 12.2381 14.564 12.4781 14.548C12.7181 14.524 12.9261 14.512 13.1021 14.512H14.6381V16H9.27408Z" fill="currentColor"/>
</svg>
