<?xml version="1.0" encoding="UTF-8"?>
<svg width="558px" height="558px" viewBox="0 0 558 558" version="1.1" xmlns="http://www.w3.org/2000/svg" xmlns:xlink="http://www.w3.org/1999/xlink">
    <!-- Generator: Sketch 59.1 (86144) - https://sketch.com -->
    <title>favicon_7* FINAL</title>
    <desc>Created with Sketch.</desc>
    <g id="favicon_7*-FINAL" stroke="none" stroke-width="1" fill="none" fill-rule="evenodd">
        <polygon id="Fill-1" fill="#FFFFFF" points="-1.13686838e-13 557.661981 557.661981 557.661981 557.661981 0 -1.13686838e-13 0"></polygon>
        <polygon id="Path" fill="#FFC62C" points="0 558 558 558 558 0 0 0"></polygon>
        <polygon id="Fill-1" fill="#FFC62C" points="100 458 558 458 558 0 100 0"></polygon>
        <g id="mosaic-tile-/-thinzig-spaced-right" transform="translate(74.000000, 0.000000)" fill="#011D4B">
            <g id="Group">
                <polygon id="Fill-845" points="350.9 484 364.126132 484 484 364.129178 484 350.9"></polygon>
                <polygon id="Fill-846" points="431.566667 484 444.597534 484 484 444.598363 484 431.566667"></polygon>
                <polygon id="Fill-847" points="270.233333 484 283.508046 484 484 283.508046 484 270.233333"></polygon>
                <polygon id="Fill-848" points="189.566667 484 202.863459 484 484 202.866705 484 189.566667"></polygon>
                <polygon id="Fill-849" points="108.9 484 122.209286 484 484 122.212689 484 108.9"></polygon>
                <polygon id="Fill-850" points="28.2333333 484 41.550903 484 484 41.5508035 484 28.2333333"></polygon>
                <polygon id="Fill-851" points="430.309467 0 0 430.309467 0 443.666667 443.666667 0"></polygon>
                <polygon id="Fill-852" points="349.642458 0 0 349.639168 0 363 363 0"></polygon>
                <polygon id="Fill-853" points="268.975414 0 0 268.975253 0 282.333333 282.333333 0"></polygon>
                <polygon id="Fill-854" points="188.307843 0 0 188.304427 0 201.666667 201.666667 0"></polygon>
                <polygon id="Fill-855" points="107.638687 0 0 107.635648 0 121 121 0"></polygon>
                <polygon id="Fill-856" points="26.9618265 0 0 26.9606929 0 40.3333333 40.3333333 0"></polygon>
            </g>
        </g>
    </g>
</svg>